<?xml version="1.0" encoding="UTF-8"?>
<svg xmlns="http://www.w3.org/2000/svg" xmlns:xlink="http://www.w3.org/1999/xlink" width="100pt" height="100pt" viewBox="0 0 100 100" version="1.1">
<g id="surface1">
<path style="fill:none;stroke-width:10;stroke-linecap:butt;stroke-linejoin:miter;stroke:rgb(80.076599%,80.076599%,80.076599%);stroke-opacity:1;stroke-miterlimit:10;" d="M 50 50 L 50 950 M 162.5 50 L 162.5 950 M 275 50 L 275 950 M 387.5 50 L 387.5 950 M 500 50 L 500 950 M 612.5 50 L 612.5 950 M 725 50 L 725 950 M 837.5 50 L 837.5 950 M 950 50 L 950 950 M 50 50 L 950 50 M 50 162.5 L 950 162.5 M 50 275 L 950 275 M 50 387.5 L 950 387.5 M 50 500 L 950 500 M 50 612.5 L 950 612.5 M 50 725 L 950 725 M 50 837.5 L 950 837.5 M 50 950 L 950 950 " transform="matrix(0.1,0,0,-0.1,0,100)"/>
<path style="fill:none;stroke-width:10;stroke-linecap:butt;stroke-linejoin:miter;stroke:rgb(0%,0%,0%);stroke-opacity:1;stroke-miterlimit:10;" d="M 50 500 L 950 500 M 500 50 L 500 950 " transform="matrix(0.1,0,0,-0.1,0,100)"/>
<path style="fill:none;stroke-width:10;stroke-linecap:butt;stroke-linejoin:miter;stroke:rgb(0%,0%,100%);stroke-opacity:1;stroke-miterlimit:10;" d="M 539.765625 539.765625 L 460.234375 539.765625 L 460.234375 460.234375 M 460.234375 539.765625 L 380.664062 619.335938 M 420.429688 659.101562 L 420.429688 500 " transform="matrix(0.1,0,0,-0.1,0,100)"/>
<path style="fill:none;stroke-width:10;stroke-linecap:butt;stroke-linejoin:miter;stroke:rgb(0%,0%,100%);stroke-opacity:1;stroke-miterlimit:10;" d="M 360.78125 678.984375 C 338.828125 700.9375 312.109375 709.84375 301.132812 698.867188 C 290.15625 687.890625 299.0625 661.171875 321.015625 639.21875 C 342.96875 617.226562 369.6875 608.359375 380.664062 619.335938 C 391.640625 630.3125 382.773438 657.03125 360.78125 678.984375 Z M 360.78125 678.984375 " transform="matrix(0.1,0,0,-0.1,0,100)"/>
</g>
</svg>
