<?xml version="1.0" encoding="UTF-8"?>
<svg xmlns="http://www.w3.org/2000/svg" xmlns:xlink="http://www.w3.org/1999/xlink" width="100pt" height="100pt" viewBox="0 0 100 100" version="1.1">
<g id="surface1">
<path style="fill:none;stroke-width:10;stroke-linecap:butt;stroke-linejoin:miter;stroke:rgb(80.076599%,80.076599%,80.076599%);stroke-opacity:1;stroke-miterlimit:10;" d="M 50 50 L 50 950 M 162.5 50 L 162.5 950 M 275 50 L 275 950 M 387.5 50 L 387.5 950 M 500 50 L 500 950 M 612.5 50 L 612.5 950 M 725 50 L 725 950 M 837.5 50 L 837.5 950 M 950 50 L 950 950 M 50 50 L 950 50 M 50 162.5 L 950 162.5 M 50 275 L 950 275 M 50 387.5 L 950 387.5 M 50 500 L 950 500 M 50 612.5 L 950 612.5 M 50 725 L 950 725 M 50 837.5 L 950 837.5 M 50 950 L 950 950 " transform="matrix(0.1,0,0,-0.1,0,100)"/>
<path style="fill:none;stroke-width:10;stroke-linecap:butt;stroke-linejoin:miter;stroke:rgb(0%,0%,0%);stroke-opacity:1;stroke-miterlimit:10;" d="M 50 500 L 950 500 M 500 50 L 500 950 " transform="matrix(0.1,0,0,-0.1,0,100)"/>
<path style="fill:none;stroke-width:10;stroke-linecap:butt;stroke-linejoin:miter;stroke:rgb(0%,0%,100%);stroke-opacity:1;stroke-miterlimit:10;" d="M 1062.5 387.5 L 950 275 L 1062.5 162.5 M 950 275 L 725 275 M 725 387.5 L 950 162.5 " transform="matrix(0.1,0,0,-0.1,0,100)"/>
<path style="fill:none;stroke-width:10;stroke-linecap:butt;stroke-linejoin:miter;stroke:rgb(0%,0%,100%);stroke-opacity:1;stroke-miterlimit:10;" d="M 612.5 331.25 C 550.351562 331.25 500 306.054688 500 275 C 500 243.945312 550.351562 218.75 612.5 218.75 C 674.648438 218.75 725 243.945312 725 275 C 725 306.054688 674.648438 331.25 612.5 331.25 Z M 612.5 331.25 " transform="matrix(0.1,0,0,-0.1,0,100)"/>
</g>
</svg>
