<?xml version="1.0" encoding="UTF-8"?>
<svg xmlns="http://www.w3.org/2000/svg" xmlns:xlink="http://www.w3.org/1999/xlink" width="160pt" height="160pt" viewBox="0 0 160 160" version="1.1">
<g id="surface1">
<path style="fill:none;stroke-width:10;stroke-linecap:butt;stroke-linejoin:miter;stroke:rgb(0%,0%,0%);stroke-opacity:1;stroke-miterlimit:10;" d="M 50 800 L 1550 800 M 50 50 L 50 1550 " transform="matrix(0.1,0,0,-0.1,0,160)"/>
<path style="fill:none;stroke-width:10;stroke-linecap:butt;stroke-linejoin:miter;stroke:rgb(0%,0%,0%);stroke-opacity:1;stroke-miterlimit:10;" d="M 50 800 L 1550 800 M 50 50 L 50 1550 M 50 780 L 50 820 " transform="matrix(0.1,0,0,-0.1,0,160)"/>
<path style="fill:none;stroke-width:10;stroke-linecap:butt;stroke-linejoin:miter;stroke:rgb(0%,0%,0%);stroke-opacity:1;stroke-miterlimit:10;" d="M 50 800 L 1550 800 M 50 50 L 50 1550 M 200 780 L 200 820 " transform="matrix(0.1,0,0,-0.1,0,160)"/>
<path style="fill:none;stroke-width:10;stroke-linecap:butt;stroke-linejoin:miter;stroke:rgb(0%,0%,0%);stroke-opacity:1;stroke-miterlimit:10;" d="M 50 800 L 1550 800 M 50 50 L 50 1550 M 350 780 L 350 820 " transform="matrix(0.1,0,0,-0.1,0,160)"/>
<path style="fill:none;stroke-width:10;stroke-linecap:butt;stroke-linejoin:miter;stroke:rgb(0%,0%,0%);stroke-opacity:1;stroke-miterlimit:10;" d="M 50 800 L 1550 800 M 50 50 L 50 1550 M 500 780 L 500 820 " transform="matrix(0.1,0,0,-0.1,0,160)"/>
<path style="fill:none;stroke-width:10;stroke-linecap:butt;stroke-linejoin:miter;stroke:rgb(0%,0%,0%);stroke-opacity:1;stroke-miterlimit:10;" d="M 50 800 L 1550 800 M 50 50 L 50 1550 M 650 780 L 650 820 " transform="matrix(0.1,0,0,-0.1,0,160)"/>
<path style="fill:none;stroke-width:10;stroke-linecap:butt;stroke-linejoin:miter;stroke:rgb(0%,0%,0%);stroke-opacity:1;stroke-miterlimit:10;" d="M 50 800 L 1550 800 M 50 50 L 50 1550 M 800 780 L 800 820 " transform="matrix(0.1,0,0,-0.1,0,160)"/>
<path style="fill:none;stroke-width:10;stroke-linecap:butt;stroke-linejoin:miter;stroke:rgb(0%,0%,0%);stroke-opacity:1;stroke-miterlimit:10;" d="M 50 800 L 1550 800 M 50 50 L 50 1550 M 950 780 L 950 820 " transform="matrix(0.1,0,0,-0.1,0,160)"/>
<path style="fill:none;stroke-width:10;stroke-linecap:butt;stroke-linejoin:miter;stroke:rgb(0%,0%,0%);stroke-opacity:1;stroke-miterlimit:10;" d="M 50 800 L 1550 800 M 50 50 L 50 1550 M 1100 780 L 1100 820 " transform="matrix(0.1,0,0,-0.1,0,160)"/>
<path style="fill:none;stroke-width:10;stroke-linecap:butt;stroke-linejoin:miter;stroke:rgb(0%,0%,0%);stroke-opacity:1;stroke-miterlimit:10;" d="M 50 800 L 1550 800 M 50 50 L 50 1550 M 1250 780 L 1250 820 " transform="matrix(0.1,0,0,-0.1,0,160)"/>
<path style="fill:none;stroke-width:10;stroke-linecap:butt;stroke-linejoin:miter;stroke:rgb(0%,0%,0%);stroke-opacity:1;stroke-miterlimit:10;" d="M 50 800 L 1550 800 M 50 50 L 50 1550 M 1400 780 L 1400 820 " transform="matrix(0.1,0,0,-0.1,0,160)"/>
<path style="fill:none;stroke-width:10;stroke-linecap:butt;stroke-linejoin:miter;stroke:rgb(0%,0%,0%);stroke-opacity:1;stroke-miterlimit:10;" d="M 50 800 L 1550 800 M 50 50 L 50 1550 M 1550 780 L 1550 820 " transform="matrix(0.1,0,0,-0.1,0,160)"/>
<path style="fill:none;stroke-width:10;stroke-linecap:butt;stroke-linejoin:miter;stroke:rgb(0%,0%,100%);stroke-opacity:1;stroke-miterlimit:10;" d="M 50 927.109375 L 200 1154.296875 L 350 1258.984375 L 500 1373.046875 L 650 1322.070312 L 800 1196.992188 L 950 988.867188 L 1100 638.671875 L 1250 425.859375 L 1400 436.601562 L 1550 385.46875 " transform="matrix(0.1,0,0,-0.1,0,160)"/>
<path style=" stroke:none;fill-rule:nonzero;fill:rgb(0%,0%,100%);fill-opacity:1;" d="M 7.5 67.289062 C 7.5 65.90625 6.382812 64.789062 5 64.789062 C 3.617188 64.789062 2.5 65.90625 2.5 67.289062 C 2.5 68.667969 3.617188 69.789062 5 69.789062 C 6.382812 69.789062 7.5 68.667969 7.5 67.289062 "/>
<path style=" stroke:none;fill-rule:nonzero;fill:rgb(0%,0%,100%);fill-opacity:1;" d="M 22.5 44.570312 C 22.5 43.191406 21.382812 42.070312 20 42.070312 C 18.617188 42.070312 17.5 43.191406 17.5 44.570312 C 17.5 45.953125 18.617188 47.070312 20 47.070312 C 21.382812 47.070312 22.5 45.953125 22.5 44.570312 "/>
<path style=" stroke:none;fill-rule:nonzero;fill:rgb(0%,0%,100%);fill-opacity:1;" d="M 37.5 34.101562 C 37.5 32.71875 36.382812 31.601562 35 31.601562 C 33.617188 31.601562 32.5 32.71875 32.5 34.101562 C 32.5 35.480469 33.617188 36.601562 35 36.601562 C 36.382812 36.601562 37.5 35.480469 37.5 34.101562 "/>
<path style=" stroke:none;fill-rule:nonzero;fill:rgb(0%,0%,100%);fill-opacity:1;" d="M 52.5 22.695312 C 52.5 21.3125 51.382812 20.195312 50 20.195312 C 48.617188 20.195312 47.5 21.3125 47.5 22.695312 C 47.5 24.074219 48.617188 25.195312 50 25.195312 C 51.382812 25.195312 52.5 24.074219 52.5 22.695312 "/>
<path style=" stroke:none;fill-rule:nonzero;fill:rgb(0%,0%,100%);fill-opacity:1;" d="M 67.5 27.792969 C 67.5 26.410156 66.382812 25.292969 65 25.292969 C 63.617188 25.292969 62.5 26.410156 62.5 27.792969 C 62.5 29.171875 63.617188 30.292969 65 30.292969 C 66.382812 30.292969 67.5 29.171875 67.5 27.792969 "/>
<path style=" stroke:none;fill-rule:nonzero;fill:rgb(0%,0%,100%);fill-opacity:1;" d="M 82.5 40.300781 C 82.5 38.921875 81.382812 37.800781 80 37.800781 C 78.617188 37.800781 77.5 38.921875 77.5 40.300781 C 77.5 41.683594 78.617188 42.800781 80 42.800781 C 81.382812 42.800781 82.5 41.683594 82.5 40.300781 "/>
<path style=" stroke:none;fill-rule:nonzero;fill:rgb(0%,0%,100%);fill-opacity:1;" d="M 97.5 61.113281 C 97.5 59.730469 96.382812 58.613281 95 58.613281 C 93.617188 58.613281 92.5 59.730469 92.5 61.113281 C 92.5 62.492188 93.617188 63.613281 95 63.613281 C 96.382812 63.613281 97.5 62.492188 97.5 61.113281 "/>
<path style=" stroke:none;fill-rule:nonzero;fill:rgb(0%,0%,100%);fill-opacity:1;" d="M 112.5 96.132812 C 112.5 94.75 111.382812 93.632812 110 93.632812 C 108.617188 93.632812 107.5 94.75 107.5 96.132812 C 107.5 97.511719 108.617188 98.632812 110 98.632812 C 111.382812 98.632812 112.5 97.511719 112.5 96.132812 "/>
<path style=" stroke:none;fill-rule:nonzero;fill:rgb(0%,0%,100%);fill-opacity:1;" d="M 127.5 117.414062 C 127.5 116.035156 126.382812 114.914062 125 114.914062 C 123.617188 114.914062 122.5 116.035156 122.5 117.414062 C 122.5 118.796875 123.617188 119.914062 125 119.914062 C 126.382812 119.914062 127.5 118.796875 127.5 117.414062 "/>
<path style=" stroke:none;fill-rule:nonzero;fill:rgb(0%,0%,100%);fill-opacity:1;" d="M 142.5 116.339844 C 142.5 114.960938 141.382812 113.839844 140 113.839844 C 138.617188 113.839844 137.5 114.960938 137.5 116.339844 C 137.5 117.71875 138.617188 118.839844 140 118.839844 C 141.382812 118.839844 142.5 117.71875 142.5 116.339844 "/>
<path style=" stroke:none;fill-rule:nonzero;fill:rgb(0%,0%,100%);fill-opacity:1;" d="M 157.5 121.453125 C 157.5 120.074219 156.382812 118.953125 155 118.953125 C 153.617188 118.953125 152.5 120.074219 152.5 121.453125 C 152.5 122.835938 153.617188 123.953125 155 123.953125 C 156.382812 123.953125 157.5 122.835938 157.5 121.453125 "/>
<path style="fill:none;stroke-width:10;stroke-linecap:butt;stroke-linejoin:miter;stroke:rgb(100%,50%,0%);stroke-opacity:1;stroke-miterlimit:10;" d="M 50 736.445312 L 200 622.851562 L 350 570.507812 L 500 513.476562 L 650 538.984375 L 800 601.523438 L 950 705.546875 L 1100 880.664062 L 1250 987.070312 L 1400 981.679688 L 1550 1007.265625 " transform="matrix(0.1,0,0,-0.1,0,160)"/>
<path style=" stroke:none;fill-rule:nonzero;fill:rgb(100%,50%,0%);fill-opacity:1;" d="M 7.5 86.355469 C 7.5 84.976562 6.382812 83.855469 5 83.855469 C 3.617188 83.855469 2.5 84.976562 2.5 86.355469 C 2.5 87.734375 3.617188 88.855469 5 88.855469 C 6.382812 88.855469 7.5 87.734375 7.5 86.355469 "/>
<path style=" stroke:none;fill-rule:nonzero;fill:rgb(100%,50%,0%);fill-opacity:1;" d="M 22.5 97.714844 C 22.5 96.332031 21.382812 95.214844 20 95.214844 C 18.617188 95.214844 17.5 96.332031 17.5 97.714844 C 17.5 99.09375 18.617188 100.214844 20 100.214844 C 21.382812 100.214844 22.5 99.09375 22.5 97.714844 "/>
<path style=" stroke:none;fill-rule:nonzero;fill:rgb(100%,50%,0%);fill-opacity:1;" d="M 37.5 102.949219 C 37.5 101.570312 36.382812 100.449219 35 100.449219 C 33.617188 100.449219 32.5 101.570312 32.5 102.949219 C 32.5 104.332031 33.617188 105.449219 35 105.449219 C 36.382812 105.449219 37.5 104.332031 37.5 102.949219 "/>
<path style=" stroke:none;fill-rule:nonzero;fill:rgb(100%,50%,0%);fill-opacity:1;" d="M 52.5 108.652344 C 52.5 107.273438 51.382812 106.152344 50 106.152344 C 48.617188 106.152344 47.5 107.273438 47.5 108.652344 C 47.5 110.035156 48.617188 111.152344 50 111.152344 C 51.382812 111.152344 52.5 110.035156 52.5 108.652344 "/>
<path style=" stroke:none;fill-rule:nonzero;fill:rgb(100%,50%,0%);fill-opacity:1;" d="M 67.5 106.101562 C 67.5 104.722656 66.382812 103.601562 65 103.601562 C 63.617188 103.601562 62.5 104.722656 62.5 106.101562 C 62.5 107.484375 63.617188 108.601562 65 108.601562 C 66.382812 108.601562 67.5 107.484375 67.5 106.101562 "/>
<path style=" stroke:none;fill-rule:nonzero;fill:rgb(100%,50%,0%);fill-opacity:1;" d="M 82.5 99.847656 C 82.5 98.46875 81.382812 97.347656 80 97.347656 C 78.617188 97.347656 77.5 98.46875 77.5 99.847656 C 77.5 101.230469 78.617188 102.347656 80 102.347656 C 81.382812 102.347656 82.5 101.230469 82.5 99.847656 "/>
<path style=" stroke:none;fill-rule:nonzero;fill:rgb(100%,50%,0%);fill-opacity:1;" d="M 97.5 89.445312 C 97.5 88.0625 96.382812 86.945312 95 86.945312 C 93.617188 86.945312 92.5 88.0625 92.5 89.445312 C 92.5 90.824219 93.617188 91.945312 95 91.945312 C 96.382812 91.945312 97.5 90.824219 97.5 89.445312 "/>
<path style=" stroke:none;fill-rule:nonzero;fill:rgb(100%,50%,0%);fill-opacity:1;" d="M 112.5 71.933594 C 112.5 70.554688 111.382812 69.433594 110 69.433594 C 108.617188 69.433594 107.5 70.554688 107.5 71.933594 C 107.5 73.316406 108.617188 74.433594 110 74.433594 C 111.382812 74.433594 112.5 73.316406 112.5 71.933594 "/>
<path style=" stroke:none;fill-rule:nonzero;fill:rgb(100%,50%,0%);fill-opacity:1;" d="M 127.5 61.292969 C 127.5 59.910156 126.382812 58.792969 125 58.792969 C 123.617188 58.792969 122.5 59.910156 122.5 61.292969 C 122.5 62.671875 123.617188 63.792969 125 63.792969 C 126.382812 63.792969 127.5 62.671875 127.5 61.292969 "/>
<path style=" stroke:none;fill-rule:nonzero;fill:rgb(100%,50%,0%);fill-opacity:1;" d="M 142.5 61.832031 C 142.5 60.449219 141.382812 59.328125 140 59.328125 C 138.617188 59.328125 137.5 60.449219 137.5 61.832031 C 137.5 63.210938 138.617188 64.332031 140 64.332031 C 141.382812 64.332031 142.5 63.210938 142.5 61.832031 "/>
<path style=" stroke:none;fill-rule:nonzero;fill:rgb(100%,50%,0%);fill-opacity:1;" d="M 157.5 59.273438 C 157.5 57.890625 156.382812 56.773438 155 56.773438 C 153.617188 56.773438 152.5 57.890625 152.5 59.273438 C 152.5 60.652344 153.617188 61.773438 155 61.773438 C 156.382812 61.773438 157.5 60.652344 157.5 59.273438 "/>
</g>
</svg>
