<?xml version="1.0" encoding="UTF-8"?>
<svg xmlns="http://www.w3.org/2000/svg" xmlns:xlink="http://www.w3.org/1999/xlink" width="330pt" height="160pt" viewBox="0 0 330 160" version="1.1">
<defs>
<clipPath id="clip1">
  <path d="M 5 5 L 155 5 L 155 155 L 5 155 Z M 5 5 "/>
</clipPath>
<clipPath id="clip2">
  <path d="M 5 5 L 155 5 L 155 155 L 5 155 Z M 5 5 "/>
</clipPath>
<clipPath id="clip3">
  <path d="M 5 5 L 155 5 L 155 155 L 5 155 Z M 5 5 "/>
</clipPath>
<clipPath id="clip4">
  <path d="M 153 78 L 155 78 L 155 82 L 153 82 Z M 153 78 "/>
</clipPath>
<clipPath id="clip5">
  <path d="M 83 5 L 88 5 L 88 8 L 83 8 Z M 83 5 "/>
</clipPath>
<clipPath id="clip6">
  <path d="M 5 67 L 8 67 L 8 72 L 5 72 Z M 5 67 "/>
</clipPath>
<clipPath id="clip7">
  <path d="M 62 151 L 67 151 L 67 155 L 62 155 Z M 62 151 "/>
</clipPath>
<clipPath id="clip8">
  <path d="M 175 5 L 325 5 L 325 155 L 175 155 Z M 175 5 "/>
</clipPath>
<clipPath id="clip9">
  <path d="M 175 9 L 325 9 L 325 151 L 175 151 Z M 175 9 "/>
</clipPath>
<clipPath id="clip10">
  <path d="M 175 5 L 325 5 L 325 155 L 175 155 Z M 175 5 "/>
</clipPath>
<clipPath id="clip11">
  <path d="M 322 60 L 325 60 L 325 65 L 322 65 Z M 322 60 "/>
</clipPath>
<clipPath id="clip12">
  <path d="M 175 5 L 325 5 L 325 155 L 175 155 Z M 175 5 "/>
</clipPath>
<clipPath id="clip13">
  <path d="M 175 5 L 177 5 L 177 7 L 175 7 Z M 175 5 "/>
</clipPath>
</defs>
<g id="surface1">
<path style="fill:none;stroke-width:10;stroke-linecap:butt;stroke-linejoin:miter;stroke:rgb(50%,50%,50%);stroke-opacity:1;stroke-miterlimit:10;" d="M 50 800 L 1550 800 M 800 50 L 800 1550 " transform="matrix(0.1,0,0,-0.1,0,160)"/>
<g clip-path="url(#clip1)" clip-rule="nonzero">
<path style="fill:none;stroke-width:10;stroke-linecap:butt;stroke-linejoin:miter;stroke:rgb(80.076599%,80.076599%,80.076599%);stroke-opacity:1;stroke-miterlimit:10;" d="M -450 -450 L -450 2050 M -325 -450 L -325 2050 M -200 -450 L -200 2050 M -75 -450 L -75 2050 M 50 -450 L 50 2050 M 175 -450 L 175 2050 M 300 -450 L 300 2050 M 425 -450 L 425 2050 M 550 -450 L 550 2050 M 675 -450 L 675 2050 M 800 -450 L 800 2050 M 925 -450 L 925 2050 M 1050 -450 L 1050 2050 M 1175 -450 L 1175 2050 M 1300 -450 L 1300 2050 M 1425 -450 L 1425 2050 M 1550 -450 L 1550 2050 M 1675 -450 L 1675 2050 M 1800 -450 L 1800 2050 M 1925 -450 L 1925 2050 M 2050 -450 L 2050 2050 M -450 -450 L 2050 -450 M -450 -325 L 2050 -325 M -450 -200 L 2050 -200 M -450 -75 L 2050 -75 M -450 50 L 2050 50 M -450 175 L 2050 175 M -450 300 L 2050 300 M -450 425 L 2050 425 M -450 550 L 2050 550 M -450 675 L 2050 675 M -450 800 L 2050 800 M -450 925 L 2050 925 M -450 1050 L 2050 1050 M -450 1175 L 2050 1175 M -450 1300 L 2050 1300 M -450 1425 L 2050 1425 M -450 1550 L 2050 1550 M -450 1675 L 2050 1675 M -450 1800 L 2050 1800 M -450 1925 L 2050 1925 M -450 2050 L 2050 2050 M -450 -450 L 2050 -450 L 2050 2050 L -450 2050 Z M -450 -450 " transform="matrix(0.1,0,0,-0.1,0,160)"/>
</g>
<path style=" stroke:none;fill-rule:nonzero;fill:rgb(0%,0%,100%);fill-opacity:1;" d="M 89.503906 71.128906 L 92.1875 73.871094 L 94.421875 73.296875 L 88.710938 71.03125 L 90.851562 76.792969 L 91.472656 74.570312 L 88.789062 71.828125 L 89.503906 71.128906 "/>
<path style="fill:none;stroke-width:10;stroke-linecap:butt;stroke-linejoin:miter;stroke:rgb(0%,0%,100%);stroke-opacity:1;stroke-miterlimit:10;" d="M 835.46875 919.882812 L 823.320312 922.8125 L 810.9375 924.53125 L 798.4375 925 L 785.976562 924.21875 L 773.632812 922.1875 L 761.5625 918.945312 L 749.882812 914.53125 L 738.710938 908.945312 L 728.164062 902.265625 L 718.28125 894.609375 L 709.257812 885.976562 L 701.132812 876.484375 L 693.984375 866.210938 L 687.890625 855.3125 L 682.929688 843.867188 L 679.140625 831.953125 L 676.5625 819.726562 L 675.234375 807.304688 L 675.117188 794.804688 L 676.25 782.34375 L 678.632812 770.078125 L 682.226562 758.125 L 686.992188 746.5625 L 692.890625 735.546875 L 699.84375 725.195312 L 707.8125 715.546875 L 716.71875 706.796875 L 726.445312 698.945312 L 736.914062 692.109375 L 747.96875 686.328125 L 759.609375 681.71875 L 771.601562 678.28125 L 783.90625 676.054688 L 796.367188 675.039062 L 808.828125 675.3125 L 821.25 676.835938 L 833.4375 679.570312 L 845.3125 683.476562 L 856.679688 688.59375 L 867.539062 694.804688 L 877.695312 702.070312 L 887.109375 710.3125 L 895.585938 719.492188 L 903.164062 729.414062 L 909.6875 740.078125 L 915.117188 751.328125 L 919.414062 763.046875 L 922.5 775.15625 L 924.375 787.539062 L 925 800 L 924.375 812.460938 L 922.5 824.84375 L 919.414062 836.953125 L 915.117188 848.671875 L 909.6875 859.921875 L 903.164062 870.585938 L 895.585938 880.507812 L 887.109375 889.6875 L 877.695312 897.929688 L 867.539062 905.195312 L 856.679688 911.40625 L 845.3125 916.523438 L 833.4375 920.429688 L 821.25 923.164062 L 808.828125 924.6875 L 796.367188 924.960938 L 783.90625 923.945312 L 771.601562 921.71875 L 759.609375 918.28125 L 747.96875 913.671875 L 736.914062 907.890625 L 726.445312 901.054688 L 716.71875 893.203125 L 707.8125 884.453125 L 699.84375 874.804688 L 692.890625 864.453125 L 686.992188 853.4375 L 682.226562 841.875 L 678.632812 829.921875 L 676.25 817.65625 L 675.117188 805.195312 L 675.234375 792.695312 L 676.5625 780.273438 L 679.140625 768.046875 L 682.929688 756.132812 L 687.890625 744.6875 L 693.984375 733.789062 L 701.132812 723.515625 L 709.257812 714.023438 L 718.28125 705.390625 L 728.164062 697.734375 L 738.710938 691.054688 L 749.882812 685.46875 L 761.5625 681.054688 L 773.632812 677.8125 L 785.976562 675.78125 L 798.4375 675 L 810.9375 675.46875 L 823.320312 677.1875 L 835.46875 680.117188 " transform="matrix(0.1,0,0,-0.1,0,160)"/>
<path style=" stroke:none;fill-rule:nonzero;fill:rgb(0%,0%,0%);fill-opacity:1;" d="M 94.5 80 C 94.5 78.894531 93.605469 78 92.5 78 C 91.394531 78 90.5 78.894531 90.5 80 C 90.5 81.105469 91.394531 82 92.5 82 C 93.605469 82 94.5 81.105469 94.5 80 "/>
<path style=" stroke:none;fill-rule:nonzero;fill:rgb(0%,0%,0%);fill-opacity:1;" d="M 92.96875 74.007812 C 92.96875 72.902344 92.074219 72.007812 90.96875 72.007812 C 89.863281 72.007812 88.96875 72.902344 88.96875 74.007812 C 88.96875 75.113281 89.863281 76.007812 90.96875 76.007812 C 92.074219 76.007812 92.96875 75.113281 92.96875 74.007812 "/>
<path style=" stroke:none;fill-rule:nonzero;fill:rgb(0%,0%,0%);fill-opacity:1;" d="M 88.753906 69.480469 C 88.753906 68.378906 87.859375 67.480469 86.753906 67.480469 C 85.648438 67.480469 84.753906 68.378906 84.753906 69.480469 C 84.753906 70.585938 85.648438 71.480469 86.753906 71.480469 C 87.859375 71.480469 88.753906 70.585938 88.753906 69.480469 "/>
<path style=" stroke:none;fill-rule:nonzero;fill:rgb(0%,0%,0%);fill-opacity:1;" d="M 82.882812 67.53125 C 82.882812 66.425781 81.988281 65.53125 80.882812 65.53125 C 79.78125 65.53125 78.882812 66.425781 78.882812 67.53125 C 78.882812 68.636719 79.78125 69.53125 80.882812 69.53125 C 81.988281 69.53125 82.882812 68.636719 82.882812 67.53125 "/>
<path style=" stroke:none;fill-rule:nonzero;fill:rgb(0%,0%,0%);fill-opacity:1;" d="M 76.796875 68.632812 C 76.796875 67.53125 75.902344 66.632812 74.796875 66.632812 C 73.695312 66.632812 72.796875 67.53125 72.796875 68.632812 C 72.796875 69.738281 73.695312 70.632812 74.796875 70.632812 C 75.902344 70.632812 76.796875 69.738281 76.796875 68.632812 "/>
<path style=" stroke:none;fill-rule:nonzero;fill:rgb(0%,0%,0%);fill-opacity:1;" d="M 71.984375 72.519531 C 71.984375 71.414062 71.089844 70.519531 69.984375 70.519531 C 68.882812 70.519531 67.984375 71.414062 67.984375 72.519531 C 67.984375 73.625 68.882812 74.519531 69.984375 74.519531 C 71.089844 74.519531 71.984375 73.625 71.984375 72.519531 "/>
<path style=" stroke:none;fill-rule:nonzero;fill:rgb(0%,0%,0%);fill-opacity:1;" d="M 69.625 78.234375 C 69.625 77.132812 68.730469 76.234375 67.625 76.234375 C 66.519531 76.234375 65.625 77.132812 65.625 78.234375 C 65.625 79.339844 66.519531 80.234375 67.625 80.234375 C 68.730469 80.234375 69.625 79.339844 69.625 78.234375 "/>
<path style=" stroke:none;fill-rule:nonzero;fill:rgb(0%,0%,0%);fill-opacity:1;" d="M 70.292969 84.386719 C 70.292969 83.28125 69.398438 82.386719 68.292969 82.386719 C 67.191406 82.386719 66.292969 83.28125 66.292969 84.386719 C 66.292969 85.488281 67.191406 86.386719 68.292969 86.386719 C 69.398438 86.386719 70.292969 85.488281 70.292969 84.386719 "/>
<path style=" stroke:none;fill-rule:nonzero;fill:rgb(0%,0%,0%);fill-opacity:1;" d="M 73.828125 89.460938 C 73.828125 88.355469 72.933594 87.460938 71.828125 87.460938 C 70.726562 87.460938 69.828125 88.355469 69.828125 89.460938 C 69.828125 90.566406 70.726562 91.460938 71.828125 91.460938 C 72.933594 91.460938 73.828125 90.566406 73.828125 89.460938 "/>
<path style=" stroke:none;fill-rule:nonzero;fill:rgb(0%,0%,0%);fill-opacity:1;" d="M 79.363281 92.21875 C 79.363281 91.113281 78.46875 90.21875 77.363281 90.21875 C 76.261719 90.21875 75.363281 91.113281 75.363281 92.21875 C 75.363281 93.324219 76.261719 94.21875 77.363281 94.21875 C 78.46875 94.21875 79.363281 93.324219 79.363281 92.21875 "/>
<path style=" stroke:none;fill-rule:nonzero;fill:rgb(0%,0%,0%);fill-opacity:1;" d="M 85.546875 91.988281 C 85.546875 90.882812 84.652344 89.988281 83.546875 89.988281 C 82.441406 89.988281 81.546875 90.882812 81.546875 91.988281 C 81.546875 93.089844 82.441406 93.988281 83.546875 93.988281 C 84.652344 93.988281 85.546875 93.089844 85.546875 91.988281 "/>
<path style=" stroke:none;fill-rule:nonzero;fill:rgb(0%,0%,0%);fill-opacity:1;" d="M 90.859375 88.820312 C 90.859375 87.714844 89.964844 86.820312 88.859375 86.820312 C 87.753906 86.820312 86.859375 87.714844 86.859375 88.820312 C 86.859375 89.921875 87.753906 90.820312 88.859375 90.820312 C 89.964844 90.820312 90.859375 89.921875 90.859375 88.820312 "/>
<path style=" stroke:none;fill-rule:nonzero;fill:rgb(0%,0%,100%);fill-opacity:1;" d="M 98.648438 62.609375 L 100.894531 64.902344 L 103.132812 64.328125 L 97.417969 62.066406 L 99.558594 67.828125 L 100.183594 65.601562 L 97.933594 63.308594 L 98.648438 62.609375 "/>
<path style="fill:none;stroke-width:10;stroke-linecap:butt;stroke-linejoin:miter;stroke:rgb(0%,0%,100%);stroke-opacity:1;stroke-miterlimit:10;" d="M 870.898438 1039.726562 L 846.640625 1045.625 L 821.875 1049.023438 L 796.914062 1049.960938 L 771.953125 1048.4375 L 747.304688 1044.375 L 723.164062 1037.890625 L 699.804688 1029.023438 L 677.421875 1017.890625 L 656.289062 1004.570312 L 636.601562 989.179688 L 618.515625 971.953125 L 602.265625 952.96875 L 587.96875 932.460938 L 575.820312 910.625 L 565.898438 887.695312 L 558.320312 863.90625 L 553.125 839.453125 L 550.429688 814.609375 L 550.234375 789.609375 L 552.5 764.726562 L 557.265625 740.195312 L 564.453125 716.25 L 573.984375 693.164062 L 585.78125 671.132812 L 599.726562 650.390625 L 615.664062 631.132812 L 633.4375 613.554688 L 652.890625 597.890625 L 673.789062 584.179688 L 695.976562 572.695312 L 719.179688 563.4375 L 743.203125 556.523438 L 767.773438 552.070312 L 792.695312 550.117188 L 817.695312 550.625 L 842.5 553.632812 L 866.875 559.101562 L 890.585938 566.992188 L 913.398438 577.1875 L 935.078125 589.648438 L 955.390625 604.179688 L 974.179688 620.664062 L 991.210938 638.945312 L 1006.328125 658.828125 L 1019.375 680.15625 L 1030.273438 702.65625 L 1038.828125 726.132812 L 1045.039062 750.3125 L 1048.75 775.039062 L 1050 800 L 1048.75 824.960938 L 1045.039062 849.6875 L 1038.828125 873.867188 L 1030.273438 897.34375 L 1019.375 919.84375 L 1006.328125 941.171875 L 991.210938 961.054688 L 974.179688 979.335938 L 955.390625 995.820312 L 935.078125 1010.351562 L 913.398438 1022.8125 L 890.585938 1033.007812 L 866.875 1040.898438 L 842.5 1046.367188 L 817.695312 1049.375 L 792.695312 1049.882812 L 767.773438 1047.929688 L 743.203125 1043.476562 L 719.179688 1036.5625 L 695.976562 1027.304688 L 673.789062 1015.78125 L 652.890625 1002.148438 L 633.4375 986.445312 L 615.664062 968.867188 L 599.726562 949.609375 L 585.78125 928.867188 L 573.984375 906.835938 L 564.453125 883.75 L 557.265625 859.804688 L 552.5 835.273438 L 550.234375 810.390625 L 550.429688 785.390625 L 553.125 760.546875 L 558.320312 736.09375 L 565.898438 712.304688 L 575.820312 689.375 L 587.96875 667.539062 L 602.265625 647.03125 L 618.515625 628.046875 L 636.601562 610.820312 L 656.289062 595.429688 L 677.421875 582.109375 L 699.804688 570.9375 L 723.164062 562.109375 L 747.304688 555.625 L 771.953125 551.5625 L 796.914062 550.039062 L 821.875 550.9375 L 846.640625 554.375 L 870.898438 560.273438 " transform="matrix(0.1,0,0,-0.1,0,160)"/>
<path style=" stroke:none;fill-rule:nonzero;fill:rgb(0%,0%,0%);fill-opacity:1;" d="M 107 80 C 107 78.894531 106.105469 78 105 78 C 103.894531 78 103 78.894531 103 80 C 103 81.105469 103.894531 82 105 82 C 106.105469 82 107 81.105469 107 80 "/>
<path style=" stroke:none;fill-rule:nonzero;fill:rgb(0%,0%,0%);fill-opacity:1;" d="M 103.9375 68.015625 C 103.9375 66.910156 103.042969 66.015625 101.9375 66.015625 C 100.835938 66.015625 99.941406 66.910156 99.941406 68.015625 C 99.941406 69.117188 100.835938 70.015625 101.9375 70.015625 C 103.042969 70.015625 103.9375 69.117188 103.9375 68.015625 "/>
<path style=" stroke:none;fill-rule:nonzero;fill:rgb(0%,0%,0%);fill-opacity:1;" d="M 95.507812 58.964844 C 95.507812 57.859375 94.613281 56.964844 93.507812 56.964844 C 92.402344 56.964844 91.507812 57.859375 91.507812 58.964844 C 91.507812 60.066406 92.402344 60.964844 93.507812 60.964844 C 94.613281 60.964844 95.507812 60.066406 95.507812 58.964844 "/>
<path style=" stroke:none;fill-rule:nonzero;fill:rgb(0%,0%,0%);fill-opacity:1;" d="M 83.769531 55.0625 C 83.769531 53.957031 82.871094 53.0625 81.769531 53.0625 C 80.664062 53.0625 79.769531 53.957031 79.769531 55.0625 C 79.769531 56.167969 80.664062 57.0625 81.769531 57.0625 C 82.871094 57.0625 83.769531 56.167969 83.769531 55.0625 "/>
<path style=" stroke:none;fill-rule:nonzero;fill:rgb(0%,0%,0%);fill-opacity:1;" d="M 71.597656 57.269531 C 71.597656 56.164062 70.699219 55.269531 69.597656 55.269531 C 68.492188 55.269531 67.597656 56.164062 67.597656 57.269531 C 67.597656 58.371094 68.492188 59.269531 69.597656 59.269531 C 70.699219 59.269531 71.597656 58.371094 71.597656 57.269531 "/>
<path style=" stroke:none;fill-rule:nonzero;fill:rgb(0%,0%,0%);fill-opacity:1;" d="M 61.972656 65.039062 C 61.972656 63.933594 61.078125 63.039062 59.972656 63.039062 C 58.867188 63.039062 57.972656 63.933594 57.972656 65.039062 C 57.972656 66.144531 58.867188 67.039062 59.972656 67.039062 C 61.078125 67.039062 61.972656 66.144531 61.972656 65.039062 "/>
<path style=" stroke:none;fill-rule:nonzero;fill:rgb(0%,0%,0%);fill-opacity:1;" d="M 57.25 76.472656 C 57.25 75.367188 56.355469 74.472656 55.25 74.472656 C 54.144531 74.472656 53.25 75.367188 53.25 76.472656 C 53.25 77.578125 54.144531 78.472656 55.25 78.472656 C 56.355469 78.472656 57.25 77.578125 57.25 76.472656 "/>
<path style=" stroke:none;fill-rule:nonzero;fill:rgb(0%,0%,0%);fill-opacity:1;" d="M 58.589844 88.769531 C 58.589844 87.664062 57.691406 86.769531 56.589844 86.769531 C 55.484375 86.769531 54.589844 87.664062 54.589844 88.769531 C 54.589844 89.875 55.484375 90.769531 56.589844 90.769531 C 57.691406 90.769531 58.589844 89.875 58.589844 88.769531 "/>
<path style=" stroke:none;fill-rule:nonzero;fill:rgb(0%,0%,0%);fill-opacity:1;" d="M 65.660156 98.917969 C 65.660156 97.816406 64.765625 96.917969 63.660156 96.917969 C 62.554688 96.917969 61.660156 97.816406 61.660156 98.917969 C 61.660156 100.023438 62.554688 100.917969 63.660156 100.917969 C 64.765625 100.917969 65.660156 100.023438 65.660156 98.917969 "/>
<path style=" stroke:none;fill-rule:nonzero;fill:rgb(0%,0%,0%);fill-opacity:1;" d="M 76.730469 104.4375 C 76.730469 103.332031 75.835938 102.4375 74.730469 102.4375 C 73.625 102.4375 72.730469 103.332031 72.730469 104.4375 C 72.730469 105.542969 73.625 106.4375 74.730469 106.4375 C 75.835938 106.4375 76.730469 105.542969 76.730469 104.4375 "/>
<path style=" stroke:none;fill-rule:nonzero;fill:rgb(0%,0%,0%);fill-opacity:1;" d="M 89.089844 103.972656 C 89.089844 102.867188 88.195312 101.972656 87.089844 101.972656 C 85.988281 101.972656 85.089844 102.867188 85.089844 103.972656 C 85.089844 105.078125 85.988281 105.972656 87.089844 105.972656 C 88.195312 105.972656 89.089844 105.078125 89.089844 103.972656 "/>
<path style=" stroke:none;fill-rule:nonzero;fill:rgb(0%,0%,0%);fill-opacity:1;" d="M 99.71875 97.640625 C 99.71875 96.535156 98.820312 95.640625 97.71875 95.640625 C 96.613281 95.640625 95.71875 96.535156 95.71875 97.640625 C 95.71875 98.742188 96.613281 99.640625 97.71875 99.640625 C 98.820312 99.640625 99.71875 98.742188 99.71875 97.640625 "/>
<path style=" stroke:none;fill-rule:nonzero;fill:rgb(0%,0%,100%);fill-opacity:1;" d="M 107.796875 54.089844 L 109.605469 55.9375 L 111.839844 55.359375 L 106.128906 53.097656 L 108.269531 58.859375 L 108.890625 56.636719 L 107.082031 54.789062 L 107.796875 54.089844 "/>
<path style="fill:none;stroke-width:10;stroke-linecap:butt;stroke-linejoin:miter;stroke:rgb(0%,0%,100%);stroke-opacity:1;stroke-miterlimit:10;" d="M 906.367188 1159.609375 L 869.921875 1168.4375 L 832.8125 1173.554688 L 795.351562 1174.960938 L 757.929688 1172.617188 L 720.9375 1166.5625 L 684.765625 1156.835938 L 649.6875 1143.554688 L 616.132812 1126.835938 L 584.453125 1106.875 L 554.882812 1083.789062 L 527.773438 1057.890625 L 503.398438 1029.453125 L 481.953125 998.671875 L 463.710938 965.9375 L 448.828125 931.5625 L 437.460938 895.820312 L 429.6875 859.140625 L 425.625 821.875 L 425.3125 784.414062 L 428.75 747.070312 L 435.898438 710.273438 L 446.679688 674.375 L 460.976562 639.726562 L 478.671875 606.679688 L 499.570312 575.585938 L 523.476562 546.71875 L 550.15625 520.351562 L 579.296875 496.796875 L 610.703125 476.289062 L 643.945312 459.023438 L 678.75 445.15625 L 714.804688 434.804688 L 751.679688 428.125 L 789.0625 425.15625 L 826.523438 425.9375 L 863.75 430.46875 L 900.3125 438.671875 L 935.898438 450.46875 L 970.117188 465.78125 L 1002.617188 484.453125 L 1033.125 506.25 L 1061.289062 530.976562 L 1086.835938 558.4375 L 1109.492188 588.242188 L 1129.101562 620.234375 L 1145.390625 653.984375 L 1158.242188 689.179688 L 1167.539062 725.507812 L 1173.125 762.578125 L 1175 800 L 1173.125 837.421875 L 1167.539062 874.492188 L 1158.242188 910.820312 L 1145.390625 946.015625 L 1129.101562 979.765625 L 1109.492188 1011.757812 L 1086.835938 1041.5625 L 1061.289062 1069.023438 L 1033.125 1093.75 L 1002.617188 1115.546875 L 970.117188 1134.21875 L 935.898438 1149.53125 L 900.3125 1161.328125 L 863.75 1169.53125 L 826.523438 1174.0625 L 789.0625 1174.84375 L 751.679688 1171.875 L 714.804688 1165.195312 L 678.75 1154.84375 L 643.945312 1140.976562 L 610.703125 1123.710938 L 579.296875 1103.203125 L 550.15625 1079.648438 L 523.476562 1053.28125 L 499.570312 1024.414062 L 478.671875 993.320312 L 460.976562 960.273438 L 446.679688 925.625 L 435.898438 889.726562 L 428.75 852.929688 L 425.3125 815.585938 L 425.625 778.125 L 429.6875 740.859375 L 437.460938 704.179688 L 448.828125 668.4375 L 463.710938 634.0625 L 481.953125 601.328125 L 503.398438 570.546875 L 527.773438 542.070312 L 554.882812 516.210938 L 584.453125 493.164062 L 616.132812 473.164062 L 649.6875 456.445312 L 684.765625 443.164062 L 720.9375 433.4375 L 757.929688 427.382812 L 795.351562 425.039062 L 832.8125 426.445312 L 869.921875 431.5625 L 906.367188 440.390625 " transform="matrix(0.1,0,0,-0.1,0,160)"/>
<path style=" stroke:none;fill-rule:nonzero;fill:rgb(0%,0%,0%);fill-opacity:1;" d="M 119.5 80 C 119.5 78.894531 118.605469 78 117.5 78 C 116.394531 78 115.5 78.894531 115.5 80 C 115.5 81.105469 116.394531 82 117.5 82 C 118.605469 82 119.5 81.105469 119.5 80 "/>
<path style=" stroke:none;fill-rule:nonzero;fill:rgb(0%,0%,0%);fill-opacity:1;" d="M 114.910156 62.023438 C 114.910156 60.917969 114.015625 60.023438 112.910156 60.023438 C 111.804688 60.023438 110.910156 60.917969 110.910156 62.023438 C 110.910156 63.125 111.804688 64.023438 112.910156 64.023438 C 114.015625 64.023438 114.910156 63.125 114.910156 62.023438 "/>
<path style=" stroke:none;fill-rule:nonzero;fill:rgb(0%,0%,0%);fill-opacity:1;" d="M 102.261719 48.445312 C 102.261719 47.339844 101.367188 46.445312 100.261719 46.445312 C 99.15625 46.445312 98.261719 47.339844 98.261719 48.445312 C 98.261719 49.550781 99.15625 50.445312 100.261719 50.445312 C 101.367188 50.445312 102.261719 49.550781 102.261719 48.445312 "/>
<path style=" stroke:none;fill-rule:nonzero;fill:rgb(0%,0%,0%);fill-opacity:1;" d="M 84.652344 42.59375 C 84.652344 41.488281 83.757812 40.59375 82.652344 40.59375 C 81.546875 40.59375 80.652344 41.488281 80.652344 42.59375 C 80.652344 43.699219 81.546875 44.59375 82.652344 44.59375 C 83.757812 44.59375 84.652344 43.699219 84.652344 42.59375 "/>
<path style=" stroke:none;fill-rule:nonzero;fill:rgb(0%,0%,0%);fill-opacity:1;" d="M 66.394531 45.902344 C 66.394531 44.796875 65.5 43.902344 64.394531 43.902344 C 63.289062 43.902344 62.394531 44.796875 62.394531 45.902344 C 62.394531 47.007812 63.289062 47.902344 64.394531 47.902344 C 65.5 47.902344 66.394531 47.007812 66.394531 45.902344 "/>
<path style=" stroke:none;fill-rule:nonzero;fill:rgb(0%,0%,0%);fill-opacity:1;" d="M 51.957031 57.558594 C 51.957031 56.453125 51.0625 55.558594 49.957031 55.558594 C 48.851562 55.558594 47.957031 56.453125 47.957031 57.558594 C 47.957031 58.660156 48.851562 59.558594 49.957031 59.558594 C 51.0625 59.558594 51.957031 58.660156 51.957031 57.558594 "/>
<path style=" stroke:none;fill-rule:nonzero;fill:rgb(0%,0%,0%);fill-opacity:1;" d="M 44.875 74.707031 C 44.875 73.601562 43.980469 72.707031 42.875 72.707031 C 41.769531 72.707031 40.875 73.601562 40.875 74.707031 C 40.875 75.8125 41.769531 76.707031 42.875 76.707031 C 43.980469 76.707031 44.875 75.8125 44.875 74.707031 "/>
<path style=" stroke:none;fill-rule:nonzero;fill:rgb(0%,0%,0%);fill-opacity:1;" d="M 46.882812 93.15625 C 46.882812 92.050781 45.988281 91.15625 44.882812 91.15625 C 43.777344 91.15625 42.882812 92.050781 42.882812 93.15625 C 42.882812 94.257812 43.777344 95.15625 44.882812 95.15625 C 45.988281 95.15625 46.882812 94.257812 46.882812 93.15625 "/>
<path style=" stroke:none;fill-rule:nonzero;fill:rgb(0%,0%,0%);fill-opacity:1;" d="M 57.488281 108.378906 C 57.488281 107.277344 56.59375 106.378906 55.488281 106.378906 C 54.382812 106.378906 53.488281 107.277344 53.488281 108.378906 C 53.488281 109.484375 54.382812 110.378906 55.488281 110.378906 C 56.59375 110.378906 57.488281 109.484375 57.488281 108.378906 "/>
<path style=" stroke:none;fill-rule:nonzero;fill:rgb(0%,0%,0%);fill-opacity:1;" d="M 74.09375 116.65625 C 74.09375 115.550781 73.199219 114.65625 72.09375 114.65625 C 70.992188 114.65625 70.09375 115.550781 70.09375 116.65625 C 70.09375 117.761719 70.992188 118.65625 72.09375 118.65625 C 73.199219 118.65625 74.09375 117.761719 74.09375 116.65625 "/>
<path style=" stroke:none;fill-rule:nonzero;fill:rgb(0%,0%,0%);fill-opacity:1;" d="M 92.636719 115.960938 C 92.636719 114.855469 91.742188 113.960938 90.636719 113.960938 C 89.53125 113.960938 88.636719 114.855469 88.636719 115.960938 C 88.636719 117.0625 89.53125 117.960938 90.636719 117.960938 C 91.742188 117.960938 92.636719 117.0625 92.636719 115.960938 "/>
<path style=" stroke:none;fill-rule:nonzero;fill:rgb(0%,0%,0%);fill-opacity:1;" d="M 108.574219 106.457031 C 108.574219 105.351562 107.679688 104.457031 106.574219 104.457031 C 105.46875 104.457031 104.574219 105.351562 104.574219 106.457031 C 104.574219 107.5625 105.46875 108.457031 106.574219 108.457031 C 107.679688 108.457031 108.574219 107.5625 108.574219 106.457031 "/>
<path style=" stroke:none;fill-rule:nonzero;fill:rgb(0%,0%,100%);fill-opacity:1;" d="M 116.941406 45.566406 L 118.3125 46.96875 L 120.550781 46.394531 L 114.835938 44.132812 L 116.976562 49.894531 L 117.597656 47.667969 L 116.226562 46.269531 L 116.941406 45.566406 "/>
<path style="fill:none;stroke-width:10;stroke-linecap:butt;stroke-linejoin:miter;stroke:rgb(0%,0%,100%);stroke-opacity:1;stroke-miterlimit:10;" d="M 941.835938 1279.453125 L 893.242188 1291.210938 L 843.75 1298.085938 L 793.789062 1299.960938 L 743.90625 1296.835938 L 694.609375 1288.789062 L 646.328125 1275.78125 L 599.609375 1258.085938 L 554.882812 1235.78125 L 512.578125 1209.140625 L 473.164062 1178.398438 L 437.03125 1143.867188 L 404.53125 1105.9375 L 375.9375 1064.921875 L 351.601562 1021.25 L 331.757812 975.390625 L 316.601562 927.773438 L 306.25 878.867188 L 300.859375 829.179688 L 300.429688 779.21875 L 305 729.453125 L 314.53125 680.390625 L 328.90625 632.5 L 347.96875 586.328125 L 371.5625 542.265625 L 399.414062 500.78125 L 431.289062 462.265625 L 466.875 427.148438 L 505.742188 395.742188 L 547.578125 368.398438 L 591.914062 345.351562 L 638.359375 326.835938 L 686.40625 313.085938 L 735.585938 304.179688 L 785.390625 300.234375 L 835.351562 301.25 L 885 307.265625 L 933.75 318.242188 L 981.171875 333.984375 L 1026.796875 354.414062 L 1070.15625 379.257812 L 1110.78125 408.320312 L 1148.359375 441.328125 L 1182.421875 477.890625 L 1212.65625 517.695312 L 1238.789062 560.273438 L 1260.546875 605.273438 L 1277.65625 652.226562 L 1290.039062 700.664062 L 1297.5 750.078125 L 1300 800 L 1297.5 849.921875 L 1290.039062 899.335938 L 1277.65625 947.773438 L 1260.546875 994.726562 L 1238.789062 1039.726562 L 1212.65625 1082.304688 L 1182.421875 1122.109375 L 1148.359375 1158.671875 L 1110.78125 1191.640625 L 1070.15625 1220.742188 L 1026.796875 1245.625 L 981.171875 1266.015625 L 933.75 1281.796875 L 885 1292.734375 L 835.351562 1298.75 L 785.390625 1299.804688 L 735.585938 1295.820312 L 686.40625 1286.914062 L 638.359375 1273.164062 L 591.914062 1254.648438 L 547.578125 1231.601562 L 505.742188 1204.257812 L 466.875 1172.851562 L 431.289062 1137.734375 L 399.414062 1099.21875 L 371.5625 1057.734375 L 347.96875 1013.671875 L 328.90625 967.5 L 314.53125 919.609375 L 305 870.546875 L 300.429688 820.78125 L 300.859375 770.820312 L 306.25 721.132812 L 316.601562 672.226562 L 331.757812 624.609375 L 351.601562 578.75 L 375.9375 535.078125 L 404.53125 494.0625 L 437.03125 456.132812 L 473.164062 421.601562 L 512.578125 390.859375 L 554.882812 364.21875 L 599.609375 341.914062 L 646.328125 324.179688 L 694.609375 311.25 L 743.90625 303.164062 L 793.789062 300.039062 L 843.75 301.914062 L 893.242188 308.789062 L 941.835938 320.546875 " transform="matrix(0.1,0,0,-0.1,0,160)"/>
<path style=" stroke:none;fill-rule:nonzero;fill:rgb(0%,0%,0%);fill-opacity:1;" d="M 132 80 C 132 78.894531 131.105469 78 130 78 C 128.894531 78 128 78.894531 128 80 C 128 81.105469 128.894531 82 130 82 C 131.105469 82 132 81.105469 132 80 "/>
<path style=" stroke:none;fill-rule:nonzero;fill:rgb(0%,0%,0%);fill-opacity:1;" d="M 125.878906 56.027344 C 125.878906 54.925781 124.984375 54.027344 123.878906 54.027344 C 122.773438 54.027344 121.878906 54.925781 121.878906 56.027344 C 121.878906 57.132812 122.773438 58.027344 123.878906 58.027344 C 124.984375 58.027344 125.878906 57.132812 125.878906 56.027344 "/>
<path style=" stroke:none;fill-rule:nonzero;fill:rgb(0%,0%,0%);fill-opacity:1;" d="M 109.015625 37.925781 C 109.015625 36.820312 108.121094 35.925781 107.015625 35.925781 C 105.910156 35.925781 105.015625 36.820312 105.015625 37.925781 C 105.015625 39.03125 105.910156 39.925781 107.015625 39.925781 C 108.121094 39.925781 109.015625 39.03125 109.015625 37.925781 "/>
<path style=" stroke:none;fill-rule:nonzero;fill:rgb(0%,0%,0%);fill-opacity:1;" d="M 85.535156 30.125 C 85.535156 29.019531 84.640625 28.125 83.535156 28.125 C 82.433594 28.125 81.535156 29.019531 81.535156 30.125 C 81.535156 31.230469 82.433594 32.125 83.535156 32.125 C 84.640625 32.125 85.535156 31.230469 85.535156 30.125 "/>
<path style=" stroke:none;fill-rule:nonzero;fill:rgb(0%,0%,0%);fill-opacity:1;" d="M 61.191406 34.535156 C 61.191406 33.429688 60.296875 32.535156 59.191406 32.535156 C 58.089844 32.535156 57.191406 33.429688 57.191406 34.535156 C 57.191406 35.640625 58.089844 36.535156 59.191406 36.535156 C 60.296875 36.535156 61.191406 35.640625 61.191406 34.535156 "/>
<path style=" stroke:none;fill-rule:nonzero;fill:rgb(0%,0%,0%);fill-opacity:1;" d="M 41.941406 50.078125 C 41.941406 48.972656 41.046875 48.078125 39.941406 48.078125 C 38.839844 48.078125 37.941406 48.972656 37.941406 50.078125 C 37.941406 51.179688 38.839844 52.078125 39.941406 52.078125 C 41.046875 52.078125 41.941406 51.179688 41.941406 50.078125 "/>
<path style=" stroke:none;fill-rule:nonzero;fill:rgb(0%,0%,0%);fill-opacity:1;" d="M 32.5 72.945312 C 32.5 71.839844 31.605469 70.945312 30.5 70.945312 C 29.394531 70.945312 28.5 71.839844 28.5 72.945312 C 28.5 74.046875 29.394531 74.945312 30.5 74.945312 C 31.605469 74.945312 32.5 74.046875 32.5 72.945312 "/>
<path style=" stroke:none;fill-rule:nonzero;fill:rgb(0%,0%,0%);fill-opacity:1;" d="M 35.175781 97.539062 C 35.175781 96.433594 34.28125 95.539062 33.175781 95.539062 C 32.074219 95.539062 31.175781 96.433594 31.175781 97.539062 C 31.175781 98.644531 32.074219 99.539062 33.175781 99.539062 C 34.28125 99.539062 35.175781 98.644531 35.175781 97.539062 "/>
<path style=" stroke:none;fill-rule:nonzero;fill:rgb(0%,0%,0%);fill-opacity:1;" d="M 49.316406 117.839844 C 49.316406 116.734375 48.421875 115.839844 47.316406 115.839844 C 46.214844 115.839844 45.316406 116.734375 45.316406 117.839844 C 45.316406 118.945312 46.214844 119.839844 47.316406 119.839844 C 48.421875 119.839844 49.316406 118.945312 49.316406 117.839844 "/>
<path style=" stroke:none;fill-rule:nonzero;fill:rgb(0%,0%,0%);fill-opacity:1;" d="M 71.460938 128.875 C 71.460938 127.773438 70.566406 126.875 69.460938 126.875 C 68.355469 126.875 67.460938 127.773438 67.460938 128.875 C 67.460938 129.980469 68.355469 130.875 69.460938 130.875 C 70.566406 130.875 71.460938 129.980469 71.460938 128.875 "/>
<path style=" stroke:none;fill-rule:nonzero;fill:rgb(0%,0%,0%);fill-opacity:1;" d="M 96.183594 127.945312 C 96.183594 126.84375 95.289062 125.945312 94.183594 125.945312 C 93.078125 125.945312 92.183594 126.84375 92.183594 127.945312 C 92.183594 129.050781 93.078125 129.945312 94.183594 129.945312 C 95.289062 129.945312 96.183594 129.050781 96.183594 127.945312 "/>
<path style=" stroke:none;fill-rule:nonzero;fill:rgb(0%,0%,0%);fill-opacity:1;" d="M 117.433594 115.277344 C 117.433594 114.171875 116.539062 113.277344 115.433594 113.277344 C 114.328125 113.277344 113.433594 114.171875 113.433594 115.277344 C 113.433594 116.382812 114.328125 117.277344 115.433594 117.277344 C 116.539062 117.277344 117.433594 116.382812 117.433594 115.277344 "/>
<path style=" stroke:none;fill-rule:nonzero;fill:rgb(0%,0%,100%);fill-opacity:1;" d="M 126.089844 37.046875 L 127.023438 38.003906 L 129.257812 37.425781 L 123.542969 35.164062 L 125.6875 40.925781 L 126.308594 38.703125 L 125.371094 37.746094 L 126.089844 37.046875 "/>
<g clip-path="url(#clip2)" clip-rule="nonzero">
<path style="fill:none;stroke-width:10;stroke-linecap:butt;stroke-linejoin:miter;stroke:rgb(0%,0%,100%);stroke-opacity:1;stroke-miterlimit:10;" d="M 977.304688 1399.335938 L 916.5625 1414.023438 L 854.6875 1422.617188 L 792.265625 1424.960938 L 729.921875 1421.054688 L 668.242188 1410.976562 L 607.929688 1394.765625 L 549.492188 1372.617188 L 493.59375 1344.726562 L 440.742188 1311.40625 L 391.484375 1273.007812 L 346.289062 1229.84375 L 305.664062 1182.421875 L 269.921875 1131.132812 L 239.53125 1076.5625 L 214.726562 1019.257812 L 195.742188 959.726562 L 182.8125 898.59375 L 176.054688 836.484375 L 175.546875 774.023438 L 181.25 711.796875 L 193.164062 650.46875 L 211.09375 590.625 L 234.960938 532.890625 L 264.453125 477.8125 L 299.296875 425.9375 L 339.140625 377.851562 L 383.59375 333.945312 L 432.1875 294.6875 L 484.492188 260.507812 L 539.921875 231.679688 L 597.929688 208.554688 L 658.007812 191.328125 L 719.492188 180.195312 L 781.757812 175.273438 L 844.21875 176.5625 L 906.210938 184.101562 L 967.1875 197.773438 L 1026.484375 217.460938 L 1083.515625 243.007812 L 1137.695312 274.0625 L 1188.515625 310.429688 L 1235.429688 351.640625 L 1278.046875 397.34375 L 1315.859375 447.109375 L 1348.476562 500.351562 L 1375.664062 556.601562 L 1397.109375 615.3125 L 1412.539062 675.820312 L 1421.875 737.617188 L 1425 800 L 1421.875 862.382812 L 1412.539062 924.179688 L 1397.109375 984.6875 L 1375.664062 1043.398438 L 1348.476562 1099.648438 L 1315.859375 1152.890625 L 1278.046875 1202.65625 L 1235.429688 1248.359375 L 1188.515625 1289.570312 L 1137.695312 1325.9375 L 1083.515625 1356.992188 L 1026.484375 1382.539062 L 967.1875 1402.226562 L 906.210938 1415.898438 L 844.21875 1423.4375 L 781.757812 1424.726562 L 719.492188 1419.804688 L 658.007812 1408.671875 L 597.929688 1391.445312 L 539.921875 1368.320312 L 484.492188 1339.492188 L 432.1875 1305.3125 L 383.59375 1266.054688 L 339.140625 1222.148438 L 299.296875 1174.0625 L 264.453125 1122.1875 L 234.960938 1067.109375 L 211.09375 1009.375 L 193.164062 949.53125 L 181.25 888.203125 L 175.546875 825.976562 L 176.054688 763.515625 L 182.8125 701.40625 L 195.742188 640.273438 L 214.726562 580.78125 L 239.53125 523.4375 L 269.921875 468.867188 L 305.664062 417.578125 L 346.289062 370.15625 L 391.484375 326.992188 L 440.742188 288.59375 L 493.59375 255.273438 L 549.492188 227.382812 L 607.929688 205.234375 L 668.242188 189.0625 L 729.921875 178.945312 L 792.265625 175.039062 L 854.6875 177.382812 L 916.5625 185.976562 L 977.304688 200.664062 " transform="matrix(0.1,0,0,-0.1,0,160)"/>
</g>
<path style=" stroke:none;fill-rule:nonzero;fill:rgb(0%,0%,0%);fill-opacity:1;" d="M 144.5 80 C 144.5 78.894531 143.605469 78 142.5 78 C 141.394531 78 140.5 78.894531 140.5 80 C 140.5 81.105469 141.394531 82 142.5 82 C 143.605469 82 144.5 81.105469 144.5 80 "/>
<path style=" stroke:none;fill-rule:nonzero;fill:rgb(0%,0%,0%);fill-opacity:1;" d="M 136.847656 50.035156 C 136.847656 48.929688 135.953125 48.035156 134.847656 48.035156 C 133.742188 48.035156 132.847656 48.929688 132.847656 50.035156 C 132.847656 51.140625 133.742188 52.035156 134.847656 52.035156 C 135.953125 52.035156 136.847656 51.140625 136.847656 50.035156 "/>
<path style=" stroke:none;fill-rule:nonzero;fill:rgb(0%,0%,0%);fill-opacity:1;" d="M 115.769531 27.40625 C 115.769531 26.304688 114.871094 25.40625 113.769531 25.40625 C 112.664062 25.40625 111.769531 26.304688 111.769531 27.40625 C 111.769531 28.511719 112.664062 29.40625 113.769531 29.40625 C 114.871094 29.40625 115.769531 28.511719 115.769531 27.40625 "/>
<path style=" stroke:none;fill-rule:nonzero;fill:rgb(0%,0%,0%);fill-opacity:1;" d="M 86.421875 17.65625 C 86.421875 16.550781 85.527344 15.65625 84.421875 15.65625 C 83.316406 15.65625 82.421875 16.550781 82.421875 17.65625 C 82.421875 18.761719 83.316406 19.65625 84.421875 19.65625 C 85.527344 19.65625 86.421875 18.761719 86.421875 17.65625 "/>
<path style=" stroke:none;fill-rule:nonzero;fill:rgb(0%,0%,0%);fill-opacity:1;" d="M 55.992188 23.167969 C 55.992188 22.0625 55.09375 21.167969 53.992188 21.167969 C 52.886719 21.167969 51.992188 22.0625 51.992188 23.167969 C 51.992188 24.273438 52.886719 25.167969 53.992188 25.167969 C 55.09375 25.167969 55.992188 24.273438 55.992188 23.167969 "/>
<path style=" stroke:none;fill-rule:nonzero;fill:rgb(0%,0%,0%);fill-opacity:1;" d="M 31.929688 42.59375 C 31.929688 41.492188 31.03125 40.59375 29.929688 40.59375 C 28.824219 40.59375 27.929688 41.492188 27.929688 42.59375 C 27.929688 43.699219 28.824219 44.59375 29.929688 44.59375 C 31.03125 44.59375 31.929688 43.699219 31.929688 42.59375 "/>
<path style=" stroke:none;fill-rule:nonzero;fill:rgb(0%,0%,0%);fill-opacity:1;" d="M 20.125 71.179688 C 20.125 70.074219 19.230469 69.179688 18.125 69.179688 C 17.019531 69.179688 16.125 70.074219 16.125 71.179688 C 16.125 72.285156 17.019531 73.179688 18.125 73.179688 C 19.230469 73.179688 20.125 72.285156 20.125 71.179688 "/>
<path style=" stroke:none;fill-rule:nonzero;fill:rgb(0%,0%,0%);fill-opacity:1;" d="M 23.472656 101.921875 C 23.472656 100.820312 22.578125 99.921875 21.472656 99.921875 C 20.367188 99.921875 19.472656 100.820312 19.472656 101.921875 C 19.472656 103.027344 20.367188 103.921875 21.472656 103.921875 C 22.578125 103.921875 23.472656 103.027344 23.472656 101.921875 "/>
<path style=" stroke:none;fill-rule:nonzero;fill:rgb(0%,0%,0%);fill-opacity:1;" d="M 41.148438 127.300781 C 41.148438 126.195312 40.253906 125.300781 39.148438 125.300781 C 38.042969 125.300781 37.148438 126.195312 37.148438 127.300781 C 37.148438 128.40625 38.042969 129.300781 39.148438 129.300781 C 40.253906 129.300781 41.148438 128.40625 41.148438 127.300781 "/>
<path style=" stroke:none;fill-rule:nonzero;fill:rgb(0%,0%,0%);fill-opacity:1;" d="M 68.824219 141.09375 C 68.824219 139.992188 67.929688 139.09375 66.824219 139.09375 C 65.71875 139.09375 64.824219 139.992188 64.824219 141.09375 C 64.824219 142.199219 65.71875 143.09375 66.824219 143.09375 C 67.929688 143.09375 68.824219 142.199219 68.824219 141.09375 "/>
<path style=" stroke:none;fill-rule:nonzero;fill:rgb(0%,0%,0%);fill-opacity:1;" d="M 99.730469 139.933594 C 99.730469 138.828125 98.832031 137.933594 97.730469 137.933594 C 96.625 137.933594 95.730469 138.828125 95.730469 139.933594 C 95.730469 141.039062 96.625 141.933594 97.730469 141.933594 C 98.832031 141.933594 99.730469 141.039062 99.730469 139.933594 "/>
<path style=" stroke:none;fill-rule:nonzero;fill:rgb(0%,0%,0%);fill-opacity:1;" d="M 126.292969 124.097656 C 126.292969 122.992188 125.394531 122.097656 124.292969 122.097656 C 123.1875 122.097656 122.292969 122.992188 122.292969 124.097656 C 122.292969 125.199219 123.1875 126.097656 124.292969 126.097656 C 125.394531 126.097656 126.292969 125.199219 126.292969 124.097656 "/>
<path style=" stroke:none;fill-rule:nonzero;fill:rgb(0%,0%,100%);fill-opacity:1;" d="M 135.234375 28.527344 L 135.730469 29.035156 L 137.96875 28.460938 L 132.253906 26.199219 L 134.394531 31.960938 L 135.015625 29.734375 L 134.519531 29.226562 L 135.234375 28.527344 "/>
<g clip-path="url(#clip3)" clip-rule="nonzero">
<path style="fill:none;stroke-width:10;stroke-linecap:butt;stroke-linejoin:miter;stroke:rgb(0%,0%,100%);stroke-opacity:1;stroke-miterlimit:10;" d="M 1012.734375 1519.179688 L 939.882812 1536.835938 L 865.625 1547.109375 L 790.703125 1549.921875 L 715.898438 1545.273438 L 641.914062 1533.164062 L 569.492188 1513.710938 L 499.414062 1487.148438 L 432.304688 1453.671875 L 368.867188 1413.710938 L 309.765625 1367.617188 L 255.546875 1315.820312 L 206.757812 1258.90625 L 163.945312 1197.382812 L 127.421875 1131.875 L 97.65625 1063.085938 L 74.882812 991.640625 L 59.375 918.320312 L 51.289062 843.789062 L 50.664062 768.828125 L 57.5 694.140625 L 71.796875 620.546875 L 93.320312 548.75 L 121.953125 479.453125 L 157.34375 413.359375 L 199.140625 351.132812 L 246.953125 293.398438 L 300.3125 240.742188 L 358.632812 193.632812 L 421.367188 152.578125 L 487.890625 118.007812 L 557.539062 90.273438 L 629.609375 69.609375 L 703.359375 56.25 L 778.085938 50.3125 L 853.046875 51.875 L 927.460938 60.898438 L 1000.625 77.34375 L 1071.757812 100.976562 L 1140.195312 131.601562 L 1205.234375 168.90625 L 1266.210938 212.5 L 1322.539062 261.992188 L 1373.632812 316.835938 L 1418.984375 376.523438 L 1458.203125 440.429688 L 1490.78125 507.929688 L 1516.484375 578.359375 L 1535.039062 650.976562 L 1546.25 725.117188 L 1550 800 L 1546.25 874.882812 L 1535.039062 949.023438 L 1516.484375 1021.640625 L 1490.78125 1092.070312 L 1458.203125 1159.570312 L 1418.984375 1223.476562 L 1373.632812 1283.164062 L 1322.539062 1338.007812 L 1266.210938 1387.5 L 1205.234375 1431.09375 L 1140.195312 1468.398438 L 1071.757812 1499.023438 L 1000.625 1522.65625 L 927.460938 1539.101562 L 853.046875 1548.125 L 778.085938 1549.6875 L 703.359375 1543.75 L 629.609375 1530.390625 L 557.539062 1509.726562 L 487.890625 1481.953125 L 421.367188 1447.421875 L 358.632812 1406.367188 L 300.3125 1359.296875 L 246.953125 1306.601562 L 199.140625 1248.867188 L 157.34375 1186.640625 L 121.953125 1120.546875 L 93.320312 1051.25 L 71.796875 979.453125 L 57.5 905.859375 L 50.664062 831.171875 L 51.289062 756.210938 L 59.375 681.679688 L 74.882812 608.359375 L 97.65625 536.914062 L 127.421875 468.125 L 163.945312 402.617188 L 206.757812 341.09375 L 255.546875 284.179688 L 309.765625 232.382812 L 368.867188 186.289062 L 432.304688 146.328125 L 499.414062 112.890625 L 569.492188 86.289062 L 641.914062 66.835938 L 715.898438 54.726562 L 790.703125 50.078125 L 865.625 52.890625 L 939.882812 63.164062 L 1012.734375 80.820312 " transform="matrix(0.1,0,0,-0.1,0,160)"/>
</g>
<g clip-path="url(#clip4)" clip-rule="nonzero">
<path style=" stroke:none;fill-rule:nonzero;fill:rgb(0%,0%,0%);fill-opacity:1;" d="M 157 80 C 157 78.894531 156.105469 78 155 78 C 153.894531 78 153 78.894531 153 80 C 153 81.105469 153.894531 82 155 82 C 156.105469 82 157 81.105469 157 80 "/>
</g>
<path style=" stroke:none;fill-rule:nonzero;fill:rgb(0%,0%,0%);fill-opacity:1;" d="M 147.820312 44.042969 C 147.820312 42.9375 146.921875 42.042969 145.820312 42.042969 C 144.714844 42.042969 143.820312 42.9375 143.820312 44.042969 C 143.820312 45.148438 144.714844 46.042969 145.820312 46.042969 C 146.921875 46.042969 147.820312 45.148438 147.820312 44.042969 "/>
<path style=" stroke:none;fill-rule:nonzero;fill:rgb(0%,0%,0%);fill-opacity:1;" d="M 122.523438 16.890625 C 122.523438 15.785156 121.628906 14.890625 120.523438 14.890625 C 119.417969 14.890625 118.523438 15.785156 118.523438 16.890625 C 118.523438 17.992188 119.417969 18.890625 120.523438 18.890625 C 121.628906 18.890625 122.523438 17.992188 122.523438 16.890625 "/>
<g clip-path="url(#clip5)" clip-rule="nonzero">
<path style=" stroke:none;fill-rule:nonzero;fill:rgb(0%,0%,0%);fill-opacity:1;" d="M 87.304688 5.1875 C 87.304688 4.082031 86.410156 3.1875 85.304688 3.1875 C 84.199219 3.1875 83.304688 4.082031 83.304688 5.1875 C 83.304688 6.292969 84.199219 7.1875 85.304688 7.1875 C 86.410156 7.1875 87.304688 6.292969 87.304688 5.1875 "/>
</g>
<path style=" stroke:none;fill-rule:nonzero;fill:rgb(0%,0%,0%);fill-opacity:1;" d="M 50.789062 11.804688 C 50.789062 10.699219 49.894531 9.804688 48.789062 9.804688 C 47.683594 9.804688 46.789062 10.699219 46.789062 11.804688 C 46.789062 12.90625 47.683594 13.804688 48.789062 13.804688 C 49.894531 13.804688 50.789062 12.90625 50.789062 11.804688 "/>
<path style=" stroke:none;fill-rule:nonzero;fill:rgb(0%,0%,0%);fill-opacity:1;" d="M 21.914062 35.113281 C 21.914062 34.011719 21.019531 33.113281 19.914062 33.113281 C 18.808594 33.113281 17.914062 34.011719 17.914062 35.113281 C 17.914062 36.21875 18.808594 37.113281 19.914062 37.113281 C 21.019531 37.113281 21.914062 36.21875 21.914062 35.113281 "/>
<g clip-path="url(#clip6)" clip-rule="nonzero">
<path style=" stroke:none;fill-rule:nonzero;fill:rgb(0%,0%,0%);fill-opacity:1;" d="M 7.75 69.414062 C 7.75 68.3125 6.855469 67.414062 5.75 67.414062 C 4.644531 67.414062 3.75 68.3125 3.75 69.414062 C 3.75 70.519531 4.644531 71.414062 5.75 71.414062 C 6.855469 71.414062 7.75 70.519531 7.75 69.414062 "/>
</g>
<path style=" stroke:none;fill-rule:nonzero;fill:rgb(0%,0%,0%);fill-opacity:1;" d="M 11.765625 106.308594 C 11.765625 105.203125 10.871094 104.308594 9.765625 104.308594 C 8.660156 104.308594 7.765625 105.203125 7.765625 106.308594 C 7.765625 107.414062 8.660156 108.308594 9.765625 108.308594 C 10.871094 108.308594 11.765625 107.414062 11.765625 106.308594 "/>
<path style=" stroke:none;fill-rule:nonzero;fill:rgb(0%,0%,0%);fill-opacity:1;" d="M 32.976562 136.761719 C 32.976562 135.65625 32.082031 134.761719 30.976562 134.761719 C 29.871094 134.761719 28.976562 135.65625 28.976562 136.761719 C 28.976562 137.863281 29.871094 138.761719 30.976562 138.761719 C 32.082031 138.761719 32.976562 137.863281 32.976562 136.761719 "/>
<g clip-path="url(#clip7)" clip-rule="nonzero">
<path style=" stroke:none;fill-rule:nonzero;fill:rgb(0%,0%,0%);fill-opacity:1;" d="M 66.191406 153.316406 C 66.191406 152.210938 65.292969 151.316406 64.191406 151.316406 C 63.085938 151.316406 62.191406 152.210938 62.191406 153.316406 C 62.191406 154.417969 63.085938 155.316406 64.191406 155.316406 C 65.292969 155.316406 66.191406 154.417969 66.191406 153.316406 "/>
</g>
<path style=" stroke:none;fill-rule:nonzero;fill:rgb(0%,0%,0%);fill-opacity:1;" d="M 103.273438 151.917969 C 103.273438 150.816406 102.378906 149.917969 101.273438 149.917969 C 100.171875 149.917969 99.273438 150.816406 99.273438 151.917969 C 99.273438 153.023438 100.171875 153.917969 101.273438 153.917969 C 102.378906 153.917969 103.273438 153.023438 103.273438 151.917969 "/>
<path style=" stroke:none;fill-rule:nonzero;fill:rgb(0%,0%,0%);fill-opacity:1;" d="M 135.148438 132.914062 C 135.148438 131.8125 134.253906 130.914062 133.148438 130.914062 C 132.046875 130.914062 131.148438 131.8125 131.148438 132.914062 C 131.148438 134.019531 132.046875 134.914062 133.148438 134.914062 C 134.253906 134.914062 135.148438 134.019531 135.148438 132.914062 "/>
<path style="fill:none;stroke-width:10;stroke-linecap:butt;stroke-linejoin:miter;stroke:rgb(50%,50%,50%);stroke-opacity:1;stroke-miterlimit:10;" d="M 1750 800 L 3250 800 M 2500 50 L 2500 1550 " transform="matrix(0.1,0,0,-0.1,0,160)"/>
<g clip-path="url(#clip8)" clip-rule="nonzero">
<path style="fill:none;stroke-width:10;stroke-linecap:butt;stroke-linejoin:miter;stroke:rgb(80.076599%,80.076599%,80.076599%);stroke-opacity:1;stroke-miterlimit:10;" d="M 2500 -1075 L 0 1425 M 2625 -1012.5 L 125 1487.5 M 2750 -950 L 250 1550 M 2875 -887.5 L 375 1612.5 M 3000 -825 L 500 1675 M 3125 -762.5 L 625 1737.5 M 3250 -700 L 750 1800 M 3375 -637.5 L 875 1862.5 M 3500 -575 L 1000 1925 M 3625 -512.5 L 1125 1987.5 M 3750 -450 L 1250 2050 M 3875 -387.5 L 1375 2112.5 M 4000 -325 L 1500 2175 M 4125 -262.5 L 1625 2237.5 M 4250 -200 L 1750 2300 M 4375 -137.5 L 1875 2362.5 M 4500 -75 L 2000 2425 M 4625 -12.5 L 2125 2487.5 M 4750 50 L 2250 2550 M 4875 112.5 L 2375 2612.5 M 5000 175 L 2500 2675 M 2500 -1075 L 5000 175 M 2375 -950 L 4875 300 M 2250 -825 L 4750 425 M 2125 -700 L 4625 550 M 2000 -575 L 4500 675 M 1875 -450 L 4375 800 M 1750 -325 L 4250 925 M 1625 -200 L 4125 1050 M 1500 -75 L 4000 1175 M 1375 50 L 3875 1300 M 1250 175 L 3750 1425 M 1125 300 L 3625 1550 M 1000 425 L 3500 1675 M 875 550 L 3375 1800 M 750 675 L 3250 1925 M 625 800 L 3125 2050 M 500 925 L 3000 2175 M 375 1050 L 2875 2300 M 250 1175 L 2750 2425 M 125 1300 L 2625 2550 M 0 1425 L 2500 2675 M 2500 -1075 L 5000 175 L 2500 2675 L 0 1425 Z M 2500 -1075 " transform="matrix(0.1,0,0,-0.1,0,160)"/>
</g>
<path style=" stroke:none;fill-rule:nonzero;fill:rgb(0%,0%,100%);fill-opacity:1;" d="M 231.835938 75.105469 L 231.886719 71.308594 L 229.902344 70.125 L 232.324219 75.773438 L 234.902344 70.195312 L 232.886719 71.320312 L 232.835938 75.121094 L 231.835938 75.105469 "/>
<path style="fill:none;stroke-width:10;stroke-linecap:butt;stroke-linejoin:miter;stroke:rgb(0%,0%,100%);stroke-opacity:1;stroke-miterlimit:10;" d="M 2344.6875 775.507812 L 2353.867188 761.914062 L 2364.53125 748.671875 L 2376.5625 735.9375 L 2389.804688 723.867188 L 2404.140625 712.539062 L 2419.453125 702.109375 L 2435.585938 692.65625 L 2452.34375 684.257812 L 2469.570312 676.992188 L 2487.109375 670.976562 L 2504.765625 666.289062 L 2522.382812 662.890625 L 2539.765625 660.859375 L 2556.796875 660.234375 L 2573.203125 661.015625 L 2588.90625 663.164062 L 2603.710938 666.71875 L 2617.5 671.5625 L 2630.078125 677.695312 L 2641.40625 685.078125 L 2651.289062 693.59375 L 2659.648438 703.164062 L 2666.445312 713.710938 L 2671.5625 725.117188 L 2674.960938 737.265625 L 2676.601562 750.039062 L 2676.484375 763.320312 L 2674.648438 776.953125 L 2671.015625 790.859375 L 2665.664062 804.804688 L 2658.710938 818.75 L 2650.117188 832.460938 L 2640.078125 845.859375 L 2628.59375 858.828125 L 2615.859375 871.171875 L 2601.914062 882.851562 L 2586.992188 893.671875 L 2571.210938 903.554688 L 2554.6875 912.382812 L 2537.65625 920.117188 L 2520.195312 926.640625 L 2502.578125 931.914062 L 2484.921875 935.859375 L 2467.421875 938.4375 L 2450.234375 939.648438 L 2433.554688 939.492188 L 2417.539062 937.890625 L 2402.304688 934.921875 L 2388.125 930.625 L 2375 925 L 2363.125 918.125 L 2352.65625 910.078125 L 2343.632812 900.9375 L 2336.171875 890.78125 L 2330.390625 879.726562 L 2326.25 867.890625 L 2323.867188 855.351562 L 2323.242188 842.265625 L 2324.375 828.75 L 2327.265625 814.960938 L 2331.914062 801.015625 L 2338.203125 787.03125 L 2346.132812 773.203125 L 2355.585938 759.648438 L 2366.484375 746.484375 L 2378.710938 733.867188 L 2392.148438 721.914062 L 2406.679688 710.742188 L 2422.148438 700.429688 L 2438.359375 691.132812 L 2455.195312 682.929688 L 2472.5 675.898438 L 2490.078125 670.117188 L 2507.734375 665.625 L 2525.351562 662.460938 L 2542.65625 660.664062 L 2559.609375 660.273438 L 2575.898438 661.289062 L 2591.445312 663.671875 L 2606.09375 667.421875 L 2619.6875 672.5 L 2632.109375 678.867188 L 2643.164062 686.445312 L 2652.773438 695.117188 L 2660.898438 704.882812 L 2667.421875 715.546875 L 2672.226562 727.109375 L 2675.351562 739.375 L 2676.71875 752.226562 L 2676.289062 765.585938 L 2674.140625 779.296875 L 2670.234375 793.203125 L 2664.609375 807.148438 L 2657.382812 821.054688 L 2648.554688 834.726562 L 2638.242188 848.085938 L 2626.523438 860.9375 L 2613.59375 873.203125 L 2599.492188 884.726562 L 2584.414062 895.390625 " transform="matrix(0.1,0,0,-0.1,0,160)"/>
<path style=" stroke:none;fill-rule:nonzero;fill:rgb(0%,0%,0%);fill-opacity:1;" d="M 239.5 67.5 C 239.5 66.394531 238.605469 65.5 237.5 65.5 C 236.394531 65.5 235.5 66.394531 235.5 67.5 C 235.5 68.605469 236.394531 69.5 237.5 69.5 C 238.605469 69.5 239.5 68.605469 239.5 67.5 "/>
<path style=" stroke:none;fill-rule:nonzero;fill:rgb(0%,0%,0%);fill-opacity:1;" d="M 235.039062 72.027344 C 235.039062 70.921875 234.140625 70.027344 233.039062 70.027344 C 231.933594 70.027344 231.039062 70.921875 231.039062 72.027344 C 231.039062 73.132812 231.933594 74.027344 233.039062 74.027344 C 234.140625 74.027344 235.039062 73.132812 235.039062 72.027344 "/>
<path style=" stroke:none;fill-rule:nonzero;fill:rgb(0%,0%,0%);fill-opacity:1;" d="M 234.726562 78.503906 C 234.726562 77.402344 233.832031 76.503906 232.726562 76.503906 C 231.621094 76.503906 230.726562 77.402344 230.726562 78.503906 C 230.726562 79.609375 231.621094 80.503906 232.726562 80.503906 C 233.832031 80.503906 234.726562 79.609375 234.726562 78.503906 "/>
<path style=" stroke:none;fill-rule:nonzero;fill:rgb(0%,0%,0%);fill-opacity:1;" d="M 238.648438 85.351562 C 238.648438 84.246094 237.753906 83.351562 236.648438 83.351562 C 235.542969 83.351562 234.648438 84.246094 234.648438 85.351562 C 234.648438 86.453125 235.542969 87.351562 236.648438 87.351562 C 237.753906 87.351562 238.648438 86.453125 238.648438 85.351562 "/>
<path style=" stroke:none;fill-rule:nonzero;fill:rgb(0%,0%,0%);fill-opacity:1;" d="M 245.835938 90.886719 C 245.835938 89.78125 244.941406 88.886719 243.835938 88.886719 C 242.730469 88.886719 241.835938 89.78125 241.835938 90.886719 C 241.835938 91.988281 242.730469 92.886719 243.835938 92.886719 C 244.941406 92.886719 245.835938 91.988281 245.835938 90.886719 "/>
<path style=" stroke:none;fill-rule:nonzero;fill:rgb(0%,0%,0%);fill-opacity:1;" d="M 254.535156 93.753906 C 254.535156 92.648438 253.636719 91.753906 252.535156 91.753906 C 251.429688 91.753906 250.535156 92.648438 250.535156 93.753906 C 250.535156 94.859375 251.429688 95.753906 252.535156 95.753906 C 253.636719 95.753906 254.535156 94.859375 254.535156 93.753906 "/>
<path style=" stroke:none;fill-rule:nonzero;fill:rgb(0%,0%,0%);fill-opacity:1;" d="M 262.609375 93.257812 C 262.609375 92.152344 261.714844 91.257812 260.609375 91.257812 C 259.507812 91.257812 258.609375 92.152344 258.609375 93.257812 C 258.609375 94.359375 259.507812 95.257812 260.609375 95.257812 C 261.714844 95.257812 262.609375 94.359375 262.609375 93.257812 "/>
<path style=" stroke:none;fill-rule:nonzero;fill:rgb(0%,0%,0%);fill-opacity:1;" d="M 268.089844 89.511719 C 268.089844 88.410156 267.195312 87.511719 266.089844 87.511719 C 264.984375 87.511719 264.089844 88.410156 264.089844 89.511719 C 264.089844 90.617188 264.984375 91.511719 266.089844 91.511719 C 267.195312 91.511719 268.089844 90.617188 268.089844 89.511719 "/>
<path style=" stroke:none;fill-rule:nonzero;fill:rgb(0%,0%,0%);fill-opacity:1;" d="M 269.628906 83.441406 C 269.628906 82.335938 268.734375 81.441406 267.628906 81.441406 C 266.527344 81.441406 265.628906 82.335938 265.628906 83.441406 C 265.628906 84.542969 266.527344 85.441406 267.628906 85.441406 C 268.734375 85.441406 269.628906 84.542969 269.628906 83.441406 "/>
<path style=" stroke:none;fill-rule:nonzero;fill:rgb(0%,0%,0%);fill-opacity:1;" d="M 266.855469 76.527344 C 266.855469 75.421875 265.960938 74.527344 264.855469 74.527344 C 263.75 74.527344 262.855469 75.421875 262.855469 76.527344 C 262.855469 77.628906 263.75 78.527344 264.855469 78.527344 C 265.960938 78.527344 266.855469 77.628906 266.855469 76.527344 "/>
<path style=" stroke:none;fill-rule:nonzero;fill:rgb(0%,0%,0%);fill-opacity:1;" d="M 260.441406 70.460938 C 260.441406 69.355469 259.546875 68.460938 258.441406 68.460938 C 257.335938 68.460938 256.441406 69.355469 256.441406 70.460938 C 256.441406 71.566406 257.335938 72.460938 258.441406 72.460938 C 259.546875 72.460938 260.441406 71.566406 260.441406 70.460938 "/>
<path style=" stroke:none;fill-rule:nonzero;fill:rgb(0%,0%,0%);fill-opacity:1;" d="M 251.960938 66.730469 C 251.960938 65.628906 251.066406 64.730469 249.960938 64.730469 C 248.855469 64.730469 247.960938 65.628906 247.960938 66.730469 C 247.960938 67.835938 248.855469 68.730469 249.960938 68.730469 C 251.066406 68.730469 251.960938 67.835938 251.960938 66.730469 "/>
<path style=" stroke:none;fill-rule:nonzero;fill:rgb(0%,0%,100%);fill-opacity:1;" d="M 214.167969 70.222656 L 214.210938 67.082031 L 212.226562 65.898438 L 214.648438 71.550781 L 217.226562 65.96875 L 215.210938 67.097656 L 215.167969 70.234375 L 214.167969 70.222656 "/>
<path style="fill:none;stroke-width:10;stroke-linecap:butt;stroke-linejoin:miter;stroke:rgb(0%,0%,100%);stroke-opacity:1;stroke-miterlimit:10;" d="M 2189.335938 751.054688 L 2207.773438 723.828125 L 2229.101562 697.34375 L 2253.125 671.914062 L 2279.609375 647.734375 L 2308.320312 625.117188 L 2338.945312 604.21875 L 2371.171875 585.273438 L 2404.6875 568.476562 L 2439.140625 554.023438 L 2474.21875 541.992188 L 2509.53125 532.539062 L 2544.765625 525.78125 L 2579.570312 521.757812 L 2613.554688 520.507812 L 2646.40625 522.03125 L 2677.8125 526.367188 L 2707.421875 533.398438 L 2734.960938 543.125 L 2760.195312 555.429688 L 2782.773438 570.15625 L 2802.539062 587.1875 L 2819.296875 606.328125 L 2832.851562 627.421875 L 2843.085938 650.234375 L 2849.882812 674.53125 L 2853.203125 700.078125 L 2853.007812 726.640625 L 2849.257812 753.945312 L 2842.03125 781.679688 L 2831.367188 809.609375 L 2817.382812 837.460938 L 2800.273438 864.921875 L 2780.117188 891.757812 L 2757.1875 917.65625 L 2731.679688 942.382812 L 2703.867188 965.664062 L 2674.023438 987.304688 L 2642.421875 1007.109375 L 2609.414062 1024.804688 L 2575.273438 1040.273438 L 2540.429688 1053.320312 L 2505.15625 1063.867188 L 2469.84375 1071.757812 L 2434.84375 1076.914062 L 2400.46875 1079.335938 L 2367.109375 1078.945312 L 2335.039062 1075.78125 L 2304.648438 1069.84375 L 2276.210938 1061.210938 L 2250 1050 L 2226.289062 1036.289062 L 2205.3125 1020.195312 L 2187.304688 1001.875 L 2172.382812 981.601562 L 2160.742188 959.453125 L 2152.5 935.742188 L 2147.734375 910.703125 L 2146.484375 884.492188 L 2148.789062 857.5 L 2154.570312 829.882812 L 2163.789062 801.992188 L 2176.40625 774.101562 L 2192.226562 746.445312 L 2211.132812 719.296875 L 2232.929688 693.007812 L 2257.421875 667.773438 L 2284.296875 643.828125 L 2313.359375 621.484375 L 2344.257812 600.898438 L 2376.71875 582.304688 L 2410.390625 565.898438 L 2445 551.796875 L 2480.15625 540.234375 L 2515.46875 531.210938 L 2550.664062 524.921875 L 2585.351562 521.328125 L 2619.179688 520.546875 L 2651.796875 522.578125 L 2682.929688 527.34375 L 2712.226562 534.84375 L 2739.375 545.039062 L 2764.179688 557.734375 L 2786.289062 572.851562 L 2805.585938 590.234375 L 2821.796875 609.726562 L 2834.804688 631.132812 L 2844.492188 654.21875 L 2850.703125 678.75 L 2853.4375 704.492188 L 2852.617188 731.171875 L 2848.28125 758.59375 L 2840.46875 786.367188 L 2829.257812 814.335938 L 2814.726562 842.109375 L 2797.070312 869.492188 L 2776.445312 896.171875 L 2753.085938 921.914062 L 2727.1875 946.40625 L 2698.984375 969.453125 L 2668.828125 990.78125 " transform="matrix(0.1,0,0,-0.1,0,160)"/>
<path style=" stroke:none;fill-rule:nonzero;fill:rgb(0%,0%,0%);fill-opacity:1;" d="M 227 55 C 227 53.894531 226.105469 53 225 53 C 223.894531 53 223 53.894531 223 55 C 223 56.105469 223.894531 57 225 57 C 226.105469 57 227 56.105469 227 55 "/>
<path style=" stroke:none;fill-rule:nonzero;fill:rgb(0%,0%,0%);fill-opacity:1;" d="M 218.074219 64.054688 C 218.074219 62.949219 217.179688 62.054688 216.074219 62.054688 C 214.96875 62.054688 214.074219 62.949219 214.074219 64.054688 C 214.074219 65.15625 214.96875 66.054688 216.074219 66.054688 C 217.179688 66.054688 218.074219 65.15625 218.074219 64.054688 "/>
<path style=" stroke:none;fill-rule:nonzero;fill:rgb(0%,0%,0%);fill-opacity:1;" d="M 217.457031 77.011719 C 217.457031 75.90625 216.558594 75.011719 215.457031 75.011719 C 214.351562 75.011719 213.457031 75.90625 213.457031 77.011719 C 213.457031 78.113281 214.351562 79.011719 215.457031 79.011719 C 216.558594 79.011719 217.457031 78.113281 217.457031 77.011719 "/>
<path style=" stroke:none;fill-rule:nonzero;fill:rgb(0%,0%,0%);fill-opacity:1;" d="M 225.292969 90.699219 C 225.292969 89.59375 224.398438 88.699219 223.292969 88.699219 C 222.1875 88.699219 221.292969 89.59375 221.292969 90.699219 C 221.292969 91.804688 222.1875 92.699219 223.292969 92.699219 C 224.398438 92.699219 225.292969 91.804688 225.292969 90.699219 "/>
<path style=" stroke:none;fill-rule:nonzero;fill:rgb(0%,0%,0%);fill-opacity:1;" d="M 239.671875 101.769531 C 239.671875 100.664062 238.777344 99.769531 237.671875 99.769531 C 236.566406 99.769531 235.671875 100.664062 235.671875 101.769531 C 235.671875 102.875 236.566406 103.769531 237.671875 103.769531 C 238.777344 103.769531 239.671875 102.875 239.671875 101.769531 "/>
<path style=" stroke:none;fill-rule:nonzero;fill:rgb(0%,0%,0%);fill-opacity:1;" d="M 257.066406 107.507812 C 257.066406 106.40625 256.171875 105.507812 255.066406 105.507812 C 253.960938 105.507812 253.066406 106.40625 253.066406 107.507812 C 253.066406 108.613281 253.960938 109.507812 255.066406 109.507812 C 256.171875 109.507812 257.066406 108.613281 257.066406 107.507812 "/>
<path style=" stroke:none;fill-rule:nonzero;fill:rgb(0%,0%,0%);fill-opacity:1;" d="M 273.222656 106.515625 C 273.222656 105.410156 272.328125 104.515625 271.222656 104.515625 C 270.117188 104.515625 269.222656 105.410156 269.222656 106.515625 C 269.222656 107.617188 270.117188 108.515625 271.222656 108.515625 C 272.328125 108.515625 273.222656 107.617188 273.222656 106.515625 "/>
<path style=" stroke:none;fill-rule:nonzero;fill:rgb(0%,0%,0%);fill-opacity:1;" d="M 284.179688 99.027344 C 284.179688 97.921875 283.285156 97.027344 282.179688 97.027344 C 281.078125 97.027344 280.179688 97.921875 280.179688 99.027344 C 280.179688 100.132812 281.078125 101.027344 282.179688 101.027344 C 283.285156 101.027344 284.179688 100.132812 284.179688 99.027344 "/>
<path style=" stroke:none;fill-rule:nonzero;fill:rgb(0%,0%,0%);fill-opacity:1;" d="M 287.261719 86.882812 C 287.261719 85.777344 286.367188 84.882812 285.261719 84.882812 C 284.15625 84.882812 283.261719 85.777344 283.261719 86.882812 C 283.261719 87.984375 284.15625 88.882812 285.261719 88.882812 C 286.367188 88.882812 287.261719 87.984375 287.261719 86.882812 "/>
<path style=" stroke:none;fill-rule:nonzero;fill:rgb(0%,0%,0%);fill-opacity:1;" d="M 281.707031 73.050781 C 281.707031 71.945312 280.8125 71.050781 279.707031 71.050781 C 278.605469 71.050781 277.707031 71.945312 277.707031 73.050781 C 277.707031 74.15625 278.605469 75.050781 279.707031 75.050781 C 280.8125 75.050781 281.707031 74.15625 281.707031 73.050781 "/>
<path style=" stroke:none;fill-rule:nonzero;fill:rgb(0%,0%,0%);fill-opacity:1;" d="M 268.882812 60.921875 C 268.882812 59.816406 267.984375 58.921875 266.882812 58.921875 C 265.777344 58.921875 264.882812 59.816406 264.882812 60.921875 C 264.882812 62.027344 265.777344 62.921875 266.882812 62.921875 C 267.984375 62.921875 268.882812 62.027344 268.882812 60.921875 "/>
<path style=" stroke:none;fill-rule:nonzero;fill:rgb(0%,0%,0%);fill-opacity:1;" d="M 251.921875 53.464844 C 251.921875 52.359375 251.027344 51.464844 249.921875 51.464844 C 248.816406 51.464844 247.921875 52.359375 247.921875 53.464844 C 247.921875 54.570312 248.816406 55.464844 249.921875 55.464844 C 251.027344 55.464844 251.921875 54.570312 251.921875 53.464844 "/>
<path style=" stroke:none;fill-rule:nonzero;fill:rgb(0%,0%,100%);fill-opacity:1;" d="M 196.5 65.335938 L 196.535156 62.855469 L 194.550781 61.675781 L 196.972656 67.324219 L 199.550781 61.742188 L 197.535156 62.871094 L 197.5 65.347656 L 196.5 65.335938 "/>
<path style="fill:none;stroke-width:10;stroke-linecap:butt;stroke-linejoin:miter;stroke:rgb(0%,0%,100%);stroke-opacity:1;stroke-miterlimit:10;" d="M 2034.023438 726.5625 L 2061.640625 685.742188 L 2093.632812 646.015625 L 2129.6875 607.851562 L 2169.414062 571.640625 L 2212.460938 537.65625 L 2258.398438 506.328125 L 2306.757812 477.929688 L 2356.992188 452.734375 L 2408.710938 431.015625 L 2461.328125 412.96875 L 2514.296875 398.828125 L 2567.1875 388.671875 L 2619.335938 382.617188 L 2670.351562 380.742188 L 2719.648438 383.046875 L 2766.71875 389.53125 L 2811.132812 400.117188 L 2852.460938 414.6875 L 2890.273438 433.125 L 2924.179688 455.195312 L 2953.828125 480.742188 L 2978.945312 509.492188 L 2999.296875 541.09375 L 3014.648438 575.3125 L 3024.84375 611.796875 L 3029.804688 650.117188 L 3029.492188 689.960938 L 3023.867188 730.898438 L 3013.007812 772.539062 L 2997.03125 814.453125 L 2976.09375 856.210938 L 2950.390625 897.382812 L 2920.195312 937.617188 L 2885.78125 976.484375 L 2847.539062 1013.554688 L 2805.78125 1048.515625 L 2761.015625 1080.976562 L 2713.632812 1110.625 L 2664.101562 1137.1875 L 2612.929688 1160.390625 L 2560.625 1179.960938 L 2507.734375 1195.78125 L 2454.765625 1207.617188 L 2402.226562 1215.351562 L 2350.703125 1218.984375 L 2300.625 1218.398438 L 2252.578125 1213.671875 L 2206.992188 1204.765625 L 2164.296875 1191.835938 L 2125 1175 L 2089.453125 1154.414062 L 2057.96875 1130.273438 L 2030.9375 1102.851562 L 2008.554688 1072.382812 L 1991.132812 1039.21875 L 1978.75 1003.632812 L 1971.601562 966.015625 L 1969.726562 926.757812 L 1973.164062 886.210938 L 1981.835938 844.84375 L 1995.703125 803.007812 L 2014.609375 761.132812 L 2038.359375 719.648438 L 2066.71875 678.984375 L 2099.414062 639.492188 L 2136.09375 601.640625 L 2176.445312 565.742188 L 2220 532.1875 L 2266.367188 501.328125 L 2315.078125 473.4375 L 2365.625 448.828125 L 2417.5 427.734375 L 2470.195312 410.3125 L 2523.203125 396.835938 L 2576.015625 387.34375 L 2628.007812 382.03125 L 2678.75 380.859375 L 2727.695312 383.867188 L 2774.375 391.015625 L 2818.320312 402.304688 L 2859.0625 417.539062 L 2896.25 436.601562 L 2929.453125 459.257812 L 2958.398438 485.351562 L 2982.695312 514.609375 L 3002.226562 546.679688 L 3016.71875 581.328125 L 3026.054688 618.125 L 3030.15625 656.71875 L 3028.90625 696.796875 L 3022.421875 737.851562 L 3010.703125 779.570312 L 2993.867188 821.484375 L 2972.109375 863.164062 L 2945.625 904.21875 L 2914.6875 944.257812 L 2879.609375 982.851562 L 2840.742188 1019.609375 L 2798.476562 1054.140625 L 2753.203125 1086.171875 " transform="matrix(0.1,0,0,-0.1,0,160)"/>
<path style=" stroke:none;fill-rule:nonzero;fill:rgb(0%,0%,0%);fill-opacity:1;" d="M 214.5 42.5 C 214.5 41.394531 213.605469 40.5 212.5 40.5 C 211.394531 40.5 210.5 41.394531 210.5 42.5 C 210.5 43.605469 211.394531 44.5 212.5 44.5 C 213.605469 44.5 214.5 43.605469 214.5 42.5 "/>
<path style=" stroke:none;fill-rule:nonzero;fill:rgb(0%,0%,0%);fill-opacity:1;" d="M 201.113281 56.078125 C 201.113281 54.976562 200.21875 54.078125 199.113281 54.078125 C 198.007812 54.078125 197.113281 54.976562 197.113281 56.078125 C 197.113281 57.183594 198.007812 58.078125 199.113281 58.078125 C 200.21875 58.078125 201.113281 57.183594 201.113281 56.078125 "/>
<path style=" stroke:none;fill-rule:nonzero;fill:rgb(0%,0%,0%);fill-opacity:1;" d="M 200.183594 75.515625 C 200.183594 74.410156 199.289062 73.515625 198.183594 73.515625 C 197.078125 73.515625 196.183594 74.410156 196.183594 75.515625 C 196.183594 76.621094 197.078125 77.515625 198.183594 77.515625 C 199.289062 77.515625 200.183594 76.621094 200.183594 75.515625 "/>
<path style=" stroke:none;fill-rule:nonzero;fill:rgb(0%,0%,0%);fill-opacity:1;" d="M 211.941406 96.050781 C 211.941406 94.945312 211.046875 94.050781 209.941406 94.050781 C 208.835938 94.050781 207.941406 94.945312 207.941406 96.050781 C 207.941406 97.15625 208.835938 98.050781 209.941406 98.050781 C 211.046875 98.050781 211.941406 97.15625 211.941406 96.050781 "/>
<path style=" stroke:none;fill-rule:nonzero;fill:rgb(0%,0%,0%);fill-opacity:1;" d="M 233.507812 112.65625 C 233.507812 111.550781 232.609375 110.65625 231.507812 110.65625 C 230.402344 110.65625 229.507812 111.550781 229.507812 112.65625 C 229.507812 113.757812 230.402344 114.65625 231.507812 114.65625 C 232.609375 114.65625 233.507812 113.757812 233.507812 112.65625 "/>
<path style=" stroke:none;fill-rule:nonzero;fill:rgb(0%,0%,0%);fill-opacity:1;" d="M 259.601562 121.265625 C 259.601562 120.160156 258.703125 119.265625 257.601562 119.265625 C 256.496094 119.265625 255.601562 120.160156 255.601562 121.265625 C 255.601562 122.367188 256.496094 123.265625 257.601562 123.265625 C 258.703125 123.265625 259.601562 122.367188 259.601562 121.265625 "/>
<path style=" stroke:none;fill-rule:nonzero;fill:rgb(0%,0%,0%);fill-opacity:1;" d="M 283.832031 119.769531 C 283.832031 118.664062 282.9375 117.769531 281.832031 117.769531 C 280.726562 117.769531 279.832031 118.664062 279.832031 119.769531 C 279.832031 120.875 280.726562 121.769531 281.832031 121.769531 C 282.9375 121.769531 283.832031 120.875 283.832031 119.769531 "/>
<path style=" stroke:none;fill-rule:nonzero;fill:rgb(0%,0%,0%);fill-opacity:1;" d="M 300.269531 108.539062 C 300.269531 107.433594 299.375 106.539062 298.269531 106.539062 C 297.167969 106.539062 296.269531 107.433594 296.269531 108.539062 C 296.269531 109.644531 297.167969 110.539062 298.269531 110.539062 C 299.375 110.539062 300.269531 109.644531 300.269531 108.539062 "/>
<path style=" stroke:none;fill-rule:nonzero;fill:rgb(0%,0%,0%);fill-opacity:1;" d="M 304.890625 90.320312 C 304.890625 89.21875 303.996094 88.320312 302.890625 88.320312 C 301.785156 88.320312 300.890625 89.21875 300.890625 90.320312 C 300.890625 91.425781 301.785156 92.320312 302.890625 92.320312 C 303.996094 92.320312 304.890625 91.425781 304.890625 90.320312 "/>
<path style=" stroke:none;fill-rule:nonzero;fill:rgb(0%,0%,0%);fill-opacity:1;" d="M 296.5625 69.578125 C 296.5625 68.472656 295.667969 67.578125 294.5625 67.578125 C 293.457031 67.578125 292.5625 68.472656 292.5625 69.578125 C 292.5625 70.679688 293.457031 71.578125 294.5625 71.578125 C 295.667969 71.578125 296.5625 70.679688 296.5625 69.578125 "/>
<path style=" stroke:none;fill-rule:nonzero;fill:rgb(0%,0%,0%);fill-opacity:1;" d="M 277.320312 51.382812 C 277.320312 50.277344 276.425781 49.382812 275.320312 49.382812 C 274.21875 49.382812 273.320312 50.277344 273.320312 51.382812 C 273.320312 52.488281 274.21875 53.382812 275.320312 53.382812 C 276.425781 53.382812 277.320312 52.488281 277.320312 51.382812 "/>
<path style=" stroke:none;fill-rule:nonzero;fill:rgb(0%,0%,0%);fill-opacity:1;" d="M 251.882812 40.195312 C 251.882812 39.089844 250.988281 38.195312 249.882812 38.195312 C 248.777344 38.195312 247.882812 39.089844 247.882812 40.195312 C 247.882812 41.300781 248.777344 42.195312 249.882812 42.195312 C 250.988281 42.195312 251.882812 41.300781 251.882812 40.195312 "/>
<path style=" stroke:none;fill-rule:nonzero;fill:rgb(0%,0%,100%);fill-opacity:1;" d="M 178.835938 60.449219 L 178.859375 58.632812 L 176.875 57.449219 L 179.296875 63.097656 L 181.875 57.519531 L 179.859375 58.644531 L 179.835938 60.464844 L 178.835938 60.449219 "/>
<g clip-path="url(#clip9)" clip-rule="nonzero">
<path style="fill:none;stroke-width:10;stroke-linecap:butt;stroke-linejoin:miter;stroke:rgb(0%,0%,100%);stroke-opacity:1;stroke-miterlimit:10;" d="M 1878.710938 702.109375 L 1915.507812 647.65625 L 1958.164062 594.6875 L 2006.210938 543.828125 L 2059.21875 495.507812 L 2116.640625 450.234375 L 2177.851562 408.4375 L 2242.304688 370.546875 L 2309.335938 336.992188 L 2378.28125 308.007812 L 2448.4375 283.984375 L 2519.0625 265.078125 L 2589.53125 251.5625 L 2659.140625 243.476562 L 2727.109375 240.976562 L 2792.851562 244.0625 L 2855.625 252.734375 L 2914.882812 266.835938 L 2969.960938 286.25 L 3020.351562 310.820312 L 3065.546875 340.273438 L 3105.117188 374.335938 L 3138.59375 412.65625 L 3165.742188 454.804688 L 3186.210938 500.429688 L 3199.804688 549.0625 L 3206.445312 600.15625 L 3205.976562 653.28125 L 3198.515625 707.890625 L 3184.023438 763.398438 L 3162.734375 819.257812 L 3134.804688 874.921875 L 3100.507812 929.84375 L 3060.234375 983.476562 L 3014.375 1035.273438 L 2963.398438 1084.726562 L 2907.734375 1131.367188 L 2848.046875 1174.648438 L 2784.84375 1214.179688 L 2718.789062 1249.609375 L 2650.585938 1280.507812 L 2580.859375 1306.640625 L 2510.3125 1327.695312 L 2439.6875 1343.476562 L 2369.648438 1353.828125 L 2300.9375 1358.632812 L 2234.179688 1357.890625 L 2170.078125 1351.5625 L 2109.296875 1339.6875 L 2052.421875 1322.460938 L 2000 1300 L 1952.578125 1272.539062 L 1910.625 1240.351562 L 1874.570312 1203.789062 L 1844.765625 1163.164062 L 1821.484375 1118.945312 L 1805 1071.523438 L 1795.46875 1021.367188 L 1792.96875 969.023438 L 1797.539062 914.960938 L 1809.101562 859.765625 L 1827.617188 803.984375 L 1852.8125 748.164062 L 1884.453125 692.851562 L 1922.304688 638.632812 L 1965.898438 585.976562 L 2014.804688 535.507812 L 2068.59375 487.65625 L 2126.679688 442.929688 L 2188.515625 401.796875 L 2253.4375 364.609375 L 2320.820312 331.757812 L 2390 303.632812 L 2460.273438 280.429688 L 2530.976562 262.421875 L 2601.328125 249.804688 L 2670.703125 242.695312 L 2738.359375 241.132812 L 2803.632812 245.15625 L 2865.859375 254.6875 L 2924.453125 269.726562 L 2978.789062 290.039062 L 3028.359375 315.429688 L 3072.617188 345.703125 L 3111.171875 380.46875 L 3143.632812 419.453125 L 3169.648438 462.265625 L 3188.984375 508.398438 L 3201.40625 557.460938 L 3206.835938 608.984375 L 3205.234375 662.382812 L 3196.5625 717.148438 L 3180.9375 772.773438 L 3158.476562 828.632812 L 3129.453125 884.21875 L 3094.140625 938.984375 L 3052.929688 992.34375 L 3006.171875 1043.789062 L 2954.335938 1092.773438 L 2897.96875 1138.867188 L 2837.617188 1181.5625 " transform="matrix(0.1,0,0,-0.1,0,160)"/>
</g>
<path style=" stroke:none;fill-rule:nonzero;fill:rgb(0%,0%,0%);fill-opacity:1;" d="M 202 30 C 202 28.894531 201.105469 28 200 28 C 198.894531 28 198 28.894531 198 30 C 198 31.105469 198.894531 32 200 32 C 201.105469 32 202 31.105469 202 30 "/>
<path style=" stroke:none;fill-rule:nonzero;fill:rgb(0%,0%,0%);fill-opacity:1;" d="M 184.148438 48.105469 C 184.148438 47.003906 183.253906 46.105469 182.148438 46.105469 C 181.046875 46.105469 180.148438 47.003906 180.148438 48.105469 C 180.148438 49.210938 181.046875 50.105469 182.148438 50.105469 C 183.253906 50.105469 184.148438 49.210938 184.148438 48.105469 "/>
<path style=" stroke:none;fill-rule:nonzero;fill:rgb(0%,0%,0%);fill-opacity:1;" d="M 182.910156 74.023438 C 182.910156 72.917969 182.015625 72.023438 180.910156 72.023438 C 179.808594 72.023438 178.910156 72.917969 178.910156 74.023438 C 178.910156 75.125 179.808594 76.023438 180.910156 76.023438 C 182.015625 76.023438 182.910156 75.125 182.910156 74.023438 "/>
<path style=" stroke:none;fill-rule:nonzero;fill:rgb(0%,0%,0%);fill-opacity:1;" d="M 198.589844 101.402344 C 198.589844 100.296875 197.691406 99.402344 196.589844 99.402344 C 195.484375 99.402344 194.589844 100.296875 194.589844 101.402344 C 194.589844 102.503906 195.484375 103.402344 196.589844 103.402344 C 197.691406 103.402344 198.589844 102.503906 198.589844 101.402344 "/>
<path style=" stroke:none;fill-rule:nonzero;fill:rgb(0%,0%,0%);fill-opacity:1;" d="M 227.34375 123.539062 C 227.34375 122.433594 226.445312 121.539062 225.34375 121.539062 C 224.238281 121.539062 223.34375 122.433594 223.34375 123.539062 C 223.34375 124.644531 224.238281 125.539062 225.34375 125.539062 C 226.445312 125.539062 227.34375 124.644531 227.34375 123.539062 "/>
<path style=" stroke:none;fill-rule:nonzero;fill:rgb(0%,0%,0%);fill-opacity:1;" d="M 262.132812 135.019531 C 262.132812 133.914062 261.238281 133.019531 260.132812 133.019531 C 259.027344 133.019531 258.132812 133.914062 258.132812 135.019531 C 258.132812 136.125 259.027344 137.019531 260.132812 137.019531 C 261.238281 137.019531 262.132812 136.125 262.132812 135.019531 "/>
<path style=" stroke:none;fill-rule:nonzero;fill:rgb(0%,0%,0%);fill-opacity:1;" d="M 294.445312 133.027344 C 294.445312 131.921875 293.546875 131.027344 292.445312 131.027344 C 291.339844 131.027344 290.445312 131.921875 290.445312 133.027344 C 290.445312 134.132812 291.339844 135.027344 292.445312 135.027344 C 293.546875 135.027344 294.445312 134.132812 294.445312 133.027344 "/>
<path style=" stroke:none;fill-rule:nonzero;fill:rgb(0%,0%,0%);fill-opacity:1;" d="M 316.363281 118.054688 C 316.363281 116.949219 315.46875 116.054688 314.363281 116.054688 C 313.257812 116.054688 312.363281 116.949219 312.363281 118.054688 C 312.363281 119.15625 313.257812 120.054688 314.363281 120.054688 C 315.46875 120.054688 316.363281 119.15625 316.363281 118.054688 "/>
<path style=" stroke:none;fill-rule:nonzero;fill:rgb(0%,0%,0%);fill-opacity:1;" d="M 322.523438 93.761719 C 322.523438 92.65625 321.628906 91.761719 320.523438 91.761719 C 319.417969 91.761719 318.523438 92.65625 318.523438 93.761719 C 318.523438 94.867188 319.417969 95.761719 320.523438 95.761719 C 321.628906 95.761719 322.523438 94.867188 322.523438 93.761719 "/>
<path style=" stroke:none;fill-rule:nonzero;fill:rgb(0%,0%,0%);fill-opacity:1;" d="M 311.414062 66.101562 C 311.414062 64.996094 310.519531 64.101562 309.414062 64.101562 C 308.3125 64.101562 307.414062 64.996094 307.414062 66.101562 C 307.414062 67.207031 308.3125 68.101562 309.414062 68.101562 C 310.519531 68.101562 311.414062 67.207031 311.414062 66.101562 "/>
<path style=" stroke:none;fill-rule:nonzero;fill:rgb(0%,0%,0%);fill-opacity:1;" d="M 285.761719 41.84375 C 285.761719 40.738281 284.867188 39.84375 283.761719 39.84375 C 282.660156 39.84375 281.761719 40.738281 281.761719 41.84375 C 281.761719 42.949219 282.660156 43.84375 283.761719 43.84375 C 284.867188 43.84375 285.761719 42.949219 285.761719 41.84375 "/>
<path style=" stroke:none;fill-rule:nonzero;fill:rgb(0%,0%,0%);fill-opacity:1;" d="M 251.84375 26.929688 C 251.84375 25.824219 250.949219 24.929688 249.84375 24.929688 C 248.738281 24.929688 247.84375 25.824219 247.84375 26.929688 C 247.84375 28.03125 248.738281 28.929688 249.84375 28.929688 C 250.949219 28.929688 251.84375 28.03125 251.84375 26.929688 "/>
<g clip-path="url(#clip10)" clip-rule="nonzero">
<path style="fill:none;stroke-width:10;stroke-linecap:butt;stroke-linejoin:miter;stroke:rgb(0%,0%,100%);stroke-opacity:1;stroke-miterlimit:10;" d="M 1723.398438 677.617188 L 1769.414062 609.570312 L 1822.695312 543.398438 L 1882.773438 479.765625 L 1949.023438 419.375 L 2020.78125 362.773438 L 2097.34375 310.546875 L 2177.890625 263.203125 L 2261.679688 221.210938 L 2347.851562 185.039062 L 2435.546875 154.960938 L 2523.867188 131.367188 L 2611.953125 114.453125 L 2698.90625 104.375 L 2783.90625 101.25 L 2866.054688 105.078125 L 2944.53125 115.898438 L 3018.59375 133.515625 L 3087.460938 157.8125 L 3150.46875 188.515625 L 3206.953125 225.351562 L 3256.367188 267.929688 L 3298.242188 315.78125 L 3332.148438 368.515625 L 3357.734375 425.546875 L 3374.765625 486.328125 L 3383.046875 550.195312 L 3382.5 616.601562 L 3373.125 684.84375 L 3355.039062 754.21875 L 3328.398438 824.0625 L 3293.476562 893.671875 L 3250.664062 962.304688 L 3200.3125 1029.375 L 3142.96875 1094.101562 L 3079.21875 1155.9375 L 3009.6875 1214.179688 L 2935.039062 1268.28125 L 2856.054688 1317.734375 L 2773.515625 1361.992188 L 2688.242188 1400.664062 L 2601.054688 1433.28125 L 2512.890625 1459.609375 L 2424.609375 1479.335938 L 2337.070312 1492.304688 L 2251.132812 1498.320312 L 2167.734375 1497.34375 L 2087.617188 1489.414062 L 2011.640625 1474.648438 L 1940.507812 1453.085938 L 1875 1425 L 1815.742188 1390.664062 L 1763.28125 1350.46875 L 1718.203125 1304.726562 L 1680.9375 1253.984375 L 1651.875 1198.671875 L 1631.289062 1139.375 L 1619.335938 1076.71875 L 1616.210938 1011.289062 L 1621.914062 943.710938 L 1636.40625 874.726562 L 1659.492188 805 L 1691.015625 735.195312 L 1730.585938 666.054688 L 1777.851562 598.28125 L 1832.34375 532.5 L 1893.515625 469.375 L 1960.742188 409.570312 L 2033.359375 353.671875 L 2110.625 302.226562 L 2191.796875 255.742188 L 2276.015625 214.726562 L 2362.5 179.53125 L 2450.351562 150.546875 L 2538.710938 128.046875 L 2626.679688 112.265625 L 2713.359375 103.359375 L 2797.929688 101.40625 L 2879.53125 106.445312 L 2957.304688 118.398438 L 3030.546875 137.148438 L 3098.476562 162.539062 L 3160.429688 194.296875 L 3215.78125 232.109375 L 3263.945312 275.625 L 3304.53125 324.335938 L 3337.03125 377.8125 L 3361.210938 435.507812 L 3376.757812 496.835938 L 3383.554688 561.210938 L 3381.523438 627.96875 L 3370.703125 696.445312 L 3351.132812 765.9375 L 3323.085938 835.820312 L 3286.835938 905.3125 L 3242.695312 973.710938 L 3191.132812 1040.429688 L 3132.695312 1104.726562 L 3067.929688 1165.976562 L 2997.460938 1223.59375 L 2922.03125 1276.953125 " transform="matrix(0.1,0,0,-0.1,0,160)"/>
</g>
<path style=" stroke:none;fill-rule:nonzero;fill:rgb(0%,0%,0%);fill-opacity:1;" d="M 189.5 17.5 C 189.5 16.394531 188.605469 15.5 187.5 15.5 C 186.394531 15.5 185.5 16.394531 185.5 17.5 C 185.5 18.605469 186.394531 19.5 187.5 19.5 C 188.605469 19.5 189.5 18.605469 189.5 17.5 "/>
<path style=" stroke:none;fill-rule:nonzero;fill:rgb(0%,0%,0%);fill-opacity:1;" d="M 185.234375 106.75 C 185.234375 105.644531 184.339844 104.75 183.234375 104.75 C 182.132812 104.75 181.234375 105.644531 181.234375 106.75 C 181.234375 107.855469 182.132812 108.75 183.234375 108.75 C 184.339844 108.75 185.234375 107.855469 185.234375 106.75 "/>
<path style=" stroke:none;fill-rule:nonzero;fill:rgb(0%,0%,0%);fill-opacity:1;" d="M 221.179688 134.425781 C 221.179688 133.320312 220.28125 132.425781 219.179688 132.425781 C 218.074219 132.425781 217.179688 133.320312 217.179688 134.425781 C 217.179688 135.53125 218.074219 136.425781 219.179688 136.425781 C 220.28125 136.425781 221.179688 135.53125 221.179688 134.425781 "/>
<path style=" stroke:none;fill-rule:nonzero;fill:rgb(0%,0%,0%);fill-opacity:1;" d="M 264.667969 148.773438 C 264.667969 147.667969 263.769531 146.773438 262.667969 146.773438 C 261.5625 146.773438 260.667969 147.667969 260.667969 148.773438 C 260.667969 149.878906 261.5625 150.773438 262.667969 150.773438 C 263.769531 150.773438 264.667969 149.878906 264.667969 148.773438 "/>
<path style=" stroke:none;fill-rule:nonzero;fill:rgb(0%,0%,0%);fill-opacity:1;" d="M 305.054688 146.285156 C 305.054688 145.179688 304.160156 144.285156 303.054688 144.285156 C 301.949219 144.285156 301.054688 145.179688 301.054688 146.285156 C 301.054688 147.390625 301.949219 148.285156 303.054688 148.285156 C 304.160156 148.285156 305.054688 147.390625 305.054688 146.285156 "/>
<g clip-path="url(#clip11)" clip-rule="nonzero">
<path style=" stroke:none;fill-rule:nonzero;fill:rgb(0%,0%,0%);fill-opacity:1;" d="M 326.269531 62.628906 C 326.269531 61.523438 325.375 60.628906 324.269531 60.628906 C 323.164062 60.628906 322.269531 61.523438 322.269531 62.628906 C 322.269531 63.730469 323.164062 64.628906 324.269531 64.628906 C 325.375 64.628906 326.269531 63.730469 326.269531 62.628906 "/>
</g>
<path style=" stroke:none;fill-rule:nonzero;fill:rgb(0%,0%,0%);fill-opacity:1;" d="M 294.203125 32.304688 C 294.203125 31.199219 293.308594 30.304688 292.203125 30.304688 C 291.097656 30.304688 290.203125 31.199219 290.203125 32.304688 C 290.203125 33.410156 291.097656 34.304688 292.203125 34.304688 C 293.308594 34.304688 294.203125 33.410156 294.203125 32.304688 "/>
<path style=" stroke:none;fill-rule:nonzero;fill:rgb(0%,0%,0%);fill-opacity:1;" d="M 251.804688 13.660156 C 251.804688 12.554688 250.910156 11.660156 249.804688 11.660156 C 248.699219 11.660156 247.804688 12.554688 247.804688 13.660156 C 247.804688 14.765625 248.699219 15.660156 249.804688 15.660156 C 250.910156 15.660156 251.804688 14.765625 251.804688 13.660156 "/>
<g clip-path="url(#clip12)" clip-rule="nonzero">
<path style="fill:none;stroke-width:10;stroke-linecap:butt;stroke-linejoin:miter;stroke:rgb(0%,0%,100%);stroke-opacity:1;stroke-miterlimit:10;" d="M 1568.046875 653.164062 L 1623.28125 571.484375 L 1687.265625 492.070312 L 1759.335938 415.742188 L 1838.867188 343.242188 L 1924.960938 275.3125 L 2016.796875 212.65625 L 2113.476562 155.859375 L 2214.023438 105.46875 L 2317.421875 62.03125 L 2422.617188 25.976562 L 2528.632812 -2.34375 L 2634.335938 -22.65625 L 2738.710938 -34.765625 L 2840.664062 -38.515625 L 2939.257812 -33.867188 L 3033.4375 -20.9375 L 3122.304688 0.234375 L 3204.921875 29.375 L 3280.546875 66.25 L 3348.359375 110.429688 L 3407.65625 161.484375 L 3457.890625 218.945312 L 3498.59375 282.226562 L 3529.296875 350.664062 L 3549.726562 423.554688 L 3559.648438 500.273438 L 3558.984375 579.921875 L 3547.734375 661.796875 L 3526.054688 745.078125 L 3494.0625 828.867188 L 3452.1875 912.382812 L 3400.78125 994.804688 L 3340.390625 1075.234375 L 3271.5625 1152.929688 L 3195.078125 1227.109375 L 3111.601562 1297.03125 L 3022.03125 1361.953125 L 2927.265625 1421.289062 L 2828.203125 1474.414062 L 2725.898438 1520.78125 L 2621.289062 1559.960938 L 2515.507812 1591.523438 L 2409.53125 1615.195312 L 2304.492188 1630.742188 L 2201.367188 1637.96875 L 2101.289062 1636.835938 L 2005.15625 1627.304688 L 1913.945312 1609.53125 L 1828.632812 1583.671875 L 1750 1550 L 1678.867188 1508.828125 L 1615.9375 1460.546875 L 1561.875 1405.664062 L 1517.148438 1344.765625 L 1482.226562 1278.398438 L 1457.539062 1207.265625 L 1443.203125 1132.03125 L 1439.453125 1053.515625 L 1446.289062 972.460938 L 1463.671875 889.6875 L 1491.40625 805.976562 L 1529.21875 722.265625 L 1576.71875 639.296875 L 1633.4375 557.929688 L 1698.828125 478.984375 L 1772.226562 403.28125 L 1852.890625 331.484375 L 1940.039062 264.414062 L 2032.734375 202.65625 L 2130.15625 146.914062 L 2231.210938 97.65625 L 2335 55.429688 L 2440.429688 20.664062 L 2546.445312 -6.328125 L 2651.992188 -25.273438 L 2756.054688 -35.976562 L 2857.539062 -38.320312 L 2955.429688 -32.304688 L 3048.789062 -17.929688 L 3136.640625 4.570312 L 3218.164062 35.039062 L 3292.5 73.164062 L 3358.90625 118.554688 L 3416.757812 170.742188 L 3465.429688 229.21875 L 3504.453125 293.359375 L 3533.4375 362.617188 L 3552.109375 436.210938 L 3560.273438 513.476562 L 3557.851562 593.554688 L 3544.84375 675.742188 L 3521.367188 759.140625 L 3487.734375 842.96875 L 3444.21875 926.367188 L 3391.25 1008.476562 L 3329.375 1088.515625 L 3259.21875 1165.664062 L 3181.484375 1239.179688 L 3096.953125 1308.28125 L 3006.445312 1372.34375 " transform="matrix(0.1,0,0,-0.1,0,160)"/>
</g>
<g clip-path="url(#clip13)" clip-rule="nonzero">
<path style=" stroke:none;fill-rule:nonzero;fill:rgb(0%,0%,0%);fill-opacity:1;" d="M 177 5 C 177 3.894531 176.105469 3 175 3 C 173.894531 3 173 3.894531 173 5 C 173 6.105469 173.894531 7 175 7 C 176.105469 7 177 6.105469 177 5 "/>
</g>
<path style=" stroke:none;fill-rule:nonzero;fill:rgb(0%,0%,0%);fill-opacity:1;" d="M 215.015625 145.308594 C 215.015625 144.207031 214.117188 143.308594 213.015625 143.308594 C 211.910156 143.308594 211.015625 144.207031 211.015625 145.308594 C 211.015625 146.414062 211.910156 147.308594 213.015625 147.308594 C 214.117188 147.308594 215.015625 146.414062 215.015625 145.308594 "/>
<path style=" stroke:none;fill-rule:nonzero;fill:rgb(0%,0%,0%);fill-opacity:1;" d="M 302.644531 22.765625 C 302.644531 21.660156 301.75 20.765625 300.644531 20.765625 C 299.539062 20.765625 298.644531 21.660156 298.644531 22.765625 C 298.644531 23.871094 299.539062 24.765625 300.644531 24.765625 C 301.75 24.765625 302.644531 23.871094 302.644531 22.765625 "/>
</g>
</svg>
