<?xml version="1.0" encoding="UTF-8"?>
<svg xmlns="http://www.w3.org/2000/svg" xmlns:xlink="http://www.w3.org/1999/xlink" width="330pt" height="330pt" viewBox="0 0 330 330" version="1.1">
<g id="surface1">
<path style="fill:none;stroke-width:10;stroke-linecap:butt;stroke-linejoin:miter;stroke:rgb(80.076599%,80.076599%,80.076599%);stroke-opacity:1;stroke-miterlimit:10;" d="M 50 1750 L 50 3250 M 237.5 1750 L 237.5 3250 M 425 1750 L 425 3250 M 612.5 1750 L 612.5 3250 M 800 1750 L 800 3250 M 987.5 1750 L 987.5 3250 M 1175 1750 L 1175 3250 M 1362.5 1750 L 1362.5 3250 M 1550 1750 L 1550 3250 M 50 1750 L 1550 1750 M 50 1937.5 L 1550 1937.5 M 50 2125 L 1550 2125 M 50 2312.5 L 1550 2312.5 M 50 2500 L 1550 2500 M 50 2687.5 L 1550 2687.5 M 50 2875 L 1550 2875 M 50 3062.5 L 1550 3062.5 M 50 3250 L 1550 3250 " transform="matrix(0.1,0,0,-0.1,0,330)"/>
<path style="fill:none;stroke-width:10;stroke-linecap:butt;stroke-linejoin:miter;stroke:rgb(0%,0%,0%);stroke-opacity:1;stroke-miterlimit:10;" d="M 50 2500 L 1550 2500 M 800 1750 L 800 3250 " transform="matrix(0.1,0,0,-0.1,0,330)"/>
<path style=" stroke:none;fill-rule:nonzero;fill:rgb(0%,0%,100%);fill-opacity:1;" d="M 99.457031 43.207031 L 133.007812 9.65625 L 133.605469 11.886719 L 136.25 5 L 129.363281 7.644531 L 131.59375 8.242188 L 98.042969 41.792969 L 99.457031 43.207031 "/>
<path style="fill:none;stroke-width:10;stroke-linecap:butt;stroke-linejoin:miter;stroke:rgb(0%,0%,100%);stroke-opacity:1;stroke-miterlimit:10;" d="M 994.570312 2867.929688 L 1330.078125 3203.4375 L 1336.054688 3181.132812 L 1362.5 3250 L 1293.632812 3223.554688 L 1315.9375 3217.578125 L 980.429688 2882.070312 Z M 994.570312 2867.929688 " transform="matrix(0.1,0,0,-0.1,0,330)"/>
<path style=" stroke:none;fill-rule:nonzero;fill:rgb(50%,50%,100%);fill-opacity:1;" d="M 101.25 42.5 C 101.25 41.117188 100.132812 40 98.75 40 C 97.367188 40 96.25 41.117188 96.25 42.5 C 96.25 43.882812 97.367188 45 98.75 45 C 100.132812 45 101.25 43.882812 101.25 42.5 "/>
<path style="fill:none;stroke-width:10;stroke-linecap:butt;stroke-linejoin:miter;stroke:rgb(0%,0%,0%);stroke-opacity:1;stroke-miterlimit:10;" d="M 1012.5 2875 C 1012.5 2888.828125 1001.328125 2900 987.5 2900 C 973.671875 2900 962.5 2888.828125 962.5 2875 C 962.5 2861.171875 973.671875 2850 987.5 2850 C 1001.328125 2850 1012.5 2861.171875 1012.5 2875 Z M 1012.5 2875 " transform="matrix(0.1,0,0,-0.1,0,330)"/>
<path style="fill:none;stroke-width:10;stroke-linecap:butt;stroke-linejoin:miter;stroke:rgb(80.076599%,80.076599%,80.076599%);stroke-opacity:1;stroke-miterlimit:10;" d="M 1750 1750 L 1750 3250 M 1937.5 1750 L 1937.5 3250 M 2125 1750 L 2125 3250 M 2312.5 1750 L 2312.5 3250 M 2500 1750 L 2500 3250 M 2687.5 1750 L 2687.5 3250 M 2875 1750 L 2875 3250 M 3062.5 1750 L 3062.5 3250 M 3250 1750 L 3250 3250 M 1750 1750 L 3250 1750 M 1750 1937.5 L 3250 1937.5 M 1750 2125 L 3250 2125 M 1750 2312.5 L 3250 2312.5 M 1750 2500 L 3250 2500 M 1750 2687.5 L 3250 2687.5 M 1750 2875 L 3250 2875 M 1750 3062.5 L 3250 3062.5 M 1750 3250 L 3250 3250 " transform="matrix(0.1,0,0,-0.1,0,330)"/>
<path style="fill:none;stroke-width:10;stroke-linecap:butt;stroke-linejoin:miter;stroke:rgb(0%,0%,0%);stroke-opacity:1;stroke-miterlimit:10;" d="M 1750 2500 L 3250 2500 M 2500 1750 L 2500 3250 " transform="matrix(0.1,0,0,-0.1,0,330)"/>
<path style=" stroke:none;fill-rule:nonzero;fill:rgb(0%,0%,100%);fill-opacity:1;" d="M 250.707031 80.707031 L 284.257812 47.15625 L 284.855469 49.386719 L 287.5 42.5 L 280.613281 45.144531 L 282.84375 45.742188 L 249.292969 79.292969 L 250.707031 80.707031 "/>
<path style="fill:none;stroke-width:10;stroke-linecap:butt;stroke-linejoin:miter;stroke:rgb(0%,0%,100%);stroke-opacity:1;stroke-miterlimit:10;" d="M 2507.070312 2492.929688 L 2842.578125 2828.4375 L 2848.554688 2806.132812 L 2875 2875 L 2806.132812 2848.554688 L 2828.4375 2842.578125 L 2492.929688 2507.070312 Z M 2507.070312 2492.929688 " transform="matrix(0.1,0,0,-0.1,0,330)"/>
<path style="fill:none;stroke-width:10;stroke-linecap:butt;stroke-linejoin:miter;stroke:rgb(80.076599%,80.076599%,80.076599%);stroke-opacity:1;stroke-miterlimit:10;" d="M 50 50 L 50 1550 M 237.5 50 L 237.5 1550 M 425 50 L 425 1550 M 612.5 50 L 612.5 1550 M 800 50 L 800 1550 M 987.5 50 L 987.5 1550 M 1175 50 L 1175 1550 M 1362.5 50 L 1362.5 1550 M 1550 50 L 1550 1550 M 50 50 L 1550 50 M 50 237.5 L 1550 237.5 M 50 425 L 1550 425 M 50 612.5 L 1550 612.5 M 50 800 L 1550 800 M 50 987.5 L 1550 987.5 M 50 1175 L 1550 1175 M 50 1362.5 L 1550 1362.5 M 50 1550 L 1550 1550 " transform="matrix(0.1,0,0,-0.1,0,330)"/>
<path style="fill:none;stroke-width:10;stroke-linecap:butt;stroke-linejoin:miter;stroke:rgb(0%,0%,0%);stroke-opacity:1;stroke-miterlimit:10;" d="M 50 800 L 1550 800 M 800 50 L 800 1550 " transform="matrix(0.1,0,0,-0.1,0,330)"/>
<path style=" stroke:none;fill-rule:nonzero;fill:rgb(0%,0%,100%);fill-opacity:1;" d="M 80.707031 249.292969 L 47.15625 215.742188 L 49.386719 215.144531 L 42.5 212.5 L 45.144531 219.386719 L 45.742188 217.15625 L 79.292969 250.707031 L 80.707031 249.292969 "/>
<path style="fill:none;stroke-width:10;stroke-linecap:butt;stroke-linejoin:miter;stroke:rgb(0%,0%,100%);stroke-opacity:1;stroke-miterlimit:10;" d="M 807.070312 807.070312 L 471.5625 1142.578125 L 493.867188 1148.554688 L 425 1175 L 451.445312 1106.132812 L 457.421875 1128.4375 L 792.929688 792.929688 Z M 807.070312 807.070312 " transform="matrix(0.1,0,0,-0.1,0,330)"/>
<path style="fill:none;stroke-width:10;stroke-linecap:butt;stroke-linejoin:miter;stroke:rgb(80.076599%,80.076599%,80.076599%);stroke-opacity:1;stroke-miterlimit:10;" d="M 1750 50 L 1750 1550 M 1937.5 50 L 1937.5 1550 M 2125 50 L 2125 1550 M 2312.5 50 L 2312.5 1550 M 2500 50 L 2500 1550 M 2687.5 50 L 2687.5 1550 M 2875 50 L 2875 1550 M 3062.5 50 L 3062.5 1550 M 3250 50 L 3250 1550 M 1750 50 L 3250 50 M 1750 237.5 L 3250 237.5 M 1750 425 L 3250 425 M 1750 612.5 L 3250 612.5 M 1750 800 L 3250 800 M 1750 987.5 L 3250 987.5 M 1750 1175 L 3250 1175 M 1750 1362.5 L 3250 1362.5 M 1750 1550 L 3250 1550 " transform="matrix(0.1,0,0,-0.1,0,330)"/>
<path style="fill:none;stroke-width:10;stroke-linecap:butt;stroke-linejoin:miter;stroke:rgb(0%,0%,0%);stroke-opacity:1;stroke-miterlimit:10;" d="M 1750 800 L 3250 800 M 2500 50 L 2500 1550 " transform="matrix(0.1,0,0,-0.1,0,330)"/>
<path style=" stroke:none;fill-rule:nonzero;fill:rgb(0%,0%,100%);fill-opacity:1;" d="M 269.457031 211.792969 L 235.90625 178.242188 L 238.136719 177.644531 L 231.25 175 L 233.894531 181.886719 L 234.492188 179.65625 L 268.042969 213.207031 L 269.457031 211.792969 "/>
<path style="fill:none;stroke-width:10;stroke-linecap:butt;stroke-linejoin:miter;stroke:rgb(0%,0%,100%);stroke-opacity:1;stroke-miterlimit:10;" d="M 2694.570312 1182.070312 L 2359.0625 1517.578125 L 2381.367188 1523.554688 L 2312.5 1550 L 2338.945312 1481.132812 L 2344.921875 1503.4375 L 2680.429688 1167.929688 Z M 2694.570312 1182.070312 " transform="matrix(0.1,0,0,-0.1,0,330)"/>
<path style=" stroke:none;fill-rule:nonzero;fill:rgb(50%,50%,100%);fill-opacity:1;" d="M 271.25 212.5 C 271.25 211.117188 270.132812 210 268.75 210 C 267.367188 210 266.25 211.117188 266.25 212.5 C 266.25 213.882812 267.367188 215 268.75 215 C 270.132812 215 271.25 213.882812 271.25 212.5 "/>
<path style="fill:none;stroke-width:10;stroke-linecap:butt;stroke-linejoin:miter;stroke:rgb(0%,0%,0%);stroke-opacity:1;stroke-miterlimit:10;" d="M 2712.5 1175 C 2712.5 1188.828125 2701.328125 1200 2687.5 1200 C 2673.671875 1200 2662.5 1188.828125 2662.5 1175 C 2662.5 1161.171875 2673.671875 1150 2687.5 1150 C 2701.328125 1150 2712.5 1161.171875 2712.5 1175 Z M 2712.5 1175 " transform="matrix(0.1,0,0,-0.1,0,330)"/>
</g>
</svg>
