<?xml version="1.0" encoding="UTF-8"?>
<svg xmlns="http://www.w3.org/2000/svg" xmlns:xlink="http://www.w3.org/1999/xlink" width="110pt" height="110pt" viewBox="0 0 110 110" version="1.1">
<g id="surface1">
<path style="fill-rule:nonzero;fill:rgb(68.943787%,68.943787%,68.943787%);fill-opacity:1;stroke-width:10;stroke-linecap:butt;stroke-linejoin:miter;stroke:rgb(50%,50%,50%);stroke-opacity:1;stroke-miterlimit:10;" d="M 50 925 L 175 925 L 175 1050 L 50 1050 Z M 50 925 " transform="matrix(0.1,0,0,-0.1,0,110)"/>
<path style="fill-rule:nonzero;fill:rgb(66.601562%,66.601562%,66.601562%);fill-opacity:1;stroke-width:10;stroke-linecap:butt;stroke-linejoin:miter;stroke:rgb(50%,50%,50%);stroke-opacity:1;stroke-miterlimit:10;" d="M 175 925 L 300 925 L 300 1050 L 175 1050 Z M 175 925 " transform="matrix(0.1,0,0,-0.1,0,110)"/>
<path style="fill-rule:nonzero;fill:rgb(66.601562%,66.601562%,66.601562%);fill-opacity:1;stroke-width:10;stroke-linecap:butt;stroke-linejoin:miter;stroke:rgb(50%,50%,50%);stroke-opacity:1;stroke-miterlimit:10;" d="M 300 925 L 425 925 L 425 1050 L 300 1050 Z M 300 925 " transform="matrix(0.1,0,0,-0.1,0,110)"/>
<path style="fill-rule:nonzero;fill:rgb(66.209412%,66.209412%,66.209412%);fill-opacity:1;stroke-width:10;stroke-linecap:butt;stroke-linejoin:miter;stroke:rgb(50%,50%,50%);stroke-opacity:1;stroke-miterlimit:10;" d="M 425 925 L 550 925 L 550 1050 L 425 1050 Z M 425 925 " transform="matrix(0.1,0,0,-0.1,0,110)"/>
<path style="fill-rule:nonzero;fill:rgb(63.671875%,63.671875%,63.671875%);fill-opacity:1;stroke-width:10;stroke-linecap:butt;stroke-linejoin:miter;stroke:rgb(50%,50%,50%);stroke-opacity:1;stroke-miterlimit:10;" d="M 550 925 L 675 925 L 675 1050 L 550 1050 Z M 550 925 " transform="matrix(0.1,0,0,-0.1,0,110)"/>
<path style="fill-rule:nonzero;fill:rgb(62.889099%,62.889099%,62.889099%);fill-opacity:1;stroke-width:10;stroke-linecap:butt;stroke-linejoin:miter;stroke:rgb(50%,50%,50%);stroke-opacity:1;stroke-miterlimit:10;" d="M 675 925 L 800 925 L 800 1050 L 675 1050 Z M 675 925 " transform="matrix(0.1,0,0,-0.1,0,110)"/>
<path style="fill-rule:nonzero;fill:rgb(60.742188%,60.742188%,60.742188%);fill-opacity:1;stroke-width:10;stroke-linecap:butt;stroke-linejoin:miter;stroke:rgb(50%,50%,50%);stroke-opacity:1;stroke-miterlimit:10;" d="M 800 925 L 925 925 L 925 1050 L 800 1050 Z M 800 925 " transform="matrix(0.1,0,0,-0.1,0,110)"/>
<path style="fill-rule:nonzero;fill:rgb(58.789062%,58.789062%,58.789062%);fill-opacity:1;stroke-width:10;stroke-linecap:butt;stroke-linejoin:miter;stroke:rgb(50%,50%,50%);stroke-opacity:1;stroke-miterlimit:10;" d="M 925 925 L 1050 925 L 1050 1050 L 925 1050 Z M 925 925 " transform="matrix(0.1,0,0,-0.1,0,110)"/>
<path style="fill-rule:nonzero;fill:rgb(70.896912%,70.896912%,70.896912%);fill-opacity:1;stroke-width:10;stroke-linecap:butt;stroke-linejoin:miter;stroke:rgb(50%,50%,50%);stroke-opacity:1;stroke-miterlimit:10;" d="M 50 800 L 175 800 L 175 925 L 50 925 Z M 50 800 " transform="matrix(0.1,0,0,-0.1,0,110)"/>
<path style="fill-rule:nonzero;fill:rgb(70.117188%,70.117188%,70.117188%);fill-opacity:1;stroke-width:10;stroke-linecap:butt;stroke-linejoin:miter;stroke:rgb(50%,50%,50%);stroke-opacity:1;stroke-miterlimit:10;" d="M 175 800 L 300 800 L 300 925 L 175 925 Z M 175 800 " transform="matrix(0.1,0,0,-0.1,0,110)"/>
<path style="fill-rule:nonzero;fill:rgb(68.554688%,68.554688%,68.554688%);fill-opacity:1;stroke-width:10;stroke-linecap:butt;stroke-linejoin:miter;stroke:rgb(50%,50%,50%);stroke-opacity:1;stroke-miterlimit:10;" d="M 300 800 L 425 800 L 425 925 L 300 925 Z M 300 800 " transform="matrix(0.1,0,0,-0.1,0,110)"/>
<path style="fill-rule:nonzero;fill:rgb(65.429688%,65.429688%,65.429688%);fill-opacity:1;stroke-width:10;stroke-linecap:butt;stroke-linejoin:miter;stroke:rgb(50%,50%,50%);stroke-opacity:1;stroke-miterlimit:10;" d="M 425 800 L 550 800 L 550 925 L 425 925 Z M 425 800 " transform="matrix(0.1,0,0,-0.1,0,110)"/>
<path style="fill-rule:nonzero;fill:rgb(63.476562%,63.476562%,63.476562%);fill-opacity:1;stroke-width:10;stroke-linecap:butt;stroke-linejoin:miter;stroke:rgb(50%,50%,50%);stroke-opacity:1;stroke-miterlimit:10;" d="M 550 800 L 675 800 L 675 925 L 550 925 Z M 550 800 " transform="matrix(0.1,0,0,-0.1,0,110)"/>
<path style="fill-rule:nonzero;fill:rgb(62.693787%,62.693787%,62.693787%);fill-opacity:1;stroke-width:10;stroke-linecap:butt;stroke-linejoin:miter;stroke:rgb(50%,50%,50%);stroke-opacity:1;stroke-miterlimit:10;" d="M 675 800 L 800 800 L 800 925 L 675 925 Z M 675 800 " transform="matrix(0.1,0,0,-0.1,0,110)"/>
<path style="fill-rule:nonzero;fill:rgb(60.351562%,60.351562%,60.351562%);fill-opacity:1;stroke-width:10;stroke-linecap:butt;stroke-linejoin:miter;stroke:rgb(50%,50%,50%);stroke-opacity:1;stroke-miterlimit:10;" d="M 800 800 L 925 800 L 925 925 L 800 925 Z M 800 800 " transform="matrix(0.1,0,0,-0.1,0,110)"/>
<path style="fill-rule:nonzero;fill:rgb(58.59375%,58.59375%,58.59375%);fill-opacity:1;stroke-width:10;stroke-linecap:butt;stroke-linejoin:miter;stroke:rgb(50%,50%,50%);stroke-opacity:1;stroke-miterlimit:10;" d="M 925 800 L 1050 800 L 1050 925 L 925 925 Z M 925 800 " transform="matrix(0.1,0,0,-0.1,0,110)"/>
<path style="fill-rule:nonzero;fill:rgb(64.84375%,64.84375%,64.84375%);fill-opacity:1;stroke-width:10;stroke-linecap:butt;stroke-linejoin:miter;stroke:rgb(50%,50%,50%);stroke-opacity:1;stroke-miterlimit:10;" d="M 50 675 L 175 675 L 175 800 L 50 800 Z M 50 675 " transform="matrix(0.1,0,0,-0.1,0,110)"/>
<path style="fill-rule:nonzero;fill:rgb(66.601562%,66.601562%,66.601562%);fill-opacity:1;stroke-width:10;stroke-linecap:butt;stroke-linejoin:miter;stroke:rgb(50%,50%,50%);stroke-opacity:1;stroke-miterlimit:10;" d="M 175 675 L 300 675 L 300 800 L 175 800 Z M 175 675 " transform="matrix(0.1,0,0,-0.1,0,110)"/>
<path style="fill-rule:nonzero;fill:rgb(66.209412%,66.209412%,66.209412%);fill-opacity:1;stroke-width:10;stroke-linecap:butt;stroke-linejoin:miter;stroke:rgb(50%,50%,50%);stroke-opacity:1;stroke-miterlimit:10;" d="M 300 675 L 425 675 L 425 800 L 300 800 Z M 300 675 " transform="matrix(0.1,0,0,-0.1,0,110)"/>
<path style="fill-rule:nonzero;fill:rgb(63.084412%,63.084412%,63.084412%);fill-opacity:1;stroke-width:10;stroke-linecap:butt;stroke-linejoin:miter;stroke:rgb(50%,50%,50%);stroke-opacity:1;stroke-miterlimit:10;" d="M 425 675 L 550 675 L 550 800 L 425 800 Z M 425 675 " transform="matrix(0.1,0,0,-0.1,0,110)"/>
<path style="fill-rule:nonzero;fill:rgb(63.476562%,63.476562%,63.476562%);fill-opacity:1;stroke-width:10;stroke-linecap:butt;stroke-linejoin:miter;stroke:rgb(50%,50%,50%);stroke-opacity:1;stroke-miterlimit:10;" d="M 550 675 L 675 675 L 675 800 L 550 800 Z M 550 675 " transform="matrix(0.1,0,0,-0.1,0,110)"/>
<path style="fill-rule:nonzero;fill:rgb(63.084412%,63.084412%,63.084412%);fill-opacity:1;stroke-width:10;stroke-linecap:butt;stroke-linejoin:miter;stroke:rgb(50%,50%,50%);stroke-opacity:1;stroke-miterlimit:10;" d="M 675 675 L 800 675 L 800 800 L 675 800 Z M 675 675 " transform="matrix(0.1,0,0,-0.1,0,110)"/>
<path style="fill-rule:nonzero;fill:rgb(62.693787%,62.693787%,62.693787%);fill-opacity:1;stroke-width:10;stroke-linecap:butt;stroke-linejoin:miter;stroke:rgb(50%,50%,50%);stroke-opacity:1;stroke-miterlimit:10;" d="M 800 675 L 925 675 L 925 800 L 800 800 Z M 800 675 " transform="matrix(0.1,0,0,-0.1,0,110)"/>
<path style="fill-rule:nonzero;fill:rgb(62.109375%,62.109375%,62.109375%);fill-opacity:1;stroke-width:10;stroke-linecap:butt;stroke-linejoin:miter;stroke:rgb(50%,50%,50%);stroke-opacity:1;stroke-miterlimit:10;" d="M 925 675 L 1050 675 L 1050 800 L 925 800 Z M 925 675 " transform="matrix(0.1,0,0,-0.1,0,110)"/>
<path style="fill-rule:nonzero;fill:rgb(54.492188%,54.492188%,54.492188%);fill-opacity:1;stroke-width:10;stroke-linecap:butt;stroke-linejoin:miter;stroke:rgb(50%,50%,50%);stroke-opacity:1;stroke-miterlimit:10;" d="M 50 550 L 175 550 L 175 675 L 50 675 Z M 50 550 " transform="matrix(0.1,0,0,-0.1,0,110)"/>
<path style="fill-rule:nonzero;fill:rgb(58.789062%,58.789062%,58.789062%);fill-opacity:1;stroke-width:10;stroke-linecap:butt;stroke-linejoin:miter;stroke:rgb(50%,50%,50%);stroke-opacity:1;stroke-miterlimit:10;" d="M 175 550 L 300 550 L 300 675 L 175 675 Z M 175 550 " transform="matrix(0.1,0,0,-0.1,0,110)"/>
<path style="fill-rule:nonzero;fill:rgb(64.256287%,64.256287%,64.256287%);fill-opacity:1;stroke-width:10;stroke-linecap:butt;stroke-linejoin:miter;stroke:rgb(50%,50%,50%);stroke-opacity:1;stroke-miterlimit:10;" d="M 300 550 L 425 550 L 425 675 L 300 675 Z M 300 550 " transform="matrix(0.1,0,0,-0.1,0,110)"/>
<path style="fill-rule:nonzero;fill:rgb(65.039062%,65.039062%,65.039062%);fill-opacity:1;stroke-width:10;stroke-linecap:butt;stroke-linejoin:miter;stroke:rgb(50%,50%,50%);stroke-opacity:1;stroke-miterlimit:10;" d="M 425 550 L 550 550 L 550 675 L 425 675 Z M 425 550 " transform="matrix(0.1,0,0,-0.1,0,110)"/>
<path style="fill-rule:nonzero;fill:rgb(62.304688%,62.304688%,62.304688%);fill-opacity:1;stroke-width:10;stroke-linecap:butt;stroke-linejoin:miter;stroke:rgb(50%,50%,50%);stroke-opacity:1;stroke-miterlimit:10;" d="M 550 550 L 675 550 L 675 675 L 550 675 Z M 550 550 " transform="matrix(0.1,0,0,-0.1,0,110)"/>
<path style="fill-rule:nonzero;fill:rgb(62.693787%,62.693787%,62.693787%);fill-opacity:1;stroke-width:10;stroke-linecap:butt;stroke-linejoin:miter;stroke:rgb(50%,50%,50%);stroke-opacity:1;stroke-miterlimit:10;" d="M 675 550 L 800 550 L 800 675 L 675 675 Z M 675 550 " transform="matrix(0.1,0,0,-0.1,0,110)"/>
<path style="fill-rule:nonzero;fill:rgb(63.476562%,63.476562%,63.476562%);fill-opacity:1;stroke-width:10;stroke-linecap:butt;stroke-linejoin:miter;stroke:rgb(50%,50%,50%);stroke-opacity:1;stroke-miterlimit:10;" d="M 800 550 L 925 550 L 925 675 L 800 675 Z M 800 550 " transform="matrix(0.1,0,0,-0.1,0,110)"/>
<path style="fill-rule:nonzero;fill:rgb(63.867188%,63.867188%,63.867188%);fill-opacity:1;stroke-width:10;stroke-linecap:butt;stroke-linejoin:miter;stroke:rgb(50%,50%,50%);stroke-opacity:1;stroke-miterlimit:10;" d="M 925 550 L 1050 550 L 1050 675 L 925 675 Z M 925 550 " transform="matrix(0.1,0,0,-0.1,0,110)"/>
<path style="fill-rule:nonzero;fill:rgb(51.367188%,51.367188%,51.367188%);fill-opacity:1;stroke-width:10;stroke-linecap:butt;stroke-linejoin:miter;stroke:rgb(50%,50%,50%);stroke-opacity:1;stroke-miterlimit:10;" d="M 50 425 L 175 425 L 175 550 L 50 550 Z M 50 425 " transform="matrix(0.1,0,0,-0.1,0,110)"/>
<path style="fill-rule:nonzero;fill:rgb(53.709412%,53.709412%,53.709412%);fill-opacity:1;stroke-width:10;stroke-linecap:butt;stroke-linejoin:miter;stroke:rgb(50%,50%,50%);stroke-opacity:1;stroke-miterlimit:10;" d="M 175 425 L 300 425 L 300 550 L 175 550 Z M 175 425 " transform="matrix(0.1,0,0,-0.1,0,110)"/>
<path style="fill-rule:nonzero;fill:rgb(61.521912%,61.521912%,61.521912%);fill-opacity:1;stroke-width:10;stroke-linecap:butt;stroke-linejoin:miter;stroke:rgb(50%,50%,50%);stroke-opacity:1;stroke-miterlimit:10;" d="M 300 425 L 425 425 L 425 550 L 300 550 Z M 300 425 " transform="matrix(0.1,0,0,-0.1,0,110)"/>
<path style="fill-rule:nonzero;fill:rgb(64.646912%,64.646912%,64.646912%);fill-opacity:1;stroke-width:10;stroke-linecap:butt;stroke-linejoin:miter;stroke:rgb(50%,50%,50%);stroke-opacity:1;stroke-miterlimit:10;" d="M 425 425 L 550 425 L 550 550 L 425 550 Z M 425 425 " transform="matrix(0.1,0,0,-0.1,0,110)"/>
<path style="fill-rule:nonzero;fill:rgb(63.867188%,63.867188%,63.867188%);fill-opacity:1;stroke-width:10;stroke-linecap:butt;stroke-linejoin:miter;stroke:rgb(50%,50%,50%);stroke-opacity:1;stroke-miterlimit:10;" d="M 550 425 L 675 425 L 675 550 L 550 550 Z M 550 425 " transform="matrix(0.1,0,0,-0.1,0,110)"/>
<path style="fill-rule:nonzero;fill:rgb(63.867188%,63.867188%,63.867188%);fill-opacity:1;stroke-width:10;stroke-linecap:butt;stroke-linejoin:miter;stroke:rgb(50%,50%,50%);stroke-opacity:1;stroke-miterlimit:10;" d="M 675 425 L 800 425 L 800 550 L 675 550 Z M 675 425 " transform="matrix(0.1,0,0,-0.1,0,110)"/>
<path style="fill-rule:nonzero;fill:rgb(64.256287%,64.256287%,64.256287%);fill-opacity:1;stroke-width:10;stroke-linecap:butt;stroke-linejoin:miter;stroke:rgb(50%,50%,50%);stroke-opacity:1;stroke-miterlimit:10;" d="M 800 425 L 925 425 L 925 550 L 800 550 Z M 800 425 " transform="matrix(0.1,0,0,-0.1,0,110)"/>
<path style="fill-rule:nonzero;fill:rgb(64.256287%,64.256287%,64.256287%);fill-opacity:1;stroke-width:10;stroke-linecap:butt;stroke-linejoin:miter;stroke:rgb(50%,50%,50%);stroke-opacity:1;stroke-miterlimit:10;" d="M 925 425 L 1050 425 L 1050 550 L 925 550 Z M 925 425 " transform="matrix(0.1,0,0,-0.1,0,110)"/>
<path style="fill-rule:nonzero;fill:rgb(51.5625%,51.5625%,51.5625%);fill-opacity:1;stroke-width:10;stroke-linecap:butt;stroke-linejoin:miter;stroke:rgb(50%,50%,50%);stroke-opacity:1;stroke-miterlimit:10;" d="M 50 300 L 175 300 L 175 425 L 50 425 Z M 50 300 " transform="matrix(0.1,0,0,-0.1,0,110)"/>
<path style="fill-rule:nonzero;fill:rgb(51.951599%,51.951599%,51.951599%);fill-opacity:1;stroke-width:10;stroke-linecap:butt;stroke-linejoin:miter;stroke:rgb(50%,50%,50%);stroke-opacity:1;stroke-miterlimit:10;" d="M 175 300 L 300 300 L 300 425 L 175 425 Z M 175 300 " transform="matrix(0.1,0,0,-0.1,0,110)"/>
<path style="fill-rule:nonzero;fill:rgb(59.959412%,59.959412%,59.959412%);fill-opacity:1;stroke-width:10;stroke-linecap:butt;stroke-linejoin:miter;stroke:rgb(50%,50%,50%);stroke-opacity:1;stroke-miterlimit:10;" d="M 300 300 L 425 300 L 425 425 L 300 425 Z M 300 300 " transform="matrix(0.1,0,0,-0.1,0,110)"/>
<path style="fill-rule:nonzero;fill:rgb(63.084412%,63.084412%,63.084412%);fill-opacity:1;stroke-width:10;stroke-linecap:butt;stroke-linejoin:miter;stroke:rgb(50%,50%,50%);stroke-opacity:1;stroke-miterlimit:10;" d="M 425 300 L 550 300 L 550 425 L 425 425 Z M 425 300 " transform="matrix(0.1,0,0,-0.1,0,110)"/>
<path style="fill-rule:nonzero;fill:rgb(65.625%,65.625%,65.625%);fill-opacity:1;stroke-width:10;stroke-linecap:butt;stroke-linejoin:miter;stroke:rgb(50%,50%,50%);stroke-opacity:1;stroke-miterlimit:10;" d="M 550 300 L 675 300 L 675 425 L 550 425 Z M 550 300 " transform="matrix(0.1,0,0,-0.1,0,110)"/>
<path style="fill-rule:nonzero;fill:rgb(65.625%,65.625%,65.625%);fill-opacity:1;stroke-width:10;stroke-linecap:butt;stroke-linejoin:miter;stroke:rgb(50%,50%,50%);stroke-opacity:1;stroke-miterlimit:10;" d="M 675 300 L 800 300 L 800 425 L 675 425 Z M 675 300 " transform="matrix(0.1,0,0,-0.1,0,110)"/>
<path style="fill-rule:nonzero;fill:rgb(65.625%,65.625%,65.625%);fill-opacity:1;stroke-width:10;stroke-linecap:butt;stroke-linejoin:miter;stroke:rgb(50%,50%,50%);stroke-opacity:1;stroke-miterlimit:10;" d="M 800 300 L 925 300 L 925 425 L 800 425 Z M 800 300 " transform="matrix(0.1,0,0,-0.1,0,110)"/>
<path style="fill-rule:nonzero;fill:rgb(66.209412%,66.209412%,66.209412%);fill-opacity:1;stroke-width:10;stroke-linecap:butt;stroke-linejoin:miter;stroke:rgb(50%,50%,50%);stroke-opacity:1;stroke-miterlimit:10;" d="M 925 300 L 1050 300 L 1050 425 L 925 425 Z M 925 300 " transform="matrix(0.1,0,0,-0.1,0,110)"/>
<path style="fill-rule:nonzero;fill:rgb(54.881287%,54.881287%,54.881287%);fill-opacity:1;stroke-width:10;stroke-linecap:butt;stroke-linejoin:miter;stroke:rgb(50%,50%,50%);stroke-opacity:1;stroke-miterlimit:10;" d="M 50 175 L 175 175 L 175 300 L 50 300 Z M 50 175 " transform="matrix(0.1,0,0,-0.1,0,110)"/>
<path style="fill-rule:nonzero;fill:rgb(55.664062%,55.664062%,55.664062%);fill-opacity:1;stroke-width:10;stroke-linecap:butt;stroke-linejoin:miter;stroke:rgb(50%,50%,50%);stroke-opacity:1;stroke-miterlimit:10;" d="M 175 175 L 300 175 L 300 300 L 175 300 Z M 175 175 " transform="matrix(0.1,0,0,-0.1,0,110)"/>
<path style="fill-rule:nonzero;fill:rgb(61.521912%,61.521912%,61.521912%);fill-opacity:1;stroke-width:10;stroke-linecap:butt;stroke-linejoin:miter;stroke:rgb(50%,50%,50%);stroke-opacity:1;stroke-miterlimit:10;" d="M 300 175 L 425 175 L 425 300 L 300 300 Z M 300 175 " transform="matrix(0.1,0,0,-0.1,0,110)"/>
<path style="fill-rule:nonzero;fill:rgb(65.039062%,65.039062%,65.039062%);fill-opacity:1;stroke-width:10;stroke-linecap:butt;stroke-linejoin:miter;stroke:rgb(50%,50%,50%);stroke-opacity:1;stroke-miterlimit:10;" d="M 425 175 L 550 175 L 550 300 L 425 300 Z M 425 175 " transform="matrix(0.1,0,0,-0.1,0,110)"/>
<path style="fill-rule:nonzero;fill:rgb(65.234375%,65.234375%,65.234375%);fill-opacity:1;stroke-width:10;stroke-linecap:butt;stroke-linejoin:miter;stroke:rgb(50%,50%,50%);stroke-opacity:1;stroke-miterlimit:10;" d="M 550 175 L 675 175 L 675 300 L 550 300 Z M 550 175 " transform="matrix(0.1,0,0,-0.1,0,110)"/>
<path style="fill-rule:nonzero;fill:rgb(65.234375%,65.234375%,65.234375%);fill-opacity:1;stroke-width:10;stroke-linecap:butt;stroke-linejoin:miter;stroke:rgb(50%,50%,50%);stroke-opacity:1;stroke-miterlimit:10;" d="M 675 175 L 800 175 L 800 300 L 675 300 Z M 675 175 " transform="matrix(0.1,0,0,-0.1,0,110)"/>
<path style="fill-rule:nonzero;fill:rgb(65.625%,65.625%,65.625%);fill-opacity:1;stroke-width:10;stroke-linecap:butt;stroke-linejoin:miter;stroke:rgb(50%,50%,50%);stroke-opacity:1;stroke-miterlimit:10;" d="M 800 175 L 925 175 L 925 300 L 800 300 Z M 800 175 " transform="matrix(0.1,0,0,-0.1,0,110)"/>
<path style="fill-rule:nonzero;fill:rgb(66.209412%,66.209412%,66.209412%);fill-opacity:1;stroke-width:10;stroke-linecap:butt;stroke-linejoin:miter;stroke:rgb(50%,50%,50%);stroke-opacity:1;stroke-miterlimit:10;" d="M 925 175 L 1050 175 L 1050 300 L 925 300 Z M 925 175 " transform="matrix(0.1,0,0,-0.1,0,110)"/>
<path style="fill-rule:nonzero;fill:rgb(58.984375%,58.984375%,58.984375%);fill-opacity:1;stroke-width:10;stroke-linecap:butt;stroke-linejoin:miter;stroke:rgb(50%,50%,50%);stroke-opacity:1;stroke-miterlimit:10;" d="M 50 50 L 175 50 L 175 175 L 50 175 Z M 50 50 " transform="matrix(0.1,0,0,-0.1,0,110)"/>
<path style="fill-rule:nonzero;fill:rgb(59.764099%,59.764099%,59.764099%);fill-opacity:1;stroke-width:10;stroke-linecap:butt;stroke-linejoin:miter;stroke:rgb(50%,50%,50%);stroke-opacity:1;stroke-miterlimit:10;" d="M 175 50 L 300 50 L 300 175 L 175 175 Z M 175 50 " transform="matrix(0.1,0,0,-0.1,0,110)"/>
<path style="fill-rule:nonzero;fill:rgb(62.889099%,62.889099%,62.889099%);fill-opacity:1;stroke-width:10;stroke-linecap:butt;stroke-linejoin:miter;stroke:rgb(50%,50%,50%);stroke-opacity:1;stroke-miterlimit:10;" d="M 300 50 L 425 50 L 425 175 L 300 175 Z M 300 50 " transform="matrix(0.1,0,0,-0.1,0,110)"/>
<path style="fill-rule:nonzero;fill:rgb(66.014099%,66.014099%,66.014099%);fill-opacity:1;stroke-width:10;stroke-linecap:butt;stroke-linejoin:miter;stroke:rgb(50%,50%,50%);stroke-opacity:1;stroke-miterlimit:10;" d="M 425 50 L 550 50 L 550 175 L 425 175 Z M 425 50 " transform="matrix(0.1,0,0,-0.1,0,110)"/>
<path style="fill-rule:nonzero;fill:rgb(67.576599%,67.576599%,67.576599%);fill-opacity:1;stroke-width:10;stroke-linecap:butt;stroke-linejoin:miter;stroke:rgb(50%,50%,50%);stroke-opacity:1;stroke-miterlimit:10;" d="M 550 50 L 675 50 L 675 175 L 550 175 Z M 550 50 " transform="matrix(0.1,0,0,-0.1,0,110)"/>
<path style="fill-rule:nonzero;fill:rgb(66.796875%,66.796875%,66.796875%);fill-opacity:1;stroke-width:10;stroke-linecap:butt;stroke-linejoin:miter;stroke:rgb(50%,50%,50%);stroke-opacity:1;stroke-miterlimit:10;" d="M 675 50 L 800 50 L 800 175 L 675 175 Z M 675 50 " transform="matrix(0.1,0,0,-0.1,0,110)"/>
<path style="fill-rule:nonzero;fill:rgb(66.014099%,66.014099%,66.014099%);fill-opacity:1;stroke-width:10;stroke-linecap:butt;stroke-linejoin:miter;stroke:rgb(50%,50%,50%);stroke-opacity:1;stroke-miterlimit:10;" d="M 800 50 L 925 50 L 925 175 L 800 175 Z M 800 50 " transform="matrix(0.1,0,0,-0.1,0,110)"/>
<path style="fill-rule:nonzero;fill:rgb(66.014099%,66.014099%,66.014099%);fill-opacity:1;stroke-width:10;stroke-linecap:butt;stroke-linejoin:miter;stroke:rgb(50%,50%,50%);stroke-opacity:1;stroke-miterlimit:10;" d="M 925 50 L 1050 50 L 1050 175 L 925 175 Z M 925 50 " transform="matrix(0.1,0,0,-0.1,0,110)"/>
</g>
</svg>
