<?xml version="1.0" encoding="UTF-8"?>
<svg xmlns="http://www.w3.org/2000/svg" xmlns:xlink="http://www.w3.org/1999/xlink" width="120pt" height="110pt" viewBox="0 0 120 110" version="1.1">
<g id="surface1">
<path style=" stroke:none;fill-rule:nonzero;fill:rgb(77.929688%,77.929688%,77.929688%);fill-opacity:1;" d="M 11.09375 80.507812 L 76.09375 94.15625 L 60 55 "/>
<path style="fill:none;stroke-width:10;stroke-linecap:round;stroke-linejoin:round;stroke:rgb(59.959412%,59.959412%,59.959412%);stroke-opacity:1;stroke-miterlimit:10;" d="M 110.9375 294.921875 L 760.9375 158.4375 L 600 550 Z M 110.9375 294.921875 " transform="matrix(0.1,0,0,-0.1,0,110)"/>
<path style=" stroke:none;fill-rule:nonzero;fill:rgb(69.921875%,69.921875%,69.921875%);fill-opacity:1;" d="M 49.375 42.226562 L 114.375 24.023438 L 70.625 67.773438 L 5.625 85.976562 "/>
<path style="fill:none;stroke-width:10;stroke-linecap:round;stroke-linejoin:round;stroke:rgb(59.959412%,59.959412%,59.959412%);stroke-opacity:1;stroke-miterlimit:10;" d="M 493.75 677.734375 L 1143.75 859.765625 L 706.25 422.265625 L 56.25 240.234375 Z M 493.75 677.734375 " transform="matrix(0.1,0,0,-0.1,0,110)"/>
<path style=" stroke:none;fill-rule:nonzero;fill:rgb(77.929688%,77.929688%,77.929688%);fill-opacity:1;" d="M 43.90625 15.84375 L 11.09375 80.507812 L 60 55 "/>
<path style="fill:none;stroke-width:10;stroke-linecap:round;stroke-linejoin:round;stroke:rgb(59.959412%,59.959412%,59.959412%);stroke-opacity:1;stroke-miterlimit:10;" d="M 439.0625 941.5625 L 110.9375 294.921875 L 600 550 Z M 439.0625 941.5625 " transform="matrix(0.1,0,0,-0.1,0,110)"/>
<path style="fill:none;stroke-width:10;stroke-linecap:round;stroke-linejoin:round;stroke:rgb(0%,0%,100%);stroke-opacity:1;stroke-miterlimit:10;" d="M 110.9375 294.921875 L 600 550 " transform="matrix(0.1,0,0,-0.1,0,110)"/>
<path style=" stroke:none;fill-rule:nonzero;fill:rgb(84.959412%,84.959412%,84.959412%);fill-opacity:1;" d="M 49.375 10.375 L 114.375 55.875 L 70.625 99.625 L 5.625 54.125 "/>
<path style="fill:none;stroke-width:10;stroke-linecap:round;stroke-linejoin:round;stroke:rgb(69.921875%,69.921875%,69.921875%);stroke-opacity:1;stroke-miterlimit:10;" d="M 493.75 996.25 L 1143.75 541.25 L 706.25 103.75 L 56.25 558.75 Z M 493.75 996.25 " transform="matrix(0.1,0,0,-0.1,0,110)"/>
<path style=" stroke:none;fill-rule:nonzero;fill:rgb(77.929688%,77.929688%,77.929688%);fill-opacity:1;" d="M 108.90625 29.492188 L 76.09375 94.15625 L 60 55 "/>
<path style="fill:none;stroke-width:10;stroke-linecap:round;stroke-linejoin:round;stroke:rgb(59.959412%,59.959412%,59.959412%);stroke-opacity:1;stroke-miterlimit:10;" d="M 1089.0625 805.078125 L 760.9375 158.4375 L 600 550 Z M 1089.0625 805.078125 " transform="matrix(0.1,0,0,-0.1,0,110)"/>
<path style="fill:none;stroke-width:10;stroke-linecap:round;stroke-linejoin:round;stroke:rgb(0%,0%,100%);stroke-opacity:1;stroke-miterlimit:10;" d="M 760.9375 158.4375 L 600 550 " transform="matrix(0.1,0,0,-0.1,0,110)"/>
<path style=" stroke:none;fill-rule:nonzero;fill:rgb(69.921875%,69.921875%,69.921875%);fill-opacity:1;" d="M 81.875 33.125 L 114.375 24.023438 L 70.625 67.773438 L 38.125 76.875 "/>
<path style="fill:none;stroke-width:10;stroke-linecap:round;stroke-linejoin:round;stroke:rgb(59.959412%,59.959412%,59.959412%);stroke-opacity:1;stroke-miterlimit:10;" d="M 818.75 768.75 L 1143.75 859.765625 L 706.25 422.265625 L 381.25 331.25 Z M 818.75 768.75 " transform="matrix(0.1,0,0,-0.1,0,110)"/>
<path style=" stroke:none;fill-rule:nonzero;fill:rgb(77.929688%,77.929688%,77.929688%);fill-opacity:1;" d="M 43.90625 15.84375 L 108.90625 29.492188 L 60 55 "/>
<path style="fill:none;stroke-width:10;stroke-linecap:round;stroke-linejoin:round;stroke:rgb(59.959412%,59.959412%,59.959412%);stroke-opacity:1;stroke-miterlimit:10;" d="M 439.0625 941.5625 L 1089.0625 805.078125 L 600 550 Z M 439.0625 941.5625 " transform="matrix(0.1,0,0,-0.1,0,110)"/>
<path style="fill:none;stroke-width:10;stroke-linecap:round;stroke-linejoin:round;stroke:rgb(0%,0%,100%);stroke-opacity:1;stroke-miterlimit:10;" d="M 1089.0625 805.078125 L 600 550 " transform="matrix(0.1,0,0,-0.1,0,110)"/>
<path style="fill:none;stroke-width:10;stroke-linecap:round;stroke-linejoin:round;stroke:rgb(0%,0%,100%);stroke-opacity:1;stroke-miterlimit:10;" d="M 439.0625 941.5625 L 600 550 " transform="matrix(0.1,0,0,-0.1,0,110)"/>
<path style="fill:none;stroke-width:10;stroke-linecap:round;stroke-linejoin:round;stroke:rgb(0%,0%,100%);stroke-opacity:1;stroke-miterlimit:10;" d="M 381.25 331.25 L 600 550 " transform="matrix(0.1,0,0,-0.1,0,110)"/>
<path style=" stroke:none;fill-rule:nonzero;fill:rgb(0%,0%,0%);fill-opacity:1;" d="M 61.5 55 C 61.5 54.171875 60.828125 53.5 60 53.5 C 59.171875 53.5 58.5 54.171875 58.5 55 C 58.5 55.828125 59.171875 56.5 60 56.5 C 60.828125 56.5 61.5 55.828125 61.5 55 "/>
<path style="fill:none;stroke-width:10;stroke-linecap:round;stroke-linejoin:round;stroke:rgb(0%,0%,0%);stroke-opacity:1;stroke-miterlimit:10;" d="M 615 550 C 615 558.28125 608.28125 565 600 565 C 591.71875 565 585 558.28125 585 550 C 585 541.71875 591.71875 535 600 535 C 608.28125 535 615 541.71875 615 550 Z M 615 550 " transform="matrix(0.1,0,0,-0.1,0,110)"/>
</g>
</svg>
