<?xml version="1.0" encoding="UTF-8"?>
<svg xmlns="http://www.w3.org/2000/svg" xmlns:xlink="http://www.w3.org/1999/xlink" width="110pt" height="110pt" viewBox="0 0 110 110" version="1.1">
<defs>
<clipPath id="clip1">
  <path d="M 55 5 L 105 5 L 105 55 L 55 55 Z M 55 5 "/>
</clipPath>
</defs>
<g id="surface1">
<g clip-path="url(#clip1)" clip-rule="nonzero">
<path style=" stroke:none;fill-rule:nonzero;fill:rgb(50%,50%,50%);fill-opacity:1;" d="M 305 55 L 55 55 L 55 -195 "/>
</g>
<path style="fill:none;stroke-width:10;stroke-linecap:butt;stroke-linejoin:miter;stroke:rgb(80.076599%,80.076599%,80.076599%);stroke-opacity:1;stroke-miterlimit:10;" d="M 50 50 L 50 1050 M 175 50 L 175 1050 M 300 50 L 300 1050 M 425 50 L 425 1050 M 550 50 L 550 1050 M 675 50 L 675 1050 M 800 50 L 800 1050 M 925 50 L 925 1050 M 1050 50 L 1050 1050 M 50 50 L 1050 50 M 50 175 L 1050 175 M 50 300 L 1050 300 M 50 425 L 1050 425 M 50 550 L 1050 550 M 50 675 L 1050 675 M 50 800 L 1050 800 M 50 925 L 1050 925 M 50 1050 L 1050 1050 " transform="matrix(0.1,0,0,-0.1,0,110)"/>
<path style="fill:none;stroke-width:10;stroke-linecap:butt;stroke-linejoin:miter;stroke:rgb(0%,0%,0%);stroke-opacity:1;stroke-miterlimit:10;" d="M 50 550 L 1050 550 M 550 50 L 550 1050 " transform="matrix(0.1,0,0,-0.1,0,110)"/>
<path style="fill:none;stroke-width:20;stroke-linecap:butt;stroke-linejoin:miter;stroke:rgb(50%,50%,50%);stroke-opacity:1;stroke-miterlimit:10;" d="M 1050 550 L 550 550 L 550 1050 " transform="matrix(0.1,0,0,-0.1,0,110)"/>
<path style=" stroke:none;fill-rule:nonzero;fill:rgb(0%,0%,100%);fill-opacity:1;" d="M 55.554688 55.832031 L 88.410156 33.929688 L 88.558594 36.234375 L 92.5 30 L 85.230469 31.242188 L 87.300781 32.265625 L 54.445312 54.167969 L 55.554688 55.832031 "/>
<path style="fill:none;stroke-width:10;stroke-linecap:butt;stroke-linejoin:miter;stroke:rgb(0%,0%,100%);stroke-opacity:1;stroke-miterlimit:10;" d="M 555.546875 541.679688 L 884.101562 760.703125 L 885.585938 737.65625 L 925 800 L 852.304688 787.578125 L 873.007812 777.34375 L 544.453125 558.320312 Z M 555.546875 541.679688 " transform="matrix(0.1,0,0,-0.1,0,110)"/>
<path style=" stroke:none;fill-rule:nonzero;fill:rgb(100%,0%,0%);fill-opacity:1;" d="M 54.445312 54.167969 L 21.589844 76.070312 L 21.441406 73.765625 L 17.5 80 L 24.769531 78.757812 L 22.699219 77.734375 L 55.554688 55.832031 L 54.445312 54.167969 "/>
<path style="fill:none;stroke-width:10;stroke-linecap:butt;stroke-linejoin:miter;stroke:rgb(100%,0%,0%);stroke-opacity:1;stroke-miterlimit:10;" d="M 544.453125 558.320312 L 215.898438 339.296875 L 214.414062 362.34375 L 175 300 L 247.695312 312.421875 L 226.992188 322.65625 L 555.546875 541.679688 Z M 544.453125 558.320312 " transform="matrix(0.1,0,0,-0.1,0,110)"/>
</g>
</svg>
