<?xml version="1.0" encoding="UTF-8"?>
<svg xmlns="http://www.w3.org/2000/svg" xmlns:xlink="http://www.w3.org/1999/xlink" width="110pt" height="110pt" viewBox="0 0 110 110" version="1.1">
<defs>
<clipPath id="clip1">
  <path d="M 55 5 L 105 5 L 105 55 L 55 55 Z M 55 5 "/>
</clipPath>
<clipPath id="clip2">
  <path d="M 5 55 L 55 55 L 55 105 L 5 105 Z M 5 55 "/>
</clipPath>
</defs>
<g id="surface1">
<g clip-path="url(#clip1)" clip-rule="nonzero">
<path style=" stroke:none;fill-rule:nonzero;fill:rgb(50%,50%,50%);fill-opacity:1;" d="M 305 55 L 55 55 L 55 -195 "/>
</g>
<g clip-path="url(#clip2)" clip-rule="nonzero">
<path style=" stroke:none;fill-rule:nonzero;fill:rgb(50%,50%,50%);fill-opacity:1;" d="M -195 55 L 55 55 L 55 305 "/>
</g>
<path style="fill:none;stroke-width:10;stroke-linecap:butt;stroke-linejoin:miter;stroke:rgb(80.076599%,80.076599%,80.076599%);stroke-opacity:1;stroke-miterlimit:10;" d="M 50 50 L 50 1050 M 175 50 L 175 1050 M 300 50 L 300 1050 M 425 50 L 425 1050 M 550 50 L 550 1050 M 675 50 L 675 1050 M 800 50 L 800 1050 M 925 50 L 925 1050 M 1050 50 L 1050 1050 M 50 50 L 1050 50 M 50 175 L 1050 175 M 50 300 L 1050 300 M 50 425 L 1050 425 M 50 550 L 1050 550 M 50 675 L 1050 675 M 50 800 L 1050 800 M 50 925 L 1050 925 M 50 1050 L 1050 1050 " transform="matrix(0.1,0,0,-0.1,0,110)"/>
<path style="fill:none;stroke-width:20;stroke-linecap:butt;stroke-linejoin:miter;stroke:rgb(50%,50%,50%);stroke-opacity:1;stroke-miterlimit:10;" d="M 1050 550 L 50 550 M 550 1050 L 550 50 " transform="matrix(0.1,0,0,-0.1,0,110)"/>
<path style=" stroke:none;fill-rule:nonzero;fill:rgb(0%,0%,100%);fill-opacity:1;" d="M 56 55 L 56 23.082031 L 58 24.238281 L 55 17.5 L 52 24.238281 L 54 23.082031 L 54 55 L 56 55 "/>
<path style="fill:none;stroke-width:10;stroke-linecap:butt;stroke-linejoin:miter;stroke:rgb(0%,0%,100%);stroke-opacity:1;stroke-miterlimit:10;" d="M 560 550 L 560 869.179688 L 580 857.617188 L 550 925 L 520 857.617188 L 540 869.179688 L 540 550 Z M 560 550 " transform="matrix(0.1,0,0,-0.1,0,110)"/>
<path style=" stroke:none;fill-rule:nonzero;fill:rgb(0%,0%,100%);fill-opacity:1;" d="M 55 54 L 35.582031 54 L 36.738281 52 L 30 55 L 36.738281 58 L 35.582031 56 L 55 56 L 55 54 "/>
<path style="fill:none;stroke-width:10;stroke-linecap:butt;stroke-linejoin:miter;stroke:rgb(0%,0%,100%);stroke-opacity:1;stroke-miterlimit:10;" d="M 550 560 L 355.820312 560 L 367.382812 580 L 300 550 L 367.382812 520 L 355.820312 540 L 550 540 Z M 550 560 " transform="matrix(0.1,0,0,-0.1,0,110)"/>
<path style=" stroke:none;fill-rule:nonzero;fill:rgb(100%,0%,0%);fill-opacity:1;" d="M 55.832031 54.445312 L 33.929688 21.589844 L 36.234375 21.441406 L 30 17.5 L 31.242188 24.769531 L 32.265625 22.699219 L 54.167969 55.554688 L 55.832031 54.445312 "/>
<path style="fill:none;stroke-width:10;stroke-linecap:butt;stroke-linejoin:miter;stroke:rgb(100%,0%,0%);stroke-opacity:1;stroke-miterlimit:10;" d="M 558.320312 555.546875 L 339.296875 884.101562 L 362.34375 885.585938 L 300 925 L 312.421875 852.304688 L 322.65625 873.007812 L 541.679688 544.453125 Z M 558.320312 555.546875 " transform="matrix(0.1,0,0,-0.1,0,110)"/>
</g>
</svg>
