<?xml version="1.0" encoding="UTF-8"?>
<svg xmlns="http://www.w3.org/2000/svg" xmlns:xlink="http://www.w3.org/1999/xlink" width="200pt" height="200pt" viewBox="0 0 200 200" version="1.1">
<g id="surface1">
<path style="fill:none;stroke-width:10;stroke-linecap:butt;stroke-linejoin:miter;stroke:rgb(80.076599%,80.076599%,80.076599%);stroke-opacity:1;stroke-miterlimit:10;" d="M 50 50 L 50 1950 M 287.5 50 L 287.5 1950 M 525 50 L 525 1950 M 762.5 50 L 762.5 1950 M 1000 50 L 1000 1950 M 1237.5 50 L 1237.5 1950 M 1475 50 L 1475 1950 M 1712.5 50 L 1712.5 1950 M 1950 50 L 1950 1950 M 50 50 L 1950 50 M 50 287.5 L 1950 287.5 M 50 525 L 1950 525 M 50 762.5 L 1950 762.5 M 50 1000 L 1950 1000 M 50 1237.5 L 1950 1237.5 M 50 1475 L 1950 1475 M 50 1712.5 L 1950 1712.5 M 50 1950 L 1950 1950 " transform="matrix(0.1,0,0,-0.1,0,200)"/>
<path style="fill:none;stroke-width:10;stroke-linecap:butt;stroke-linejoin:miter;stroke:rgb(0%,0%,0%);stroke-opacity:1;stroke-miterlimit:10;" d="M 50 1000 L 1950 1000 M 1000 50 L 1000 1950 " transform="matrix(0.1,0,0,-0.1,0,200)"/>
<path style="fill:none;stroke-width:10;stroke-linecap:butt;stroke-linejoin:miter;stroke:rgb(0%,0%,100%);stroke-opacity:1;stroke-miterlimit:10;" d="M 1118.75 1000 L 1000 1118.75 L 881.25 1000 M 1000 1118.75 L 1000 1356.25 M 1118.75 1356.25 L 881.25 1118.75 " transform="matrix(0.1,0,0,-0.1,0,200)"/>
<path style="fill:none;stroke-width:10;stroke-linecap:butt;stroke-linejoin:miter;stroke:rgb(0%,0%,100%);stroke-opacity:1;stroke-miterlimit:10;" d="M 1059.375 1475 C 1059.375 1540.585938 1032.773438 1593.75 1000 1593.75 C 967.1875 1593.75 940.625 1540.585938 940.625 1475 C 940.625 1409.414062 967.1875 1356.25 1000 1356.25 C 1032.773438 1356.25 1059.375 1409.414062 1059.375 1475 Z M 1059.375 1475 " transform="matrix(0.1,0,0,-0.1,0,200)"/>
</g>
</svg>
