<?xml version="1.0" encoding="UTF-8"?>
<svg xmlns="http://www.w3.org/2000/svg" xmlns:xlink="http://www.w3.org/1999/xlink" width="110pt" height="110pt" viewBox="0 0 110 110" version="1.1">
<defs>
<clipPath id="clip1">
  <path d="M 5 5 L 105 5 L 105 105 L 5 105 Z M 5 5 "/>
</clipPath>
</defs>
<g id="surface1">
<path style="fill:none;stroke-width:10;stroke-linecap:butt;stroke-linejoin:miter;stroke:rgb(80.076599%,80.076599%,80.076599%);stroke-opacity:1;stroke-miterlimit:10;" d="M 50 50 L 50 1050 M 175 50 L 175 1050 M 300 50 L 300 1050 M 425 50 L 425 1050 M 550 50 L 550 1050 M 675 50 L 675 1050 M 800 50 L 800 1050 M 925 50 L 925 1050 M 1050 50 L 1050 1050 M 50 50 L 1050 50 M 50 175 L 1050 175 M 50 300 L 1050 300 M 50 425 L 1050 425 M 50 550 L 1050 550 M 50 675 L 1050 675 M 50 800 L 1050 800 M 50 925 L 1050 925 M 50 1050 L 1050 1050 " transform="matrix(0.1,0,0,-0.1,0,110)"/>
<path style="fill:none;stroke-width:10;stroke-linecap:butt;stroke-linejoin:miter;stroke:rgb(0%,0%,0%);stroke-opacity:1;stroke-miterlimit:10;" d="M 50 530 L 50 570 " transform="matrix(0.1,0,0,-0.1,0,110)"/>
<path style="fill:none;stroke-width:10;stroke-linecap:butt;stroke-linejoin:miter;stroke:rgb(0%,0%,0%);stroke-opacity:1;stroke-miterlimit:10;" d="M 175 530 L 175 570 " transform="matrix(0.1,0,0,-0.1,0,110)"/>
<path style="fill:none;stroke-width:10;stroke-linecap:butt;stroke-linejoin:miter;stroke:rgb(0%,0%,0%);stroke-opacity:1;stroke-miterlimit:10;" d="M 300 530 L 300 570 " transform="matrix(0.1,0,0,-0.1,0,110)"/>
<path style="fill:none;stroke-width:10;stroke-linecap:butt;stroke-linejoin:miter;stroke:rgb(0%,0%,0%);stroke-opacity:1;stroke-miterlimit:10;" d="M 425 530 L 425 570 " transform="matrix(0.1,0,0,-0.1,0,110)"/>
<path style="fill:none;stroke-width:10;stroke-linecap:butt;stroke-linejoin:miter;stroke:rgb(0%,0%,0%);stroke-opacity:1;stroke-miterlimit:10;" d="M 550 530 L 550 570 " transform="matrix(0.1,0,0,-0.1,0,110)"/>
<path style="fill:none;stroke-width:10;stroke-linecap:butt;stroke-linejoin:miter;stroke:rgb(0%,0%,0%);stroke-opacity:1;stroke-miterlimit:10;" d="M 675 530 L 675 570 " transform="matrix(0.1,0,0,-0.1,0,110)"/>
<path style="fill:none;stroke-width:10;stroke-linecap:butt;stroke-linejoin:miter;stroke:rgb(0%,0%,0%);stroke-opacity:1;stroke-miterlimit:10;" d="M 800 530 L 800 570 " transform="matrix(0.1,0,0,-0.1,0,110)"/>
<path style="fill:none;stroke-width:10;stroke-linecap:butt;stroke-linejoin:miter;stroke:rgb(0%,0%,0%);stroke-opacity:1;stroke-miterlimit:10;" d="M 925 530 L 925 570 " transform="matrix(0.1,0,0,-0.1,0,110)"/>
<path style="fill:none;stroke-width:10;stroke-linecap:butt;stroke-linejoin:miter;stroke:rgb(0%,0%,0%);stroke-opacity:1;stroke-miterlimit:10;" d="M 1050 530 L 1050 570 " transform="matrix(0.1,0,0,-0.1,0,110)"/>
<path style="fill:none;stroke-width:10;stroke-linecap:butt;stroke-linejoin:miter;stroke:rgb(0%,0%,0%);stroke-opacity:1;stroke-miterlimit:10;" d="M 530 50 L 570 50 " transform="matrix(0.1,0,0,-0.1,0,110)"/>
<path style="fill:none;stroke-width:10;stroke-linecap:butt;stroke-linejoin:miter;stroke:rgb(0%,0%,0%);stroke-opacity:1;stroke-miterlimit:10;" d="M 530 175 L 570 175 " transform="matrix(0.1,0,0,-0.1,0,110)"/>
<path style="fill:none;stroke-width:10;stroke-linecap:butt;stroke-linejoin:miter;stroke:rgb(0%,0%,0%);stroke-opacity:1;stroke-miterlimit:10;" d="M 530 300 L 570 300 " transform="matrix(0.1,0,0,-0.1,0,110)"/>
<path style="fill:none;stroke-width:10;stroke-linecap:butt;stroke-linejoin:miter;stroke:rgb(0%,0%,0%);stroke-opacity:1;stroke-miterlimit:10;" d="M 530 425 L 570 425 " transform="matrix(0.1,0,0,-0.1,0,110)"/>
<path style="fill:none;stroke-width:10;stroke-linecap:butt;stroke-linejoin:miter;stroke:rgb(0%,0%,0%);stroke-opacity:1;stroke-miterlimit:10;" d="M 530 550 L 570 550 " transform="matrix(0.1,0,0,-0.1,0,110)"/>
<path style="fill:none;stroke-width:10;stroke-linecap:butt;stroke-linejoin:miter;stroke:rgb(0%,0%,0%);stroke-opacity:1;stroke-miterlimit:10;" d="M 530 675 L 570 675 " transform="matrix(0.1,0,0,-0.1,0,110)"/>
<path style="fill:none;stroke-width:10;stroke-linecap:butt;stroke-linejoin:miter;stroke:rgb(0%,0%,0%);stroke-opacity:1;stroke-miterlimit:10;" d="M 530 800 L 570 800 " transform="matrix(0.1,0,0,-0.1,0,110)"/>
<path style="fill:none;stroke-width:10;stroke-linecap:butt;stroke-linejoin:miter;stroke:rgb(0%,0%,0%);stroke-opacity:1;stroke-miterlimit:10;" d="M 530 925 L 570 925 " transform="matrix(0.1,0,0,-0.1,0,110)"/>
<path style="fill:none;stroke-width:10;stroke-linecap:butt;stroke-linejoin:miter;stroke:rgb(0%,0%,0%);stroke-opacity:1;stroke-miterlimit:10;" d="M 530 1050 L 570 1050 " transform="matrix(0.1,0,0,-0.1,0,110)"/>
<path style="fill:none;stroke-width:10;stroke-linecap:butt;stroke-linejoin:miter;stroke:rgb(0%,0%,0%);stroke-opacity:1;stroke-miterlimit:10;" d="M 50 550 L 1050 550 M 550 50 L 550 1050 " transform="matrix(0.1,0,0,-0.1,0,110)"/>
<g clip-path="url(#clip1)" clip-rule="nonzero">
<path style="fill:none;stroke-width:10;stroke-linecap:butt;stroke-linejoin:miter;stroke:rgb(0%,0%,100%);stroke-opacity:1;stroke-miterlimit:10;" d="M 50 175 L 1050 1175 " transform="matrix(0.1,0,0,-0.1,0,110)"/>
</g>
</g>
</svg>
