<?xml version="1.0" encoding="UTF-8"?>
<svg xmlns="http://www.w3.org/2000/svg" xmlns:xlink="http://www.w3.org/1999/xlink" width="110pt" height="110pt" viewBox="0 0 110 110" version="1.1">
<g id="surface1">
<path style="fill-rule:nonzero;fill:rgb(91.40625%,61.521912%,47.459412%);fill-opacity:1;stroke-width:10;stroke-linecap:butt;stroke-linejoin:miter;stroke:rgb(50%,50%,50%);stroke-opacity:1;stroke-miterlimit:10;" d="M 50 925 L 175 925 L 175 1050 L 50 1050 Z M 50 925 " transform="matrix(0.1,0,0,-0.1,0,110)"/>
<path style="fill-rule:nonzero;fill:rgb(89.0625%,59.568787%,44.309998%);fill-opacity:1;stroke-width:10;stroke-linecap:butt;stroke-linejoin:miter;stroke:rgb(50%,50%,50%);stroke-opacity:1;stroke-miterlimit:10;" d="M 175 925 L 300 925 L 300 1050 L 175 1050 Z M 175 925 " transform="matrix(0.1,0,0,-0.1,0,110)"/>
<path style="fill-rule:nonzero;fill:rgb(89.0625%,59.568787%,44.309998%);fill-opacity:1;stroke-width:10;stroke-linecap:butt;stroke-linejoin:miter;stroke:rgb(50%,50%,50%);stroke-opacity:1;stroke-miterlimit:10;" d="M 300 925 L 425 925 L 425 1050 L 300 1050 Z M 300 925 " transform="matrix(0.1,0,0,-0.1,0,110)"/>
<path style="fill-rule:nonzero;fill:rgb(88.671875%,59.179688%,43.920898%);fill-opacity:1;stroke-width:10;stroke-linecap:butt;stroke-linejoin:miter;stroke:rgb(50%,50%,50%);stroke-opacity:1;stroke-miterlimit:10;" d="M 425 925 L 550 925 L 550 1050 L 425 1050 Z M 425 925 " transform="matrix(0.1,0,0,-0.1,0,110)"/>
<path style="fill-rule:nonzero;fill:rgb(86.71875%,56.443787%,39.988708%);fill-opacity:1;stroke-width:10;stroke-linecap:butt;stroke-linejoin:miter;stroke:rgb(50%,50%,50%);stroke-opacity:1;stroke-miterlimit:10;" d="M 550 925 L 675 925 L 675 1050 L 550 1050 Z M 550 925 " transform="matrix(0.1,0,0,-0.1,0,110)"/>
<path style="fill-rule:nonzero;fill:rgb(85.9375%,55.664062%,39.208984%);fill-opacity:1;stroke-width:10;stroke-linecap:butt;stroke-linejoin:miter;stroke:rgb(50%,50%,50%);stroke-opacity:1;stroke-miterlimit:10;" d="M 675 925 L 800 925 L 800 1050 L 675 1050 Z M 675 925 " transform="matrix(0.1,0,0,-0.1,0,110)"/>
<path style="fill-rule:nonzero;fill:rgb(83.984375%,53.318787%,38.035583%);fill-opacity:1;stroke-width:10;stroke-linecap:butt;stroke-linejoin:miter;stroke:rgb(50%,50%,50%);stroke-opacity:1;stroke-miterlimit:10;" d="M 800 925 L 925 925 L 925 1050 L 800 1050 Z M 800 925 " transform="matrix(0.1,0,0,-0.1,0,110)"/>
<path style="fill-rule:nonzero;fill:rgb(82.03125%,51.367188%,36.083984%);fill-opacity:1;stroke-width:10;stroke-linecap:butt;stroke-linejoin:miter;stroke:rgb(50%,50%,50%);stroke-opacity:1;stroke-miterlimit:10;" d="M 925 925 L 1050 925 L 1050 1050 L 925 1050 Z M 925 925 " transform="matrix(0.1,0,0,-0.1,0,110)"/>
<path style="fill-rule:nonzero;fill:rgb(94.139099%,63.476562%,48.631287%);fill-opacity:1;stroke-width:10;stroke-linecap:butt;stroke-linejoin:miter;stroke:rgb(50%,50%,50%);stroke-opacity:1;stroke-miterlimit:10;" d="M 50 800 L 175 800 L 175 925 L 50 925 Z M 50 800 " transform="matrix(0.1,0,0,-0.1,0,110)"/>
<path style="fill-rule:nonzero;fill:rgb(93.359375%,62.693787%,47.459412%);fill-opacity:1;stroke-width:10;stroke-linecap:butt;stroke-linejoin:miter;stroke:rgb(50%,50%,50%);stroke-opacity:1;stroke-miterlimit:10;" d="M 175 800 L 300 800 L 300 925 L 175 925 Z M 175 800 " transform="matrix(0.1,0,0,-0.1,0,110)"/>
<path style="fill-rule:nonzero;fill:rgb(91.796875%,61.131287%,45.872498%);fill-opacity:1;stroke-width:10;stroke-linecap:butt;stroke-linejoin:miter;stroke:rgb(50%,50%,50%);stroke-opacity:1;stroke-miterlimit:10;" d="M 300 800 L 425 800 L 425 925 L 300 925 Z M 300 800 " transform="matrix(0.1,0,0,-0.1,0,110)"/>
<path style="fill-rule:nonzero;fill:rgb(88.671875%,58.006287%,42.747498%);fill-opacity:1;stroke-width:10;stroke-linecap:butt;stroke-linejoin:miter;stroke:rgb(50%,50%,50%);stroke-opacity:1;stroke-miterlimit:10;" d="M 425 800 L 550 800 L 550 925 L 425 925 Z M 425 800 " transform="matrix(0.1,0,0,-0.1,0,110)"/>
<path style="fill-rule:nonzero;fill:rgb(87.109375%,56.054688%,39.988708%);fill-opacity:1;stroke-width:10;stroke-linecap:butt;stroke-linejoin:miter;stroke:rgb(50%,50%,50%);stroke-opacity:1;stroke-miterlimit:10;" d="M 550 800 L 675 800 L 675 925 L 550 925 Z M 550 800 " transform="matrix(0.1,0,0,-0.1,0,110)"/>
<path style="fill-rule:nonzero;fill:rgb(86.326599%,55.271912%,39.208984%);fill-opacity:1;stroke-width:10;stroke-linecap:butt;stroke-linejoin:miter;stroke:rgb(50%,50%,50%);stroke-opacity:1;stroke-miterlimit:10;" d="M 675 800 L 800 800 L 800 925 L 675 925 Z M 675 800 " transform="matrix(0.1,0,0,-0.1,0,110)"/>
<path style="fill-rule:nonzero;fill:rgb(83.984375%,52.929688%,36.863708%);fill-opacity:1;stroke-width:10;stroke-linecap:butt;stroke-linejoin:miter;stroke:rgb(50%,50%,50%);stroke-opacity:1;stroke-miterlimit:10;" d="M 800 800 L 925 800 L 925 925 L 800 925 Z M 800 800 " transform="matrix(0.1,0,0,-0.1,0,110)"/>
<path style="fill-rule:nonzero;fill:rgb(82.03125%,50.976562%,35.693359%);fill-opacity:1;stroke-width:10;stroke-linecap:butt;stroke-linejoin:miter;stroke:rgb(50%,50%,50%);stroke-opacity:1;stroke-miterlimit:10;" d="M 925 800 L 1050 800 L 1050 925 L 925 925 Z M 925 800 " transform="matrix(0.1,0,0,-0.1,0,110)"/>
<path style="fill-rule:nonzero;fill:rgb(87.889099%,57.617188%,41.184998%);fill-opacity:1;stroke-width:10;stroke-linecap:butt;stroke-linejoin:miter;stroke:rgb(50%,50%,50%);stroke-opacity:1;stroke-miterlimit:10;" d="M 50 675 L 175 675 L 175 800 L 50 800 Z M 50 675 " transform="matrix(0.1,0,0,-0.1,0,110)"/>
<path style="fill-rule:nonzero;fill:rgb(89.84375%,59.568787%,42.358398%);fill-opacity:1;stroke-width:10;stroke-linecap:butt;stroke-linejoin:miter;stroke:rgb(50%,50%,50%);stroke-opacity:1;stroke-miterlimit:10;" d="M 175 675 L 300 675 L 300 800 L 175 800 Z M 175 675 " transform="matrix(0.1,0,0,-0.1,0,110)"/>
<path style="fill-rule:nonzero;fill:rgb(89.451599%,59.179688%,41.967773%);fill-opacity:1;stroke-width:10;stroke-linecap:butt;stroke-linejoin:miter;stroke:rgb(50%,50%,50%);stroke-opacity:1;stroke-miterlimit:10;" d="M 300 675 L 425 675 L 425 800 L 300 800 Z M 300 675 " transform="matrix(0.1,0,0,-0.1,0,110)"/>
<path style="fill-rule:nonzero;fill:rgb(86.326599%,56.054688%,38.818359%);fill-opacity:1;stroke-width:10;stroke-linecap:butt;stroke-linejoin:miter;stroke:rgb(50%,50%,50%);stroke-opacity:1;stroke-miterlimit:10;" d="M 425 675 L 550 675 L 550 800 L 425 800 Z M 425 675 " transform="matrix(0.1,0,0,-0.1,0,110)"/>
<path style="fill-rule:nonzero;fill:rgb(87.109375%,56.054688%,39.988708%);fill-opacity:1;stroke-width:10;stroke-linecap:butt;stroke-linejoin:miter;stroke:rgb(50%,50%,50%);stroke-opacity:1;stroke-miterlimit:10;" d="M 550 675 L 675 675 L 675 800 L 550 800 Z M 550 675 " transform="matrix(0.1,0,0,-0.1,0,110)"/>
<path style="fill-rule:nonzero;fill:rgb(86.71875%,55.664062%,39.598083%);fill-opacity:1;stroke-width:10;stroke-linecap:butt;stroke-linejoin:miter;stroke:rgb(50%,50%,50%);stroke-opacity:1;stroke-miterlimit:10;" d="M 675 675 L 800 675 L 800 800 L 675 800 Z M 675 675 " transform="matrix(0.1,0,0,-0.1,0,110)"/>
<path style="fill-rule:nonzero;fill:rgb(86.326599%,55.271912%,39.208984%);fill-opacity:1;stroke-width:10;stroke-linecap:butt;stroke-linejoin:miter;stroke:rgb(50%,50%,50%);stroke-opacity:1;stroke-miterlimit:10;" d="M 800 675 L 925 675 L 925 800 L 800 800 Z M 800 675 " transform="matrix(0.1,0,0,-0.1,0,110)"/>
<path style="fill-rule:nonzero;fill:rgb(85.546875%,54.492188%,39.208984%);fill-opacity:1;stroke-width:10;stroke-linecap:butt;stroke-linejoin:miter;stroke:rgb(50%,50%,50%);stroke-opacity:1;stroke-miterlimit:10;" d="M 925 675 L 1050 675 L 1050 800 L 925 800 Z M 925 675 " transform="matrix(0.1,0,0,-0.1,0,110)"/>
<path style="fill-rule:nonzero;fill:rgb(77.734375%,47.459412%,29.417419%);fill-opacity:1;stroke-width:10;stroke-linecap:butt;stroke-linejoin:miter;stroke:rgb(50%,50%,50%);stroke-opacity:1;stroke-miterlimit:10;" d="M 50 550 L 175 550 L 175 675 L 50 675 Z M 50 550 " transform="matrix(0.1,0,0,-0.1,0,110)"/>
<path style="fill-rule:nonzero;fill:rgb(82.03125%,51.756287%,33.714294%);fill-opacity:1;stroke-width:10;stroke-linecap:butt;stroke-linejoin:miter;stroke:rgb(50%,50%,50%);stroke-opacity:1;stroke-miterlimit:10;" d="M 175 550 L 300 550 L 300 675 L 175 675 Z M 175 550 " transform="matrix(0.1,0,0,-0.1,0,110)"/>
<path style="fill-rule:nonzero;fill:rgb(87.5%,57.226562%,39.208984%);fill-opacity:1;stroke-width:10;stroke-linecap:butt;stroke-linejoin:miter;stroke:rgb(50%,50%,50%);stroke-opacity:1;stroke-miterlimit:10;" d="M 300 550 L 425 550 L 425 675 L 300 675 Z M 300 550 " transform="matrix(0.1,0,0,-0.1,0,110)"/>
<path style="fill-rule:nonzero;fill:rgb(88.28125%,58.006287%,39.988708%);fill-opacity:1;stroke-width:10;stroke-linecap:butt;stroke-linejoin:miter;stroke:rgb(50%,50%,50%);stroke-opacity:1;stroke-miterlimit:10;" d="M 425 550 L 550 550 L 550 675 L 425 675 Z M 425 550 " transform="matrix(0.1,0,0,-0.1,0,110)"/>
<path style="fill-rule:nonzero;fill:rgb(85.9375%,54.881287%,38.818359%);fill-opacity:1;stroke-width:10;stroke-linecap:butt;stroke-linejoin:miter;stroke:rgb(50%,50%,50%);stroke-opacity:1;stroke-miterlimit:10;" d="M 550 550 L 675 550 L 675 675 L 550 675 Z M 550 550 " transform="matrix(0.1,0,0,-0.1,0,110)"/>
<path style="fill-rule:nonzero;fill:rgb(86.326599%,55.271912%,39.208984%);fill-opacity:1;stroke-width:10;stroke-linecap:butt;stroke-linejoin:miter;stroke:rgb(50%,50%,50%);stroke-opacity:1;stroke-miterlimit:10;" d="M 675 550 L 800 550 L 800 675 L 675 675 Z M 675 550 " transform="matrix(0.1,0,0,-0.1,0,110)"/>
<path style="fill-rule:nonzero;fill:rgb(87.109375%,56.054688%,39.988708%);fill-opacity:1;stroke-width:10;stroke-linecap:butt;stroke-linejoin:miter;stroke:rgb(50%,50%,50%);stroke-opacity:1;stroke-miterlimit:10;" d="M 800 550 L 925 550 L 925 675 L 800 675 Z M 800 550 " transform="matrix(0.1,0,0,-0.1,0,110)"/>
<path style="fill-rule:nonzero;fill:rgb(87.5%,56.443787%,40.380859%);fill-opacity:1;stroke-width:10;stroke-linecap:butt;stroke-linejoin:miter;stroke:rgb(50%,50%,50%);stroke-opacity:1;stroke-miterlimit:10;" d="M 925 550 L 1050 550 L 1050 675 L 925 675 Z M 925 550 " transform="matrix(0.1,0,0,-0.1,0,110)"/>
<path style="fill-rule:nonzero;fill:rgb(74.804688%,44.309998%,26.268005%);fill-opacity:1;stroke-width:10;stroke-linecap:butt;stroke-linejoin:miter;stroke:rgb(50%,50%,50%);stroke-opacity:1;stroke-miterlimit:10;" d="M 50 425 L 175 425 L 175 550 L 50 550 Z M 50 425 " transform="matrix(0.1,0,0,-0.1,0,110)"/>
<path style="fill-rule:nonzero;fill:rgb(77.34375%,46.655273%,28.637695%);fill-opacity:1;stroke-width:10;stroke-linecap:butt;stroke-linejoin:miter;stroke:rgb(50%,50%,50%);stroke-opacity:1;stroke-miterlimit:10;" d="M 175 425 L 300 425 L 300 550 L 175 550 Z M 175 425 " transform="matrix(0.1,0,0,-0.1,0,110)"/>
<path style="fill-rule:nonzero;fill:rgb(85.15625%,54.492188%,36.473083%);fill-opacity:1;stroke-width:10;stroke-linecap:butt;stroke-linejoin:miter;stroke:rgb(50%,50%,50%);stroke-opacity:1;stroke-miterlimit:10;" d="M 300 425 L 425 425 L 425 550 L 300 550 Z M 300 425 " transform="matrix(0.1,0,0,-0.1,0,110)"/>
<path style="fill-rule:nonzero;fill:rgb(88.28125%,57.617188%,38.818359%);fill-opacity:1;stroke-width:10;stroke-linecap:butt;stroke-linejoin:miter;stroke:rgb(50%,50%,50%);stroke-opacity:1;stroke-miterlimit:10;" d="M 425 425 L 550 425 L 550 550 L 425 550 Z M 425 425 " transform="matrix(0.1,0,0,-0.1,0,110)"/>
<path style="fill-rule:nonzero;fill:rgb(87.5%,56.443787%,39.598083%);fill-opacity:1;stroke-width:10;stroke-linecap:butt;stroke-linejoin:miter;stroke:rgb(50%,50%,50%);stroke-opacity:1;stroke-miterlimit:10;" d="M 550 425 L 675 425 L 675 550 L 550 550 Z M 550 425 " transform="matrix(0.1,0,0,-0.1,0,110)"/>
<path style="fill-rule:nonzero;fill:rgb(87.5%,56.443787%,40.380859%);fill-opacity:1;stroke-width:10;stroke-linecap:butt;stroke-linejoin:miter;stroke:rgb(50%,50%,50%);stroke-opacity:1;stroke-miterlimit:10;" d="M 675 425 L 800 425 L 800 550 L 675 550 Z M 675 425 " transform="matrix(0.1,0,0,-0.1,0,110)"/>
<path style="fill-rule:nonzero;fill:rgb(87.889099%,56.834412%,40.795898%);fill-opacity:1;stroke-width:10;stroke-linecap:butt;stroke-linejoin:miter;stroke:rgb(50%,50%,50%);stroke-opacity:1;stroke-miterlimit:10;" d="M 800 425 L 925 425 L 925 550 L 800 550 Z M 800 425 " transform="matrix(0.1,0,0,-0.1,0,110)"/>
<path style="fill-rule:nonzero;fill:rgb(87.889099%,56.834412%,40.795898%);fill-opacity:1;stroke-width:10;stroke-linecap:butt;stroke-linejoin:miter;stroke:rgb(50%,50%,50%);stroke-opacity:1;stroke-miterlimit:10;" d="M 925 425 L 1050 425 L 1050 550 L 925 550 Z M 925 425 " transform="matrix(0.1,0,0,-0.1,0,110)"/>
<path style="fill-rule:nonzero;fill:rgb(75.78125%,43.920898%,27.050781%);fill-opacity:1;stroke-width:10;stroke-linecap:butt;stroke-linejoin:miter;stroke:rgb(50%,50%,50%);stroke-opacity:1;stroke-miterlimit:10;" d="M 50 300 L 175 300 L 175 425 L 50 425 Z M 50 300 " transform="matrix(0.1,0,0,-0.1,0,110)"/>
<path style="fill-rule:nonzero;fill:rgb(76.171875%,44.309998%,27.43988%);fill-opacity:1;stroke-width:10;stroke-linecap:butt;stroke-linejoin:miter;stroke:rgb(50%,50%,50%);stroke-opacity:1;stroke-miterlimit:10;" d="M 175 300 L 300 300 L 300 425 L 175 425 Z M 175 300 " transform="matrix(0.1,0,0,-0.1,0,110)"/>
<path style="fill-rule:nonzero;fill:rgb(84.375%,52.539062%,34.910583%);fill-opacity:1;stroke-width:10;stroke-linecap:butt;stroke-linejoin:miter;stroke:rgb(50%,50%,50%);stroke-opacity:1;stroke-miterlimit:10;" d="M 300 300 L 425 300 L 425 425 L 300 425 Z M 300 300 " transform="matrix(0.1,0,0,-0.1,0,110)"/>
<path style="fill-rule:nonzero;fill:rgb(87.5%,55.664062%,38.035583%);fill-opacity:1;stroke-width:10;stroke-linecap:butt;stroke-linejoin:miter;stroke:rgb(50%,50%,50%);stroke-opacity:1;stroke-miterlimit:10;" d="M 425 300 L 550 300 L 550 425 L 425 425 Z M 425 300 " transform="matrix(0.1,0,0,-0.1,0,110)"/>
<path style="fill-rule:nonzero;fill:rgb(89.84375%,58.006287%,41.184998%);fill-opacity:1;stroke-width:10;stroke-linecap:butt;stroke-linejoin:miter;stroke:rgb(50%,50%,50%);stroke-opacity:1;stroke-miterlimit:10;" d="M 550 300 L 675 300 L 675 425 L 550 425 Z M 550 300 " transform="matrix(0.1,0,0,-0.1,0,110)"/>
<path style="fill-rule:nonzero;fill:rgb(89.84375%,58.006287%,41.184998%);fill-opacity:1;stroke-width:10;stroke-linecap:butt;stroke-linejoin:miter;stroke:rgb(50%,50%,50%);stroke-opacity:1;stroke-miterlimit:10;" d="M 675 300 L 800 300 L 800 425 L 675 425 Z M 675 300 " transform="matrix(0.1,0,0,-0.1,0,110)"/>
<path style="fill-rule:nonzero;fill:rgb(89.84375%,58.006287%,41.184998%);fill-opacity:1;stroke-width:10;stroke-linecap:butt;stroke-linejoin:miter;stroke:rgb(50%,50%,50%);stroke-opacity:1;stroke-miterlimit:10;" d="M 800 300 L 925 300 L 925 425 L 800 425 Z M 800 300 " transform="matrix(0.1,0,0,-0.1,0,110)"/>
<path style="fill-rule:nonzero;fill:rgb(90.625%,58.396912%,42.747498%);fill-opacity:1;stroke-width:10;stroke-linecap:butt;stroke-linejoin:miter;stroke:rgb(50%,50%,50%);stroke-opacity:1;stroke-miterlimit:10;" d="M 925 300 L 1050 300 L 1050 425 L 925 425 Z M 925 300 " transform="matrix(0.1,0,0,-0.1,0,110)"/>
<path style="fill-rule:nonzero;fill:rgb(79.296875%,47.068787%,31.37207%);fill-opacity:1;stroke-width:10;stroke-linecap:butt;stroke-linejoin:miter;stroke:rgb(50%,50%,50%);stroke-opacity:1;stroke-miterlimit:10;" d="M 50 175 L 175 175 L 175 300 L 50 300 Z M 50 175 " transform="matrix(0.1,0,0,-0.1,0,110)"/>
<path style="fill-rule:nonzero;fill:rgb(80.076599%,47.851562%,32.151794%);fill-opacity:1;stroke-width:10;stroke-linecap:butt;stroke-linejoin:miter;stroke:rgb(50%,50%,50%);stroke-opacity:1;stroke-miterlimit:10;" d="M 175 175 L 300 175 L 300 300 L 175 300 Z M 175 175 " transform="matrix(0.1,0,0,-0.1,0,110)"/>
<path style="fill-rule:nonzero;fill:rgb(85.9375%,53.709412%,38.035583%);fill-opacity:1;stroke-width:10;stroke-linecap:butt;stroke-linejoin:miter;stroke:rgb(50%,50%,50%);stroke-opacity:1;stroke-miterlimit:10;" d="M 300 175 L 425 175 L 425 300 L 300 300 Z M 300 175 " transform="matrix(0.1,0,0,-0.1,0,110)"/>
<path style="fill-rule:nonzero;fill:rgb(89.451599%,57.226562%,41.575623%);fill-opacity:1;stroke-width:10;stroke-linecap:butt;stroke-linejoin:miter;stroke:rgb(50%,50%,50%);stroke-opacity:1;stroke-miterlimit:10;" d="M 425 175 L 550 175 L 550 300 L 425 300 Z M 425 175 " transform="matrix(0.1,0,0,-0.1,0,110)"/>
<path style="fill-rule:nonzero;fill:rgb(89.451599%,57.617188%,40.795898%);fill-opacity:1;stroke-width:10;stroke-linecap:butt;stroke-linejoin:miter;stroke:rgb(50%,50%,50%);stroke-opacity:1;stroke-miterlimit:10;" d="M 550 175 L 675 175 L 675 300 L 550 300 Z M 550 175 " transform="matrix(0.1,0,0,-0.1,0,110)"/>
<path style="fill-rule:nonzero;fill:rgb(89.451599%,57.617188%,40.795898%);fill-opacity:1;stroke-width:10;stroke-linecap:butt;stroke-linejoin:miter;stroke:rgb(50%,50%,50%);stroke-opacity:1;stroke-miterlimit:10;" d="M 675 175 L 800 175 L 800 300 L 675 300 Z M 675 175 " transform="matrix(0.1,0,0,-0.1,0,110)"/>
<path style="fill-rule:nonzero;fill:rgb(89.84375%,58.006287%,41.184998%);fill-opacity:1;stroke-width:10;stroke-linecap:butt;stroke-linejoin:miter;stroke:rgb(50%,50%,50%);stroke-opacity:1;stroke-miterlimit:10;" d="M 800 175 L 925 175 L 925 300 L 800 300 Z M 800 175 " transform="matrix(0.1,0,0,-0.1,0,110)"/>
<path style="fill-rule:nonzero;fill:rgb(90.625%,58.396912%,42.747498%);fill-opacity:1;stroke-width:10;stroke-linecap:butt;stroke-linejoin:miter;stroke:rgb(50%,50%,50%);stroke-opacity:1;stroke-miterlimit:10;" d="M 925 175 L 1050 175 L 1050 300 L 925 300 Z M 925 175 " transform="matrix(0.1,0,0,-0.1,0,110)"/>
<path style="fill-rule:nonzero;fill:rgb(83.201599%,50.976562%,36.083984%);fill-opacity:1;stroke-width:10;stroke-linecap:butt;stroke-linejoin:miter;stroke:rgb(50%,50%,50%);stroke-opacity:1;stroke-miterlimit:10;" d="M 50 50 L 175 50 L 175 175 L 50 175 Z M 50 50 " transform="matrix(0.1,0,0,-0.1,0,110)"/>
<path style="fill-rule:nonzero;fill:rgb(83.984375%,51.756287%,36.863708%);fill-opacity:1;stroke-width:10;stroke-linecap:butt;stroke-linejoin:miter;stroke:rgb(50%,50%,50%);stroke-opacity:1;stroke-miterlimit:10;" d="M 175 50 L 300 50 L 300 175 L 175 175 Z M 175 50 " transform="matrix(0.1,0,0,-0.1,0,110)"/>
<path style="fill-rule:nonzero;fill:rgb(87.109375%,54.881287%,39.988708%);fill-opacity:1;stroke-width:10;stroke-linecap:butt;stroke-linejoin:miter;stroke:rgb(50%,50%,50%);stroke-opacity:1;stroke-miterlimit:10;" d="M 300 50 L 425 50 L 425 175 L 300 175 Z M 300 50 " transform="matrix(0.1,0,0,-0.1,0,110)"/>
<path style="fill-rule:nonzero;fill:rgb(90.234375%,58.006287%,43.138123%);fill-opacity:1;stroke-width:10;stroke-linecap:butt;stroke-linejoin:miter;stroke:rgb(50%,50%,50%);stroke-opacity:1;stroke-miterlimit:10;" d="M 425 50 L 550 50 L 550 175 L 425 175 Z M 425 50 " transform="matrix(0.1,0,0,-0.1,0,110)"/>
<path style="fill-rule:nonzero;fill:rgb(91.796875%,59.959412%,43.138123%);fill-opacity:1;stroke-width:10;stroke-linecap:butt;stroke-linejoin:miter;stroke:rgb(50%,50%,50%);stroke-opacity:1;stroke-miterlimit:10;" d="M 550 50 L 675 50 L 675 175 L 550 175 Z M 550 50 " transform="matrix(0.1,0,0,-0.1,0,110)"/>
<path style="fill-rule:nonzero;fill:rgb(91.014099%,59.179688%,42.358398%);fill-opacity:1;stroke-width:10;stroke-linecap:butt;stroke-linejoin:miter;stroke:rgb(50%,50%,50%);stroke-opacity:1;stroke-miterlimit:10;" d="M 675 50 L 800 50 L 800 175 L 675 175 Z M 675 50 " transform="matrix(0.1,0,0,-0.1,0,110)"/>
<path style="fill-rule:nonzero;fill:rgb(90.234375%,58.396912%,41.575623%);fill-opacity:1;stroke-width:10;stroke-linecap:butt;stroke-linejoin:miter;stroke:rgb(50%,50%,50%);stroke-opacity:1;stroke-miterlimit:10;" d="M 800 50 L 925 50 L 925 175 L 800 175 Z M 800 50 " transform="matrix(0.1,0,0,-0.1,0,110)"/>
<path style="fill-rule:nonzero;fill:rgb(90.234375%,58.396912%,41.575623%);fill-opacity:1;stroke-width:10;stroke-linecap:butt;stroke-linejoin:miter;stroke:rgb(50%,50%,50%);stroke-opacity:1;stroke-miterlimit:10;" d="M 925 50 L 1050 50 L 1050 175 L 925 175 Z M 925 50 " transform="matrix(0.1,0,0,-0.1,0,110)"/>
</g>
</svg>
