<?xml version="1.0" encoding="UTF-8"?>
<svg xmlns="http://www.w3.org/2000/svg" xmlns:xlink="http://www.w3.org/1999/xlink" width="100pt" height="100pt" viewBox="0 0 100 100" version="1.1">
<g id="surface1">
<path style="fill:none;stroke-width:10;stroke-linecap:butt;stroke-linejoin:miter;stroke:rgb(80.076599%,80.076599%,80.076599%);stroke-opacity:1;stroke-miterlimit:10;" d="M 50 50 L 50 950 M 162.5 50 L 162.5 950 M 275 50 L 275 950 M 387.5 50 L 387.5 950 M 500 50 L 500 950 M 612.5 50 L 612.5 950 M 725 50 L 725 950 M 837.5 50 L 837.5 950 M 950 50 L 950 950 M 50 50 L 950 50 M 50 162.5 L 950 162.5 M 50 275 L 950 275 M 50 387.5 L 950 387.5 M 50 500 L 950 500 M 50 612.5 L 950 612.5 M 50 725 L 950 725 M 50 837.5 L 950 837.5 M 50 950 L 950 950 " transform="matrix(0.1,0,0,-0.1,0,100)"/>
<path style="fill:none;stroke-width:10;stroke-linecap:butt;stroke-linejoin:miter;stroke:rgb(0%,0%,0%);stroke-opacity:1;stroke-miterlimit:10;" d="M 50 500 L 950 500 M 500 50 L 500 950 " transform="matrix(0.1,0,0,-0.1,0,100)"/>
<path style="fill:none;stroke-width:10;stroke-linecap:butt;stroke-linejoin:miter;stroke:rgb(0%,0%,100%);stroke-opacity:1;stroke-miterlimit:10;" d="M 556.25 500 L 556.25 528.125 L 443.75 500 M 556.25 528.125 L 668.75 584.375 M 725 584.375 L 500 528.125 " transform="matrix(0.1,0,0,-0.1,0,100)"/>
<path style="fill:none;stroke-width:10;stroke-linecap:butt;stroke-linejoin:miter;stroke:rgb(0%,0%,100%);stroke-opacity:1;stroke-miterlimit:10;" d="M 753.125 612.5 C 784.179688 628.046875 796.796875 640.625 781.25 640.625 C 765.703125 640.625 727.929688 628.046875 696.875 612.5 C 665.820312 596.953125 653.203125 584.375 668.75 584.375 C 684.296875 584.375 722.070312 596.953125 753.125 612.5 Z M 753.125 612.5 " transform="matrix(0.1,0,0,-0.1,0,100)"/>
</g>
</svg>
