<?xml version="1.0" encoding="UTF-8"?>
<svg xmlns="http://www.w3.org/2000/svg" xmlns:xlink="http://www.w3.org/1999/xlink" width="330pt" height="160pt" viewBox="0 0 330 160" version="1.1">
<defs>
<clipPath id="clip1">
  <path d="M 5 5 L 155 5 L 155 155 L 5 155 Z M 5 5 "/>
</clipPath>
<clipPath id="clip2">
  <path d="M 175 5 L 325 5 L 325 155 L 175 155 Z M 175 5 "/>
</clipPath>
<clipPath id="clip3">
  <path d="M 175 28 L 325 28 L 325 132 L 175 132 Z M 175 28 "/>
</clipPath>
</defs>
<g id="surface1">
<g clip-path="url(#clip1)" clip-rule="nonzero">
<path style="fill:none;stroke-width:10;stroke-linecap:butt;stroke-linejoin:miter;stroke:rgb(80.076599%,80.076599%,80.076599%);stroke-opacity:1;stroke-miterlimit:10;" d="M -450 -450 L -450 2050 M -325 -450 L -325 2050 M -200 -450 L -200 2050 M -75 -450 L -75 2050 M 50 -450 L 50 2050 M 175 -450 L 175 2050 M 300 -450 L 300 2050 M 425 -450 L 425 2050 M 550 -450 L 550 2050 M 675 -450 L 675 2050 M 800 -450 L 800 2050 M 925 -450 L 925 2050 M 1050 -450 L 1050 2050 M 1175 -450 L 1175 2050 M 1300 -450 L 1300 2050 M 1425 -450 L 1425 2050 M 1550 -450 L 1550 2050 M 1675 -450 L 1675 2050 M 1800 -450 L 1800 2050 M 1925 -450 L 1925 2050 M 2050 -450 L 2050 2050 M -450 -450 L 2050 -450 M -450 -325 L 2050 -325 M -450 -200 L 2050 -200 M -450 -75 L 2050 -75 M -450 50 L 2050 50 M -450 175 L 2050 175 M -450 300 L 2050 300 M -450 425 L 2050 425 M -450 550 L 2050 550 M -450 675 L 2050 675 M -450 800 L 2050 800 M -450 925 L 2050 925 M -450 1050 L 2050 1050 M -450 1175 L 2050 1175 M -450 1300 L 2050 1300 M -450 1425 L 2050 1425 M -450 1550 L 2050 1550 M -450 1675 L 2050 1675 M -450 1800 L 2050 1800 M -450 1925 L 2050 1925 M -450 2050 L 2050 2050 M -450 -450 L 2050 -450 L 2050 2050 L -450 2050 Z M -450 -450 " transform="matrix(0.1,0,0,-0.1,0,160)"/>
<path style="fill:none;stroke-width:10;stroke-linecap:butt;stroke-linejoin:miter;stroke:rgb(0%,0%,0%);stroke-opacity:1;stroke-miterlimit:10;" d="M 50 800 L 1550 800 M 800 50 L 800 1550 " transform="matrix(0.1,0,0,-0.1,0,160)"/>
</g>
<g clip-path="url(#clip2)" clip-rule="nonzero">
<path style="fill:none;stroke-width:10;stroke-linecap:butt;stroke-linejoin:miter;stroke:rgb(80.076599%,80.076599%,80.076599%);stroke-opacity:1;stroke-miterlimit:10;" d="M 2500 -450 L 0 800 M 2625 -387.5 L 125 862.5 M 2750 -325 L 250 925 M 2875 -262.5 L 375 987.5 M 3000 -200 L 500 1050 M 3125 -137.5 L 625 1112.5 M 3250 -75 L 750 1175 M 3375 -12.5 L 875 1237.5 M 3500 50 L 1000 1300 M 3625 112.5 L 1125 1362.5 M 3750 175 L 1250 1425 M 3875 237.5 L 1375 1487.5 M 4000 300 L 1500 1550 M 4125 362.5 L 1625 1612.5 M 4250 425 L 1750 1675 M 4375 487.5 L 1875 1737.5 M 4500 550 L 2000 1800 M 4625 612.5 L 2125 1862.5 M 4750 675 L 2250 1925 M 4875 737.5 L 2375 1987.5 M 5000 800 L 2500 2050 M 2500 -450 L 5000 800 M 2375 -387.5 L 4875 862.5 M 2250 -325 L 4750 925 M 2125 -262.5 L 4625 987.5 M 2000 -200 L 4500 1050 M 1875 -137.5 L 4375 1112.5 M 1750 -75 L 4250 1175 M 1625 -12.5 L 4125 1237.5 M 1500 50 L 4000 1300 M 1375 112.5 L 3875 1362.5 M 1250 175 L 3750 1425 M 1125 237.5 L 3625 1487.5 M 1000 300 L 3500 1550 M 875 362.5 L 3375 1612.5 M 750 425 L 3250 1675 M 625 487.5 L 3125 1737.5 M 500 550 L 3000 1800 M 375 612.5 L 2875 1862.5 M 250 675 L 2750 1925 M 125 737.5 L 2625 1987.5 M 0 800 L 2500 2050 M 2500 -450 L 5000 800 L 2500 2050 L 0 800 Z M 2500 -450 " transform="matrix(0.1,0,0,-0.1,0,160)"/>
</g>
<g clip-path="url(#clip3)" clip-rule="nonzero">
<path style="fill:none;stroke-width:10;stroke-linecap:butt;stroke-linejoin:miter;stroke:rgb(0%,0%,0%);stroke-opacity:1;stroke-miterlimit:10;" d="M 1750 425 L 3250 1175 M 3250 425 L 1750 1175 " transform="matrix(0.1,0,0,-0.1,0,160)"/>
</g>
</g>
</svg>
