<svg xmlns="http://www.w3.org/2000/svg" id="pf-45-rotation-linear-b-b-figure" width="310" height="310" viewBox="0 0 310 310">
  <defs>
    <clipPath id="pf-45-rotation-linear-b-b-__clipPath-0">
      <rect x="5.0" y="5.0" width="300.0" height="300.0"/>
    </clipPath>
    <clipPath id="pf-45-rotation-linear-b-b-__clipPath-1">
      <rect x="5.0" y="5.0" width="300.0" height="300.0"/>
    </clipPath>
    <marker id="pf-45-rotation-linear-b-b-arrow-head-end-3_None_24_60-h777" markerWidth="13.5" markerHeight="12.0" markerUnits="userSpaceOnUse" orient="auto" refX="9.8" refY="6.0">
      <path d="M 13.5 6.0L 0.0 12.0L 2.6 7.5L 2.6 4.5L 0.0 0.0Z" fill="#777" stroke="none"/>
    </marker>
    <marker id="pf-45-rotation-linear-b-b-arrow-head-end-3_None_24_60-h777-outline" markerWidth="17.5" markerHeight="16.0" markerUnits="userSpaceOnUse" orient="auto" refX="11.8" refY="8.0">
      <path d="M 16.3 9.8 L 2.8 15.8 A 2 2 0 0 1 0.0 14.0 L 0.0 2.0 A 2 2 0 0 1 2.8 0.2 L 16.3 6.2 A 2 2 0 0 1 16.3 9.8 Z" fill="white" stroke="none"/>
    </marker>
    <marker id="pf-45-rotation-linear-b-b-arrow-head-end-3_None_24_60-blue" markerWidth="13.5" markerHeight="12.0" markerUnits="userSpaceOnUse" orient="auto" refX="9.8" refY="6.0">
      <path d="M 13.5 6.0L 0.0 12.0L 2.6 7.5L 2.6 4.5L 0.0 0.0Z" fill="blue" stroke="none"/>
    </marker>
    <marker id="pf-45-rotation-linear-b-b-arrow-head-end-3_None_24_60-blue-outline" markerWidth="17.5" markerHeight="16.0" markerUnits="userSpaceOnUse" orient="auto" refX="11.8" refY="8.0">
      <path d="M 16.3 9.8 L 2.8 15.8 A 2 2 0 0 1 0.0 14.0 L 0.0 2.0 A 2 2 0 0 1 2.8 0.2 L 16.3 6.2 A 2 2 0 0 1 16.3 9.8 Z" fill="white" stroke="none"/>
    </marker>
    <marker id="pf-45-rotation-linear-b-b-arrow-head-start-3_None_24_60-h777" markerWidth="13.5" markerHeight="12.0" markerUnits="userSpaceOnUse" orient="auto" refX="3.6999999999999993" refY="6.0">
      <g transform="rotate(180, 6.75, 6.0)">
        <path d="M 13.5 6.0L 0.0 12.0L 2.6 7.5L 2.6 4.5L 0.0 0.0Z" fill="#777" stroke="none"/>
      </g>
    </marker>
    <marker id="pf-45-rotation-linear-b-b-arrow-head-start-3_None_24_60-h777-outline" markerWidth="17.5" markerHeight="16.0" markerUnits="userSpaceOnUse" orient="auto" refX="5.699999999999999" refY="8.0">
      <g transform="rotate(180, 8.75, 8.0)">
        <path d="M 16.3 9.8 L 2.8 15.8 A 2 2 0 0 1 0.0 14.0 L 0.0 2.0 A 2 2 0 0 1 2.8 0.2 L 16.3 6.2 A 2 2 0 0 1 16.3 9.8 Z" fill="white" stroke="none"/>
      </g>
    </marker>
    <marker id="pf-45-rotation-linear-b-b-arrow-head-start-3_None_24_60-blue" markerWidth="13.5" markerHeight="12.0" markerUnits="userSpaceOnUse" orient="auto" refX="3.6999999999999993" refY="6.0">
      <g transform="rotate(180, 6.75, 6.0)">
        <path d="M 13.5 6.0L 0.0 12.0L 2.6 7.5L 2.6 4.5L 0.0 0.0Z" fill="blue" stroke="none"/>
      </g>
    </marker>
    <marker id="pf-45-rotation-linear-b-b-arrow-head-start-3_None_24_60-blue-outline" markerWidth="17.5" markerHeight="16.0" markerUnits="userSpaceOnUse" orient="auto" refX="5.699999999999999" refY="8.0">
      <g transform="rotate(180, 8.75, 8.0)">
        <path d="M 16.3 9.8 L 2.8 15.8 A 2 2 0 0 1 0.0 14.0 L 0.0 2.0 A 2 2 0 0 1 2.8 0.2 L 16.3 6.2 A 2 2 0 0 1 16.3 9.8 Z" fill="white" stroke="none"/>
      </g>
    </marker>
  </defs>
  <g id="pf-45-rotation-linear-b-b-grid-axes">
    <g id="pf-45-rotation-linear-b-b-grid" stroke="#ccc" stroke-width="1">
      <line x1="5.0" y1="305.0" x2="5.0" y2="5.0"/>
      <line x1="35.0" y1="305.0" x2="35.0" y2="5.0"/>
      <line x1="65.0" y1="305.0" x2="65.0" y2="5.0"/>
      <line x1="95.0" y1="305.0" x2="95.0" y2="5.0"/>
      <line x1="125.0" y1="305.0" x2="125.0" y2="5.0"/>
      <line x1="155.0" y1="305.0" x2="155.0" y2="5.0"/>
      <line x1="185.0" y1="305.0" x2="185.0" y2="5.0"/>
      <line x1="215.0" y1="305.0" x2="215.0" y2="5.0"/>
      <line x1="245.0" y1="305.0" x2="245.0" y2="5.0"/>
      <line x1="275.0" y1="305.0" x2="275.0" y2="5.0"/>
      <line x1="305.0" y1="305.0" x2="305.0" y2="5.0"/>
      <line x1="5.0" y1="305.0" x2="305.0" y2="305.0"/>
      <line x1="5.0" y1="275.0" x2="305.0" y2="275.0"/>
      <line x1="5.0" y1="245.0" x2="305.0" y2="245.0"/>
      <line x1="5.0" y1="215.0" x2="305.0" y2="215.0"/>
      <line x1="5.0" y1="185.0" x2="305.0" y2="185.0"/>
      <line x1="5.0" y1="155.0" x2="305.0" y2="155.0"/>
      <line x1="5.0" y1="125.0" x2="305.0" y2="125.0"/>
      <line x1="5.0" y1="95.0" x2="305.0" y2="95.0"/>
      <line x1="5.0" y1="65.0" x2="305.0" y2="65.0"/>
      <line x1="5.0" y1="35.0" x2="305.0" y2="35.0"/>
      <line x1="5.0" y1="5.0" x2="305.0" y2="5.0"/>
    </g>
    <g id="pf-45-rotation-linear-b-b-axes" stroke="black" stroke-width="2">
      <line id="pf-45-rotation-linear-b-b-__line-22" x1="5.0" y1="155.0" x2="305.0" y2="155.0" stroke="black" stroke-width="2"/>
      <line id="pf-45-rotation-linear-b-b-__line-23" x1="155.0" y1="305.0" x2="155.0" y2="5.0" stroke="black" stroke-width="2"/>
    </g>
  </g>
  <g id="pf-45-rotation-linear-b-b-v">
    <g id="pf-45-rotation-linear-b-b-v" transform="translate(182.2,97.4) translate(0.0,-0.0)">
      <g id="pf-45-rotation-linear-b-b-__g-0">
        <svg xmlns:xlink="http://www.w3.org/1999/xlink" style="vertical-align: -4.528px" width="37.808px" height="18.096px" role="img" focusable="false" viewBox="0 -750 2089 1000" x="0.0" y="0.0">
          <defs>
            <path id="pf-45-rotation-linear-b-b-MJX-2-TEX-I-1D447" d="M40 437Q21 437 21 445Q21 450 37 501T71 602L88 651Q93 669 101 677H569H659Q691 677 697 676T704 667Q704 661 687 553T668 444Q668 437 649 437Q640 437 637 437T631 442L629 445Q629 451 635 490T641 551Q641 586 628 604T573 629Q568 630 515 631Q469 631 457 630T439 622Q438 621 368 343T298 60Q298 48 386 46Q418 46 427 45T436 36Q436 31 433 22Q429 4 424 1L422 0Q419 0 415 0Q410 0 363 1T228 2Q99 2 64 0H49Q43 6 43 9T45 27Q49 40 55 46H83H94Q174 46 189 55Q190 56 191 56Q196 59 201 76T241 233Q258 301 269 344Q339 619 339 625Q339 630 310 630H279Q212 630 191 624Q146 614 121 583T67 467Q60 445 57 441T43 437H40Z"/>
            <path id="pf-45-rotation-linear-b-b-MJX-2-TEX-N-2061" d=""/>
            <path id="pf-45-rotation-linear-b-b-MJX-2-TEX-N-28" d="M94 250Q94 319 104 381T127 488T164 576T202 643T244 695T277 729T302 750H315H319Q333 750 333 741Q333 738 316 720T275 667T226 581T184 443T167 250T184 58T225 -81T274 -167T316 -220T333 -241Q333 -250 318 -250H315H302L274 -226Q180 -141 137 -14T94 250Z"/>
            <path id="pf-45-rotation-linear-b-b-MJX-2-TEX-B-1D42F" d="M401 444Q413 441 495 441Q568 441 574 444H580V382H510L409 156Q348 18 339 6Q331 -4 320 -4Q318 -4 313 -4T303 -3H288Q273 -3 264 12T221 102Q206 135 197 156L96 382H26V444H34Q49 441 145 441Q252 441 270 444H279V382H231L284 264Q335 149 338 149Q338 150 389 264T442 381Q442 382 418 382H394V444H401Z"/>
            <path id="pf-45-rotation-linear-b-b-MJX-2-TEX-N-29" d="M60 749L64 750Q69 750 74 750H86L114 726Q208 641 251 514T294 250Q294 182 284 119T261 12T224 -76T186 -143T145 -194T113 -227T90 -246Q87 -249 86 -250H74Q66 -250 63 -250T58 -247T55 -238Q56 -237 66 -225Q221 -64 221 250T66 725Q56 737 55 738Q55 746 60 749Z"/>
          </defs>
          <g stroke="currentColor" fill="currentColor" stroke-width="0" transform="scale(1,-1)">
            <g data-mml-node="math" data-semantic-type="appl" data-semantic-role="simple function" data-semantic-annotation="clearspeak:simple" data-semantic-id="6" data-semantic-children="0,4" data-semantic-content="5,0" data-semantic-speech="upper T left parenthesis bold v right parenthesis">
              <g data-mml-node="mi" data-semantic-type="identifier" data-semantic-role="simple function" data-semantic-font="italic" data-semantic-annotation="clearspeak:simple" data-semantic-id="0" data-semantic-parent="6" data-semantic-operator="appl" data-semantic-speech="upper T">
                <use data-c="1D447" xlink:href="#pf-45-rotation-linear-b-b-MJX-2-TEX-I-1D447"/>
              </g>
              <g data-mml-node="mo" data-semantic-type="punctuation" data-semantic-role="application" data-semantic-id="5" data-semantic-parent="6" data-semantic-added="true" data-semantic-operator="appl" data-semantic-speech="of" transform="translate(704,0)">
                <use data-c="2061" xlink:href="#pf-45-rotation-linear-b-b-MJX-2-TEX-N-2061"/>
              </g>
              <g data-mml-node="mrow" data-semantic-type="fenced" data-semantic-role="leftright" data-semantic-id="4" data-semantic-children="2" data-semantic-content="1,3" data-semantic-parent="6" data-semantic-speech="left parenthesis bold v right parenthesis" transform="translate(704,0)">
                <g data-mml-node="mo" data-semantic-type="fence" data-semantic-role="open" data-semantic-id="1" data-semantic-parent="4" data-semantic-operator="fenced" data-semantic-speech="left parenthesis">
                  <use data-c="28" xlink:href="#pf-45-rotation-linear-b-b-MJX-2-TEX-N-28"/>
                </g>
                <g data-mml-node="TeXAtom" data-mjx-texclass="ORD" transform="translate(389,0)">
                  <g data-mml-node="TeXAtom" data-mjx-texclass="ORD">
                    <g data-mml-node="mi" data-semantic-type="identifier" data-semantic-role="latinletter" data-semantic-font="bold" data-semantic-annotation="clearspeak:simple" data-semantic-id="2" data-semantic-parent="4" data-semantic-attributes="texclass:ORD" data-semantic-speech="bold v">
                      <use data-c="1D42F" xlink:href="#pf-45-rotation-linear-b-b-MJX-2-TEX-B-1D42F"/>
                    </g>
                  </g>
                </g>
                <g data-mml-node="mo" data-semantic-type="fence" data-semantic-role="close" data-semantic-id="3" data-semantic-parent="4" data-semantic-operator="fenced" data-semantic-speech="right parenthesis" transform="translate(996,0)">
                  <use data-c="29" xlink:href="#pf-45-rotation-linear-b-b-MJX-2-TEX-N-29"/>
                </g>
              </g>
            </g>
          </g>
        </svg>
      </g>
    </g>
    <path stroke="#777" stroke-width="3" fill="none" marker-end="url(#pf-45-rotation-linear-b-b-arrow-head-end-3_None_24_60-h777)" d="M 155.0 155.0 L 175.1 94.8"/>
  </g>
  <g id="pf-45-rotation-linear-b-b-w">
    <g id="pf-45-rotation-linear-b-b-w" transform="translate(67.1,118.6) translate(-41.9,-0.0)">
      <g id="pf-45-rotation-linear-b-b-__g-1">
        <svg xmlns:xlink="http://www.w3.org/1999/xlink" style="vertical-align: -4.528px" width="41.864px" height="18.096px" role="img" focusable="false" viewBox="0 -750 2313 1000" x="0.0" y="0.0">
          <defs>
            <path id="pf-45-rotation-linear-b-b-MJX-3-TEX-I-1D447" d="M40 437Q21 437 21 445Q21 450 37 501T71 602L88 651Q93 669 101 677H569H659Q691 677 697 676T704 667Q704 661 687 553T668 444Q668 437 649 437Q640 437 637 437T631 442L629 445Q629 451 635 490T641 551Q641 586 628 604T573 629Q568 630 515 631Q469 631 457 630T439 622Q438 621 368 343T298 60Q298 48 386 46Q418 46 427 45T436 36Q436 31 433 22Q429 4 424 1L422 0Q419 0 415 0Q410 0 363 1T228 2Q99 2 64 0H49Q43 6 43 9T45 27Q49 40 55 46H83H94Q174 46 189 55Q190 56 191 56Q196 59 201 76T241 233Q258 301 269 344Q339 619 339 625Q339 630 310 630H279Q212 630 191 624Q146 614 121 583T67 467Q60 445 57 441T43 437H40Z"/>
            <path id="pf-45-rotation-linear-b-b-MJX-3-TEX-N-2061" d=""/>
            <path id="pf-45-rotation-linear-b-b-MJX-3-TEX-N-28" d="M94 250Q94 319 104 381T127 488T164 576T202 643T244 695T277 729T302 750H315H319Q333 750 333 741Q333 738 316 720T275 667T226 581T184 443T167 250T184 58T225 -81T274 -167T316 -220T333 -241Q333 -250 318 -250H315H302L274 -226Q180 -141 137 -14T94 250Z"/>
            <path id="pf-45-rotation-linear-b-b-MJX-3-TEX-B-1D430" d="M624 444Q636 441 722 441Q797 441 800 444H805V382H741L593 11Q592 10 590 8T586 4T584 2T581 0T579 -2T575 -3T571 -3T567 -4T561 -4T553 -4H542Q525 -4 518 6T490 70Q474 110 463 137L415 257L367 137Q357 111 341 72Q320 17 313 7T289 -4H277Q259 -4 253 -2T238 11L90 382H25V444H32Q47 441 140 441Q243 441 261 444H270V382H222L310 164L382 342L366 382H303V444H310Q322 441 407 441Q508 441 523 444H531V382H506Q481 382 481 380Q482 376 529 259T577 142L674 382H617V444H624Z"/>
            <path id="pf-45-rotation-linear-b-b-MJX-3-TEX-N-29" d="M60 749L64 750Q69 750 74 750H86L114 726Q208 641 251 514T294 250Q294 182 284 119T261 12T224 -76T186 -143T145 -194T113 -227T90 -246Q87 -249 86 -250H74Q66 -250 63 -250T58 -247T55 -238Q56 -237 66 -225Q221 -64 221 250T66 725Q56 737 55 738Q55 746 60 749Z"/>
          </defs>
          <g stroke="currentColor" fill="currentColor" stroke-width="0" transform="scale(1,-1)">
            <g data-mml-node="math" data-semantic-type="appl" data-semantic-role="simple function" data-semantic-annotation="clearspeak:simple" data-semantic-id="6" data-semantic-children="0,4" data-semantic-content="5,0" data-semantic-speech="upper T left parenthesis bold w right parenthesis">
              <g data-mml-node="mi" data-semantic-type="identifier" data-semantic-role="simple function" data-semantic-font="italic" data-semantic-annotation="clearspeak:simple" data-semantic-id="0" data-semantic-parent="6" data-semantic-operator="appl" data-semantic-speech="upper T">
                <use data-c="1D447" xlink:href="#pf-45-rotation-linear-b-b-MJX-3-TEX-I-1D447"/>
              </g>
              <g data-mml-node="mo" data-semantic-type="punctuation" data-semantic-role="application" data-semantic-id="5" data-semantic-parent="6" data-semantic-added="true" data-semantic-operator="appl" data-semantic-speech="of" transform="translate(704,0)">
                <use data-c="2061" xlink:href="#pf-45-rotation-linear-b-b-MJX-3-TEX-N-2061"/>
              </g>
              <g data-mml-node="mrow" data-semantic-type="fenced" data-semantic-role="leftright" data-semantic-id="4" data-semantic-children="2" data-semantic-content="1,3" data-semantic-parent="6" data-semantic-speech="left parenthesis bold w right parenthesis" transform="translate(704,0)">
                <g data-mml-node="mo" data-semantic-type="fence" data-semantic-role="open" data-semantic-id="1" data-semantic-parent="4" data-semantic-operator="fenced" data-semantic-speech="left parenthesis">
                  <use data-c="28" xlink:href="#pf-45-rotation-linear-b-b-MJX-3-TEX-N-28"/>
                </g>
                <g data-mml-node="TeXAtom" data-mjx-texclass="ORD" transform="translate(389,0)">
                  <g data-mml-node="TeXAtom" data-mjx-texclass="ORD">
                    <g data-mml-node="mi" data-semantic-type="identifier" data-semantic-role="latinletter" data-semantic-font="bold" data-semantic-annotation="clearspeak:simple" data-semantic-id="2" data-semantic-parent="4" data-semantic-attributes="texclass:ORD" data-semantic-speech="bold w">
                      <use data-c="1D430" xlink:href="#pf-45-rotation-linear-b-b-MJX-3-TEX-B-1D430"/>
                    </g>
                  </g>
                </g>
                <g data-mml-node="mo" data-semantic-type="fence" data-semantic-role="close" data-semantic-id="3" data-semantic-parent="4" data-semantic-operator="fenced" data-semantic-speech="right parenthesis" transform="translate(1220,0)">
                  <use data-c="29" xlink:href="#pf-45-rotation-linear-b-b-MJX-3-TEX-N-29"/>
                </g>
              </g>
            </g>
          </g>
        </svg>
      </g>
    </g>
    <path stroke="#777" stroke-width="3" fill="none" marker-end="url(#pf-45-rotation-linear-b-b-arrow-head-end-3_None_24_60-h777)" d="M 155.0 155.0 L 73.4 114.2"/>
  </g>
  <path stroke="#777" stroke-width="3" fill="none" marker-end="url(#pf-45-rotation-linear-b-b-arrow-head-end-3_None_24_60-h777)" d="M 70.1 112.6 L 90.2 52.4" id="pf-45-rotation-linear-b-b-v-trans"/>
  <path stroke="#777" stroke-width="3" fill="none" marker-end="url(#pf-45-rotation-linear-b-b-arrow-head-end-3_None_24_60-h777)" d="M 176.2 91.4 L 94.6 50.6" id="pf-45-rotation-linear-b-b-w-trans"/>
  <g id="pf-45-rotation-linear-b-b-sum">
    <g id="pf-45-rotation-linear-b-b-sum" transform="translate(91.4,49.9) translate(-75.0,-18.1)">
      <g id="pf-45-rotation-linear-b-b-__g-2">
        <svg xmlns:xlink="http://www.w3.org/1999/xlink" style="vertical-align: -4.528px" width="74.976px" height="18.096px" role="img" focusable="false" viewBox="0 -750 4142.4 1000" x="0.0" y="0.0">
          <defs>
            <path id="pf-45-rotation-linear-b-b-MJX-4-TEX-I-1D447" d="M40 437Q21 437 21 445Q21 450 37 501T71 602L88 651Q93 669 101 677H569H659Q691 677 697 676T704 667Q704 661 687 553T668 444Q668 437 649 437Q640 437 637 437T631 442L629 445Q629 451 635 490T641 551Q641 586 628 604T573 629Q568 630 515 631Q469 631 457 630T439 622Q438 621 368 343T298 60Q298 48 386 46Q418 46 427 45T436 36Q436 31 433 22Q429 4 424 1L422 0Q419 0 415 0Q410 0 363 1T228 2Q99 2 64 0H49Q43 6 43 9T45 27Q49 40 55 46H83H94Q174 46 189 55Q190 56 191 56Q196 59 201 76T241 233Q258 301 269 344Q339 619 339 625Q339 630 310 630H279Q212 630 191 624Q146 614 121 583T67 467Q60 445 57 441T43 437H40Z"/>
            <path id="pf-45-rotation-linear-b-b-MJX-4-TEX-N-2062" d=""/>
            <path id="pf-45-rotation-linear-b-b-MJX-4-TEX-N-28" d="M94 250Q94 319 104 381T127 488T164 576T202 643T244 695T277 729T302 750H315H319Q333 750 333 741Q333 738 316 720T275 667T226 581T184 443T167 250T184 58T225 -81T274 -167T316 -220T333 -241Q333 -250 318 -250H315H302L274 -226Q180 -141 137 -14T94 250Z"/>
            <path id="pf-45-rotation-linear-b-b-MJX-4-TEX-B-1D42F" d="M401 444Q413 441 495 441Q568 441 574 444H580V382H510L409 156Q348 18 339 6Q331 -4 320 -4Q318 -4 313 -4T303 -3H288Q273 -3 264 12T221 102Q206 135 197 156L96 382H26V444H34Q49 441 145 441Q252 441 270 444H279V382H231L284 264Q335 149 338 149Q338 150 389 264T442 381Q442 382 418 382H394V444H401Z"/>
            <path id="pf-45-rotation-linear-b-b-MJX-4-TEX-N-2B" d="M56 237T56 250T70 270H369V420L370 570Q380 583 389 583Q402 583 409 568V270H707Q722 262 722 250T707 230H409V-68Q401 -82 391 -82H389H387Q375 -82 369 -68V230H70Q56 237 56 250Z"/>
            <path id="pf-45-rotation-linear-b-b-MJX-4-TEX-B-1D430" d="M624 444Q636 441 722 441Q797 441 800 444H805V382H741L593 11Q592 10 590 8T586 4T584 2T581 0T579 -2T575 -3T571 -3T567 -4T561 -4T553 -4H542Q525 -4 518 6T490 70Q474 110 463 137L415 257L367 137Q357 111 341 72Q320 17 313 7T289 -4H277Q259 -4 253 -2T238 11L90 382H25V444H32Q47 441 140 441Q243 441 261 444H270V382H222L310 164L382 342L366 382H303V444H310Q322 441 407 441Q508 441 523 444H531V382H506Q481 382 481 380Q482 376 529 259T577 142L674 382H617V444H624Z"/>
            <path id="pf-45-rotation-linear-b-b-MJX-4-TEX-N-29" d="M60 749L64 750Q69 750 74 750H86L114 726Q208 641 251 514T294 250Q294 182 284 119T261 12T224 -76T186 -143T145 -194T113 -227T90 -246Q87 -249 86 -250H74Q66 -250 63 -250T58 -247T55 -238Q56 -237 66 -225Q221 -64 221 250T66 725Q56 737 55 738Q55 746 60 749Z"/>
          </defs>
          <g stroke="currentColor" fill="currentColor" stroke-width="0" transform="scale(1,-1)">
            <g data-mml-node="math" data-semantic-type="infixop" data-semantic-role="implicit" data-semantic-annotation="clearspeak:unit" data-semantic-id="9" data-semantic-children="0,7" data-semantic-content="8" data-semantic-speech="upper T left parenthesis bold v plus bold w right parenthesis">
              <g data-mml-node="mi" data-semantic-type="identifier" data-semantic-role="latinletter" data-semantic-font="italic" data-semantic-annotation="clearspeak:simple" data-semantic-id="0" data-semantic-parent="9" data-semantic-speech="upper T">
                <use data-c="1D447" xlink:href="#pf-45-rotation-linear-b-b-MJX-4-TEX-I-1D447"/>
              </g>
              <g data-mml-node="mo" data-semantic-type="operator" data-semantic-role="multiplication" data-semantic-id="8" data-semantic-parent="9" data-semantic-added="true" data-semantic-operator="infixop,⁢" data-semantic-speech="times" transform="translate(704,0)">
                <use data-c="2062" xlink:href="#pf-45-rotation-linear-b-b-MJX-4-TEX-N-2062"/>
              </g>
              <g data-mml-node="mrow" data-semantic-type="fenced" data-semantic-role="leftright" data-semantic-id="7" data-semantic-children="6" data-semantic-content="1,5" data-semantic-parent="9" data-semantic-speech="left parenthesis bold v plus bold w right parenthesis" transform="translate(704,0)">
                <g data-mml-node="mo" data-semantic-type="fence" data-semantic-role="open" data-semantic-id="1" data-semantic-parent="7" data-semantic-operator="fenced" data-semantic-speech="left parenthesis">
                  <use data-c="28" xlink:href="#pf-45-rotation-linear-b-b-MJX-4-TEX-N-28"/>
                </g>
                <g data-mml-node="mrow" data-semantic-type="infixop" data-semantic-role="addition" data-semantic-id="6" data-semantic-children="2,4" data-semantic-content="3" data-semantic-parent="7" data-semantic-speech="bold v plus bold w" transform="translate(389,0)">
                  <g data-mml-node="TeXAtom" data-mjx-texclass="ORD">
                    <g data-mml-node="TeXAtom" data-mjx-texclass="ORD">
                      <g data-mml-node="mi" data-semantic-type="identifier" data-semantic-role="latinletter" data-semantic-font="bold" data-semantic-annotation="clearspeak:simple" data-semantic-id="2" data-semantic-parent="6" data-semantic-attributes="texclass:ORD" data-semantic-speech="bold v">
                        <use data-c="1D42F" xlink:href="#pf-45-rotation-linear-b-b-MJX-4-TEX-B-1D42F"/>
                      </g>
                    </g>
                  </g>
                  <g data-mml-node="mo" data-semantic-type="operator" data-semantic-role="addition" data-semantic-id="3" data-semantic-parent="6" data-semantic-operator="infixop,+" data-semantic-speech="plus" transform="translate(829.2,0)">
                    <use data-c="2B" xlink:href="#pf-45-rotation-linear-b-b-MJX-4-TEX-N-2B"/>
                  </g>
                  <g data-mml-node="TeXAtom" data-mjx-texclass="ORD" transform="translate(1829.4,0)">
                    <g data-mml-node="TeXAtom" data-mjx-texclass="ORD">
                      <g data-mml-node="mi" data-semantic-type="identifier" data-semantic-role="latinletter" data-semantic-font="bold" data-semantic-annotation="clearspeak:simple" data-semantic-id="4" data-semantic-parent="6" data-semantic-attributes="texclass:ORD" data-semantic-speech="bold w">
                        <use data-c="1D430" xlink:href="#pf-45-rotation-linear-b-b-MJX-4-TEX-B-1D430"/>
                      </g>
                    </g>
                  </g>
                </g>
                <g data-mml-node="mo" data-semantic-type="fence" data-semantic-role="close" data-semantic-id="5" data-semantic-parent="7" data-semantic-operator="fenced" data-semantic-speech="right parenthesis" transform="translate(3049.4,0)">
                  <use data-c="29" xlink:href="#pf-45-rotation-linear-b-b-MJX-4-TEX-N-29"/>
                </g>
              </g>
            </g>
          </g>
        </svg>
      </g>
    </g>
    <path stroke="blue" stroke-width="3" fill="none" marker-end="url(#pf-45-rotation-linear-b-b-arrow-head-end-3_None_24_60-blue)" d="M 155.0 155.0 L 93.2 52.1"/>
  </g>
</svg>
