<svg xmlns="http://www.w3.org/2000/svg" id="pf-eigen-intro-A-b-4-3-figure" width="260" height="260" viewBox="0 0 260 260">
  <defs>
    <clipPath id="pf-eigen-intro-A-b-4-3-__clipPath-0">
      <rect x="5.0" y="5.0" width="250.0" height="250.0"/>
    </clipPath>
    <clipPath id="pf-eigen-intro-A-b-4-3-__clipPath-1">
      <rect x="5.0" y="5.0" width="250.0" height="250.0"/>
    </clipPath>
    <marker id="pf-eigen-intro-A-b-4-3-arrow-head-end-3_None_24_60-black" markerWidth="13.5" markerHeight="12.0" markerUnits="userSpaceOnUse" orient="auto-start-reverse" refX="9.8" refY="6.0">
      <path d="M 13.5 6.0L 0.0 12.0L 2.6 7.5L 2.6 4.5L 0.0 0.0Z" fill="black" stroke="none"/>
    </marker>
    <marker id="pf-eigen-intro-A-b-4-3-arrow-head-end-3_None_24_60-black-outline" markerWidth="17.5" markerHeight="16.0" markerUnits="userSpaceOnUse" orient="auto-start-reverse" refX="11.8" refY="8.0">
      <path d="M 16.3 9.8 L 2.8 15.8 A 2 2 0 0 1 0.0 14.0 L 0.0 2.0 A 2 2 0 0 1 2.8 0.2 L 16.3 6.2 A 2 2 0 0 1 16.3 9.8 Z" fill="white" stroke="none"/>
    </marker>
  </defs>
  <path id="pf-eigen-intro-A-b-4-3-square" d="M 130.0 130.0 L 223.8 36.2 L 255.0 67.5 L 161.2 161.2 Z" stroke="#777" stroke-width="2" fill="#f77"/>
  <g id="pf-eigen-intro-A-b-4-3-grid" stroke="#ccc" stroke-width="1" clip-path="url(#pf-eigen-intro-A-b-4-3-__clipPath-1)">
    <line x1="-88.8" y1="98.8" x2="161.2" y2="348.8"/>
    <line x1="5.0" y1="5.0" x2="255.0" y2="255.0"/>
    <line x1="98.8" y1="-88.8" x2="348.8" y2="161.2"/>
    <line x1="-338.8" y1="411.2" x2="411.2" y2="-338.8"/>
    <line x1="-307.5" y1="442.5" x2="442.5" y2="-307.5"/>
    <line x1="-276.2" y1="473.8" x2="473.8" y2="-276.2"/>
    <line x1="-245.0" y1="505.0" x2="505.0" y2="-245.0"/>
    <line x1="-213.8" y1="536.2" x2="536.2" y2="-213.8"/>
    <line x1="-182.5" y1="567.5" x2="567.5" y2="-182.5"/>
    <line x1="-151.2" y1="598.8" x2="598.8" y2="-151.2"/>
  </g>
  <g id="pf-eigen-intro-A-b-4-3-axes" stroke="black" stroke-width="2">
    <line id="pf-eigen-intro-A-b-4-3-__line-10" x1="5.0" y1="130.0" x2="255.0" y2="130.0" stroke="black" stroke-width="2"/>
    <g>
      <line id="pf-eigen-intro-A-b-4-3-__line-11" x1="67.5" y1="133.0" x2="67.5" y2="127.0"/>
      <line id="pf-eigen-intro-A-b-4-3-__line-12" x1="192.5" y1="133.0" x2="192.5" y2="127.0"/>
    </g>
    <line id="pf-eigen-intro-A-b-4-3-__line-13" x1="130.0" y1="255.0" x2="130.0" y2="5.0" stroke="black" stroke-width="2"/>
    <g>
      <line id="pf-eigen-intro-A-b-4-3-__line-14" x1="127.0" y1="192.5" x2="133.0" y2="192.5"/>
      <line id="pf-eigen-intro-A-b-4-3-__line-15" x1="127.0" y1="67.5" x2="133.0" y2="67.5"/>
    </g>
  </g>
  <g id="pf-eigen-intro-A-b-4-3-__label-0" transform="translate(67.5,141.0) translate(-7.5,-0.0)">
    <g id="pf-eigen-intro-A-b-4-3-__g-0">
      <svg xmlns:xlink="http://www.w3.org/1999/xlink" style="vertical-align: 0.000px" width="15.080px" height="12.056px" role="img" focusable="false" viewBox="0 -666 833 666" x="0.0" y="0.0">
        <defs>
          <path id="pf-eigen-intro-A-b-4-3-MJX-2-TEX-N-2D" d="M11 179V252H277V179H11Z"/>
          <path id="pf-eigen-intro-A-b-4-3-MJX-2-TEX-N-32" d="M109 429Q82 429 66 447T50 491Q50 562 103 614T235 666Q326 666 387 610T449 465Q449 422 429 383T381 315T301 241Q265 210 201 149L142 93L218 92Q375 92 385 97Q392 99 409 186V189H449V186Q448 183 436 95T421 3V0H50V19V31Q50 38 56 46T86 81Q115 113 136 137Q145 147 170 174T204 211T233 244T261 278T284 308T305 340T320 369T333 401T340 431T343 464Q343 527 309 573T212 619Q179 619 154 602T119 569T109 550Q109 549 114 549Q132 549 151 535T170 489Q170 464 154 447T109 429Z"/>
        </defs>
        <g stroke="currentColor" fill="currentColor" stroke-width="0" transform="scale(1,-1)">
          <g data-mml-node="math">
            <g data-mml-node="mtext" data-semantic-type="text" data-semantic-role="unknown" data-semantic-font="normal" data-semantic-annotation="clearspeak:unit" data-semantic-id="0" data-semantic-speech="hyphen 2">
              <use data-c="2D" xlink:href="#pf-eigen-intro-A-b-4-3-MJX-2-TEX-N-2D"/>
              <use data-c="32" xlink:href="#pf-eigen-intro-A-b-4-3-MJX-2-TEX-N-32" transform="translate(333,0)"/>
            </g>
          </g>
        </g>
      </svg>
    </g>
  </g>
  <g id="pf-eigen-intro-A-b-4-3-__label-1" transform="translate(192.5,141.0) translate(-4.5,-0.0)">
    <g id="pf-eigen-intro-A-b-4-3-__g-1">
      <svg xmlns:xlink="http://www.w3.org/1999/xlink" style="vertical-align: 0.000px" width="9.048px" height="12.056px" role="img" focusable="false" viewBox="0 -666 500 666" x="0.0" y="0.0">
        <defs>
          <path id="pf-eigen-intro-A-b-4-3-MJX-3-TEX-N-32" d="M109 429Q82 429 66 447T50 491Q50 562 103 614T235 666Q326 666 387 610T449 465Q449 422 429 383T381 315T301 241Q265 210 201 149L142 93L218 92Q375 92 385 97Q392 99 409 186V189H449V186Q448 183 436 95T421 3V0H50V19V31Q50 38 56 46T86 81Q115 113 136 137Q145 147 170 174T204 211T233 244T261 278T284 308T305 340T320 369T333 401T340 431T343 464Q343 527 309 573T212 619Q179 619 154 602T119 569T109 550Q109 549 114 549Q132 549 151 535T170 489Q170 464 154 447T109 429Z"/>
        </defs>
        <g stroke="currentColor" fill="currentColor" stroke-width="0" transform="scale(1,-1)">
          <g data-mml-node="math">
            <g data-mml-node="mtext" data-semantic-type="text" data-semantic-role="integer" data-semantic-font="normal" data-semantic-annotation="clearspeak:unit" data-semantic-id="0" data-semantic-speech="2">
              <use data-c="32" xlink:href="#pf-eigen-intro-A-b-4-3-MJX-3-TEX-N-32"/>
            </g>
          </g>
        </g>
      </svg>
    </g>
  </g>
  <g id="pf-eigen-intro-A-b-4-3-__label-2" transform="translate(119.0,192.5) translate(-15.1,-6.0)">
    <g id="pf-eigen-intro-A-b-4-3-__g-2">
      <svg xmlns:xlink="http://www.w3.org/1999/xlink" style="vertical-align: 0.000px" width="15.080px" height="12.056px" role="img" focusable="false" viewBox="0 -666 833 666" x="0.0" y="0.0">
        <defs>
          <path id="pf-eigen-intro-A-b-4-3-MJX-4-TEX-N-2D" d="M11 179V252H277V179H11Z"/>
          <path id="pf-eigen-intro-A-b-4-3-MJX-4-TEX-N-32" d="M109 429Q82 429 66 447T50 491Q50 562 103 614T235 666Q326 666 387 610T449 465Q449 422 429 383T381 315T301 241Q265 210 201 149L142 93L218 92Q375 92 385 97Q392 99 409 186V189H449V186Q448 183 436 95T421 3V0H50V19V31Q50 38 56 46T86 81Q115 113 136 137Q145 147 170 174T204 211T233 244T261 278T284 308T305 340T320 369T333 401T340 431T343 464Q343 527 309 573T212 619Q179 619 154 602T119 569T109 550Q109 549 114 549Q132 549 151 535T170 489Q170 464 154 447T109 429Z"/>
        </defs>
        <g stroke="currentColor" fill="currentColor" stroke-width="0" transform="scale(1,-1)">
          <g data-mml-node="math">
            <g data-mml-node="mtext" data-semantic-type="text" data-semantic-role="unknown" data-semantic-font="normal" data-semantic-annotation="clearspeak:unit" data-semantic-id="0" data-semantic-speech="hyphen 2">
              <use data-c="2D" xlink:href="#pf-eigen-intro-A-b-4-3-MJX-4-TEX-N-2D"/>
              <use data-c="32" xlink:href="#pf-eigen-intro-A-b-4-3-MJX-4-TEX-N-32" transform="translate(333,0)"/>
            </g>
          </g>
        </g>
      </svg>
    </g>
  </g>
  <g id="pf-eigen-intro-A-b-4-3-__label-3" transform="translate(119.0,67.5) translate(-9.0,-6.0)">
    <g id="pf-eigen-intro-A-b-4-3-__g-3">
      <svg xmlns:xlink="http://www.w3.org/1999/xlink" style="vertical-align: 0.000px" width="9.048px" height="12.056px" role="img" focusable="false" viewBox="0 -666 500 666" x="0.0" y="0.0">
        <defs>
          <path id="pf-eigen-intro-A-b-4-3-MJX-5-TEX-N-32" d="M109 429Q82 429 66 447T50 491Q50 562 103 614T235 666Q326 666 387 610T449 465Q449 422 429 383T381 315T301 241Q265 210 201 149L142 93L218 92Q375 92 385 97Q392 99 409 186V189H449V186Q448 183 436 95T421 3V0H50V19V31Q50 38 56 46T86 81Q115 113 136 137Q145 147 170 174T204 211T233 244T261 278T284 308T305 340T320 369T333 401T340 431T343 464Q343 527 309 573T212 619Q179 619 154 602T119 569T109 550Q109 549 114 549Q132 549 151 535T170 489Q170 464 154 447T109 429Z"/>
        </defs>
        <g stroke="currentColor" fill="currentColor" stroke-width="0" transform="scale(1,-1)">
          <g data-mml-node="math">
            <g data-mml-node="mtext" data-semantic-type="text" data-semantic-role="integer" data-semantic-font="normal" data-semantic-annotation="clearspeak:unit" data-semantic-id="0" data-semantic-speech="2">
              <use data-c="32" xlink:href="#pf-eigen-intro-A-b-4-3-MJX-5-TEX-N-32"/>
            </g>
          </g>
        </g>
      </svg>
    </g>
  </g>
  <g id="pf-eigen-intro-A-b-4-3-v1">
    <g id="pf-eigen-intro-A-b-4-3-v1" transform="translate(217.8,30.2) translate(-27.9,-14.8)">
      <rect x="-6" y="-6" width="39.936" height="26.752000000000002" stroke="none" fill="white"/>
      <g id="pf-eigen-intro-A-b-4-3-__g-4">
        <svg xmlns:xlink="http://www.w3.org/1999/xlink" style="vertical-align: -2.712px" width="27.936px" height="14.752px" role="img" focusable="false" viewBox="0 -665 1543.6 815" x="0.0" y="0.0">
          <defs>
            <path id="pf-eigen-intro-A-b-4-3-MJX-6-TEX-N-33" d="M127 463Q100 463 85 480T69 524Q69 579 117 622T233 665Q268 665 277 664Q351 652 390 611T430 522Q430 470 396 421T302 350L299 348Q299 347 308 345T337 336T375 315Q457 262 457 175Q457 96 395 37T238 -22Q158 -22 100 21T42 130Q42 158 60 175T105 193Q133 193 151 175T169 130Q169 119 166 110T159 94T148 82T136 74T126 70T118 67L114 66Q165 21 238 21Q293 21 321 74Q338 107 338 175V195Q338 290 274 322Q259 328 213 329L171 330L168 332Q166 335 166 348Q166 366 174 366Q202 366 232 371Q266 376 294 413T322 525V533Q322 590 287 612Q265 626 240 626Q208 626 181 615T143 592T132 580H135Q138 579 143 578T153 573T165 566T175 555T183 540T186 520Q186 498 172 481T127 463Z"/>
            <path id="pf-eigen-intro-A-b-4-3-MJX-6-TEX-N-2062" d=""/>
            <path id="pf-eigen-intro-A-b-4-3-MJX-6-TEX-B-1D42F" d="M401 444Q413 441 495 441Q568 441 574 444H580V382H510L409 156Q348 18 339 6Q331 -4 320 -4Q318 -4 313 -4T303 -3H288Q273 -3 264 12T221 102Q206 135 197 156L96 382H26V444H34Q49 441 145 441Q252 441 270 444H279V382H231L284 264Q335 149 338 149Q338 150 389 264T442 381Q442 382 418 382H394V444H401Z"/>
            <path id="pf-eigen-intro-A-b-4-3-MJX-6-TEX-N-31" d="M213 578L200 573Q186 568 160 563T102 556H83V602H102Q149 604 189 617T245 641T273 663Q275 666 285 666Q294 666 302 660V361L303 61Q310 54 315 52T339 48T401 46H427V0H416Q395 3 257 3Q121 3 100 0H88V46H114Q136 46 152 46T177 47T193 50T201 52T207 57T213 61V578Z"/>
          </defs>
          <g stroke="currentColor" fill="currentColor" stroke-width="0" transform="scale(1,-1)">
            <g data-mml-node="math" data-semantic-type="infixop" data-semantic-role="implicit" data-semantic-annotation="clearspeak:unit" data-semantic-id="5" data-semantic-children="0,3" data-semantic-content="4" data-semantic-speech="3 bold v 1">
              <g data-mml-node="mn" data-semantic-type="number" data-semantic-role="integer" data-semantic-font="normal" data-semantic-annotation="clearspeak:simple" data-semantic-id="0" data-semantic-parent="5" data-semantic-speech="3">
                <use data-c="33" xlink:href="#pf-eigen-intro-A-b-4-3-MJX-6-TEX-N-33"/>
              </g>
              <g data-mml-node="mo" data-semantic-type="operator" data-semantic-role="multiplication" data-semantic-id="4" data-semantic-parent="5" data-semantic-added="true" data-semantic-operator="infixop,⁢" data-semantic-speech="times" transform="translate(500,0)">
                <use data-c="2062" xlink:href="#pf-eigen-intro-A-b-4-3-MJX-6-TEX-N-2062"/>
              </g>
              <g data-mml-node="msub" data-semantic-type="subscript" data-semantic-role="latinletter" data-semantic-id="3" data-semantic-children="1,2" data-semantic-parent="5" data-semantic-speech="bold v 1" transform="translate(500,0)">
                <g data-mml-node="TeXAtom" data-mjx-texclass="ORD">
                  <g data-mml-node="TeXAtom" data-mjx-texclass="ORD">
                    <g data-mml-node="mi" data-semantic-type="identifier" data-semantic-role="latinletter" data-semantic-font="bold" data-semantic-annotation="clearspeak:simple" data-semantic-id="1" data-semantic-parent="3" data-semantic-attributes="texclass:ORD" data-semantic-speech="bold v" data-semantic-prefix="Base">
                      <use data-c="1D42F" xlink:href="#pf-eigen-intro-A-b-4-3-MJX-6-TEX-B-1D42F"/>
                    </g>
                  </g>
                </g>
                <g data-mml-node="mn" transform="translate(640,-150) scale(0.707)" data-semantic-type="number" data-semantic-role="integer" data-semantic-font="normal" data-semantic-annotation="clearspeak:simple" data-semantic-id="2" data-semantic-parent="3" data-semantic-speech="1" data-semantic-prefix="Subscript">
                  <use data-c="31" xlink:href="#pf-eigen-intro-A-b-4-3-MJX-6-TEX-N-31"/>
                </g>
              </g>
            </g>
          </g>
        </svg>
      </g>
    </g>
    <path stroke="black" stroke-width="3" fill="none" marker-end="url(#pf-eigen-intro-A-b-4-3-arrow-head-end-3_None_24_60-black)" d="M 130.0 130.0 L 221.2 38.8"/>
  </g>
  <g id="pf-eigen-intro-A-b-4-3-v2">
    <g id="pf-eigen-intro-A-b-4-3-v2" transform="translate(161.2,169.2) translate(-16.5,-0.0)">
      <rect x="-6" y="-6" width="44.968" height="25.264" stroke="none" fill="white"/>
      <g id="pf-eigen-intro-A-b-4-3-__g-5">
        <svg xmlns:xlink="http://www.w3.org/1999/xlink" style="vertical-align: -2.712px" width="32.968px" height="13.264px" role="img" focusable="false" viewBox="0 -583 1821.6 733" x="0.0" y="0.0">
          <defs>
            <path id="pf-eigen-intro-A-b-4-3-MJX-7-TEX-N-2212" d="M84 237T84 250T98 270H679Q694 262 694 250T679 230H98Q84 237 84 250Z"/>
            <path id="pf-eigen-intro-A-b-4-3-MJX-7-TEX-B-1D42F" d="M401 444Q413 441 495 441Q568 441 574 444H580V382H510L409 156Q348 18 339 6Q331 -4 320 -4Q318 -4 313 -4T303 -3H288Q273 -3 264 12T221 102Q206 135 197 156L96 382H26V444H34Q49 441 145 441Q252 441 270 444H279V382H231L284 264Q335 149 338 149Q338 150 389 264T442 381Q442 382 418 382H394V444H401Z"/>
            <path id="pf-eigen-intro-A-b-4-3-MJX-7-TEX-N-32" d="M109 429Q82 429 66 447T50 491Q50 562 103 614T235 666Q326 666 387 610T449 465Q449 422 429 383T381 315T301 241Q265 210 201 149L142 93L218 92Q375 92 385 97Q392 99 409 186V189H449V186Q448 183 436 95T421 3V0H50V19V31Q50 38 56 46T86 81Q115 113 136 137Q145 147 170 174T204 211T233 244T261 278T284 308T305 340T320 369T333 401T340 431T343 464Q343 527 309 573T212 619Q179 619 154 602T119 569T109 550Q109 549 114 549Q132 549 151 535T170 489Q170 464 154 447T109 429Z"/>
          </defs>
          <g stroke="currentColor" fill="currentColor" stroke-width="0" transform="scale(1,-1)">
            <g data-mml-node="math" data-semantic-type="prefixop" data-semantic-role="negative" data-semantic-id="4" data-semantic-children="3" data-semantic-content="0" data-semantic-speech="minus bold v 2">
              <g data-mml-node="mo" data-semantic-type="operator" data-semantic-role="subtraction" data-semantic-id="0" data-semantic-parent="4" data-semantic-operator="prefixop,−" data-semantic-speech="minus">
                <use data-c="2212" xlink:href="#pf-eigen-intro-A-b-4-3-MJX-7-TEX-N-2212"/>
              </g>
              <g data-mml-node="msub" data-semantic-type="subscript" data-semantic-role="latinletter" data-semantic-id="3" data-semantic-children="1,2" data-semantic-parent="4" data-semantic-speech="bold v 2" transform="translate(778,0)">
                <g data-mml-node="TeXAtom" data-mjx-texclass="ORD">
                  <g data-mml-node="TeXAtom" data-mjx-texclass="ORD">
                    <g data-mml-node="mi" data-semantic-type="identifier" data-semantic-role="latinletter" data-semantic-font="bold" data-semantic-annotation="clearspeak:simple" data-semantic-id="1" data-semantic-parent="3" data-semantic-attributes="texclass:ORD" data-semantic-speech="bold v" data-semantic-prefix="Base">
                      <use data-c="1D42F" xlink:href="#pf-eigen-intro-A-b-4-3-MJX-7-TEX-B-1D42F"/>
                    </g>
                  </g>
                </g>
                <g data-mml-node="mn" transform="translate(640,-150) scale(0.707)" data-semantic-type="number" data-semantic-role="integer" data-semantic-font="normal" data-semantic-annotation="clearspeak:simple" data-semantic-id="2" data-semantic-parent="3" data-semantic-speech="2" data-semantic-prefix="Subscript">
                  <use data-c="32" xlink:href="#pf-eigen-intro-A-b-4-3-MJX-7-TEX-N-32"/>
                </g>
              </g>
            </g>
          </g>
        </svg>
      </g>
    </g>
    <path stroke="black" stroke-width="3" fill="none" marker-end="url(#pf-eigen-intro-A-b-4-3-arrow-head-end-3_None_24_60-black)" d="M 130.0 130.0 L 158.7 158.7"/>
  </g>
</svg>
