<svg xmlns="http://www.w3.org/2000/svg" id="pf-ex-coord-std-figure" viewBox="0 0 260 260">
  <defs>
    <clipPath id="pf-ex-coord-std-__clipPath-0">
      <rect x="5.0" y="5.0" width="250.0" height="250.0"/>
    </clipPath>
    <clipPath id="pf-ex-coord-std-__clipPath-1">
      <rect x="5.0" y="5.0" width="250.0" height="250.0"/>
    </clipPath>
    <marker id="pf-ex-coord-std-arrow-head-end-3_None_24_60-h808080" markerWidth="13.5" markerHeight="12.0" markerUnits="userSpaceOnUse" orient="auto" refX="9.8" refY="6.0">
      <path d="M 13.5 6.0L 0.0 12.0L 2.6 7.5L 2.6 4.5L 0.0 0.0Z" fill="#808080" stroke="none"/>
    </marker>
    <marker id="pf-ex-coord-std-arrow-head-end-3_None_24_60-h808080-outline" markerWidth="17.5" markerHeight="16.0" markerUnits="userSpaceOnUse" orient="auto" refX="11.8" refY="8.0">
      <path d="M 16.3 9.8 L 2.8 15.8 A 2 2 0 0 1 0.0 14.0 L 0.0 2.0 A 2 2 0 0 1 2.8 0.2 L 16.3 6.2 A 2 2 0 0 1 16.3 9.8 Z" fill="white" stroke="none"/>
    </marker>
    <marker id="pf-ex-coord-std-arrow-head-end-3_None_24_60-black" markerWidth="13.5" markerHeight="12.0" markerUnits="userSpaceOnUse" orient="auto" refX="9.8" refY="6.0">
      <path d="M 13.5 6.0L 0.0 12.0L 2.6 7.5L 2.6 4.5L 0.0 0.0Z" fill="black" stroke="none"/>
    </marker>
    <marker id="pf-ex-coord-std-arrow-head-end-3_None_24_60-black-outline" markerWidth="17.5" markerHeight="16.0" markerUnits="userSpaceOnUse" orient="auto" refX="11.8" refY="8.0">
      <path d="M 16.3 9.8 L 2.8 15.8 A 2 2 0 0 1 0.0 14.0 L 0.0 2.0 A 2 2 0 0 1 2.8 0.2 L 16.3 6.2 A 2 2 0 0 1 16.3 9.8 Z" fill="white" stroke="none"/>
    </marker>
    <marker id="pf-ex-coord-std-arrow-head-start-3_None_24_60-h808080" markerWidth="13.5" markerHeight="12.0" markerUnits="userSpaceOnUse" orient="auto" refX="3.6999999999999993" refY="6.0">
      <g transform="rotate(180, 6.75, 6.0)">
        <path d="M 13.5 6.0L 0.0 12.0L 2.6 7.5L 2.6 4.5L 0.0 0.0Z" fill="#808080" stroke="none"/>
      </g>
    </marker>
    <marker id="pf-ex-coord-std-arrow-head-start-3_None_24_60-h808080-outline" markerWidth="17.5" markerHeight="16.0" markerUnits="userSpaceOnUse" orient="auto" refX="5.699999999999999" refY="8.0">
      <g transform="rotate(180, 8.75, 8.0)">
        <path d="M 16.3 9.8 L 2.8 15.8 A 2 2 0 0 1 0.0 14.0 L 0.0 2.0 A 2 2 0 0 1 2.8 0.2 L 16.3 6.2 A 2 2 0 0 1 16.3 9.8 Z" fill="white" stroke="none"/>
      </g>
    </marker>
    <marker id="pf-ex-coord-std-arrow-head-start-3_None_24_60-black" markerWidth="13.5" markerHeight="12.0" markerUnits="userSpaceOnUse" orient="auto" refX="3.6999999999999993" refY="6.0">
      <g transform="rotate(180, 6.75, 6.0)">
        <path d="M 13.5 6.0L 0.0 12.0L 2.6 7.5L 2.6 4.5L 0.0 0.0Z" fill="black" stroke="none"/>
      </g>
    </marker>
    <marker id="pf-ex-coord-std-arrow-head-start-3_None_24_60-black-outline" markerWidth="17.5" markerHeight="16.0" markerUnits="userSpaceOnUse" orient="auto" refX="5.699999999999999" refY="8.0">
      <g transform="rotate(180, 8.75, 8.0)">
        <path d="M 16.3 9.8 L 2.8 15.8 A 2 2 0 0 1 0.0 14.0 L 0.0 2.0 A 2 2 0 0 1 2.8 0.2 L 16.3 6.2 A 2 2 0 0 1 16.3 9.8 Z" fill="white" stroke="none"/>
      </g>
    </marker>
  </defs>
  <g id="pf-ex-coord-std-grid" stroke="#ccc" stroke-width="1">
    <line x1="5.0" y1="255.0" x2="5.0" y2="5.0"/>
    <line x1="36.2" y1="255.0" x2="36.2" y2="5.0"/>
    <line x1="67.5" y1="255.0" x2="67.5" y2="5.0"/>
    <line x1="98.8" y1="255.0" x2="98.8" y2="5.0"/>
    <line x1="130.0" y1="255.0" x2="130.0" y2="5.0"/>
    <line x1="161.2" y1="255.0" x2="161.2" y2="5.0"/>
    <line x1="192.5" y1="255.0" x2="192.5" y2="5.0"/>
    <line x1="223.8" y1="255.0" x2="223.8" y2="5.0"/>
    <line x1="255.0" y1="255.0" x2="255.0" y2="5.0"/>
    <line x1="5.0" y1="255.0" x2="255.0" y2="255.0"/>
    <line x1="5.0" y1="223.8" x2="255.0" y2="223.8"/>
    <line x1="5.0" y1="192.5" x2="255.0" y2="192.5"/>
    <line x1="5.0" y1="161.2" x2="255.0" y2="161.2"/>
    <line x1="5.0" y1="130.0" x2="255.0" y2="130.0"/>
    <line x1="5.0" y1="98.8" x2="255.0" y2="98.8"/>
    <line x1="5.0" y1="67.5" x2="255.0" y2="67.5"/>
    <line x1="5.0" y1="36.2" x2="255.0" y2="36.2"/>
    <line x1="5.0" y1="5.0" x2="255.0" y2="5.0"/>
  </g>
  <g id="pf-ex-coord-std-axes" stroke="black" stroke-width="2">
    <line id="pf-ex-coord-std-__line-18" x1="5.0" y1="130.0" x2="255.0" y2="130.0" stroke="black" stroke-width="2"/>
    <line id="pf-ex-coord-std-__line-19" x1="130.0" y1="255.0" x2="130.0" y2="5.0" stroke="black" stroke-width="2"/>
  </g>
  <g id="pf-ex-coord-std-e1">
    <g id="pf-ex-coord-std-e1" transform="translate(161.2,134.0) translate(0.0,-0.0)">
      <g id="pf-ex-coord-std-__g-0">
        <svg xmlns:xlink="http://www.w3.org/1999/xlink" style="vertical-align: -2.712px" width="17.440px" height="10.896px" role="img" focusable="false" viewBox="0 -452 963.6 602" x="0.0" y="0.0">
          <defs>
            <path id="pf-ex-coord-std-MJX-2-TEX-B-1D41E" d="M32 225Q32 332 102 392T272 452H283Q382 452 436 401Q494 343 494 243Q494 226 486 222T440 217Q431 217 394 217T327 218H175V209Q175 177 179 154T196 107T236 69T306 50Q312 49 323 49Q376 49 410 85Q421 99 427 111T434 127T442 133T463 135H468Q494 135 494 117Q494 110 489 97T468 66T431 32T373 5T292 -6Q181 -6 107 55T32 225ZM383 276Q377 346 348 374T280 402Q253 402 230 390T195 357Q179 331 176 279V266H383V276Z"/>
            <path id="pf-ex-coord-std-MJX-2-TEX-N-31" d="M213 578L200 573Q186 568 160 563T102 556H83V602H102Q149 604 189 617T245 641T273 663Q275 666 285 666Q294 666 302 660V361L303 61Q310 54 315 52T339 48T401 46H427V0H416Q395 3 257 3Q121 3 100 0H88V46H114Q136 46 152 46T177 47T193 50T201 52T207 57T213 61V578Z"/>
          </defs>
          <g stroke="currentColor" fill="currentColor" stroke-width="0" transform="scale(1,-1)">
            <g data-mml-node="math">
              <g data-mml-node="msub" data-semantic-type="subscript" data-semantic-role="latinletter" data-semantic-id="2" data-semantic-children="0,1" data-semantic-speech="bold e 1">
                <g data-mml-node="TeXAtom" data-mjx-texclass="ORD">
                  <g data-mml-node="TeXAtom" data-mjx-texclass="ORD">
                    <g data-mml-node="mi" data-semantic-type="identifier" data-semantic-role="latinletter" data-semantic-font="bold" data-semantic-annotation="clearspeak:simple" data-semantic-id="0" data-semantic-parent="2" data-semantic-attributes="texclass:ORD" data-semantic-speech="bold e" data-semantic-prefix="Base">
                      <use data-c="1D41E" xlink:href="#pf-ex-coord-std-MJX-2-TEX-B-1D41E"/>
                    </g>
                  </g>
                </g>
                <g data-mml-node="mn" transform="translate(560,-150) scale(0.707)" data-semantic-type="number" data-semantic-role="integer" data-semantic-font="normal" data-semantic-annotation="clearspeak:simple" data-semantic-id="1" data-semantic-parent="2" data-semantic-speech="1" data-semantic-prefix="Subscript">
                  <use data-c="31" xlink:href="#pf-ex-coord-std-MJX-2-TEX-N-31"/>
                </g>
              </g>
            </g>
          </g>
        </svg>
      </g>
    </g>
    <path stroke="#808080" stroke-width="3" fill="none" marker-end="url(#pf-ex-coord-std-arrow-head-end-3_None_24_60-h808080)" d="M 130.0 130.0 L 157.6 130.0"/>
  </g>
  <g id="pf-ex-coord-std-e2">
    <g id="pf-ex-coord-std-e2" transform="translate(134.0,98.8) translate(0.0,-10.9)">
      <g id="pf-ex-coord-std-__g-1">
        <svg xmlns:xlink="http://www.w3.org/1999/xlink" style="vertical-align: -2.712px" width="17.440px" height="10.896px" role="img" focusable="false" viewBox="0 -452 963.6 602" x="0.0" y="0.0">
          <defs>
            <path id="pf-ex-coord-std-MJX-3-TEX-B-1D41E" d="M32 225Q32 332 102 392T272 452H283Q382 452 436 401Q494 343 494 243Q494 226 486 222T440 217Q431 217 394 217T327 218H175V209Q175 177 179 154T196 107T236 69T306 50Q312 49 323 49Q376 49 410 85Q421 99 427 111T434 127T442 133T463 135H468Q494 135 494 117Q494 110 489 97T468 66T431 32T373 5T292 -6Q181 -6 107 55T32 225ZM383 276Q377 346 348 374T280 402Q253 402 230 390T195 357Q179 331 176 279V266H383V276Z"/>
            <path id="pf-ex-coord-std-MJX-3-TEX-N-32" d="M109 429Q82 429 66 447T50 491Q50 562 103 614T235 666Q326 666 387 610T449 465Q449 422 429 383T381 315T301 241Q265 210 201 149L142 93L218 92Q375 92 385 97Q392 99 409 186V189H449V186Q448 183 436 95T421 3V0H50V19V31Q50 38 56 46T86 81Q115 113 136 137Q145 147 170 174T204 211T233 244T261 278T284 308T305 340T320 369T333 401T340 431T343 464Q343 527 309 573T212 619Q179 619 154 602T119 569T109 550Q109 549 114 549Q132 549 151 535T170 489Q170 464 154 447T109 429Z"/>
          </defs>
          <g stroke="currentColor" fill="currentColor" stroke-width="0" transform="scale(1,-1)">
            <g data-mml-node="math">
              <g data-mml-node="msub" data-semantic-type="subscript" data-semantic-role="latinletter" data-semantic-id="2" data-semantic-children="0,1" data-semantic-speech="bold e 2">
                <g data-mml-node="TeXAtom" data-mjx-texclass="ORD">
                  <g data-mml-node="TeXAtom" data-mjx-texclass="ORD">
                    <g data-mml-node="mi" data-semantic-type="identifier" data-semantic-role="latinletter" data-semantic-font="bold" data-semantic-annotation="clearspeak:simple" data-semantic-id="0" data-semantic-parent="2" data-semantic-attributes="texclass:ORD" data-semantic-speech="bold e" data-semantic-prefix="Base">
                      <use data-c="1D41E" xlink:href="#pf-ex-coord-std-MJX-3-TEX-B-1D41E"/>
                    </g>
                  </g>
                </g>
                <g data-mml-node="mn" transform="translate(560,-150) scale(0.707)" data-semantic-type="number" data-semantic-role="integer" data-semantic-font="normal" data-semantic-annotation="clearspeak:simple" data-semantic-id="1" data-semantic-parent="2" data-semantic-speech="2" data-semantic-prefix="Subscript">
                  <use data-c="32" xlink:href="#pf-ex-coord-std-MJX-3-TEX-N-32"/>
                </g>
              </g>
            </g>
          </g>
        </svg>
      </g>
    </g>
    <path stroke="#808080" stroke-width="3" fill="none" marker-end="url(#pf-ex-coord-std-arrow-head-end-3_None_24_60-h808080)" d="M 130.0 130.0 L 130.0 102.4"/>
  </g>
  <g id="pf-ex-coord-std-comb">
    <g id="pf-ex-coord-std-comb" transform="translate(189.2,225.9) translate(-54.3,-0.0)">
      <g id="pf-ex-coord-std-__g-2">
        <svg xmlns:xlink="http://www.w3.org/1999/xlink" style="vertical-align: -4.528px" width="54.312px" height="18.096px" role="img" focusable="false" viewBox="0 -750 3000.7 1000" x="0.0" y="0.0">
          <defs>
            <path id="pf-ex-coord-std-MJX-4-TEX-N-28" d="M94 250Q94 319 104 381T127 488T164 576T202 643T244 695T277 729T302 750H315H319Q333 750 333 741Q333 738 316 720T275 667T226 581T184 443T167 250T184 58T225 -81T274 -167T316 -220T333 -241Q333 -250 318 -250H315H302L274 -226Q180 -141 137 -14T94 250Z"/>
            <path id="pf-ex-coord-std-MJX-4-TEX-N-32" d="M109 429Q82 429 66 447T50 491Q50 562 103 614T235 666Q326 666 387 610T449 465Q449 422 429 383T381 315T301 241Q265 210 201 149L142 93L218 92Q375 92 385 97Q392 99 409 186V189H449V186Q448 183 436 95T421 3V0H50V19V31Q50 38 56 46T86 81Q115 113 136 137Q145 147 170 174T204 211T233 244T261 278T284 308T305 340T320 369T333 401T340 431T343 464Q343 527 309 573T212 619Q179 619 154 602T119 569T109 550Q109 549 114 549Q132 549 151 535T170 489Q170 464 154 447T109 429Z"/>
            <path id="pf-ex-coord-std-MJX-4-TEX-N-2C" d="M78 35T78 60T94 103T137 121Q165 121 187 96T210 8Q210 -27 201 -60T180 -117T154 -158T130 -185T117 -194Q113 -194 104 -185T95 -172Q95 -168 106 -156T131 -126T157 -76T173 -3V9L172 8Q170 7 167 6T161 3T152 1T140 0Q113 0 96 17Z"/>
            <path id="pf-ex-coord-std-MJX-4-TEX-N-2212" d="M84 237T84 250T98 270H679Q694 262 694 250T679 230H98Q84 237 84 250Z"/>
            <path id="pf-ex-coord-std-MJX-4-TEX-N-33" d="M127 463Q100 463 85 480T69 524Q69 579 117 622T233 665Q268 665 277 664Q351 652 390 611T430 522Q430 470 396 421T302 350L299 348Q299 347 308 345T337 336T375 315Q457 262 457 175Q457 96 395 37T238 -22Q158 -22 100 21T42 130Q42 158 60 175T105 193Q133 193 151 175T169 130Q169 119 166 110T159 94T148 82T136 74T126 70T118 67L114 66Q165 21 238 21Q293 21 321 74Q338 107 338 175V195Q338 290 274 322Q259 328 213 329L171 330L168 332Q166 335 166 348Q166 366 174 366Q202 366 232 371Q266 376 294 413T322 525V533Q322 590 287 612Q265 626 240 626Q208 626 181 615T143 592T132 580H135Q138 579 143 578T153 573T165 566T175 555T183 540T186 520Q186 498 172 481T127 463Z"/>
            <path id="pf-ex-coord-std-MJX-4-TEX-N-29" d="M60 749L64 750Q69 750 74 750H86L114 726Q208 641 251 514T294 250Q294 182 284 119T261 12T224 -76T186 -143T145 -194T113 -227T90 -246Q87 -249 86 -250H74Q66 -250 63 -250T58 -247T55 -238Q56 -237 66 -225Q221 -64 221 250T66 725Q56 737 55 738Q55 746 60 749Z"/>
          </defs>
          <g stroke="currentColor" fill="currentColor" stroke-width="0" transform="scale(1,-1)">
            <g data-mml-node="math" data-semantic-type="fenced" data-semantic-role="leftright" data-semantic-id="8" data-semantic-children="7" data-semantic-content="0,5" data-semantic-speech="left parenthesis 2 comma negative 3 right parenthesis">
              <g data-mml-node="mo" data-semantic-type="fence" data-semantic-role="open" data-semantic-id="0" data-semantic-parent="8" data-semantic-operator="fenced" data-semantic-speech="left parenthesis">
                <use data-c="28" xlink:href="#pf-ex-coord-std-MJX-4-TEX-N-28"/>
              </g>
              <g data-mml-node="mrow" data-semantic-type="punctuated" data-semantic-role="sequence" data-semantic-id="7" data-semantic-children="1,2,6" data-semantic-content="2" data-semantic-parent="8" data-semantic-speech="2 comma negative 3" transform="translate(389,0)">
                <g data-mml-node="mn" data-semantic-type="number" data-semantic-role="integer" data-semantic-font="normal" data-semantic-annotation="clearspeak:simple" data-semantic-id="1" data-semantic-parent="7" data-semantic-speech="2">
                  <use data-c="32" xlink:href="#pf-ex-coord-std-MJX-4-TEX-N-32"/>
                </g>
                <g data-mml-node="mo" data-semantic-type="punctuation" data-semantic-role="comma" data-semantic-id="2" data-semantic-parent="7" data-semantic-operator="punctuated" data-semantic-speech="comma" transform="translate(500,0)">
                  <use data-c="2C" xlink:href="#pf-ex-coord-std-MJX-4-TEX-N-2C"/>
                </g>
                <g data-mml-node="mrow" data-semantic-type="prefixop" data-semantic-role="negative" data-semantic-annotation="clearspeak:simple" data-semantic-id="6" data-semantic-children="4" data-semantic-content="3" data-semantic-parent="7" data-semantic-speech="negative 3" transform="translate(944.7,0)">
                  <g data-mml-node="mo" data-semantic-type="operator" data-semantic-role="subtraction" data-semantic-id="3" data-semantic-parent="6" data-semantic-operator="prefixop,−" data-semantic-speech="minus">
                    <use data-c="2212" xlink:href="#pf-ex-coord-std-MJX-4-TEX-N-2212"/>
                  </g>
                  <g data-mml-node="mn" data-semantic-type="number" data-semantic-role="integer" data-semantic-font="normal" data-semantic-annotation="clearspeak:simple" data-semantic-id="4" data-semantic-parent="6" data-semantic-speech="3" transform="translate(778,0)">
                    <use data-c="33" xlink:href="#pf-ex-coord-std-MJX-4-TEX-N-33"/>
                  </g>
                </g>
              </g>
              <g data-mml-node="mo" data-semantic-type="fence" data-semantic-role="close" data-semantic-id="5" data-semantic-parent="8" data-semantic-operator="fenced" data-semantic-speech="right parenthesis" transform="translate(2611.7,0)">
                <use data-c="29" xlink:href="#pf-ex-coord-std-MJX-4-TEX-N-29"/>
              </g>
            </g>
          </g>
        </svg>
      </g>
    </g>
    <path stroke="black" stroke-width="3" fill="none" marker-end="url(#pf-ex-coord-std-arrow-head-end-3_None_24_60-black)" d="M 130.0 130.0 L 190.5 220.7"/>
  </g>
</svg>
