<svg xmlns="http://www.w3.org/2000/svg" id="pf-ex-basis-3-2-figure" width="310" height="310" viewBox="0 0 310 310">
  <defs>
    <clipPath id="pf-ex-basis-3-2-__clipPath-0">
      <rect x="5.0" y="5.0" width="300.0" height="300.0"/>
    </clipPath>
    <clipPath id="pf-ex-basis-3-2-__clipPath-1">
      <rect x="5.0" y="5.0" width="300.0" height="300.0"/>
    </clipPath>
    <marker id="pf-ex-basis-3-2-arrow-head-end-3_None_24_60-black" markerWidth="13.5" markerHeight="12.0" markerUnits="userSpaceOnUse" orient="auto" refX="9.8" refY="6.0">
      <path d="M 13.5 6.0L 0.0 12.0L 2.6 7.5L 2.6 4.5L 0.0 0.0Z" fill="black" stroke="none"/>
    </marker>
    <marker id="pf-ex-basis-3-2-arrow-head-end-3_None_24_60-black-outline" markerWidth="17.5" markerHeight="16.0" markerUnits="userSpaceOnUse" orient="auto" refX="11.8" refY="8.0">
      <path d="M 16.3 9.8 L 2.8 15.8 A 2 2 0 0 1 0.0 14.0 L 0.0 2.0 A 2 2 0 0 1 2.8 0.2 L 16.3 6.2 A 2 2 0 0 1 16.3 9.8 Z" fill="white" stroke="none"/>
    </marker>
    <marker id="pf-ex-basis-3-2-arrow-head-start-3_None_24_60-black" markerWidth="13.5" markerHeight="12.0" markerUnits="userSpaceOnUse" orient="auto" refX="3.6999999999999993" refY="6.0">
      <g transform="rotate(180, 6.75, 6.0)">
        <path d="M 13.5 6.0L 0.0 12.0L 2.6 7.5L 2.6 4.5L 0.0 0.0Z" fill="black" stroke="none"/>
      </g>
    </marker>
    <marker id="pf-ex-basis-3-2-arrow-head-start-3_None_24_60-black-outline" markerWidth="17.5" markerHeight="16.0" markerUnits="userSpaceOnUse" orient="auto" refX="5.699999999999999" refY="8.0">
      <g transform="rotate(180, 8.75, 8.0)">
        <path d="M 16.3 9.8 L 2.8 15.8 A 2 2 0 0 1 0.0 14.0 L 0.0 2.0 A 2 2 0 0 1 2.8 0.2 L 16.3 6.2 A 2 2 0 0 1 16.3 9.8 Z" fill="white" stroke="none"/>
      </g>
    </marker>
  </defs>
  <g id="pf-ex-basis-3-2-grid-axes">
    <g id="pf-ex-basis-3-2-grid" stroke="#ccc" stroke-width="1">
      <line x1="5.0" y1="305.0" x2="5.0" y2="5.0"/>
      <line x1="30.0" y1="305.0" x2="30.0" y2="5.0"/>
      <line x1="55.0" y1="305.0" x2="55.0" y2="5.0"/>
      <line x1="80.0" y1="305.0" x2="80.0" y2="5.0"/>
      <line x1="105.0" y1="305.0" x2="105.0" y2="5.0"/>
      <line x1="130.0" y1="305.0" x2="130.0" y2="5.0"/>
      <line x1="155.0" y1="305.0" x2="155.0" y2="5.0"/>
      <line x1="180.0" y1="305.0" x2="180.0" y2="5.0"/>
      <line x1="205.0" y1="305.0" x2="205.0" y2="5.0"/>
      <line x1="230.0" y1="305.0" x2="230.0" y2="5.0"/>
      <line x1="255.0" y1="305.0" x2="255.0" y2="5.0"/>
      <line x1="280.0" y1="305.0" x2="280.0" y2="5.0"/>
      <line x1="305.0" y1="305.0" x2="305.0" y2="5.0"/>
      <line x1="5.0" y1="305.0" x2="305.0" y2="305.0"/>
      <line x1="5.0" y1="280.0" x2="305.0" y2="280.0"/>
      <line x1="5.0" y1="255.0" x2="305.0" y2="255.0"/>
      <line x1="5.0" y1="230.0" x2="305.0" y2="230.0"/>
      <line x1="5.0" y1="205.0" x2="305.0" y2="205.0"/>
      <line x1="5.0" y1="180.0" x2="305.0" y2="180.0"/>
      <line x1="5.0" y1="155.0" x2="305.0" y2="155.0"/>
      <line x1="5.0" y1="130.0" x2="305.0" y2="130.0"/>
      <line x1="5.0" y1="105.0" x2="305.0" y2="105.0"/>
      <line x1="5.0" y1="80.0" x2="305.0" y2="80.0"/>
      <line x1="5.0" y1="55.0" x2="305.0" y2="55.0"/>
      <line x1="5.0" y1="30.0" x2="305.0" y2="30.0"/>
      <line x1="5.0" y1="5.0" x2="305.0" y2="5.0"/>
    </g>
    <g id="pf-ex-basis-3-2-axes" stroke="black" stroke-width="2">
      <line id="pf-ex-basis-3-2-__line-26" x1="5.0" y1="155.0" x2="305.0" y2="155.0" stroke="black" stroke-width="2"/>
      <g>
        <line id="pf-ex-basis-3-2-__line-27" x1="55.0" y1="158.0" x2="55.0" y2="152.0"/>
        <line id="pf-ex-basis-3-2-__line-28" x1="105.0" y1="158.0" x2="105.0" y2="152.0"/>
        <line id="pf-ex-basis-3-2-__line-29" x1="205.0" y1="158.0" x2="205.0" y2="152.0"/>
        <line id="pf-ex-basis-3-2-__line-30" x1="255.0" y1="158.0" x2="255.0" y2="152.0"/>
      </g>
      <line id="pf-ex-basis-3-2-__line-31" x1="155.0" y1="305.0" x2="155.0" y2="5.0" stroke="black" stroke-width="2"/>
      <g>
        <line id="pf-ex-basis-3-2-__line-32" x1="152.0" y1="255.0" x2="158.0" y2="255.0"/>
        <line id="pf-ex-basis-3-2-__line-33" x1="152.0" y1="205.0" x2="158.0" y2="205.0"/>
        <line id="pf-ex-basis-3-2-__line-34" x1="152.0" y1="105.0" x2="158.0" y2="105.0"/>
        <line id="pf-ex-basis-3-2-__line-35" x1="152.0" y1="55.0" x2="158.0" y2="55.0"/>
      </g>
    </g>
    <g id="pf-ex-basis-3-2-__label-0" transform="translate(55.0,166.0) translate(-7.5,-0.0)">
      <g id="pf-ex-basis-3-2-__g-0">
        <svg xmlns:xlink="http://www.w3.org/1999/xlink" style="vertical-align: 0.000px" width="15.080px" height="12.256px" role="img" focusable="false" viewBox="0 -677 833 677" x="0.0" y="0.0">
          <defs>
            <path id="pf-ex-basis-3-2-MJX-2-TEX-N-2D" d="M11 179V252H277V179H11Z"/>
            <path id="pf-ex-basis-3-2-MJX-2-TEX-N-34" d="M462 0Q444 3 333 3Q217 3 199 0H190V46H221Q241 46 248 46T265 48T279 53T286 61Q287 63 287 115V165H28V211L179 442Q332 674 334 675Q336 677 355 677H373L379 671V211H471V165H379V114Q379 73 379 66T385 54Q393 47 442 46H471V0H462ZM293 211V545L74 212L183 211H293Z"/>
          </defs>
          <g stroke="currentColor" fill="currentColor" stroke-width="0" transform="scale(1,-1)">
            <g data-mml-node="math">
              <g data-mml-node="mtext" data-semantic-type="text" data-semantic-role="unknown" data-semantic-font="normal" data-semantic-annotation="clearspeak:unit" data-semantic-id="0" data-semantic-speech="hyphen 4">
                <use data-c="2D" xlink:href="#pf-ex-basis-3-2-MJX-2-TEX-N-2D"/>
                <use data-c="34" xlink:href="#pf-ex-basis-3-2-MJX-2-TEX-N-34" transform="translate(333,0)"/>
              </g>
            </g>
          </g>
        </svg>
      </g>
    </g>
    <g id="pf-ex-basis-3-2-__label-1" transform="translate(105.0,166.0) translate(-7.5,-0.0)">
      <g id="pf-ex-basis-3-2-__g-1">
        <svg xmlns:xlink="http://www.w3.org/1999/xlink" style="vertical-align: 0.000px" width="15.080px" height="12.056px" role="img" focusable="false" viewBox="0 -666 833 666" x="0.0" y="0.0">
          <defs>
            <path id="pf-ex-basis-3-2-MJX-3-TEX-N-2D" d="M11 179V252H277V179H11Z"/>
            <path id="pf-ex-basis-3-2-MJX-3-TEX-N-32" d="M109 429Q82 429 66 447T50 491Q50 562 103 614T235 666Q326 666 387 610T449 465Q449 422 429 383T381 315T301 241Q265 210 201 149L142 93L218 92Q375 92 385 97Q392 99 409 186V189H449V186Q448 183 436 95T421 3V0H50V19V31Q50 38 56 46T86 81Q115 113 136 137Q145 147 170 174T204 211T233 244T261 278T284 308T305 340T320 369T333 401T340 431T343 464Q343 527 309 573T212 619Q179 619 154 602T119 569T109 550Q109 549 114 549Q132 549 151 535T170 489Q170 464 154 447T109 429Z"/>
          </defs>
          <g stroke="currentColor" fill="currentColor" stroke-width="0" transform="scale(1,-1)">
            <g data-mml-node="math">
              <g data-mml-node="mtext" data-semantic-type="text" data-semantic-role="unknown" data-semantic-font="normal" data-semantic-annotation="clearspeak:unit" data-semantic-id="0" data-semantic-speech="hyphen 2">
                <use data-c="2D" xlink:href="#pf-ex-basis-3-2-MJX-3-TEX-N-2D"/>
                <use data-c="32" xlink:href="#pf-ex-basis-3-2-MJX-3-TEX-N-32" transform="translate(333,0)"/>
              </g>
            </g>
          </g>
        </svg>
      </g>
    </g>
    <g id="pf-ex-basis-3-2-__label-2" transform="translate(205.0,166.0) translate(-4.5,-0.0)">
      <g id="pf-ex-basis-3-2-__g-2">
        <svg xmlns:xlink="http://www.w3.org/1999/xlink" style="vertical-align: 0.000px" width="9.048px" height="12.056px" role="img" focusable="false" viewBox="0 -666 500 666" x="0.0" y="0.0">
          <defs>
            <path id="pf-ex-basis-3-2-MJX-4-TEX-N-32" d="M109 429Q82 429 66 447T50 491Q50 562 103 614T235 666Q326 666 387 610T449 465Q449 422 429 383T381 315T301 241Q265 210 201 149L142 93L218 92Q375 92 385 97Q392 99 409 186V189H449V186Q448 183 436 95T421 3V0H50V19V31Q50 38 56 46T86 81Q115 113 136 137Q145 147 170 174T204 211T233 244T261 278T284 308T305 340T320 369T333 401T340 431T343 464Q343 527 309 573T212 619Q179 619 154 602T119 569T109 550Q109 549 114 549Q132 549 151 535T170 489Q170 464 154 447T109 429Z"/>
          </defs>
          <g stroke="currentColor" fill="currentColor" stroke-width="0" transform="scale(1,-1)">
            <g data-mml-node="math">
              <g data-mml-node="mtext" data-semantic-type="text" data-semantic-role="integer" data-semantic-font="normal" data-semantic-annotation="clearspeak:unit" data-semantic-id="0" data-semantic-speech="2">
                <use data-c="32" xlink:href="#pf-ex-basis-3-2-MJX-4-TEX-N-32"/>
              </g>
            </g>
          </g>
        </svg>
      </g>
    </g>
    <g id="pf-ex-basis-3-2-__label-3" transform="translate(255.0,166.0) translate(-4.5,-0.0)">
      <g id="pf-ex-basis-3-2-__g-3">
        <svg xmlns:xlink="http://www.w3.org/1999/xlink" style="vertical-align: 0.000px" width="9.048px" height="12.256px" role="img" focusable="false" viewBox="0 -677 500 677" x="0.0" y="0.0">
          <defs>
            <path id="pf-ex-basis-3-2-MJX-5-TEX-N-34" d="M462 0Q444 3 333 3Q217 3 199 0H190V46H221Q241 46 248 46T265 48T279 53T286 61Q287 63 287 115V165H28V211L179 442Q332 674 334 675Q336 677 355 677H373L379 671V211H471V165H379V114Q379 73 379 66T385 54Q393 47 442 46H471V0H462ZM293 211V545L74 212L183 211H293Z"/>
          </defs>
          <g stroke="currentColor" fill="currentColor" stroke-width="0" transform="scale(1,-1)">
            <g data-mml-node="math">
              <g data-mml-node="mtext" data-semantic-type="text" data-semantic-role="integer" data-semantic-font="normal" data-semantic-annotation="clearspeak:unit" data-semantic-id="0" data-semantic-speech="4">
                <use data-c="34" xlink:href="#pf-ex-basis-3-2-MJX-5-TEX-N-34"/>
              </g>
            </g>
          </g>
        </svg>
      </g>
    </g>
    <g id="pf-ex-basis-3-2-__label-4" transform="translate(144.0,255.0) translate(-15.1,-6.1)">
      <g id="pf-ex-basis-3-2-__g-4">
        <svg xmlns:xlink="http://www.w3.org/1999/xlink" style="vertical-align: 0.000px" width="15.080px" height="12.256px" role="img" focusable="false" viewBox="0 -677 833 677" x="0.0" y="0.0">
          <defs>
            <path id="pf-ex-basis-3-2-MJX-6-TEX-N-2D" d="M11 179V252H277V179H11Z"/>
            <path id="pf-ex-basis-3-2-MJX-6-TEX-N-34" d="M462 0Q444 3 333 3Q217 3 199 0H190V46H221Q241 46 248 46T265 48T279 53T286 61Q287 63 287 115V165H28V211L179 442Q332 674 334 675Q336 677 355 677H373L379 671V211H471V165H379V114Q379 73 379 66T385 54Q393 47 442 46H471V0H462ZM293 211V545L74 212L183 211H293Z"/>
          </defs>
          <g stroke="currentColor" fill="currentColor" stroke-width="0" transform="scale(1,-1)">
            <g data-mml-node="math">
              <g data-mml-node="mtext" data-semantic-type="text" data-semantic-role="unknown" data-semantic-font="normal" data-semantic-annotation="clearspeak:unit" data-semantic-id="0" data-semantic-speech="hyphen 4">
                <use data-c="2D" xlink:href="#pf-ex-basis-3-2-MJX-6-TEX-N-2D"/>
                <use data-c="34" xlink:href="#pf-ex-basis-3-2-MJX-6-TEX-N-34" transform="translate(333,0)"/>
              </g>
            </g>
          </g>
        </svg>
      </g>
    </g>
    <g id="pf-ex-basis-3-2-__label-5" transform="translate(144.0,205.0) translate(-15.1,-6.0)">
      <g id="pf-ex-basis-3-2-__g-5">
        <svg xmlns:xlink="http://www.w3.org/1999/xlink" style="vertical-align: 0.000px" width="15.080px" height="12.056px" role="img" focusable="false" viewBox="0 -666 833 666" x="0.0" y="0.0">
          <defs>
            <path id="pf-ex-basis-3-2-MJX-7-TEX-N-2D" d="M11 179V252H277V179H11Z"/>
            <path id="pf-ex-basis-3-2-MJX-7-TEX-N-32" d="M109 429Q82 429 66 447T50 491Q50 562 103 614T235 666Q326 666 387 610T449 465Q449 422 429 383T381 315T301 241Q265 210 201 149L142 93L218 92Q375 92 385 97Q392 99 409 186V189H449V186Q448 183 436 95T421 3V0H50V19V31Q50 38 56 46T86 81Q115 113 136 137Q145 147 170 174T204 211T233 244T261 278T284 308T305 340T320 369T333 401T340 431T343 464Q343 527 309 573T212 619Q179 619 154 602T119 569T109 550Q109 549 114 549Q132 549 151 535T170 489Q170 464 154 447T109 429Z"/>
          </defs>
          <g stroke="currentColor" fill="currentColor" stroke-width="0" transform="scale(1,-1)">
            <g data-mml-node="math">
              <g data-mml-node="mtext" data-semantic-type="text" data-semantic-role="unknown" data-semantic-font="normal" data-semantic-annotation="clearspeak:unit" data-semantic-id="0" data-semantic-speech="hyphen 2">
                <use data-c="2D" xlink:href="#pf-ex-basis-3-2-MJX-7-TEX-N-2D"/>
                <use data-c="32" xlink:href="#pf-ex-basis-3-2-MJX-7-TEX-N-32" transform="translate(333,0)"/>
              </g>
            </g>
          </g>
        </svg>
      </g>
    </g>
    <g id="pf-ex-basis-3-2-__label-6" transform="translate(144.0,105.0) translate(-9.0,-6.0)">
      <g id="pf-ex-basis-3-2-__g-6">
        <svg xmlns:xlink="http://www.w3.org/1999/xlink" style="vertical-align: 0.000px" width="9.048px" height="12.056px" role="img" focusable="false" viewBox="0 -666 500 666" x="0.0" y="0.0">
          <defs>
            <path id="pf-ex-basis-3-2-MJX-8-TEX-N-32" d="M109 429Q82 429 66 447T50 491Q50 562 103 614T235 666Q326 666 387 610T449 465Q449 422 429 383T381 315T301 241Q265 210 201 149L142 93L218 92Q375 92 385 97Q392 99 409 186V189H449V186Q448 183 436 95T421 3V0H50V19V31Q50 38 56 46T86 81Q115 113 136 137Q145 147 170 174T204 211T233 244T261 278T284 308T305 340T320 369T333 401T340 431T343 464Q343 527 309 573T212 619Q179 619 154 602T119 569T109 550Q109 549 114 549Q132 549 151 535T170 489Q170 464 154 447T109 429Z"/>
          </defs>
          <g stroke="currentColor" fill="currentColor" stroke-width="0" transform="scale(1,-1)">
            <g data-mml-node="math">
              <g data-mml-node="mtext" data-semantic-type="text" data-semantic-role="integer" data-semantic-font="normal" data-semantic-annotation="clearspeak:unit" data-semantic-id="0" data-semantic-speech="2">
                <use data-c="32" xlink:href="#pf-ex-basis-3-2-MJX-8-TEX-N-32"/>
              </g>
            </g>
          </g>
        </svg>
      </g>
    </g>
    <g id="pf-ex-basis-3-2-__label-7" transform="translate(144.0,55.0) translate(-9.0,-6.1)">
      <g id="pf-ex-basis-3-2-__g-7">
        <svg xmlns:xlink="http://www.w3.org/1999/xlink" style="vertical-align: 0.000px" width="9.048px" height="12.256px" role="img" focusable="false" viewBox="0 -677 500 677" x="0.0" y="0.0">
          <defs>
            <path id="pf-ex-basis-3-2-MJX-9-TEX-N-34" d="M462 0Q444 3 333 3Q217 3 199 0H190V46H221Q241 46 248 46T265 48T279 53T286 61Q287 63 287 115V165H28V211L179 442Q332 674 334 675Q336 677 355 677H373L379 671V211H471V165H379V114Q379 73 379 66T385 54Q393 47 442 46H471V0H462ZM293 211V545L74 212L183 211H293Z"/>
          </defs>
          <g stroke="currentColor" fill="currentColor" stroke-width="0" transform="scale(1,-1)">
            <g data-mml-node="math">
              <g data-mml-node="mtext" data-semantic-type="text" data-semantic-role="integer" data-semantic-font="normal" data-semantic-annotation="clearspeak:unit" data-semantic-id="0" data-semantic-speech="4">
                <use data-c="34" xlink:href="#pf-ex-basis-3-2-MJX-9-TEX-N-34"/>
              </g>
            </g>
          </g>
        </svg>
      </g>
    </g>
  </g>
  <path id="pf-ex-basis-3-2-grid" stroke="#808080" stroke-width="2" fill="none" d="M 5.0 230.0 L 305.0 80.0 M 5.0 155.0 L 305.0 5.0 M 5.0 80.0 L 155.0 5.0 M 5.0 5.0 L 5.0 5.0 M 5.0 305.0 L 305.0 155.0 M 155.0 305.0 L 305.0 230.0 M 305.0 305.0 L 305.0 305.0 M 305.0 305.0 L 5.0 5.0 M 305.0 230.0 L 80.0 5.0 M 305.0 155.0 L 155.0 5.0 M 305.0 80.0 L 230.0 5.0 M 305.0 5.0 L 305.0 5.0 M 230.0 305.0 L 5.0 80.0 M 155.0 305.0 L 5.0 155.0 M 80.0 305.0 L 5.0 230.0 M 5.0 305.0 L 5.0 305.0"/>
  <g id="pf-ex-basis-3-2-v1">
    <g id="pf-ex-basis-3-2-v1" transform="translate(99.0,99.0) translate(-18.9,-10.8)">
      <rect x="-6" y="-6" width="30.888" height="22.752000000000002" stroke="none" fill="white"/>
      <g id="pf-ex-basis-3-2-__g-8">
        <svg xmlns:xlink="http://www.w3.org/1999/xlink" style="vertical-align: -2.712px" width="18.888px" height="10.752px" role="img" focusable="false" viewBox="0 -444 1043.6 594" x="0.0" y="0.0">
          <defs>
            <path id="pf-ex-basis-3-2-MJX-10-TEX-B-1D42F" d="M401 444Q413 441 495 441Q568 441 574 444H580V382H510L409 156Q348 18 339 6Q331 -4 320 -4Q318 -4 313 -4T303 -3H288Q273 -3 264 12T221 102Q206 135 197 156L96 382H26V444H34Q49 441 145 441Q252 441 270 444H279V382H231L284 264Q335 149 338 149Q338 150 389 264T442 381Q442 382 418 382H394V444H401Z"/>
            <path id="pf-ex-basis-3-2-MJX-10-TEX-N-31" d="M213 578L200 573Q186 568 160 563T102 556H83V602H102Q149 604 189 617T245 641T273 663Q275 666 285 666Q294 666 302 660V361L303 61Q310 54 315 52T339 48T401 46H427V0H416Q395 3 257 3Q121 3 100 0H88V46H114Q136 46 152 46T177 47T193 50T201 52T207 57T213 61V578Z"/>
          </defs>
          <g stroke="currentColor" fill="currentColor" stroke-width="0" transform="scale(1,-1)">
            <g data-mml-node="math">
              <g data-mml-node="msub" data-semantic-type="subscript" data-semantic-role="latinletter" data-semantic-id="2" data-semantic-children="0,1" data-semantic-speech="bold v 1">
                <g data-mml-node="TeXAtom" data-mjx-texclass="ORD">
                  <g data-mml-node="TeXAtom" data-mjx-texclass="ORD">
                    <g data-mml-node="mi" data-semantic-type="identifier" data-semantic-role="latinletter" data-semantic-font="bold" data-semantic-annotation="clearspeak:simple" data-semantic-id="0" data-semantic-parent="2" data-semantic-attributes="texclass:ORD" data-semantic-speech="bold v" data-semantic-prefix="Base">
                      <use data-c="1D42F" xlink:href="#pf-ex-basis-3-2-MJX-10-TEX-B-1D42F"/>
                    </g>
                  </g>
                </g>
                <g data-mml-node="mn" transform="translate(640,-150) scale(0.707)" data-semantic-type="number" data-semantic-role="integer" data-semantic-font="normal" data-semantic-annotation="clearspeak:simple" data-semantic-id="1" data-semantic-parent="2" data-semantic-speech="1" data-semantic-prefix="Subscript">
                  <use data-c="31" xlink:href="#pf-ex-basis-3-2-MJX-10-TEX-N-31"/>
                </g>
              </g>
            </g>
          </g>
        </svg>
      </g>
    </g>
    <path stroke="black" stroke-width="3" fill="none" marker-end="url(#pf-ex-basis-3-2-arrow-head-end-3_None_24_60-black)" d="M 155.0 155.0 L 107.6 107.6"/>
  </g>
  <g id="pf-ex-basis-3-2-v2">
    <g id="pf-ex-basis-3-2-v2" transform="translate(205.0,124.0) translate(-9.4,-10.8)">
      <rect x="-6" y="-6" width="30.888" height="22.752000000000002" stroke="none" fill="white"/>
      <g id="pf-ex-basis-3-2-__g-9">
        <svg xmlns:xlink="http://www.w3.org/1999/xlink" style="vertical-align: -2.712px" width="18.888px" height="10.752px" role="img" focusable="false" viewBox="0 -444 1043.6 594" x="0.0" y="0.0">
          <defs>
            <path id="pf-ex-basis-3-2-MJX-11-TEX-B-1D42F" d="M401 444Q413 441 495 441Q568 441 574 444H580V382H510L409 156Q348 18 339 6Q331 -4 320 -4Q318 -4 313 -4T303 -3H288Q273 -3 264 12T221 102Q206 135 197 156L96 382H26V444H34Q49 441 145 441Q252 441 270 444H279V382H231L284 264Q335 149 338 149Q338 150 389 264T442 381Q442 382 418 382H394V444H401Z"/>
            <path id="pf-ex-basis-3-2-MJX-11-TEX-N-32" d="M109 429Q82 429 66 447T50 491Q50 562 103 614T235 666Q326 666 387 610T449 465Q449 422 429 383T381 315T301 241Q265 210 201 149L142 93L218 92Q375 92 385 97Q392 99 409 186V189H449V186Q448 183 436 95T421 3V0H50V19V31Q50 38 56 46T86 81Q115 113 136 137Q145 147 170 174T204 211T233 244T261 278T284 308T305 340T320 369T333 401T340 431T343 464Q343 527 309 573T212 619Q179 619 154 602T119 569T109 550Q109 549 114 549Q132 549 151 535T170 489Q170 464 154 447T109 429Z"/>
          </defs>
          <g stroke="currentColor" fill="currentColor" stroke-width="0" transform="scale(1,-1)">
            <g data-mml-node="math">
              <g data-mml-node="msub" data-semantic-type="subscript" data-semantic-role="latinletter" data-semantic-id="2" data-semantic-children="0,1" data-semantic-speech="bold v 2">
                <g data-mml-node="TeXAtom" data-mjx-texclass="ORD">
                  <g data-mml-node="TeXAtom" data-mjx-texclass="ORD">
                    <g data-mml-node="mi" data-semantic-type="identifier" data-semantic-role="latinletter" data-semantic-font="bold" data-semantic-annotation="clearspeak:simple" data-semantic-id="0" data-semantic-parent="2" data-semantic-attributes="texclass:ORD" data-semantic-speech="bold v" data-semantic-prefix="Base">
                      <use data-c="1D42F" xlink:href="#pf-ex-basis-3-2-MJX-11-TEX-B-1D42F"/>
                    </g>
                  </g>
                </g>
                <g data-mml-node="mn" transform="translate(640,-150) scale(0.707)" data-semantic-type="number" data-semantic-role="integer" data-semantic-font="normal" data-semantic-annotation="clearspeak:simple" data-semantic-id="1" data-semantic-parent="2" data-semantic-speech="2" data-semantic-prefix="Subscript">
                  <use data-c="32" xlink:href="#pf-ex-basis-3-2-MJX-11-TEX-N-32"/>
                </g>
              </g>
            </g>
          </g>
        </svg>
      </g>
    </g>
    <path stroke="black" stroke-width="3" fill="none" marker-end="url(#pf-ex-basis-3-2-arrow-head-end-3_None_24_60-black)" d="M 155.0 155.0 L 201.7 131.6"/>
  </g>
</svg>
