<svg xmlns="http://www.w3.org/2000/svg" id="pf-ex-matrix-cols-figure" width="310" height="310" viewBox="0 0 310 310">
  <defs>
    <clipPath id="pf-ex-matrix-cols-__clipPath-0">
      <rect x="5.0" y="5.0" width="300.0" height="300.0"/>
    </clipPath>
    <clipPath id="pf-ex-matrix-cols-__clipPath-1">
      <rect x="5.0" y="5.0" width="300.0" height="300.0"/>
    </clipPath>
    <marker id="pf-ex-matrix-cols-arrow-head-end-3_None_24_60-h808080" markerWidth="13.5" markerHeight="12.0" markerUnits="userSpaceOnUse" orient="auto" refX="9.8" refY="6.0">
      <path d="M 13.5 6.0L 0.0 12.0L 2.6 7.5L 2.6 4.5L 0.0 0.0Z" fill="#808080" stroke="none"/>
    </marker>
    <marker id="pf-ex-matrix-cols-arrow-head-end-3_None_24_60-h808080-outline" markerWidth="17.5" markerHeight="16.0" markerUnits="userSpaceOnUse" orient="auto" refX="11.8" refY="8.0">
      <path d="M 16.3 9.8 L 2.8 15.8 A 2 2 0 0 1 0.0 14.0 L 0.0 2.0 A 2 2 0 0 1 2.8 0.2 L 16.3 6.2 A 2 2 0 0 1 16.3 9.8 Z" fill="white" stroke="none"/>
    </marker>
    <marker id="pf-ex-matrix-cols-arrow-head-end-3_None_24_60-black" markerWidth="13.5" markerHeight="12.0" markerUnits="userSpaceOnUse" orient="auto" refX="9.8" refY="6.0">
      <path d="M 13.5 6.0L 0.0 12.0L 2.6 7.5L 2.6 4.5L 0.0 0.0Z" fill="black" stroke="none"/>
    </marker>
    <marker id="pf-ex-matrix-cols-arrow-head-end-3_None_24_60-black-outline" markerWidth="17.5" markerHeight="16.0" markerUnits="userSpaceOnUse" orient="auto" refX="11.8" refY="8.0">
      <path d="M 16.3 9.8 L 2.8 15.8 A 2 2 0 0 1 0.0 14.0 L 0.0 2.0 A 2 2 0 0 1 2.8 0.2 L 16.3 6.2 A 2 2 0 0 1 16.3 9.8 Z" fill="white" stroke="none"/>
    </marker>
    <marker id="pf-ex-matrix-cols-arrow-head-start-3_None_24_60-h808080" markerWidth="13.5" markerHeight="12.0" markerUnits="userSpaceOnUse" orient="auto" refX="3.6999999999999993" refY="6.0">
      <g transform="rotate(180, 6.75, 6.0)">
        <path d="M 13.5 6.0L 0.0 12.0L 2.6 7.5L 2.6 4.5L 0.0 0.0Z" fill="#808080" stroke="none"/>
      </g>
    </marker>
    <marker id="pf-ex-matrix-cols-arrow-head-start-3_None_24_60-h808080-outline" markerWidth="17.5" markerHeight="16.0" markerUnits="userSpaceOnUse" orient="auto" refX="5.699999999999999" refY="8.0">
      <g transform="rotate(180, 8.75, 8.0)">
        <path d="M 16.3 9.8 L 2.8 15.8 A 2 2 0 0 1 0.0 14.0 L 0.0 2.0 A 2 2 0 0 1 2.8 0.2 L 16.3 6.2 A 2 2 0 0 1 16.3 9.8 Z" fill="white" stroke="none"/>
      </g>
    </marker>
    <marker id="pf-ex-matrix-cols-arrow-head-start-3_None_24_60-black" markerWidth="13.5" markerHeight="12.0" markerUnits="userSpaceOnUse" orient="auto" refX="3.6999999999999993" refY="6.0">
      <g transform="rotate(180, 6.75, 6.0)">
        <path d="M 13.5 6.0L 0.0 12.0L 2.6 7.5L 2.6 4.5L 0.0 0.0Z" fill="black" stroke="none"/>
      </g>
    </marker>
    <marker id="pf-ex-matrix-cols-arrow-head-start-3_None_24_60-black-outline" markerWidth="17.5" markerHeight="16.0" markerUnits="userSpaceOnUse" orient="auto" refX="5.699999999999999" refY="8.0">
      <g transform="rotate(180, 8.75, 8.0)">
        <path d="M 16.3 9.8 L 2.8 15.8 A 2 2 0 0 1 0.0 14.0 L 0.0 2.0 A 2 2 0 0 1 2.8 0.2 L 16.3 6.2 A 2 2 0 0 1 16.3 9.8 Z" fill="white" stroke="none"/>
      </g>
    </marker>
  </defs>
  <g id="pf-ex-matrix-cols-grid" stroke="#ccc" stroke-width="1" clip-path="url(#pf-ex-matrix-cols-__clipPath-1)">
    <line x1="32.3" y1="311.8" x2="-267.7" y2="-138.2"/>
    <line x1="86.8" y1="325.5" x2="-213.2" y2="-124.5"/>
    <line x1="141.4" y1="339.1" x2="-158.6" y2="-110.9"/>
    <line x1="195.9" y1="352.7" x2="-104.1" y2="-97.3"/>
    <line x1="250.5" y1="366.4" x2="-49.5" y2="-83.6"/>
    <line x1="305.0" y1="380.0" x2="5.0" y2="-70.0"/>
    <line x1="359.5" y1="393.6" x2="59.5" y2="-56.4"/>
    <line x1="414.1" y1="407.3" x2="114.1" y2="-42.7"/>
    <line x1="468.6" y1="420.9" x2="168.6" y2="-29.1"/>
    <line x1="523.2" y1="434.5" x2="223.2" y2="-15.5"/>
    <line x1="577.7" y1="448.2" x2="277.7" y2="-1.8"/>
    <line x1="-8.6" y1="284.5" x2="591.4" y2="434.5"/>
    <line x1="-35.9" y1="243.6" x2="564.1" y2="393.6"/>
    <line x1="-63.2" y1="202.7" x2="536.8" y2="352.7"/>
    <line x1="-90.5" y1="161.8" x2="509.5" y2="311.8"/>
    <line x1="-117.7" y1="120.9" x2="482.3" y2="270.9"/>
    <line x1="-145.0" y1="80.0" x2="455.0" y2="230.0"/>
    <line x1="-172.3" y1="39.1" x2="427.7" y2="189.1"/>
    <line x1="-199.5" y1="-1.8" x2="400.5" y2="148.2"/>
    <line x1="-226.8" y1="-42.7" x2="373.2" y2="107.3"/>
    <line x1="-254.1" y1="-83.6" x2="345.9" y2="66.4"/>
    <line x1="-281.4" y1="-124.5" x2="318.6" y2="25.5"/>
  </g>
  <g id="pf-ex-matrix-cols-axes" stroke="black" stroke-width="2">
    <line id="pf-ex-matrix-cols-__line-22" x1="5.0" y1="155.0" x2="305.0" y2="155.0" stroke="black" stroke-width="2"/>
    <line id="pf-ex-matrix-cols-__line-23" x1="155.0" y1="305.0" x2="155.0" y2="5.0" stroke="black" stroke-width="2"/>
  </g>
  <g id="pf-ex-matrix-cols-v1">
    <g id="pf-ex-matrix-cols-v1" transform="translate(215.5,174.6) translate(0.0,-0.0)">
      <rect x="-6" y="-6" width="30.888" height="22.752000000000002" stroke="none" fill="white"/>
      <g id="pf-ex-matrix-cols-__g-0">
        <svg xmlns:xlink="http://www.w3.org/1999/xlink" style="vertical-align: -2.712px" width="18.888px" height="10.752px" role="img" focusable="false" viewBox="0 -444 1043.6 594" x="0.0" y="0.0">
          <defs>
            <path id="pf-ex-matrix-cols-MJX-2-TEX-B-1D42F" d="M401 444Q413 441 495 441Q568 441 574 444H580V382H510L409 156Q348 18 339 6Q331 -4 320 -4Q318 -4 313 -4T303 -3H288Q273 -3 264 12T221 102Q206 135 197 156L96 382H26V444H34Q49 441 145 441Q252 441 270 444H279V382H231L284 264Q335 149 338 149Q338 150 389 264T442 381Q442 382 418 382H394V444H401Z"/>
            <path id="pf-ex-matrix-cols-MJX-2-TEX-N-31" d="M213 578L200 573Q186 568 160 563T102 556H83V602H102Q149 604 189 617T245 641T273 663Q275 666 285 666Q294 666 302 660V361L303 61Q310 54 315 52T339 48T401 46H427V0H416Q395 3 257 3Q121 3 100 0H88V46H114Q136 46 152 46T177 47T193 50T201 52T207 57T213 61V578Z"/>
          </defs>
          <g stroke="currentColor" fill="currentColor" stroke-width="0" transform="scale(1,-1)">
            <g data-mml-node="math">
              <g data-mml-node="msub" data-semantic-type="subscript" data-semantic-role="latinletter" data-semantic-id="2" data-semantic-children="0,1" data-semantic-speech="bold v 1">
                <g data-mml-node="TeXAtom" data-mjx-texclass="ORD">
                  <g data-mml-node="TeXAtom" data-mjx-texclass="ORD">
                    <g data-mml-node="mi" data-semantic-type="identifier" data-semantic-role="latinletter" data-semantic-font="bold" data-semantic-annotation="clearspeak:simple" data-semantic-id="0" data-semantic-parent="2" data-semantic-attributes="texclass:ORD" data-semantic-speech="bold v" data-semantic-prefix="Base">
                      <use data-c="1D42F" xlink:href="#pf-ex-matrix-cols-MJX-2-TEX-B-1D42F"/>
                    </g>
                  </g>
                </g>
                <g data-mml-node="mn" transform="translate(640,-150) scale(0.707)" data-semantic-type="number" data-semantic-role="integer" data-semantic-font="normal" data-semantic-annotation="clearspeak:simple" data-semantic-id="1" data-semantic-parent="2" data-semantic-speech="1" data-semantic-prefix="Subscript">
                  <use data-c="31" xlink:href="#pf-ex-matrix-cols-MJX-2-TEX-N-31"/>
                </g>
              </g>
            </g>
          </g>
        </svg>
      </g>
    </g>
    <path stroke="#808080" stroke-width="3" fill="none" marker-end="url(#pf-ex-matrix-cols-arrow-head-end-3_None_24_60-h808080)" d="M 155.0 155.0 L 206.0 167.7"/>
  </g>
  <g id="pf-ex-matrix-cols-v2">
    <g id="pf-ex-matrix-cols-v2" transform="translate(121.7,108.1) translate(-18.9,-10.8)">
      <rect x="-6" y="-6" width="30.888" height="22.752000000000002" stroke="none" fill="white"/>
      <g id="pf-ex-matrix-cols-__g-1">
        <svg xmlns:xlink="http://www.w3.org/1999/xlink" style="vertical-align: -2.712px" width="18.888px" height="10.752px" role="img" focusable="false" viewBox="0 -444 1043.6 594" x="0.0" y="0.0">
          <defs>
            <path id="pf-ex-matrix-cols-MJX-3-TEX-B-1D42F" d="M401 444Q413 441 495 441Q568 441 574 444H580V382H510L409 156Q348 18 339 6Q331 -4 320 -4Q318 -4 313 -4T303 -3H288Q273 -3 264 12T221 102Q206 135 197 156L96 382H26V444H34Q49 441 145 441Q252 441 270 444H279V382H231L284 264Q335 149 338 149Q338 150 389 264T442 381Q442 382 418 382H394V444H401Z"/>
            <path id="pf-ex-matrix-cols-MJX-3-TEX-N-32" d="M109 429Q82 429 66 447T50 491Q50 562 103 614T235 666Q326 666 387 610T449 465Q449 422 429 383T381 315T301 241Q265 210 201 149L142 93L218 92Q375 92 385 97Q392 99 409 186V189H449V186Q448 183 436 95T421 3V0H50V19V31Q50 38 56 46T86 81Q115 113 136 137Q145 147 170 174T204 211T233 244T261 278T284 308T305 340T320 369T333 401T340 431T343 464Q343 527 309 573T212 619Q179 619 154 602T119 569T109 550Q109 549 114 549Q132 549 151 535T170 489Q170 464 154 447T109 429Z"/>
          </defs>
          <g stroke="currentColor" fill="currentColor" stroke-width="0" transform="scale(1,-1)">
            <g data-mml-node="math">
              <g data-mml-node="msub" data-semantic-type="subscript" data-semantic-role="latinletter" data-semantic-id="2" data-semantic-children="0,1" data-semantic-speech="bold v 2">
                <g data-mml-node="TeXAtom" data-mjx-texclass="ORD">
                  <g data-mml-node="TeXAtom" data-mjx-texclass="ORD">
                    <g data-mml-node="mi" data-semantic-type="identifier" data-semantic-role="latinletter" data-semantic-font="bold" data-semantic-annotation="clearspeak:simple" data-semantic-id="0" data-semantic-parent="2" data-semantic-attributes="texclass:ORD" data-semantic-speech="bold v" data-semantic-prefix="Base">
                      <use data-c="1D42F" xlink:href="#pf-ex-matrix-cols-MJX-3-TEX-B-1D42F"/>
                    </g>
                  </g>
                </g>
                <g data-mml-node="mn" transform="translate(640,-150) scale(0.707)" data-semantic-type="number" data-semantic-role="integer" data-semantic-font="normal" data-semantic-annotation="clearspeak:simple" data-semantic-id="1" data-semantic-parent="2" data-semantic-speech="2" data-semantic-prefix="Subscript">
                  <use data-c="32" xlink:href="#pf-ex-matrix-cols-MJX-3-TEX-N-32"/>
                </g>
              </g>
            </g>
          </g>
        </svg>
      </g>
    </g>
    <path stroke="#808080" stroke-width="3" fill="none" marker-end="url(#pf-ex-matrix-cols-arrow-head-end-3_None_24_60-h808080)" d="M 155.0 155.0 L 129.8 117.1"/>
  </g>
  <g id="pf-ex-matrix-cols-b">
    <g id="pf-ex-matrix-cols-b" transform="translate(76.0,239.6) translate(0.0,-0.0)">
      <rect x="-6" y="-6" width="23.567999999999998" height="24.672" stroke="none" fill="white"/>
      <g id="pf-ex-matrix-cols-__g-2">
        <svg xmlns:xlink="http://www.w3.org/1999/xlink" style="vertical-align: -0.112px" width="11.568px" height="12.672px" role="img" focusable="false" viewBox="0 -694 639 700" x="0.0" y="0.0">
          <defs>
            <path id="pf-ex-matrix-cols-MJX-4-TEX-B-1D41B" d="M32 686L123 690Q214 694 215 694H221V409Q289 450 378 450Q479 450 539 387T600 221Q600 122 535 58T358 -6H355Q272 -6 203 53L160 1L129 0H98V301Q98 362 98 435T99 525Q99 591 97 604T83 620Q69 624 42 624H29V686H32ZM227 105L232 99Q237 93 242 87T258 73T280 59T306 49T339 45Q380 45 411 66T451 131Q457 160 457 230Q457 264 456 284T448 329T430 367T396 389T343 398Q282 398 235 355L227 348V105Z"/>
          </defs>
          <g stroke="currentColor" fill="currentColor" stroke-width="0" transform="scale(1,-1)">
            <g data-mml-node="math">
              <g data-mml-node="TeXAtom" data-mjx-texclass="ORD">
                <g data-mml-node="TeXAtom" data-mjx-texclass="ORD">
                  <g data-mml-node="mi" data-semantic-type="identifier" data-semantic-role="latinletter" data-semantic-font="bold" data-semantic-annotation="clearspeak:simple" data-semantic-id="0" data-semantic-attributes="texclass:ORD" data-semantic-speech="bold b">
                    <use data-c="1D41B" xlink:href="#pf-ex-matrix-cols-MJX-4-TEX-B-1D41B"/>
                  </g>
                </g>
              </g>
            </g>
          </g>
        </svg>
      </g>
    </g>
    <path stroke="black" stroke-width="3" fill="none" marker-end="url(#pf-ex-matrix-cols-arrow-head-end-3_None_24_60-black)" d="M 155.0 155.0 L 75.8 234.2"/>
  </g>
</svg>
