<svg xmlns="http://www.w3.org/2000/svg" id="pf-jpeg-fourier-basis-a-figure" viewBox="0 0 285 210">
  <defs>
    <clipPath id="pf-jpeg-fourier-basis-a-__clipPath-0">
      <rect x="30.0" y="5.0" width="250.0" height="200.0"/>
    </clipPath>
    <clipPath id="pf-jpeg-fourier-basis-a-__clipPath-1">
      <rect x="30.0" y="5.0" width="250.0" height="200.0"/>
    </clipPath>
  </defs>
  <g id="pf-jpeg-fourier-basis-a-axes" stroke="black" stroke-width="2">
    <line id="pf-jpeg-fourier-basis-a-__line-0" x1="30.0" y1="105.0" x2="280.0" y2="105.0" stroke="black" stroke-width="2"/>
    <g>
      <line id="pf-jpeg-fourier-basis-a-__line-1" x1="65.7" y1="108.0" x2="65.7" y2="102.0"/>
      <line id="pf-jpeg-fourier-basis-a-__line-2" x1="101.4" y1="108.0" x2="101.4" y2="102.0"/>
      <line id="pf-jpeg-fourier-basis-a-__line-3" x1="137.1" y1="108.0" x2="137.1" y2="102.0"/>
      <line id="pf-jpeg-fourier-basis-a-__line-4" x1="172.9" y1="108.0" x2="172.9" y2="102.0"/>
      <line id="pf-jpeg-fourier-basis-a-__line-5" x1="208.6" y1="108.0" x2="208.6" y2="102.0"/>
      <line id="pf-jpeg-fourier-basis-a-__line-6" x1="244.3" y1="108.0" x2="244.3" y2="102.0"/>
      <line id="pf-jpeg-fourier-basis-a-__line-7" x1="280.0" y1="108.0" x2="280.0" y2="102.0"/>
    </g>
    <line id="pf-jpeg-fourier-basis-a-__line-8" x1="30.0" y1="205.0" x2="30.0" y2="5.0" stroke="black" stroke-width="2"/>
    <g>
      <line id="pf-jpeg-fourier-basis-a-__line-9" x1="27.0" y1="185.0" x2="33.0" y2="185.0"/>
      <line id="pf-jpeg-fourier-basis-a-__line-10" x1="27.0" y1="25.0" x2="33.0" y2="25.0"/>
    </g>
  </g>
  <g id="pf-jpeg-fourier-basis-a-__label-0" transform="translate(34.0,9.0) translate(0.0,-0.0)">
    <g id="pf-jpeg-fourier-basis-a-__g-0">
      <svg xmlns:xlink="http://www.w3.org/1999/xlink" style="vertical-align: -3.000px" width="18.888px" height="11.032px" role="img" focusable="false" viewBox="0 -444 1043.6 609.6" x="0.0" y="0.0">
        <defs>
          <path id="pf-jpeg-fourier-basis-a-MJX-2-TEX-B-1D42F" d="M401 444Q413 441 495 441Q568 441 574 444H580V382H510L409 156Q348 18 339 6Q331 -4 320 -4Q318 -4 313 -4T303 -3H288Q273 -3 264 12T221 102Q206 135 197 156L96 382H26V444H34Q49 441 145 441Q252 441 270 444H279V382H231L284 264Q335 149 338 149Q338 150 389 264T442 381Q442 382 418 382H394V444H401Z"/>
          <path id="pf-jpeg-fourier-basis-a-MJX-2-TEX-N-30" d="M96 585Q152 666 249 666Q297 666 345 640T423 548Q460 465 460 320Q460 165 417 83Q397 41 362 16T301 -15T250 -22Q224 -22 198 -16T137 16T82 83Q39 165 39 320Q39 494 96 585ZM321 597Q291 629 250 629Q208 629 178 597Q153 571 145 525T137 333Q137 175 145 125T181 46Q209 16 250 16Q290 16 318 46Q347 76 354 130T362 333Q362 478 354 524T321 597Z"/>
        </defs>
        <g stroke="currentColor" fill="currentColor" stroke-width="0" transform="scale(1,-1)">
          <g data-mml-node="math">
            <g data-mml-node="msub" data-semantic-type="subscript" data-semantic-role="latinletter" data-semantic-id="2" data-semantic-children="0,1" data-semantic-speech="bold v 0">
              <g data-mml-node="TeXAtom" data-mjx-texclass="ORD">
                <g data-mml-node="TeXAtom" data-mjx-texclass="ORD">
                  <g data-mml-node="mi" data-semantic-type="identifier" data-semantic-role="latinletter" data-semantic-font="bold" data-semantic-annotation="clearspeak:simple" data-semantic-id="0" data-semantic-parent="2" data-semantic-attributes="texclass:ORD" data-semantic-speech="bold v" data-semantic-prefix="Base">
                    <use data-c="1D42F" xlink:href="#pf-jpeg-fourier-basis-a-MJX-2-TEX-B-1D42F"/>
                  </g>
                </g>
              </g>
              <g data-mml-node="TeXAtom" transform="translate(640,-150) scale(0.707)" data-mjx-texclass="ORD">
                <g data-mml-node="mn" data-semantic-type="number" data-semantic-role="integer" data-semantic-font="normal" data-semantic-annotation="clearspeak:simple" data-semantic-id="1" data-semantic-parent="2" data-semantic-attributes="texclass:ORD" data-semantic-speech="0" data-semantic-prefix="Subscript">
                  <use data-c="30" xlink:href="#pf-jpeg-fourier-basis-a-MJX-2-TEX-N-30"/>
                </g>
              </g>
            </g>
          </g>
        </g>
      </svg>
    </g>
  </g>
  <g id="pf-jpeg-fourier-basis-a-__label-1" transform="translate(65.7,116.0) translate(-4.5,-0.0)">
    <g id="pf-jpeg-fourier-basis-a-__g-1">
      <svg xmlns:xlink="http://www.w3.org/1999/xlink" style="vertical-align: 0.000px" width="9.048px" height="12.056px" role="img" focusable="false" viewBox="0 -666 500 666" x="0.0" y="0.0">
        <defs>
          <path id="pf-jpeg-fourier-basis-a-MJX-3-TEX-N-31" d="M213 578L200 573Q186 568 160 563T102 556H83V602H102Q149 604 189 617T245 641T273 663Q275 666 285 666Q294 666 302 660V361L303 61Q310 54 315 52T339 48T401 46H427V0H416Q395 3 257 3Q121 3 100 0H88V46H114Q136 46 152 46T177 47T193 50T201 52T207 57T213 61V578Z"/>
        </defs>
        <g stroke="currentColor" fill="currentColor" stroke-width="0" transform="scale(1,-1)">
          <g data-mml-node="math">
            <g data-mml-node="mtext" data-semantic-type="text" data-semantic-role="integer" data-semantic-font="normal" data-semantic-annotation="clearspeak:unit" data-semantic-id="0" data-semantic-speech="1">
              <use data-c="31" xlink:href="#pf-jpeg-fourier-basis-a-MJX-3-TEX-N-31"/>
            </g>
          </g>
        </g>
      </svg>
    </g>
  </g>
  <g id="pf-jpeg-fourier-basis-a-__label-2" transform="translate(101.4,116.0) translate(-4.5,-0.0)">
    <g id="pf-jpeg-fourier-basis-a-__g-2">
      <svg xmlns:xlink="http://www.w3.org/1999/xlink" style="vertical-align: 0.000px" width="9.048px" height="12.056px" role="img" focusable="false" viewBox="0 -666 500 666" x="0.0" y="0.0">
        <defs>
          <path id="pf-jpeg-fourier-basis-a-MJX-4-TEX-N-32" d="M109 429Q82 429 66 447T50 491Q50 562 103 614T235 666Q326 666 387 610T449 465Q449 422 429 383T381 315T301 241Q265 210 201 149L142 93L218 92Q375 92 385 97Q392 99 409 186V189H449V186Q448 183 436 95T421 3V0H50V19V31Q50 38 56 46T86 81Q115 113 136 137Q145 147 170 174T204 211T233 244T261 278T284 308T305 340T320 369T333 401T340 431T343 464Q343 527 309 573T212 619Q179 619 154 602T119 569T109 550Q109 549 114 549Q132 549 151 535T170 489Q170 464 154 447T109 429Z"/>
        </defs>
        <g stroke="currentColor" fill="currentColor" stroke-width="0" transform="scale(1,-1)">
          <g data-mml-node="math">
            <g data-mml-node="mtext" data-semantic-type="text" data-semantic-role="integer" data-semantic-font="normal" data-semantic-annotation="clearspeak:unit" data-semantic-id="0" data-semantic-speech="2">
              <use data-c="32" xlink:href="#pf-jpeg-fourier-basis-a-MJX-4-TEX-N-32"/>
            </g>
          </g>
        </g>
      </svg>
    </g>
  </g>
  <g id="pf-jpeg-fourier-basis-a-__label-3" transform="translate(137.1,116.0) translate(-4.5,-0.0)">
    <g id="pf-jpeg-fourier-basis-a-__g-3">
      <svg xmlns:xlink="http://www.w3.org/1999/xlink" style="vertical-align: -0.400px" width="9.048px" height="12.432px" role="img" focusable="false" viewBox="0 -665 500 687" x="0.0" y="0.0">
        <defs>
          <path id="pf-jpeg-fourier-basis-a-MJX-5-TEX-N-33" d="M127 463Q100 463 85 480T69 524Q69 579 117 622T233 665Q268 665 277 664Q351 652 390 611T430 522Q430 470 396 421T302 350L299 348Q299 347 308 345T337 336T375 315Q457 262 457 175Q457 96 395 37T238 -22Q158 -22 100 21T42 130Q42 158 60 175T105 193Q133 193 151 175T169 130Q169 119 166 110T159 94T148 82T136 74T126 70T118 67L114 66Q165 21 238 21Q293 21 321 74Q338 107 338 175V195Q338 290 274 322Q259 328 213 329L171 330L168 332Q166 335 166 348Q166 366 174 366Q202 366 232 371Q266 376 294 413T322 525V533Q322 590 287 612Q265 626 240 626Q208 626 181 615T143 592T132 580H135Q138 579 143 578T153 573T165 566T175 555T183 540T186 520Q186 498 172 481T127 463Z"/>
        </defs>
        <g stroke="currentColor" fill="currentColor" stroke-width="0" transform="scale(1,-1)">
          <g data-mml-node="math">
            <g data-mml-node="mtext" data-semantic-type="text" data-semantic-role="integer" data-semantic-font="normal" data-semantic-annotation="clearspeak:unit" data-semantic-id="0" data-semantic-speech="3">
              <use data-c="33" xlink:href="#pf-jpeg-fourier-basis-a-MJX-5-TEX-N-33"/>
            </g>
          </g>
        </g>
      </svg>
    </g>
  </g>
  <g id="pf-jpeg-fourier-basis-a-__label-4" transform="translate(172.9,116.0) translate(-4.5,-0.0)">
    <g id="pf-jpeg-fourier-basis-a-__g-4">
      <svg xmlns:xlink="http://www.w3.org/1999/xlink" style="vertical-align: 0.000px" width="9.048px" height="12.256px" role="img" focusable="false" viewBox="0 -677 500 677" x="0.0" y="0.0">
        <defs>
          <path id="pf-jpeg-fourier-basis-a-MJX-6-TEX-N-34" d="M462 0Q444 3 333 3Q217 3 199 0H190V46H221Q241 46 248 46T265 48T279 53T286 61Q287 63 287 115V165H28V211L179 442Q332 674 334 675Q336 677 355 677H373L379 671V211H471V165H379V114Q379 73 379 66T385 54Q393 47 442 46H471V0H462ZM293 211V545L74 212L183 211H293Z"/>
        </defs>
        <g stroke="currentColor" fill="currentColor" stroke-width="0" transform="scale(1,-1)">
          <g data-mml-node="math">
            <g data-mml-node="mtext" data-semantic-type="text" data-semantic-role="integer" data-semantic-font="normal" data-semantic-annotation="clearspeak:unit" data-semantic-id="0" data-semantic-speech="4">
              <use data-c="34" xlink:href="#pf-jpeg-fourier-basis-a-MJX-6-TEX-N-34"/>
            </g>
          </g>
        </g>
      </svg>
    </g>
  </g>
  <g id="pf-jpeg-fourier-basis-a-__label-5" transform="translate(208.6,116.0) translate(-4.5,-0.0)">
    <g id="pf-jpeg-fourier-basis-a-__g-5">
      <svg xmlns:xlink="http://www.w3.org/1999/xlink" style="vertical-align: -0.400px" width="9.048px" height="12.456px" role="img" focusable="false" viewBox="0 -666 500 688" x="0.0" y="0.0">
        <defs>
          <path id="pf-jpeg-fourier-basis-a-MJX-7-TEX-N-35" d="M164 157Q164 133 148 117T109 101H102Q148 22 224 22Q294 22 326 82Q345 115 345 210Q345 313 318 349Q292 382 260 382H254Q176 382 136 314Q132 307 129 306T114 304Q97 304 95 310Q93 314 93 485V614Q93 664 98 664Q100 666 102 666Q103 666 123 658T178 642T253 634Q324 634 389 662Q397 666 402 666Q410 666 410 648V635Q328 538 205 538Q174 538 149 544L139 546V374Q158 388 169 396T205 412T256 420Q337 420 393 355T449 201Q449 109 385 44T229 -22Q148 -22 99 32T50 154Q50 178 61 192T84 210T107 214Q132 214 148 197T164 157Z"/>
        </defs>
        <g stroke="currentColor" fill="currentColor" stroke-width="0" transform="scale(1,-1)">
          <g data-mml-node="math">
            <g data-mml-node="mtext" data-semantic-type="text" data-semantic-role="integer" data-semantic-font="normal" data-semantic-annotation="clearspeak:unit" data-semantic-id="0" data-semantic-speech="5">
              <use data-c="35" xlink:href="#pf-jpeg-fourier-basis-a-MJX-7-TEX-N-35"/>
            </g>
          </g>
        </g>
      </svg>
    </g>
  </g>
  <g id="pf-jpeg-fourier-basis-a-__label-6" transform="translate(244.3,116.0) translate(-4.5,-0.0)">
    <g id="pf-jpeg-fourier-basis-a-__g-6">
      <svg xmlns:xlink="http://www.w3.org/1999/xlink" style="vertical-align: -0.400px" width="9.048px" height="12.456px" role="img" focusable="false" viewBox="0 -666 500 688" x="0.0" y="0.0">
        <defs>
          <path id="pf-jpeg-fourier-basis-a-MJX-8-TEX-N-36" d="M42 313Q42 476 123 571T303 666Q372 666 402 630T432 550Q432 525 418 510T379 495Q356 495 341 509T326 548Q326 592 373 601Q351 623 311 626Q240 626 194 566Q147 500 147 364L148 360Q153 366 156 373Q197 433 263 433H267Q313 433 348 414Q372 400 396 374T435 317Q456 268 456 210V192Q456 169 451 149Q440 90 387 34T253 -22Q225 -22 199 -14T143 16T92 75T56 172T42 313ZM257 397Q227 397 205 380T171 335T154 278T148 216Q148 133 160 97T198 39Q222 21 251 21Q302 21 329 59Q342 77 347 104T352 209Q352 289 347 316T329 361Q302 397 257 397Z"/>
        </defs>
        <g stroke="currentColor" fill="currentColor" stroke-width="0" transform="scale(1,-1)">
          <g data-mml-node="math">
            <g data-mml-node="mtext" data-semantic-type="text" data-semantic-role="integer" data-semantic-font="normal" data-semantic-annotation="clearspeak:unit" data-semantic-id="0" data-semantic-speech="6">
              <use data-c="36" xlink:href="#pf-jpeg-fourier-basis-a-MJX-8-TEX-N-36"/>
            </g>
          </g>
        </g>
      </svg>
    </g>
  </g>
  <g id="pf-jpeg-fourier-basis-a-__label-7" transform="translate(280.0,116.0) translate(-4.5,-0.0)">
    <g id="pf-jpeg-fourier-basis-a-__g-7">
      <svg xmlns:xlink="http://www.w3.org/1999/xlink" style="vertical-align: -0.400px" width="9.048px" height="12.632px" role="img" focusable="false" viewBox="0 -676 500 698" x="0.0" y="0.0">
        <defs>
          <path id="pf-jpeg-fourier-basis-a-MJX-9-TEX-N-37" d="M55 458Q56 460 72 567L88 674Q88 676 108 676H128V672Q128 662 143 655T195 646T364 644H485V605L417 512Q408 500 387 472T360 435T339 403T319 367T305 330T292 284T284 230T278 162T275 80Q275 66 275 52T274 28V19Q270 2 255 -10T221 -22Q210 -22 200 -19T179 0T168 40Q168 198 265 368Q285 400 349 489L395 552H302Q128 552 119 546Q113 543 108 522T98 479L95 458V455H55V458Z"/>
        </defs>
        <g stroke="currentColor" fill="currentColor" stroke-width="0" transform="scale(1,-1)">
          <g data-mml-node="math">
            <g data-mml-node="mtext" data-semantic-type="text" data-semantic-role="integer" data-semantic-font="normal" data-semantic-annotation="clearspeak:unit" data-semantic-id="0" data-semantic-speech="7">
              <use data-c="37" xlink:href="#pf-jpeg-fourier-basis-a-MJX-9-TEX-N-37"/>
            </g>
          </g>
        </g>
      </svg>
    </g>
  </g>
  <g id="pf-jpeg-fourier-basis-a-__label-8" transform="translate(19.0,185.0) translate(-15.1,-6.0)">
    <g id="pf-jpeg-fourier-basis-a-__g-8">
      <svg xmlns:xlink="http://www.w3.org/1999/xlink" style="vertical-align: 0.000px" width="15.080px" height="12.056px" role="img" focusable="false" viewBox="0 -666 833 666" x="0.0" y="0.0">
        <defs>
          <path id="pf-jpeg-fourier-basis-a-MJX-10-TEX-N-2D" d="M11 179V252H277V179H11Z"/>
          <path id="pf-jpeg-fourier-basis-a-MJX-10-TEX-N-31" d="M213 578L200 573Q186 568 160 563T102 556H83V602H102Q149 604 189 617T245 641T273 663Q275 666 285 666Q294 666 302 660V361L303 61Q310 54 315 52T339 48T401 46H427V0H416Q395 3 257 3Q121 3 100 0H88V46H114Q136 46 152 46T177 47T193 50T201 52T207 57T213 61V578Z"/>
        </defs>
        <g stroke="currentColor" fill="currentColor" stroke-width="0" transform="scale(1,-1)">
          <g data-mml-node="math">
            <g data-mml-node="mtext" data-semantic-type="text" data-semantic-role="unknown" data-semantic-font="normal" data-semantic-annotation="clearspeak:unit" data-semantic-id="0" data-semantic-speech="hyphen 1">
              <use data-c="2D" xlink:href="#pf-jpeg-fourier-basis-a-MJX-10-TEX-N-2D"/>
              <use data-c="31" xlink:href="#pf-jpeg-fourier-basis-a-MJX-10-TEX-N-31" transform="translate(333,0)"/>
            </g>
          </g>
        </g>
      </svg>
    </g>
  </g>
  <g id="pf-jpeg-fourier-basis-a-__label-9" transform="translate(19.0,25.0) translate(-9.0,-6.0)">
    <g id="pf-jpeg-fourier-basis-a-__g-9">
      <svg xmlns:xlink="http://www.w3.org/1999/xlink" style="vertical-align: 0.000px" width="9.048px" height="12.056px" role="img" focusable="false" viewBox="0 -666 500 666" x="0.0" y="0.0">
        <defs>
          <path id="pf-jpeg-fourier-basis-a-MJX-11-TEX-N-31" d="M213 578L200 573Q186 568 160 563T102 556H83V602H102Q149 604 189 617T245 641T273 663Q275 666 285 666Q294 666 302 660V361L303 61Q310 54 315 52T339 48T401 46H427V0H416Q395 3 257 3Q121 3 100 0H88V46H114Q136 46 152 46T177 47T193 50T201 52T207 57T213 61V578Z"/>
        </defs>
        <g stroke="currentColor" fill="currentColor" stroke-width="0" transform="scale(1,-1)">
          <g data-mml-node="math">
            <g data-mml-node="mtext" data-semantic-type="text" data-semantic-role="integer" data-semantic-font="normal" data-semantic-annotation="clearspeak:unit" data-semantic-id="0" data-semantic-speech="1">
              <use data-c="31" xlink:href="#pf-jpeg-fourier-basis-a-MJX-11-TEX-N-31"/>
            </g>
          </g>
        </g>
      </svg>
    </g>
  </g>
  <path id="pf-jpeg-fourier-basis-a-graph" stroke="#777" stroke-width="2" fill="none" d="M 30.0 25.0 L 32.5 25.0 L 35.0 25.0 L 37.5 25.0 L 40.0 25.0 L 42.5 25.0 L 45.0 25.0 L 47.5 25.0 L 50.0 25.0 L 52.5 25.0 L 55.0 25.0 L 57.5 25.0 L 60.0 25.0 L 62.5 25.0 L 65.0 25.0 L 67.5 25.0 L 70.0 25.0 L 72.5 25.0 L 75.0 25.0 L 77.5 25.0 L 80.0 25.0 L 82.5 25.0 L 85.0 25.0 L 87.5 25.0 L 90.0 25.0 L 92.5 25.0 L 95.0 25.0 L 97.5 25.0 L 100.0 25.0 L 102.5 25.0 L 105.0 25.0 L 107.5 25.0 L 110.0 25.0 L 112.5 25.0 L 115.0 25.0 L 117.5 25.0 L 120.0 25.0 L 122.5 25.0 L 125.0 25.0 L 127.5 25.0 L 130.0 25.0 L 132.5 25.0 L 135.0 25.0 L 137.5 25.0 L 140.0 25.0 L 142.5 25.0 L 145.0 25.0 L 147.5 25.0 L 150.0 25.0 L 152.5 25.0 L 155.0 25.0 L 157.5 25.0 L 160.0 25.0 L 162.5 25.0 L 165.0 25.0 L 167.5 25.0 L 170.0 25.0 L 172.5 25.0 L 175.0 25.0 L 177.5 25.0 L 180.0 25.0 L 182.5 25.0 L 185.0 25.0 L 187.5 25.0 L 190.0 25.0 L 192.5 25.0 L 195.0 25.0 L 197.5 25.0 L 200.0 25.0 L 202.5 25.0 L 205.0 25.0 L 207.5 25.0 L 210.0 25.0 L 212.5 25.0 L 215.0 25.0 L 217.5 25.0 L 220.0 25.0 L 222.5 25.0 L 225.0 25.0 L 227.5 25.0 L 230.0 25.0 L 232.5 25.0 L 235.0 25.0 L 237.5 25.0 L 240.0 25.0 L 242.5 25.0 L 245.0 25.0 L 247.5 25.0 L 250.0 25.0 L 252.5 25.0 L 255.0 25.0 L 257.5 25.0 L 260.0 25.0 L 262.5 25.0 L 265.0 25.0 L 267.5 25.0 L 270.0 25.0 L 272.5 25.0 L 275.0 25.0 L 277.5 25.0 L 280.0 25.0" clip-path="url(#pf-jpeg-fourier-basis-a-__clipPath-1)"/>
  <g id="pf-jpeg-fourier-basis-a-components">
    <circle id="pf-jpeg-fourier-basis-a-point-k_0" cx="30.0" cy="25.0" r="4" stroke="black" stroke-width="2" fill="blue"/>
    <circle id="pf-jpeg-fourier-basis-a-point-k_1" cx="65.7" cy="25.0" r="4" stroke="black" stroke-width="2" fill="blue"/>
    <circle id="pf-jpeg-fourier-basis-a-point-k_2" cx="101.4" cy="25.0" r="4" stroke="black" stroke-width="2" fill="blue"/>
    <circle id="pf-jpeg-fourier-basis-a-point-k_3" cx="137.1" cy="25.0" r="4" stroke="black" stroke-width="2" fill="blue"/>
    <circle id="pf-jpeg-fourier-basis-a-point-k_4" cx="172.9" cy="25.0" r="4" stroke="black" stroke-width="2" fill="blue"/>
    <circle id="pf-jpeg-fourier-basis-a-point-k_5" cx="208.6" cy="25.0" r="4" stroke="black" stroke-width="2" fill="blue"/>
    <circle id="pf-jpeg-fourier-basis-a-point-k_6" cx="244.3" cy="25.0" r="4" stroke="black" stroke-width="2" fill="blue"/>
    <circle id="pf-jpeg-fourier-basis-a-point-k_7" cx="280.0" cy="25.0" r="4" stroke="black" stroke-width="2" fill="blue"/>
  </g>
</svg>
