<svg xmlns="http://www.w3.org/2000/svg" id="pf-subspace-line-skew-figure" width="210" height="210" viewBox="0 0 210 210">
  <defs>
    <clipPath id="pf-subspace-line-skew-__clipPath-0">
      <rect x="5.0" y="5.0" width="200.0" height="200.0"/>
    </clipPath>
    <clipPath id="pf-subspace-line-skew-__clipPath-1">
      <rect x="5.0" y="5.0" width="200.0" height="200.0"/>
    </clipPath>
  </defs>
  <g id="pf-subspace-line-skew-grid-axes">
    <g id="pf-subspace-line-skew-grid" stroke="#ccc" stroke-width="1">
      <line x1="5.0" y1="205.0" x2="5.0" y2="5.0"/>
      <line x1="30.0" y1="205.0" x2="30.0" y2="5.0"/>
      <line x1="55.0" y1="205.0" x2="55.0" y2="5.0"/>
      <line x1="80.0" y1="205.0" x2="80.0" y2="5.0"/>
      <line x1="105.0" y1="205.0" x2="105.0" y2="5.0"/>
      <line x1="130.0" y1="205.0" x2="130.0" y2="5.0"/>
      <line x1="155.0" y1="205.0" x2="155.0" y2="5.0"/>
      <line x1="180.0" y1="205.0" x2="180.0" y2="5.0"/>
      <line x1="205.0" y1="205.0" x2="205.0" y2="5.0"/>
      <line x1="5.0" y1="205.0" x2="205.0" y2="205.0"/>
      <line x1="5.0" y1="180.0" x2="205.0" y2="180.0"/>
      <line x1="5.0" y1="155.0" x2="205.0" y2="155.0"/>
      <line x1="5.0" y1="130.0" x2="205.0" y2="130.0"/>
      <line x1="5.0" y1="105.0" x2="205.0" y2="105.0"/>
      <line x1="5.0" y1="80.0" x2="205.0" y2="80.0"/>
      <line x1="5.0" y1="55.0" x2="205.0" y2="55.0"/>
      <line x1="5.0" y1="30.0" x2="205.0" y2="30.0"/>
      <line x1="5.0" y1="5.0" x2="205.0" y2="5.0"/>
    </g>
    <g id="pf-subspace-line-skew-axes" stroke="black" stroke-width="2">
      <line id="pf-subspace-line-skew-__line-18" x1="5.0" y1="105.0" x2="205.0" y2="105.0" stroke="black" stroke-width="2"/>
      <line id="pf-subspace-line-skew-__line-19" x1="105.0" y1="205.0" x2="105.0" y2="5.0" stroke="black" stroke-width="2"/>
    </g>
  </g>
  <line id="pf-subspace-line-skew-line" x1="5.0" y1="130.0" x2="205.0" y2="30.0" stroke="blue" stroke-width="2" fill="none"/>
</svg>
