<svg xmlns="http://www.w3.org/2000/svg" id="pf-stoch-parties-figure" width="260" height="260" viewBox="0 0 260 260">
  <defs>
    <clipPath id="pf-stoch-parties-__clipPath-0">
      <rect x="5.0" y="5.0" width="250.0" height="250.0"/>
    </clipPath>
    <clipPath id="pf-stoch-parties-__clipPath-1">
      <rect x="5.0" y="5.0" width="250.0" height="250.0"/>
    </clipPath>
    <marker id="pf-stoch-parties-arrow-head-end-2_None_24_60-black" markerWidth="9.0" markerHeight="8.0" markerUnits="userSpaceOnUse" orient="auto" refX="6.5" refY="4.0">
      <path d="M 9.0 4.0L 0.0 8.0L 1.7 5.0L 1.7 3.0L 0.0 0.0Z" fill="black" stroke="none"/>
    </marker>
    <marker id="pf-stoch-parties-arrow-head-end-2_None_24_60-black-outline" markerWidth="13.0" markerHeight="12.0" markerUnits="userSpaceOnUse" orient="auto" refX="8.5" refY="6.0">
      <path d="M 11.8 7.8 L 2.8 11.8 A 2 2 0 0 1 0.0 10.0 L 0.0 2.0 A 2 2 0 0 1 2.8 0.2 L 11.8 4.2 A 2 2 0 0 1 11.8 7.8 Z" fill="white" stroke="none"/>
    </marker>
    <marker id="pf-stoch-parties-arrow-head-start-2_None_24_60-black" markerWidth="9.0" markerHeight="8.0" markerUnits="userSpaceOnUse" orient="auto" refX="2.5" refY="4.0">
      <g transform="rotate(180, 4.5, 4.0)">
        <path d="M 9.0 4.0L 0.0 8.0L 1.7 5.0L 1.7 3.0L 0.0 0.0Z" fill="black" stroke="none"/>
      </g>
    </marker>
    <marker id="pf-stoch-parties-arrow-head-start-2_None_24_60-black-outline" markerWidth="13.0" markerHeight="12.0" markerUnits="userSpaceOnUse" orient="auto" refX="4.5" refY="6.0">
      <g transform="rotate(180, 6.5, 6.0)">
        <path d="M 11.8 7.8 L 2.8 11.8 A 2 2 0 0 1 0.0 10.0 L 0.0 2.0 A 2 2 0 0 1 2.8 0.2 L 11.8 4.2 A 2 2 0 0 1 11.8 7.8 Z" fill="white" stroke="none"/>
      </g>
    </marker>
  </defs>
  <g id="pf-stoch-parties-__group-0">
    <g id="pf-stoch-parties-__group-1">
      <path id="pf-stoch-parties-edge-1-2" d="M 130.0 76.4 Q 139.1 107.0 154.8 133.8 Q 162.6 147.2 172.0 159.6 Q 172.3 160.0 172.6 160.4" stroke="black" stroke-width="2" stroke-dasharray="none" fill="none" clip-path="url(#pf-stoch-parties-__clipPath-1)" marker-end="url(#pf-stoch-parties-arrow-head-end-2_None_24_60-black)"/>
      <g id="pf-stoch-parties-__label-0" transform="translate(145.8,127.8) translate(-19.8,-0.0)">
        <g id="pf-stoch-parties-__g-0">
          <text font-family="sans-serif" font-size="14" x="0.0" y="10.2">0.4</text>
        </g>
      </g>
      <path id="pf-stoch-parties-edge-2-1" d="M 192.5 183.6 Q 183.4 153.0 167.7 126.2 Q 159.9 112.8 150.5 100.4 Q 150.2 100.0 149.9 99.6" stroke="black" stroke-width="2" stroke-dasharray="none" fill="none" clip-path="url(#pf-stoch-parties-__clipPath-1)" marker-end="url(#pf-stoch-parties-arrow-head-end-2_None_24_60-black)"/>
      <g id="pf-stoch-parties-__label-1" transform="translate(171.7,122.2) translate(0.0,-10.3)">
        <g id="pf-stoch-parties-__g-1">
          <text font-family="sans-serif" font-size="14" x="0.0" y="10.2">0</text>
        </g>
      </g>
      <path id="pf-stoch-parties-edge-3-1" d="M 67.5 183.6 Q 89.6 160.6 105.2 133.8 Q 113.0 120.4 119.2 106.0 Q 120.0 104.3 120.8 102.4 Q 121.1 101.5 121.5 100.6 Q 121.7 100.2 121.9 99.7" stroke="black" stroke-width="2" stroke-dasharray="none" fill="none" clip-path="url(#pf-stoch-parties-__clipPath-1)" marker-end="url(#pf-stoch-parties-arrow-head-end-2_None_24_60-black)"/>
      <g id="pf-stoch-parties-__label-2" transform="translate(102.2,144.8) translate(0.0,-0.0)">
        <g id="pf-stoch-parties-__g-2">
          <text font-family="sans-serif" font-size="14" x="0.0" y="10.2">0.2</text>
        </g>
      </g>
      <path id="pf-stoch-parties-edge-1-3" d="M 130.0 76.4 Q 107.9 99.4 92.3 126.2 Q 84.5 139.6 78.3 153.9 Q 77.5 155.7 76.7 157.5 Q 76.4 158.5 76.0 159.4 Q 75.8 159.8 75.6 160.3" stroke="black" stroke-width="2" stroke-dasharray="none" fill="none" clip-path="url(#pf-stoch-parties-__clipPath-1)" marker-end="url(#pf-stoch-parties-arrow-head-end-2_None_24_60-black)"/>
      <g id="pf-stoch-parties-__label-3" transform="translate(88.3,122.2) translate(-8.0,-10.3)">
        <g id="pf-stoch-parties-__g-3">
          <text font-family="sans-serif" font-size="14" x="0.0" y="10.2">0</text>
        </g>
      </g>
      <path id="pf-stoch-parties-edge-2-3" d="M 192.5 183.6 Q 161.2 176.1 130.0 176.1 Q 114.4 176.1 98.8 177.9 Q 94.8 178.4 90.9 179.0" stroke="black" stroke-width="2" stroke-dasharray="none" fill="none" clip-path="url(#pf-stoch-parties-__clipPath-1)" marker-end="url(#pf-stoch-parties-arrow-head-end-2_None_24_60-black)"/>
      <g id="pf-stoch-parties-__label-4" transform="translate(140.0,172.1) translate(-9.9,-10.3)">
        <g id="pf-stoch-parties-__g-4">
          <text font-family="sans-serif" font-size="14" x="0.0" y="10.2">0.4</text>
        </g>
      </g>
      <path id="pf-stoch-parties-edge-3-2" d="M 67.5 183.6 Q 98.8 191.1 130.0 191.1 Q 145.6 191.1 161.2 189.2 Q 165.2 188.7 169.1 188.1" stroke="black" stroke-width="2" stroke-dasharray="none" fill="none" clip-path="url(#pf-stoch-parties-__clipPath-1)" marker-end="url(#pf-stoch-parties-arrow-head-end-2_None_24_60-black)"/>
      <g id="pf-stoch-parties-__label-5" transform="translate(130.0,195.1) translate(-9.9,-0.0)">
        <g id="pf-stoch-parties-__g-5">
          <text font-family="sans-serif" font-size="14" x="0.0" y="10.2">0.2</text>
        </g>
      </g>
      <path id="pf-stoch-parties-loop-1" d="M 130.0 76.4 C 107.4 99.1 73.4 65.1 96.1 42.5 C 107.4 31.2 121.5 34.0 130.0 42.5 C 132.1 44.6 133.9 47.1 135.2 49.8 C 135.5 50.5 135.8 51.1 136.0 51.8 C 136.2 52.2 136.3 52.5 136.4 52.9" stroke="black" stroke-width="2" stroke-dasharray="none" fill="none" clip-path="url(#pf-stoch-parties-__clipPath-1)" marker-end="url(#pf-stoch-parties-arrow-head-end-2_None_24_60-black)"/>
      <g id="pf-stoch-parties-__label-6" transform="translate(92.1,38.5) translate(-19.8,-10.3)">
        <g id="pf-stoch-parties-__g-6">
          <text font-family="sans-serif" font-size="14" x="0.0" y="10.2">0.6</text>
        </g>
      </g>
      <path id="pf-stoch-parties-loop-2" d="M 192.5 183.6 C 215.1 160.9 249.1 194.9 226.4 217.5 C 215.1 228.8 201.0 226.0 192.5 217.5 C 190.4 215.4 188.6 212.9 187.3 210.2 C 187.0 209.5 186.7 208.9 186.5 208.2 C 186.3 207.8 186.2 207.5 186.1 207.1" stroke="black" stroke-width="2" stroke-dasharray="none" fill="none" clip-path="url(#pf-stoch-parties-__clipPath-1)" marker-end="url(#pf-stoch-parties-arrow-head-end-2_None_24_60-black)"/>
      <g id="pf-stoch-parties-__label-7" transform="translate(230.4,221.5) translate(0.0,-0.0)">
        <g id="pf-stoch-parties-__g-7">
          <text font-family="sans-serif" font-size="14" x="0.0" y="10.2">0.6</text>
        </g>
      </g>
      <path id="pf-stoch-parties-loop-3" d="M 67.5 183.6 C 90.1 206.2 56.2 240.1 33.6 217.5 C 22.2 206.2 25.1 192.1 33.6 183.6 C 35.7 181.4 38.2 179.7 40.9 178.4 C 41.5 178.1 42.2 177.8 42.9 177.5 C 43.3 177.4 43.6 177.3 44.0 177.2" stroke="black" stroke-width="2" stroke-dasharray="none" fill="none" clip-path="url(#pf-stoch-parties-__clipPath-1)" marker-end="url(#pf-stoch-parties-arrow-head-end-2_None_24_60-black)"/>
      <g id="pf-stoch-parties-__label-8" transform="translate(29.6,221.5) translate(-19.8,-0.0)">
        <g id="pf-stoch-parties-__g-8">
          <text font-family="sans-serif" font-size="14" x="0.0" y="10.2">0.6</text>
        </g>
      </g>
    </g>
    <g id="pf-stoch-parties-__group-2">
      <rect id="pf-stoch-parties-node-1" x="110.0" y="56.4" width="40.0" height="40.0" stroke="black" stroke-width="2" fill="white"/>
      <g id="pf-stoch-parties-1" transform="translate(130.0,76.4) translate(-4.2,-5.0)">
        <g id="pf-stoch-parties-__g-9">
          <text font-family="sans-serif" font-size="14" x="0.0" y="10.0">P</text>
        </g>
      </g>
      <rect id="pf-stoch-parties-node-2" x="172.5" y="163.6" width="40.0" height="40.0" stroke="black" stroke-width="2" fill="white"/>
      <g id="pf-stoch-parties-2" transform="translate(192.5,183.6) translate(-5.5,-6.3)">
        <g id="pf-stoch-parties-__g-10">
          <text font-family="sans-serif" font-size="14" x="0.0" y="10.2">Q</text>
        </g>
      </g>
      <rect id="pf-stoch-parties-node-3" x="47.5" y="163.6" width="40.0" height="40.0" stroke="black" stroke-width="2" fill="white"/>
      <g id="pf-stoch-parties-3" transform="translate(67.5,183.6) translate(-4.4,-5.0)">
        <g id="pf-stoch-parties-__g-11">
          <text font-family="sans-serif" font-size="14" x="0.0" y="10.0">R</text>
        </g>
      </g>
    </g>
  </g>
</svg>
