<svg xmlns="http://www.w3.org/2000/svg" id="pf-vector-addition-a-figure" viewBox="0 0 260 260">
  <defs>
    <clipPath id="pf-vector-addition-a-__clipPath-0">
      <rect x="5.0" y="5.0" width="250.0" height="250.0"/>
    </clipPath>
    <clipPath id="pf-vector-addition-a-__clipPath-1">
      <rect x="5.0" y="5.0" width="250.0" height="250.0"/>
    </clipPath>
    <marker id="pf-vector-addition-a-arrow-head-end-3_None_24_60-h777" markerWidth="13.5" markerHeight="12.0" markerUnits="userSpaceOnUse" orient="auto" refX="9.8" refY="6.0">
      <path d="M 13.5 6.0L 0.0 12.0L 2.6 7.5L 2.6 4.5L 0.0 0.0Z" fill="#777" stroke="none"/>
    </marker>
    <marker id="pf-vector-addition-a-arrow-head-end-3_None_24_60-h777-outline" markerWidth="17.5" markerHeight="16.0" markerUnits="userSpaceOnUse" orient="auto" refX="11.8" refY="8.0">
      <path d="M 16.3 9.8 L 2.8 15.8 A 2 2 0 0 1 0.0 14.0 L 0.0 2.0 A 2 2 0 0 1 2.8 0.2 L 16.3 6.2 A 2 2 0 0 1 16.3 9.8 Z" fill="white" stroke="none"/>
    </marker>
    <marker id="pf-vector-addition-a-arrow-head-end-3_None_24_60-blue" markerWidth="13.5" markerHeight="12.0" markerUnits="userSpaceOnUse" orient="auto" refX="9.8" refY="6.0">
      <path d="M 13.5 6.0L 0.0 12.0L 2.6 7.5L 2.6 4.5L 0.0 0.0Z" fill="blue" stroke="none"/>
    </marker>
    <marker id="pf-vector-addition-a-arrow-head-end-3_None_24_60-blue-outline" markerWidth="17.5" markerHeight="16.0" markerUnits="userSpaceOnUse" orient="auto" refX="11.8" refY="8.0">
      <path d="M 16.3 9.8 L 2.8 15.8 A 2 2 0 0 1 0.0 14.0 L 0.0 2.0 A 2 2 0 0 1 2.8 0.2 L 16.3 6.2 A 2 2 0 0 1 16.3 9.8 Z" fill="white" stroke="none"/>
    </marker>
    <marker id="pf-vector-addition-a-arrow-head-start-3_None_24_60-h777" markerWidth="13.5" markerHeight="12.0" markerUnits="userSpaceOnUse" orient="auto" refX="3.6999999999999993" refY="6.0">
      <g transform="rotate(180, 6.75, 6.0)">
        <path d="M 13.5 6.0L 0.0 12.0L 2.6 7.5L 2.6 4.5L 0.0 0.0Z" fill="#777" stroke="none"/>
      </g>
    </marker>
    <marker id="pf-vector-addition-a-arrow-head-start-3_None_24_60-h777-outline" markerWidth="17.5" markerHeight="16.0" markerUnits="userSpaceOnUse" orient="auto" refX="5.699999999999999" refY="8.0">
      <g transform="rotate(180, 8.75, 8.0)">
        <path d="M 16.3 9.8 L 2.8 15.8 A 2 2 0 0 1 0.0 14.0 L 0.0 2.0 A 2 2 0 0 1 2.8 0.2 L 16.3 6.2 A 2 2 0 0 1 16.3 9.8 Z" fill="white" stroke="none"/>
      </g>
    </marker>
    <marker id="pf-vector-addition-a-arrow-head-start-3_None_24_60-blue" markerWidth="13.5" markerHeight="12.0" markerUnits="userSpaceOnUse" orient="auto" refX="3.6999999999999993" refY="6.0">
      <g transform="rotate(180, 6.75, 6.0)">
        <path d="M 13.5 6.0L 0.0 12.0L 2.6 7.5L 2.6 4.5L 0.0 0.0Z" fill="blue" stroke="none"/>
      </g>
    </marker>
    <marker id="pf-vector-addition-a-arrow-head-start-3_None_24_60-blue-outline" markerWidth="17.5" markerHeight="16.0" markerUnits="userSpaceOnUse" orient="auto" refX="5.699999999999999" refY="8.0">
      <g transform="rotate(180, 8.75, 8.0)">
        <path d="M 16.3 9.8 L 2.8 15.8 A 2 2 0 0 1 0.0 14.0 L 0.0 2.0 A 2 2 0 0 1 2.8 0.2 L 16.3 6.2 A 2 2 0 0 1 16.3 9.8 Z" fill="white" stroke="none"/>
      </g>
    </marker>
  </defs>
  <g id="pf-vector-addition-a-grid-axes">
    <g id="pf-vector-addition-a-grid" stroke="#ccc" stroke-width="1">
      <line x1="5.0" y1="255.0" x2="5.0" y2="5.0"/>
      <line x1="40.7" y1="255.0" x2="40.7" y2="5.0"/>
      <line x1="76.4" y1="255.0" x2="76.4" y2="5.0"/>
      <line x1="112.1" y1="255.0" x2="112.1" y2="5.0"/>
      <line x1="147.9" y1="255.0" x2="147.9" y2="5.0"/>
      <line x1="183.6" y1="255.0" x2="183.6" y2="5.0"/>
      <line x1="219.3" y1="255.0" x2="219.3" y2="5.0"/>
      <line x1="255.0" y1="255.0" x2="255.0" y2="5.0"/>
      <line x1="5.0" y1="255.0" x2="255.0" y2="255.0"/>
      <line x1="5.0" y1="219.3" x2="255.0" y2="219.3"/>
      <line x1="5.0" y1="183.6" x2="255.0" y2="183.6"/>
      <line x1="5.0" y1="147.9" x2="255.0" y2="147.9"/>
      <line x1="5.0" y1="112.1" x2="255.0" y2="112.1"/>
      <line x1="5.0" y1="76.4" x2="255.0" y2="76.4"/>
      <line x1="5.0" y1="40.7" x2="255.0" y2="40.7"/>
      <line x1="5.0" y1="5.0" x2="255.0" y2="5.0"/>
    </g>
    <g id="pf-vector-addition-a-axes" stroke="black" stroke-width="2">
      <line id="pf-vector-addition-a-__line-16" x1="5.0" y1="219.3" x2="255.0" y2="219.3" stroke="black" stroke-width="2"/>
      <line id="pf-vector-addition-a-__line-17" x1="40.7" y1="255.0" x2="40.7" y2="5.0" stroke="black" stroke-width="2"/>
    </g>
    <g id="pf-vector-addition-a-__label-0" transform="translate(251.0,215.3) translate(-10.4,-8.2)">
      <g id="pf-vector-addition-a-__g-0">
        <svg xmlns:xlink="http://www.w3.org/1999/xlink" style="vertical-align: -0.200px" width="10.352px" height="8.200px" role="img" focusable="false" viewBox="0 -442 572 453" x="0.0" y="0.0">
          <defs>
            <path id="pf-vector-addition-a-MJX-2-TEX-I-1D465" d="M52 289Q59 331 106 386T222 442Q257 442 286 424T329 379Q371 442 430 442Q467 442 494 420T522 361Q522 332 508 314T481 292T458 288Q439 288 427 299T415 328Q415 374 465 391Q454 404 425 404Q412 404 406 402Q368 386 350 336Q290 115 290 78Q290 50 306 38T341 26Q378 26 414 59T463 140Q466 150 469 151T485 153H489Q504 153 504 145Q504 144 502 134Q486 77 440 33T333 -11Q263 -11 227 52Q186 -10 133 -10H127Q78 -10 57 16T35 71Q35 103 54 123T99 143Q142 143 142 101Q142 81 130 66T107 46T94 41L91 40Q91 39 97 36T113 29T132 26Q168 26 194 71Q203 87 217 139T245 247T261 313Q266 340 266 352Q266 380 251 392T217 404Q177 404 142 372T93 290Q91 281 88 280T72 278H58Q52 284 52 289Z"/>
          </defs>
          <g stroke="currentColor" fill="currentColor" stroke-width="0" transform="scale(1,-1)">
            <g data-mml-node="math">
              <g data-mml-node="mi" data-semantic-type="identifier" data-semantic-role="latinletter" data-semantic-font="italic" data-semantic-annotation="clearspeak:simple" data-semantic-id="0" data-semantic-speech="x">
                <use data-c="1D465" xlink:href="#pf-vector-addition-a-MJX-2-TEX-I-1D465"/>
              </g>
            </g>
          </g>
        </svg>
      </g>
    </g>
    <g id="pf-vector-addition-a-__label-1" transform="translate(44.7,9.0) translate(0.0,-0.0)">
      <g id="pf-vector-addition-a-__g-1">
        <svg xmlns:xlink="http://www.w3.org/1999/xlink" style="vertical-align: -3.712px" width="8.872px" height="11.712px" role="img" focusable="false" viewBox="0 -442 490 647" x="0.0" y="0.0">
          <defs>
            <path id="pf-vector-addition-a-MJX-3-TEX-I-1D466" d="M21 287Q21 301 36 335T84 406T158 442Q199 442 224 419T250 355Q248 336 247 334Q247 331 231 288T198 191T182 105Q182 62 196 45T238 27Q261 27 281 38T312 61T339 94Q339 95 344 114T358 173T377 247Q415 397 419 404Q432 431 462 431Q475 431 483 424T494 412T496 403Q496 390 447 193T391 -23Q363 -106 294 -155T156 -205Q111 -205 77 -183T43 -117Q43 -95 50 -80T69 -58T89 -48T106 -45Q150 -45 150 -87Q150 -107 138 -122T115 -142T102 -147L99 -148Q101 -153 118 -160T152 -167H160Q177 -167 186 -165Q219 -156 247 -127T290 -65T313 -9T321 21L315 17Q309 13 296 6T270 -6Q250 -11 231 -11Q185 -11 150 11T104 82Q103 89 103 113Q103 170 138 262T173 379Q173 380 173 381Q173 390 173 393T169 400T158 404H154Q131 404 112 385T82 344T65 302T57 280Q55 278 41 278H27Q21 284 21 287Z"/>
          </defs>
          <g stroke="currentColor" fill="currentColor" stroke-width="0" transform="scale(1,-1)">
            <g data-mml-node="math">
              <g data-mml-node="mi" data-semantic-type="identifier" data-semantic-role="latinletter" data-semantic-font="italic" data-semantic-annotation="clearspeak:simple" data-semantic-id="0" data-semantic-speech="y">
                <use data-c="1D466" xlink:href="#pf-vector-addition-a-MJX-3-TEX-I-1D466"/>
              </g>
            </g>
          </g>
        </svg>
      </g>
    </g>
  </g>
  <g id="pf-vector-addition-a-v">
    <g id="pf-vector-addition-a-v" transform="translate(100.3,207.4) translate(0.0,-0.0)">
      <g id="pf-vector-addition-a-__g-2">
        <svg xmlns:xlink="http://www.w3.org/1999/xlink" style="vertical-align: 0.000px" width="10.984px" height="8.040px" role="img" focusable="false" viewBox="0 -444 607 444" x="0.0" y="0.0">
          <defs>
            <path id="pf-vector-addition-a-MJX-4-TEX-B-1D42F" d="M401 444Q413 441 495 441Q568 441 574 444H580V382H510L409 156Q348 18 339 6Q331 -4 320 -4Q318 -4 313 -4T303 -3H288Q273 -3 264 12T221 102Q206 135 197 156L96 382H26V444H34Q49 441 145 441Q252 441 270 444H279V382H231L284 264Q335 149 338 149Q338 150 389 264T442 381Q442 382 418 382H394V444H401Z"/>
          </defs>
          <g stroke="currentColor" fill="currentColor" stroke-width="0" transform="scale(1,-1)">
            <g data-mml-node="math">
              <g data-mml-node="TeXAtom" data-mjx-texclass="ORD">
                <g data-mml-node="TeXAtom" data-mjx-texclass="ORD">
                  <g data-mml-node="mi" data-semantic-type="identifier" data-semantic-role="latinletter" data-semantic-font="bold" data-semantic-annotation="clearspeak:simple" data-semantic-id="0" data-semantic-attributes="texclass:ORD" data-semantic-speech="bold v">
                    <use data-c="1D42F" xlink:href="#pf-vector-addition-a-MJX-4-TEX-B-1D42F"/>
                  </g>
                </g>
              </g>
            </g>
          </g>
        </svg>
      </g>
    </g>
    <path stroke="#777" stroke-width="3" fill="none" marker-end="url(#pf-vector-addition-a-arrow-head-end-3_None_24_60-h777)" d="M 40.7 219.3 L 144.4 184.7"/>
  </g>
  <g id="pf-vector-addition-a-w">
    <g id="pf-vector-addition-a-w" transform="translate(189.6,136.0) translate(0.0,-0.0)">
      <g id="pf-vector-addition-a-__g-3">
        <svg xmlns:xlink="http://www.w3.org/1999/xlink" style="vertical-align: 0.000px" width="15.040px" height="8.040px" role="img" focusable="false" viewBox="0 -444 831 444" x="0.0" y="0.0">
          <defs>
            <path id="pf-vector-addition-a-MJX-5-TEX-B-1D430" d="M624 444Q636 441 722 441Q797 441 800 444H805V382H741L593 11Q592 10 590 8T586 4T584 2T581 0T579 -2T575 -3T571 -3T567 -4T561 -4T553 -4H542Q525 -4 518 6T490 70Q474 110 463 137L415 257L367 137Q357 111 341 72Q320 17 313 7T289 -4H277Q259 -4 253 -2T238 11L90 382H25V444H32Q47 441 140 441Q243 441 261 444H270V382H222L310 164L382 342L366 382H303V444H310Q322 441 407 441Q508 441 523 444H531V382H506Q481 382 481 380Q482 376 529 259T577 142L674 382H617V444H624Z"/>
          </defs>
          <g stroke="currentColor" fill="currentColor" stroke-width="0" transform="scale(1,-1)">
            <g data-mml-node="math">
              <g data-mml-node="TeXAtom" data-mjx-texclass="ORD">
                <g data-mml-node="TeXAtom" data-mjx-texclass="ORD">
                  <g data-mml-node="mi" data-semantic-type="identifier" data-semantic-role="latinletter" data-semantic-font="bold" data-semantic-annotation="clearspeak:simple" data-semantic-id="0" data-semantic-attributes="texclass:ORD" data-semantic-speech="bold w">
                    <use data-c="1D430" xlink:href="#pf-vector-addition-a-MJX-5-TEX-B-1D430"/>
                  </g>
                </g>
              </g>
            </g>
          </g>
        </svg>
      </g>
    </g>
    <path stroke="#777" stroke-width="3" fill="none" marker-end="url(#pf-vector-addition-a-arrow-head-end-3_None_24_60-h777)" d="M 147.9 183.6 L 217.3 79.5"/>
  </g>
  <g id="pf-vector-addition-a-sum">
    <g id="pf-vector-addition-a-sum" transform="translate(195.4,84.7) translate(-48.2,-12.0)">
      <g id="pf-vector-addition-a-__g-4">
        <svg xmlns:xlink="http://www.w3.org/1999/xlink" style="vertical-align: -1.488px" width="48.152px" height="12.040px" role="img" focusable="false" viewBox="0 -583 2660.4 665" x="0.0" y="0.0">
          <defs>
            <path id="pf-vector-addition-a-MJX-6-TEX-B-1D42F" d="M401 444Q413 441 495 441Q568 441 574 444H580V382H510L409 156Q348 18 339 6Q331 -4 320 -4Q318 -4 313 -4T303 -3H288Q273 -3 264 12T221 102Q206 135 197 156L96 382H26V444H34Q49 441 145 441Q252 441 270 444H279V382H231L284 264Q335 149 338 149Q338 150 389 264T442 381Q442 382 418 382H394V444H401Z"/>
            <path id="pf-vector-addition-a-MJX-6-TEX-N-2B" d="M56 237T56 250T70 270H369V420L370 570Q380 583 389 583Q402 583 409 568V270H707Q722 262 722 250T707 230H409V-68Q401 -82 391 -82H389H387Q375 -82 369 -68V230H70Q56 237 56 250Z"/>
            <path id="pf-vector-addition-a-MJX-6-TEX-B-1D430" d="M624 444Q636 441 722 441Q797 441 800 444H805V382H741L593 11Q592 10 590 8T586 4T584 2T581 0T579 -2T575 -3T571 -3T567 -4T561 -4T553 -4H542Q525 -4 518 6T490 70Q474 110 463 137L415 257L367 137Q357 111 341 72Q320 17 313 7T289 -4H277Q259 -4 253 -2T238 11L90 382H25V444H32Q47 441 140 441Q243 441 261 444H270V382H222L310 164L382 342L366 382H303V444H310Q322 441 407 441Q508 441 523 444H531V382H506Q481 382 481 380Q482 376 529 259T577 142L674 382H617V444H624Z"/>
          </defs>
          <g stroke="currentColor" fill="currentColor" stroke-width="0" transform="scale(1,-1)">
            <g data-mml-node="math" data-semantic-type="infixop" data-semantic-role="addition" data-semantic-id="3" data-semantic-children="0,2" data-semantic-content="1" data-semantic-speech="bold v plus bold w">
              <g data-mml-node="TeXAtom" data-mjx-texclass="ORD">
                <g data-mml-node="TeXAtom" data-mjx-texclass="ORD">
                  <g data-mml-node="mi" data-semantic-type="identifier" data-semantic-role="latinletter" data-semantic-font="bold" data-semantic-annotation="clearspeak:simple" data-semantic-id="0" data-semantic-parent="3" data-semantic-attributes="texclass:ORD" data-semantic-speech="bold v">
                    <use data-c="1D42F" xlink:href="#pf-vector-addition-a-MJX-6-TEX-B-1D42F"/>
                  </g>
                </g>
              </g>
              <g data-mml-node="mo" data-semantic-type="operator" data-semantic-role="addition" data-semantic-id="1" data-semantic-parent="3" data-semantic-operator="infixop,+" data-semantic-speech="plus" transform="translate(829.2,0)">
                <use data-c="2B" xlink:href="#pf-vector-addition-a-MJX-6-TEX-N-2B"/>
              </g>
              <g data-mml-node="TeXAtom" data-mjx-texclass="ORD" transform="translate(1829.4,0)">
                <g data-mml-node="TeXAtom" data-mjx-texclass="ORD">
                  <g data-mml-node="mi" data-semantic-type="identifier" data-semantic-role="latinletter" data-semantic-font="bold" data-semantic-annotation="clearspeak:simple" data-semantic-id="2" data-semantic-parent="3" data-semantic-attributes="texclass:ORD" data-semantic-speech="bold w">
                    <use data-c="1D430" xlink:href="#pf-vector-addition-a-MJX-6-TEX-B-1D430"/>
                  </g>
                </g>
              </g>
            </g>
          </g>
        </svg>
      </g>
    </g>
    <path stroke="blue" stroke-width="3" fill="none" marker-end="url(#pf-vector-addition-a-arrow-head-end-3_None_24_60-blue)" d="M 40.7 219.3 L 216.4 78.7"/>
  </g>
</svg>
