<svg xmlns="http://www.w3.org/2000/svg" id="diagram" width="160" height="160">
  <defs>
    <clipPath id="clipPath-0">
      <rect x="5.0" y="5.0" width="150.0" height="150.0"/>
    </clipPath>
    <clipPath id="clipPath-1">
      <rect x="5.0" y="5.0" width="150.0" height="150.0"/>
    </clipPath>
  </defs>
  <path id="path-0" d="M -5.0 165.0 L 215.0 165.0 L 215.0 -55.0 L -5.0 -55.0 Z" stroke="none" stroke-width="2" fill="white"/>
  <g id="grid-axes">
    <g id="grid" stroke="#ccc" stroke-width="1">
      <line id="line-0" x1="5.0" y1="155.0" x2="5.0" y2="5.0"/>
      <line id="line-1" x1="30.0" y1="155.0" x2="30.0" y2="5.0"/>
      <line id="line-2" x1="55.0" y1="155.0" x2="55.0" y2="5.0"/>
      <line id="line-3" x1="80.0" y1="155.0" x2="80.0" y2="5.0"/>
      <line id="line-4" x1="105.0" y1="155.0" x2="105.0" y2="5.0"/>
      <line id="line-5" x1="130.0" y1="155.0" x2="130.0" y2="5.0"/>
      <line id="line-6" x1="155.0" y1="155.0" x2="155.0" y2="5.0"/>
      <line id="line-7" x1="5.0" y1="155.0" x2="155.0" y2="155.0"/>
      <line id="line-8" x1="5.0" y1="130.0" x2="155.0" y2="130.0"/>
      <line id="line-9" x1="5.0" y1="105.0" x2="155.0" y2="105.0"/>
      <line id="line-10" x1="5.0" y1="80.0" x2="155.0" y2="80.0"/>
      <line id="line-11" x1="5.0" y1="55.0" x2="155.0" y2="55.0"/>
      <line id="line-12" x1="5.0" y1="30.0" x2="155.0" y2="30.0"/>
      <line id="line-13" x1="5.0" y1="5.0" x2="155.0" y2="5.0"/>
    </g>
    <g id="axes" stroke="black" stroke-width="2">
      <line id="line-14" x1="5.0" y1="80.0" x2="155.0" y2="80.0" stroke="black" stroke-width="2"/>
      <line id="line-15" x1="80.0" y1="155.0" x2="80.0" y2="5.0" stroke="black" stroke-width="2"/>
    </g>
  </g>
  <path id="path-1" d="M 80.0 80.0 L 105.0 80.0 L 105.0 55.0 L 80.0 55.0 Z" stroke="#777" stroke-width="2" fill="cornflowerblue" clip-path="url(#clipPath-1)"/>
</svg>
