<svg xmlns="http://www.w3.org/2000/svg" id="diagram" viewBox="0 0 210 210">
  <defs>
    <clipPath id="clipPath-0">
      <rect x="5.0" y="5.0" width="200.0" height="200.0"/>
    </clipPath>
    <clipPath id="clipPath-1">
      <rect x="5.0" y="5.0" width="200.0" height="200.0"/>
    </clipPath>
  </defs>
  <path id="path-0" d="M -5.0 215.0 L 215.0 215.0 L 215.0 -5.0 L -5.0 -5.0 Z" stroke="none" stroke-width="2" fill="white"/>
  <g id="grid-axes">
    <g id="grid" stroke="#ccc" stroke-width="1">
      <line id="line-0" x1="5.0" y1="205.0" x2="5.0" y2="5.0"/>
      <line id="line-1" x1="38.3" y1="205.0" x2="38.3" y2="5.0"/>
      <line id="line-2" x1="71.7" y1="205.0" x2="71.7" y2="5.0"/>
      <line id="line-3" x1="105.0" y1="205.0" x2="105.0" y2="5.0"/>
      <line id="line-4" x1="138.3" y1="205.0" x2="138.3" y2="5.0"/>
      <line id="line-5" x1="171.7" y1="205.0" x2="171.7" y2="5.0"/>
      <line id="line-6" x1="205.0" y1="205.0" x2="205.0" y2="5.0"/>
      <line id="line-7" x1="5.0" y1="205.0" x2="205.0" y2="205.0"/>
      <line id="line-8" x1="5.0" y1="171.7" x2="205.0" y2="171.7"/>
      <line id="line-9" x1="5.0" y1="138.3" x2="205.0" y2="138.3"/>
      <line id="line-10" x1="5.0" y1="105.0" x2="205.0" y2="105.0"/>
      <line id="line-11" x1="5.0" y1="71.7" x2="205.0" y2="71.7"/>
      <line id="line-12" x1="5.0" y1="38.3" x2="205.0" y2="38.3"/>
      <line id="line-13" x1="5.0" y1="5.0" x2="205.0" y2="5.0"/>
    </g>
    <g id="axes" stroke="black" stroke-width="2">
      <line id="line-14" x1="5.0" y1="105.0" x2="205.0" y2="105.0" stroke="black" stroke-width="2"/>
      <line id="line-15" x1="105.0" y1="205.0" x2="105.0" y2="5.0" stroke="black" stroke-width="2"/>
    </g>
  </g>
  <path id="path-1" d="M 105.0 105.0 L 138.3 105.0 L 138.3 71.7 L 105.0 71.7 Z" stroke="#777" stroke-width="2" fill="cornflowerblue" clip-path="url(#clipPath-1)"/>
</svg>
