<?xml version="1.0" encoding="UTF-8"?>
<svg xmlns="http://www.w3.org/2000/svg" xmlns:xlink="http://www.w3.org/1999/xlink" width="160pt" height="160pt" viewBox="0 0 160 160" version="1.1">
<g id="surface1">
<path style="fill:none;stroke-width:10;stroke-linecap:butt;stroke-linejoin:miter;stroke:rgb(0%,0%,0%);stroke-opacity:1;stroke-miterlimit:10;" d="M 50 800 L 1550 800 M 50 50 L 50 1550 " transform="matrix(0.1,0,0,-0.1,0,160)"/>
<path style="fill:none;stroke-width:10;stroke-linecap:butt;stroke-linejoin:miter;stroke:rgb(0%,0%,0%);stroke-opacity:1;stroke-miterlimit:10;" d="M 50 800 L 1550 800 M 50 50 L 50 1550 M 50 780 L 50 820 " transform="matrix(0.1,0,0,-0.1,0,160)"/>
<path style="fill:none;stroke-width:10;stroke-linecap:butt;stroke-linejoin:miter;stroke:rgb(0%,0%,0%);stroke-opacity:1;stroke-miterlimit:10;" d="M 50 800 L 1550 800 M 50 50 L 50 1550 M 200 780 L 200 820 " transform="matrix(0.1,0,0,-0.1,0,160)"/>
<path style="fill:none;stroke-width:10;stroke-linecap:butt;stroke-linejoin:miter;stroke:rgb(0%,0%,0%);stroke-opacity:1;stroke-miterlimit:10;" d="M 50 800 L 1550 800 M 50 50 L 50 1550 M 350 780 L 350 820 " transform="matrix(0.1,0,0,-0.1,0,160)"/>
<path style="fill:none;stroke-width:10;stroke-linecap:butt;stroke-linejoin:miter;stroke:rgb(0%,0%,0%);stroke-opacity:1;stroke-miterlimit:10;" d="M 50 800 L 1550 800 M 50 50 L 50 1550 M 500 780 L 500 820 " transform="matrix(0.1,0,0,-0.1,0,160)"/>
<path style="fill:none;stroke-width:10;stroke-linecap:butt;stroke-linejoin:miter;stroke:rgb(0%,0%,0%);stroke-opacity:1;stroke-miterlimit:10;" d="M 50 800 L 1550 800 M 50 50 L 50 1550 M 650 780 L 650 820 " transform="matrix(0.1,0,0,-0.1,0,160)"/>
<path style="fill:none;stroke-width:10;stroke-linecap:butt;stroke-linejoin:miter;stroke:rgb(0%,0%,0%);stroke-opacity:1;stroke-miterlimit:10;" d="M 50 800 L 1550 800 M 50 50 L 50 1550 M 800 780 L 800 820 " transform="matrix(0.1,0,0,-0.1,0,160)"/>
<path style="fill:none;stroke-width:10;stroke-linecap:butt;stroke-linejoin:miter;stroke:rgb(0%,0%,0%);stroke-opacity:1;stroke-miterlimit:10;" d="M 50 800 L 1550 800 M 50 50 L 50 1550 M 950 780 L 950 820 " transform="matrix(0.1,0,0,-0.1,0,160)"/>
<path style="fill:none;stroke-width:10;stroke-linecap:butt;stroke-linejoin:miter;stroke:rgb(0%,0%,0%);stroke-opacity:1;stroke-miterlimit:10;" d="M 50 800 L 1550 800 M 50 50 L 50 1550 M 1100 780 L 1100 820 " transform="matrix(0.1,0,0,-0.1,0,160)"/>
<path style="fill:none;stroke-width:10;stroke-linecap:butt;stroke-linejoin:miter;stroke:rgb(0%,0%,0%);stroke-opacity:1;stroke-miterlimit:10;" d="M 50 800 L 1550 800 M 50 50 L 50 1550 M 1250 780 L 1250 820 " transform="matrix(0.1,0,0,-0.1,0,160)"/>
<path style="fill:none;stroke-width:10;stroke-linecap:butt;stroke-linejoin:miter;stroke:rgb(0%,0%,0%);stroke-opacity:1;stroke-miterlimit:10;" d="M 50 800 L 1550 800 M 50 50 L 50 1550 M 1400 780 L 1400 820 " transform="matrix(0.1,0,0,-0.1,0,160)"/>
<path style="fill:none;stroke-width:10;stroke-linecap:butt;stroke-linejoin:miter;stroke:rgb(0%,0%,0%);stroke-opacity:1;stroke-miterlimit:10;" d="M 50 800 L 1550 800 M 50 50 L 50 1550 M 1550 780 L 1550 820 " transform="matrix(0.1,0,0,-0.1,0,160)"/>
<path style="fill:none;stroke-width:10;stroke-linecap:butt;stroke-linejoin:miter;stroke:rgb(0%,0%,100%);stroke-opacity:1;stroke-miterlimit:10;" d="M 50 927.109375 L 200 1154.296875 L 350 1258.984375 L 500 1373.046875 L 650 1322.070312 L 800 1196.992188 L 950 988.867188 L 1100 638.671875 L 1250 425.859375 L 1400 436.601562 L 1550 385.46875 " transform="matrix(0.1,0,0,-0.1,0,160)"/>
<path style=" stroke:none;fill-rule:nonzero;fill:rgb(0%,0%,100%);fill-opacity:1;" d="M 7.5 67.289062 C 7.5 65.90625 6.382812 64.789062 5 64.789062 C 3.617188 64.789062 2.5 65.90625 2.5 67.289062 C 2.5 68.667969 3.617188 69.789062 5 69.789062 C 6.382812 69.789062 7.5 68.667969 7.5 67.289062 "/>
<path style=" stroke:none;fill-rule:nonzero;fill:rgb(0%,0%,100%);fill-opacity:1;" d="M 22.5 44.570312 C 22.5 43.191406 21.382812 42.070312 20 42.070312 C 18.617188 42.070312 17.5 43.191406 17.5 44.570312 C 17.5 45.953125 18.617188 47.070312 20 47.070312 C 21.382812 47.070312 22.5 45.953125 22.5 44.570312 "/>
<path style=" stroke:none;fill-rule:nonzero;fill:rgb(0%,0%,100%);fill-opacity:1;" d="M 37.5 34.101562 C 37.5 32.71875 36.382812 31.601562 35 31.601562 C 33.617188 31.601562 32.5 32.71875 32.5 34.101562 C 32.5 35.480469 33.617188 36.601562 35 36.601562 C 36.382812 36.601562 37.5 35.480469 37.5 34.101562 "/>
<path style=" stroke:none;fill-rule:nonzero;fill:rgb(0%,0%,100%);fill-opacity:1;" d="M 52.5 22.695312 C 52.5 21.3125 51.382812 20.195312 50 20.195312 C 48.617188 20.195312 47.5 21.3125 47.5 22.695312 C 47.5 24.074219 48.617188 25.195312 50 25.195312 C 51.382812 25.195312 52.5 24.074219 52.5 22.695312 "/>
<path style=" stroke:none;fill-rule:nonzero;fill:rgb(0%,0%,100%);fill-opacity:1;" d="M 67.5 27.792969 C 67.5 26.410156 66.382812 25.292969 65 25.292969 C 63.617188 25.292969 62.5 26.410156 62.5 27.792969 C 62.5 29.171875 63.617188 30.292969 65 30.292969 C 66.382812 30.292969 67.5 29.171875 67.5 27.792969 "/>
<path style=" stroke:none;fill-rule:nonzero;fill:rgb(0%,0%,100%);fill-opacity:1;" d="M 82.5 40.300781 C 82.5 38.921875 81.382812 37.800781 80 37.800781 C 78.617188 37.800781 77.5 38.921875 77.5 40.300781 C 77.5 41.683594 78.617188 42.800781 80 42.800781 C 81.382812 42.800781 82.5 41.683594 82.5 40.300781 "/>
<path style=" stroke:none;fill-rule:nonzero;fill:rgb(0%,0%,100%);fill-opacity:1;" d="M 97.5 61.113281 C 97.5 59.730469 96.382812 58.613281 95 58.613281 C 93.617188 58.613281 92.5 59.730469 92.5 61.113281 C 92.5 62.492188 93.617188 63.613281 95 63.613281 C 96.382812 63.613281 97.5 62.492188 97.5 61.113281 "/>
<path style=" stroke:none;fill-rule:nonzero;fill:rgb(0%,0%,100%);fill-opacity:1;" d="M 112.5 96.132812 C 112.5 94.75 111.382812 93.632812 110 93.632812 C 108.617188 93.632812 107.5 94.75 107.5 96.132812 C 107.5 97.511719 108.617188 98.632812 110 98.632812 C 111.382812 98.632812 112.5 97.511719 112.5 96.132812 "/>
<path style=" stroke:none;fill-rule:nonzero;fill:rgb(0%,0%,100%);fill-opacity:1;" d="M 127.5 117.414062 C 127.5 116.035156 126.382812 114.914062 125 114.914062 C 123.617188 114.914062 122.5 116.035156 122.5 117.414062 C 122.5 118.796875 123.617188 119.914062 125 119.914062 C 126.382812 119.914062 127.5 118.796875 127.5 117.414062 "/>
<path style=" stroke:none;fill-rule:nonzero;fill:rgb(0%,0%,100%);fill-opacity:1;" d="M 142.5 116.339844 C 142.5 114.960938 141.382812 113.839844 140 113.839844 C 138.617188 113.839844 137.5 114.960938 137.5 116.339844 C 137.5 117.71875 138.617188 118.839844 140 118.839844 C 141.382812 118.839844 142.5 117.71875 142.5 116.339844 "/>
<path style=" stroke:none;fill-rule:nonzero;fill:rgb(0%,0%,100%);fill-opacity:1;" d="M 157.5 121.453125 C 157.5 120.074219 156.382812 118.953125 155 118.953125 C 153.617188 118.953125 152.5 120.074219 152.5 121.453125 C 152.5 122.835938 153.617188 123.953125 155 123.953125 C 156.382812 123.953125 157.5 122.835938 157.5 121.453125 "/>
<path style="fill:none;stroke-width:10;stroke-linecap:butt;stroke-linejoin:miter;stroke:rgb(100%,50%,0%);stroke-opacity:1;stroke-miterlimit:10;" d="M 50 863.554688 L 200 977.148438 L 350 1029.492188 L 500 1086.523438 L 650 1061.054688 L 800 998.476562 L 950 894.453125 L 1100 719.335938 L 1250 612.929688 L 1400 618.320312 L 1550 592.734375 " transform="matrix(0.1,0,0,-0.1,0,160)"/>
<path style=" stroke:none;fill-rule:nonzero;fill:rgb(100%,50%,0%);fill-opacity:1;" d="M 7.5 73.644531 C 7.5 72.265625 6.382812 71.144531 5 71.144531 C 3.617188 71.144531 2.5 72.265625 2.5 73.644531 C 2.5 75.023438 3.617188 76.144531 5 76.144531 C 6.382812 76.144531 7.5 75.023438 7.5 73.644531 "/>
<path style=" stroke:none;fill-rule:nonzero;fill:rgb(100%,50%,0%);fill-opacity:1;" d="M 22.5 62.285156 C 22.5 60.90625 21.382812 59.785156 20 59.785156 C 18.617188 59.785156 17.5 60.90625 17.5 62.285156 C 17.5 63.667969 18.617188 64.785156 20 64.785156 C 21.382812 64.785156 22.5 63.667969 22.5 62.285156 "/>
<path style=" stroke:none;fill-rule:nonzero;fill:rgb(100%,50%,0%);fill-opacity:1;" d="M 37.5 57.050781 C 37.5 55.671875 36.382812 54.550781 35 54.550781 C 33.617188 54.550781 32.5 55.671875 32.5 57.050781 C 32.5 58.429688 33.617188 59.550781 35 59.550781 C 36.382812 59.550781 37.5 58.429688 37.5 57.050781 "/>
<path style=" stroke:none;fill-rule:nonzero;fill:rgb(100%,50%,0%);fill-opacity:1;" d="M 52.5 51.347656 C 52.5 49.964844 51.382812 48.847656 50 48.847656 C 48.617188 48.847656 47.5 49.964844 47.5 51.347656 C 47.5 52.726562 48.617188 53.847656 50 53.847656 C 51.382812 53.847656 52.5 52.726562 52.5 51.347656 "/>
<path style=" stroke:none;fill-rule:nonzero;fill:rgb(100%,50%,0%);fill-opacity:1;" d="M 67.5 53.894531 C 67.5 52.515625 66.382812 51.394531 65 51.394531 C 63.617188 51.394531 62.5 52.515625 62.5 53.894531 C 62.5 55.277344 63.617188 56.394531 65 56.394531 C 66.382812 56.394531 67.5 55.277344 67.5 53.894531 "/>
<path style=" stroke:none;fill-rule:nonzero;fill:rgb(100%,50%,0%);fill-opacity:1;" d="M 82.5 60.152344 C 82.5 58.769531 81.382812 57.652344 80 57.652344 C 78.617188 57.652344 77.5 58.769531 77.5 60.152344 C 77.5 61.53125 78.617188 62.652344 80 62.652344 C 81.382812 62.652344 82.5 61.53125 82.5 60.152344 "/>
<path style=" stroke:none;fill-rule:nonzero;fill:rgb(100%,50%,0%);fill-opacity:1;" d="M 97.5 70.554688 C 97.5 69.175781 96.382812 68.054688 95 68.054688 C 93.617188 68.054688 92.5 69.175781 92.5 70.554688 C 92.5 71.9375 93.617188 73.054688 95 73.054688 C 96.382812 73.054688 97.5 71.9375 97.5 70.554688 "/>
<path style=" stroke:none;fill-rule:nonzero;fill:rgb(100%,50%,0%);fill-opacity:1;" d="M 112.5 88.066406 C 112.5 86.683594 111.382812 85.566406 110 85.566406 C 108.617188 85.566406 107.5 86.683594 107.5 88.066406 C 107.5 89.445312 108.617188 90.566406 110 90.566406 C 111.382812 90.566406 112.5 89.445312 112.5 88.066406 "/>
<path style=" stroke:none;fill-rule:nonzero;fill:rgb(100%,50%,0%);fill-opacity:1;" d="M 127.5 98.707031 C 127.5 97.328125 126.382812 96.207031 125 96.207031 C 123.617188 96.207031 122.5 97.328125 122.5 98.707031 C 122.5 100.089844 123.617188 101.207031 125 101.207031 C 126.382812 101.207031 127.5 100.089844 127.5 98.707031 "/>
<path style=" stroke:none;fill-rule:nonzero;fill:rgb(100%,50%,0%);fill-opacity:1;" d="M 142.5 98.167969 C 142.5 96.789062 141.382812 95.667969 140 95.667969 C 138.617188 95.667969 137.5 96.789062 137.5 98.167969 C 137.5 99.550781 138.617188 100.667969 140 100.667969 C 141.382812 100.667969 142.5 99.550781 142.5 98.167969 "/>
<path style=" stroke:none;fill-rule:nonzero;fill:rgb(100%,50%,0%);fill-opacity:1;" d="M 157.5 100.726562 C 157.5 99.347656 156.382812 98.226562 155 98.226562 C 153.617188 98.226562 152.5 99.347656 152.5 100.726562 C 152.5 102.109375 153.617188 103.226562 155 103.226562 C 156.382812 103.226562 157.5 102.109375 157.5 100.726562 "/>
</g>
</svg>
