<?xml version="1.0" encoding="UTF-8"?>
<svg xmlns="http://www.w3.org/2000/svg" xmlns:xlink="http://www.w3.org/1999/xlink" width="330pt" height="160pt" viewBox="0 0 330 160" version="1.1">
<defs>
<clipPath id="clip1">
  <path d="M 5 5 L 155 5 L 155 155 L 5 155 Z M 5 5 "/>
</clipPath>
<clipPath id="clip2">
  <path d="M 175 5 L 325 5 L 325 155 L 175 155 Z M 175 5 "/>
</clipPath>
</defs>
<g id="surface1">
<path style="fill:none;stroke-width:10;stroke-linecap:butt;stroke-linejoin:miter;stroke:rgb(50%,50%,50%);stroke-opacity:1;stroke-miterlimit:10;" d="M 50 800 L 1550 800 M 800 50 L 800 1550 " transform="matrix(0.1,0,0,-0.1,0,160)"/>
<g clip-path="url(#clip1)" clip-rule="nonzero">
<path style="fill:none;stroke-width:10;stroke-linecap:butt;stroke-linejoin:miter;stroke:rgb(80.076599%,80.076599%,80.076599%);stroke-opacity:1;stroke-miterlimit:10;" d="M -450 -450 L -450 2050 M -325 -450 L -325 2050 M -200 -450 L -200 2050 M -75 -450 L -75 2050 M 50 -450 L 50 2050 M 175 -450 L 175 2050 M 300 -450 L 300 2050 M 425 -450 L 425 2050 M 550 -450 L 550 2050 M 675 -450 L 675 2050 M 800 -450 L 800 2050 M 925 -450 L 925 2050 M 1050 -450 L 1050 2050 M 1175 -450 L 1175 2050 M 1300 -450 L 1300 2050 M 1425 -450 L 1425 2050 M 1550 -450 L 1550 2050 M 1675 -450 L 1675 2050 M 1800 -450 L 1800 2050 M 1925 -450 L 1925 2050 M 2050 -450 L 2050 2050 M -450 -450 L 2050 -450 M -450 -325 L 2050 -325 M -450 -200 L 2050 -200 M -450 -75 L 2050 -75 M -450 50 L 2050 50 M -450 175 L 2050 175 M -450 300 L 2050 300 M -450 425 L 2050 425 M -450 550 L 2050 550 M -450 675 L 2050 675 M -450 800 L 2050 800 M -450 925 L 2050 925 M -450 1050 L 2050 1050 M -450 1175 L 2050 1175 M -450 1300 L 2050 1300 M -450 1425 L 2050 1425 M -450 1550 L 2050 1550 M -450 1675 L 2050 1675 M -450 1800 L 2050 1800 M -450 1925 L 2050 1925 M -450 2050 L 2050 2050 M -450 -450 L 2050 -450 L 2050 2050 L -450 2050 Z M -450 -450 " transform="matrix(0.1,0,0,-0.1,0,160)"/>
<path style="fill:none;stroke-width:10;stroke-linecap:butt;stroke-linejoin:miter;stroke:rgb(0%,0%,0%);stroke-opacity:1;stroke-miterlimit:10;" d="M 50 800 L 1550 800 M 800 50 L 800 1550 " transform="matrix(0.1,0,0,-0.1,0,160)"/>
</g>
<path style="fill:none;stroke-width:10;stroke-linecap:butt;stroke-linejoin:miter;stroke:rgb(50%,50%,50%);stroke-opacity:1;stroke-miterlimit:10;" d="M 1750 800 L 3250 800 M 2500 50 L 2500 1550 " transform="matrix(0.1,0,0,-0.1,0,160)"/>
<g clip-path="url(#clip2)" clip-rule="nonzero">
<path style="fill:none;stroke-width:10;stroke-linecap:butt;stroke-linejoin:miter;stroke:rgb(80.076599%,80.076599%,80.076599%);stroke-opacity:1;stroke-miterlimit:10;" d="M 2500 -1700 L 0 800 M 2625 -1575 L 125 925 M 2750 -1450 L 250 1050 M 2875 -1325 L 375 1175 M 3000 -1200 L 500 1300 M 3125 -1075 L 625 1425 M 3250 -950 L 750 1550 M 3375 -825 L 875 1675 M 3500 -700 L 1000 1800 M 3625 -575 L 1125 1925 M 3750 -450 L 1250 2050 M 3875 -325 L 1375 2175 M 4000 -200 L 1500 2300 M 4125 -75 L 1625 2425 M 4250 50 L 1750 2550 M 4375 175 L 1875 2675 M 4500 300 L 2000 2800 M 4625 425 L 2125 2925 M 4750 550 L 2250 3050 M 4875 675 L 2375 3175 M 5000 800 L 2500 3300 M 2500 -1700 L 5000 800 M 2375 -1575 L 4875 925 M 2250 -1450 L 4750 1050 M 2125 -1325 L 4625 1175 M 2000 -1200 L 4500 1300 M 1875 -1075 L 4375 1425 M 1750 -950 L 4250 1550 M 1625 -825 L 4125 1675 M 1500 -700 L 4000 1800 M 1375 -575 L 3875 1925 M 1250 -450 L 3750 2050 M 1125 -325 L 3625 2175 M 1000 -200 L 3500 2300 M 875 -75 L 3375 2425 M 750 50 L 3250 2550 M 625 175 L 3125 2675 M 500 300 L 3000 2800 M 375 425 L 2875 2925 M 250 550 L 2750 3050 M 125 675 L 2625 3175 M 0 800 L 2500 3300 M 2500 -1700 L 5000 800 L 2500 3300 L 0 800 Z M 2500 -1700 " transform="matrix(0.1,0,0,-0.1,0,160)"/>
<path style="fill:none;stroke-width:10;stroke-linecap:butt;stroke-linejoin:miter;stroke:rgb(0%,0%,0%);stroke-opacity:1;stroke-miterlimit:10;" d="M 1750 50 L 3250 1550 M 3250 50 L 1750 1550 " transform="matrix(0.1,0,0,-0.1,0,160)"/>
</g>
</g>
</svg>
