<?xml version="1.0" encoding="UTF-8"?>
<svg xmlns="http://www.w3.org/2000/svg" xmlns:xlink="http://www.w3.org/1999/xlink" width="330pt" height="160pt" viewBox="0 0 330 160" version="1.1">
<defs>
<clipPath id="clip1">
  <path d="M 5 5 L 155 5 L 155 155 L 5 155 Z M 5 5 "/>
</clipPath>
<clipPath id="clip2">
  <path d="M 175 5 L 325 5 L 325 155 L 175 155 Z M 175 5 "/>
</clipPath>
</defs>
<g id="surface1">
<g clip-path="url(#clip1)" clip-rule="nonzero">
<path style="fill:none;stroke-width:10;stroke-linecap:butt;stroke-linejoin:miter;stroke:rgb(80.076599%,80.076599%,80.076599%);stroke-opacity:1;stroke-miterlimit:10;" d="M -450 -450 L -450 2050 M -325 -450 L -325 2050 M -200 -450 L -200 2050 M -75 -450 L -75 2050 M 50 -450 L 50 2050 M 175 -450 L 175 2050 M 300 -450 L 300 2050 M 425 -450 L 425 2050 M 550 -450 L 550 2050 M 675 -450 L 675 2050 M 800 -450 L 800 2050 M 925 -450 L 925 2050 M 1050 -450 L 1050 2050 M 1175 -450 L 1175 2050 M 1300 -450 L 1300 2050 M 1425 -450 L 1425 2050 M 1550 -450 L 1550 2050 M 1675 -450 L 1675 2050 M 1800 -450 L 1800 2050 M 1925 -450 L 1925 2050 M 2050 -450 L 2050 2050 M -450 -450 L 2050 -450 M -450 -325 L 2050 -325 M -450 -200 L 2050 -200 M -450 -75 L 2050 -75 M -450 50 L 2050 50 M -450 175 L 2050 175 M -450 300 L 2050 300 M -450 425 L 2050 425 M -450 550 L 2050 550 M -450 675 L 2050 675 M -450 800 L 2050 800 M -450 925 L 2050 925 M -450 1050 L 2050 1050 M -450 1175 L 2050 1175 M -450 1300 L 2050 1300 M -450 1425 L 2050 1425 M -450 1550 L 2050 1550 M -450 1675 L 2050 1675 M -450 1800 L 2050 1800 M -450 1925 L 2050 1925 M -450 2050 L 2050 2050 M -450 -450 L 2050 -450 L 2050 2050 L -450 2050 Z M -450 -450 " transform="matrix(0.1,0,0,-0.1,0,160)"/>
<path style="fill:none;stroke-width:10;stroke-linecap:butt;stroke-linejoin:miter;stroke:rgb(0%,0%,0%);stroke-opacity:1;stroke-miterlimit:10;" d="M 50 800 L 1550 800 M 800 50 L 800 1550 " transform="matrix(0.1,0,0,-0.1,0,160)"/>
</g>
<g clip-path="url(#clip2)" clip-rule="nonzero">
<path style="fill:none;stroke-width:10;stroke-linecap:butt;stroke-linejoin:miter;stroke:rgb(80.076599%,80.076599%,80.076599%);stroke-opacity:1;stroke-miterlimit:10;" d="M 2500 -1700 L -2500 800 M 2750 -1575 L -2250 925 M 3000 -1450 L -2000 1050 M 3250 -1325 L -1750 1175 M 3500 -1200 L -1500 1300 M 3750 -1075 L -1250 1425 M 4000 -950 L -1000 1550 M 4250 -825 L -750 1675 M 4500 -700 L -500 1800 M 4750 -575 L -250 1925 M 5000 -450 L 0 2050 M 5250 -325 L 250 2175 M 5500 -200 L 500 2300 M 5750 -75 L 750 2425 M 6000 50 L 1000 2550 M 6250 175 L 1250 2675 M 6500 300 L 1500 2800 M 6750 425 L 1750 2925 M 7000 550 L 2000 3050 M 7250 675 L 2250 3175 M 7500 800 L 2500 3300 M 2500 -1700 L 7500 800 M 2250 -1575 L 7250 925 M 2000 -1450 L 7000 1050 M 1750 -1325 L 6750 1175 M 1500 -1200 L 6500 1300 M 1250 -1075 L 6250 1425 M 1000 -950 L 6000 1550 M 750 -825 L 5750 1675 M 500 -700 L 5500 1800 M 250 -575 L 5250 1925 M 0 -450 L 5000 2050 M -250 -325 L 4750 2175 M -500 -200 L 4500 2300 M -750 -75 L 4250 2425 M -1000 50 L 4000 2550 M -1250 175 L 3750 2675 M -1500 300 L 3500 2800 M -1750 425 L 3250 2925 M -2000 550 L 3000 3050 M -2250 675 L 2750 3175 M -2500 800 L 2500 3300 M 2500 -1700 L 7500 800 L 2500 3300 L -2500 800 Z M 2500 -1700 " transform="matrix(0.1,0,0,-0.1,0,160)"/>
<path style="fill:none;stroke-width:10;stroke-linecap:butt;stroke-linejoin:miter;stroke:rgb(0%,0%,0%);stroke-opacity:1;stroke-miterlimit:10;" d="M 1000 50 L 4000 1550 M 4000 50 L 1000 1550 " transform="matrix(0.1,0,0,-0.1,0,160)"/>
</g>
</g>
</svg>
