<?xml version="1.0" encoding="UTF-8"?>
<svg xmlns="http://www.w3.org/2000/svg" xmlns:xlink="http://www.w3.org/1999/xlink" width="120pt" height="110pt" viewBox="0 0 120 110" version="1.1">
<g id="surface1">
<path style=" stroke:none;fill-rule:nonzero;fill:rgb(77.929688%,77.929688%,77.929688%);fill-opacity:1;" d="M 61.875 61.125 L 18.125 104.875 L 18.125 82.476562 L 61.875 38.726562 "/>
<path style="fill:none;stroke-width:10;stroke-linecap:round;stroke-linejoin:round;stroke:rgb(59.959412%,59.959412%,59.959412%);stroke-opacity:1;stroke-miterlimit:10;" d="M 618.75 488.75 L 181.25 51.25 L 181.25 275.234375 L 618.75 712.734375 Z M 618.75 488.75 " transform="matrix(0.1,0,0,-0.1,0,110)"/>
<path style=" stroke:none;fill-rule:nonzero;fill:rgb(69.921875%,69.921875%,69.921875%);fill-opacity:1;" d="M 49.375 42.226562 L 114.375 24.023438 L 70.625 67.773438 L 5.625 85.976562 "/>
<path style="fill:none;stroke-width:10;stroke-linecap:round;stroke-linejoin:round;stroke:rgb(59.959412%,59.959412%,59.959412%);stroke-opacity:1;stroke-miterlimit:10;" d="M 493.75 677.734375 L 1143.75 859.765625 L 706.25 422.265625 L 56.25 240.234375 Z M 493.75 677.734375 " transform="matrix(0.1,0,0,-0.1,0,110)"/>
<path style=" stroke:none;fill-rule:nonzero;fill:rgb(77.929688%,77.929688%,77.929688%);fill-opacity:1;" d="M 61.875 38.726562 L 18.125 82.476562 L 18.125 62.875 L 61.875 19.125 "/>
<path style="fill:none;stroke-width:10;stroke-linecap:round;stroke-linejoin:round;stroke:rgb(59.959412%,59.959412%,59.959412%);stroke-opacity:1;stroke-miterlimit:10;" d="M 618.75 712.734375 L 181.25 275.234375 L 181.25 471.25 L 618.75 908.75 Z M 618.75 712.734375 " transform="matrix(0.1,0,0,-0.1,0,110)"/>
<path style=" stroke:none;fill-rule:nonzero;fill:rgb(84.959412%,84.959412%,84.959412%);fill-opacity:1;" d="M 49.375 10.375 L 114.375 55.875 L 70.625 99.625 L 5.625 54.125 "/>
<path style="fill:none;stroke-width:10;stroke-linecap:round;stroke-linejoin:round;stroke:rgb(69.921875%,69.921875%,69.921875%);stroke-opacity:1;stroke-miterlimit:10;" d="M 493.75 996.25 L 1143.75 541.25 L 706.25 103.75 L 56.25 558.75 Z M 493.75 996.25 " transform="matrix(0.1,0,0,-0.1,0,110)"/>
<path style=" stroke:none;fill-rule:nonzero;fill:rgb(69.921875%,69.921875%,69.921875%);fill-opacity:1;" d="M 81.875 33.125 L 114.375 24.023438 L 70.625 67.773438 L 38.125 76.875 "/>
<path style="fill:none;stroke-width:10;stroke-linecap:round;stroke-linejoin:round;stroke:rgb(59.959412%,59.959412%,59.959412%);stroke-opacity:1;stroke-miterlimit:10;" d="M 818.75 768.75 L 1143.75 859.765625 L 706.25 422.265625 L 381.25 331.25 Z M 818.75 768.75 " transform="matrix(0.1,0,0,-0.1,0,110)"/>
<path style=" stroke:none;fill-rule:nonzero;fill:rgb(77.929688%,77.929688%,77.929688%);fill-opacity:1;" d="M 61.875 19.125 L 18.125 62.875 L 18.125 48.875 L 61.875 5.125 "/>
<path style="fill:none;stroke-width:10;stroke-linecap:round;stroke-linejoin:round;stroke:rgb(59.959412%,59.959412%,59.959412%);stroke-opacity:1;stroke-miterlimit:10;" d="M 618.75 908.75 L 181.25 471.25 L 181.25 611.25 L 618.75 1048.75 Z M 618.75 908.75 " transform="matrix(0.1,0,0,-0.1,0,110)"/>
</g>
</svg>
