<?xml version="1.0" encoding="UTF-8"?>
<svg xmlns="http://www.w3.org/2000/svg" xmlns:xlink="http://www.w3.org/1999/xlink" width="160pt" height="160pt" viewBox="0 0 160 160" version="1.1">
<g id="surface1">
<path style="fill:none;stroke-width:10;stroke-linecap:butt;stroke-linejoin:miter;stroke:rgb(80.076599%,80.076599%,80.076599%);stroke-opacity:1;stroke-miterlimit:10;" d="M 50 50 L 50 1550 M 237.5 50 L 237.5 1550 M 425 50 L 425 1550 M 612.5 50 L 612.5 1550 M 800 50 L 800 1550 M 987.5 50 L 987.5 1550 M 1175 50 L 1175 1550 M 1362.5 50 L 1362.5 1550 M 1550 50 L 1550 1550 M 50 50 L 1550 50 M 50 237.5 L 1550 237.5 M 50 425 L 1550 425 M 50 612.5 L 1550 612.5 M 50 800 L 1550 800 M 50 987.5 L 1550 987.5 M 50 1175 L 1550 1175 M 50 1362.5 L 1550 1362.5 M 50 1550 L 1550 1550 " transform="matrix(0.1,0,0,-0.1,0,160)"/>
<path style="fill:none;stroke-width:10;stroke-linecap:butt;stroke-linejoin:miter;stroke:rgb(0%,0%,0%);stroke-opacity:1;stroke-miterlimit:10;" d="M 50 800 L 1550 800 M 800 50 L 800 1550 " transform="matrix(0.1,0,0,-0.1,0,160)"/>
<path style="fill:none;stroke-width:20;stroke-linecap:butt;stroke-linejoin:miter;stroke:rgb(0%,0%,100%);stroke-opacity:1;stroke-miterlimit:10;" d="M 50 425 L 1550 1175 " transform="matrix(0.1,0,0,-0.1,0,160)"/>
</g>
</svg>
